<svg width="24" height="24" viewBox="0 0 24 24" fill="none" xmlns="http://www.w3.org/2000/svg">
<path d="M7 9C7 6.23858 9.23858 4 12 4C14.7614 4 17 6.23858 17 9C17 10.4811 16.356 11.8117 15.3328 12.7273C16.1967 13.1232 16.9838 13.6701 17.6569 14.3431C18.3997 15.086 18.989 15.9679 19.391 16.9385C19.7931 17.9091 20 18.9494 20 20H4C4 18.9494 4.20693 17.9091 4.60896 16.9385C5.011 15.9679 5.60028 15.086 6.34315 14.3431C7.01617 13.6701 7.80333 13.1232 8.66717 12.7273C7.64396 11.8117 7 10.4811 7 9Z" fill="#C9C7C5"/>
</svg>
