<svg width="24" height="24" viewBox="0 0 24 24" fill="none" xmlns="http://www.w3.org/2000/svg">
<path d="M21.9075 8.88011C21.4699 8.81654 21.0522 8.65507 20.6856 8.40771C20.3191 8.16034 20.013 7.83347 19.7903 7.45143C19.5675 7.06939 19.4339 6.64202 19.3992 6.20116C19.3645 5.76029 19.4297 5.31728 19.59 4.90511C19.6919 4.63566 19.7069 4.34107 19.6329 4.06266C19.559 3.78424 19.3997 3.53596 19.1775 3.35261C18.1965 2.52886 17.0799 1.88175 15.8775 1.44011C15.6037 1.3384 15.3048 1.32569 15.0233 1.4038C14.7419 1.48191 14.4923 1.64684 14.31 1.87511C14.0357 2.22585 13.6852 2.50953 13.2849 2.70462C12.8847 2.89972 12.4453 3.00111 12 3.00111C11.5548 3.00111 11.1153 2.89972 10.7151 2.70462C10.3149 2.50953 9.96431 2.22585 9.69002 1.87511C9.50778 1.64684 9.25816 1.48191 8.9767 1.4038C8.69525 1.32569 8.39633 1.3384 8.12252 1.44011C7.01227 1.84784 5.97421 2.43017 5.04752 3.16511C4.81392 3.35004 4.64567 3.60489 4.56739 3.89235C4.48912 4.17981 4.50493 4.48479 4.61252 4.76261C4.78558 5.18568 4.85709 5.64342 4.8213 6.09911C4.7855 6.55481 4.64341 6.99577 4.40642 7.38663C4.16942 7.77749 3.84412 8.10736 3.45661 8.34979C3.0691 8.59222 2.63017 8.74046 2.17502 8.78261C1.87952 8.81421 1.60198 8.93984 1.38325 9.14102C1.16452 9.3422 1.01616 9.60829 0.960016 9.90011C0.820364 10.5914 0.750016 11.2949 0.750016 12.0001C0.74899 12.5905 0.796651 13.18 0.892516 13.7626C0.940227 14.0638 1.08583 14.3409 1.3068 14.551C1.52778 14.7611 1.81182 14.8926 2.11502 14.9251C2.58016 14.9688 3.02808 15.1232 3.42129 15.3755C3.8145 15.6278 4.14156 15.9706 4.37509 16.3752C4.60862 16.7799 4.74182 17.2346 4.76356 17.7012C4.78529 18.1679 4.69493 18.633 4.50002 19.0576C4.37246 19.3338 4.34082 19.6447 4.41012 19.9409C4.47942 20.2371 4.64568 20.5017 4.88252 20.6926C5.8576 21.5014 6.96345 22.138 8.15252 22.5751C8.30457 22.6278 8.46411 22.6556 8.62502 22.6576C8.84564 22.6571 9.06294 22.6038 9.25869 22.502C9.45443 22.4002 9.62292 22.253 9.75002 22.0726C10.0173 21.6831 10.3757 21.3648 10.7939 21.1452C11.2121 20.9257 11.6776 20.8115 12.15 20.8126C12.6077 20.8132 13.0589 20.9206 13.4678 21.1263C13.8766 21.3321 14.2318 21.6304 14.505 21.9976C14.6867 22.2419 14.9442 22.4192 15.2372 22.502C15.5302 22.5847 15.8423 22.5682 16.125 22.4551C17.2123 22.0175 18.2245 21.4127 19.125 20.6626C19.3512 20.4756 19.5123 20.2216 19.5851 19.9373C19.6578 19.6529 19.6386 19.3528 19.53 19.0801C19.3536 18.6625 19.2767 18.2096 19.3053 17.7572C19.334 17.3047 19.4674 16.8651 19.6951 16.4731C19.9227 16.0811 20.2384 15.7473 20.6171 15.4982C20.9959 15.2491 21.4274 15.0914 21.8775 15.0376C22.1694 14.9972 22.4409 14.865 22.6526 14.66C22.8643 14.4551 23.0052 14.188 23.055 13.8976C23.1755 13.272 23.2407 12.6371 23.25 12.0001C23.2502 11.3282 23.1874 10.6578 23.0625 9.99761C23.0119 9.71359 22.873 9.45274 22.6657 9.25213C22.4583 9.05152 22.1931 8.92135 21.9075 8.88011ZM15.75 12.0001C15.75 12.7418 15.5301 13.4668 15.118 14.0835C14.706 14.7002 14.1203 15.1808 13.4351 15.4647C12.7499 15.7485 11.9959 15.8228 11.2684 15.6781C10.541 15.5334 9.87281 15.1762 9.34837 14.6518C8.82392 14.1273 8.46677 13.4591 8.32207 12.7317C8.17738 12.0043 8.25164 11.2503 8.53547 10.5651C8.8193 9.87983 9.29994 9.29416 9.91663 8.8821C10.5333 8.47005 11.2583 8.25011 12 8.25011C12.9946 8.25011 13.9484 8.6452 14.6517 9.34846C15.3549 10.0517 15.75 11.0056 15.75 12.0001Z" fill="#C9C7C5"/>
</svg>
