<svg width="20" height="20" viewBox="0 0 20 20" fill="none" xmlns="http://www.w3.org/2000/svg">
<path d="M9.00012 14.9999C9.00012 14.4476 9.44784 13.9999 10.0001 13.9999C10.5524 13.9999 11.0001 14.4476 11.0001 14.9999C11.0001 15.5522 10.5524 15.9999 10.0001 15.9999C9.44784 15.9999 9.00012 15.5522 9.00012 14.9999Z" fill="#C9C7C5"/>
<path fill-rule="evenodd" clip-rule="evenodd" d="M18.293 9.70699L17.0001 8.4141V12.9999C17.0001 16.8659 13.8661 19.9999 10.0001 19.9999C6.13408 19.9999 3.00008 16.8659 3.00008 12.9999V8.4141L1.70718 9.70699L0.292969 8.29278L6.46454 2.1212C8.41717 0.16858 11.583 0.168585 13.5356 2.12121L19.7072 8.29278L18.293 9.70699ZM10.0001 11.9999C8.34327 11.9999 7.00012 13.343 7.00012 14.9999C7.00012 16.6567 8.34327 17.9999 10.0001 17.9999C11.657 17.9999 13.0001 16.6567 13.0001 14.9999C13.0001 13.343 11.657 11.9999 10.0001 11.9999Z" fill="#C9C7C5"/>
</svg>
