<svg width="20" height="20" viewBox="0 0 20 20" fill="none" xmlns="http://www.w3.org/2000/svg">
    <path
        d="M7.50033 4.2189V3.33398H5.83366V4.65192C4.45085 5.21166 3.29859 6.22191 2.55887 7.50065H17.4418C16.7021 6.22191 15.5498 5.21166 14.167 4.65192V3.33398H12.5003V4.2189C12.2273 4.18485 11.9492 4.16732 11.667 4.16732H8.33366C8.05144 4.16732 7.77332 4.18485 7.50033 4.2189Z"
        fill="white" />
    <path fill-rule="evenodd" clip-rule="evenodd"
        d="M1.87702 9.16732C1.73991 9.70002 1.66699 10.2585 1.66699 10.834C1.66699 14.5159 4.65176 17.5007 8.33366 17.5007H11.667C15.3489 17.5007 18.3337 14.5159 18.3337 10.834C18.3337 10.2585 18.2607 9.70002 18.1236 9.16732H1.87702ZM9.16699 12.5007C9.16699 12.0404 9.54009 11.6673 10.0003 11.6673C10.4606 11.6673 10.8337 12.0404 10.8337 12.5007C10.8337 12.9609 10.4606 13.334 10.0003 13.334C9.54009 13.334 9.16699 12.9609 9.16699 12.5007ZM13.3337 11.6673C12.8734 11.6673 12.5003 12.0404 12.5003 12.5007C12.5003 12.9609 12.8734 13.334 13.3337 13.334C13.7939 13.334 14.167 12.9609 14.167 12.5007C14.167 12.0404 13.7939 11.6673 13.3337 11.6673ZM5.83366 12.5007C5.83366 12.0404 6.20676 11.6673 6.66699 11.6673C7.12723 11.6673 7.50033 12.0404 7.50033 12.5007C7.50033 12.9609 7.12723 13.334 6.66699 13.334C6.20676 13.334 5.83366 12.9609 5.83366 12.5007Z"
        fill="white" />
</svg>
