<svg width="343" height="230" viewBox="0 0 343 230" fill="none" xmlns="http://www.w3.org/2000/svg">
<g clip-path="url(#clip0_1_5207)">
<rect width="343" height="198" rx="32" fill="#928D86"/>
<circle cx="320" cy="8" r="57" fill="#ACA9A5"/>
<circle cx="333" cy="-2" r="116" stroke="#ACA9A5" stroke-width="20"/>
<circle cy="194" r="22" stroke="#ACA9A5" stroke-width="16"/>
<path fill-rule="evenodd" clip-rule="evenodd" d="M264.949 -6.28809C270.073 -6.28809 274.223 -2.12838 274.223 3.00734V38.8413C274.223 43.977 270.073 48.1367 264.949 48.1367C259.825 48.1367 255.675 43.977 255.675 38.8413V3.00734C255.652 -2.12838 259.825 -6.28809 264.949 -6.28809Z" fill="#5A554E"/>
<path d="M265.272 17.8339C275.145 17.8339 283.148 9.81223 283.148 -0.0830307C283.148 -9.97829 275.145 -18 265.272 -18C255.4 -18 247.396 -9.97829 247.396 -0.0830307C247.396 9.81223 255.4 17.8339 265.272 17.8339Z" fill="#736B66"/>
<path d="M227.21 151.321C234.861 143.652 234.861 131.219 227.21 123.551C219.559 115.882 207.154 115.882 199.504 123.551C191.853 131.219 191.853 143.652 199.504 151.321C207.154 158.989 219.559 158.989 227.21 151.321Z" fill="#5A554E"/>
<path d="M207.511 186.825H207.534C209.621 186.802 211.313 185.106 211.29 183.014L210.942 140.162C210.919 138.071 209.227 136.397 207.163 136.397H207.14C205.053 136.421 203.361 138.117 203.384 140.209L203.732 183.061C203.755 185.152 205.448 186.825 207.511 186.825Z" fill="#736B66"/>
<path fill-rule="evenodd" clip-rule="evenodd" d="M189.543 196.678L190.493 210.436C190.748 214.223 194.041 217.082 197.82 216.826C197.913 216.826 198.029 216.803 198.121 216.803C202.179 216.338 205.239 212.876 205.216 208.786L205.123 195.911C205.1 193.123 207.233 190.799 210.015 190.567C212.705 190.357 215.047 192.356 215.255 195.052C215.255 195.075 215.255 195.098 215.255 195.121L216.136 208.623C216.391 212.713 219.939 215.827 224.019 215.548C224.112 215.548 224.205 215.525 224.297 215.525C228.564 215.083 231.717 211.342 231.415 207.066L230.488 193.82C229.7 182.503 219.915 173.951 208.601 174.741C208.601 174.741 208.601 174.741 208.578 174.741C197.287 175.508 188.754 185.338 189.543 196.678Z" fill="#ACA9A5"/>
<path fill-rule="evenodd" clip-rule="evenodd" d="M221.978 25.4326H303.776C313.653 25.4326 321.652 33.4499 321.652 43.3496V95.6131C321.652 105.513 313.653 113.53 303.776 113.53H221.978C212.101 113.53 204.103 105.513 204.103 95.6131V43.3496C204.103 33.4499 212.101 25.4326 221.978 25.4326Z" fill="#736B66"/>
<path fill-rule="evenodd" clip-rule="evenodd" d="M225.155 39.2129H268.836C278.713 39.2129 286.712 47.2302 286.712 57.1299V57.3854C286.712 67.2851 278.713 75.3024 268.836 75.3024H225.155C215.278 75.3024 207.279 67.2851 207.279 57.3854V57.1299C207.279 47.2535 215.278 39.2129 225.155 39.2129Z" fill="#928D86"/>
<path d="M224.738 62.5919C227.376 62.5919 229.514 60.4486 229.514 57.8047C229.514 55.1608 227.376 53.0176 224.738 53.0176C222.1 53.0176 219.962 55.1608 219.962 57.8047C219.962 60.4486 222.1 62.5919 224.738 62.5919Z" fill="#3F3C36"/>
<path d="M264.987 62.5919C267.625 62.5919 269.763 60.4486 269.763 57.8047C269.763 55.1608 267.625 53.0176 264.987 53.0176C262.349 53.0176 260.211 55.1608 260.211 57.8047C260.211 60.4486 262.349 62.5919 264.987 62.5919Z" fill="#3F3C36"/>
<path d="M227.242 85.2498H269.764C270.9 85.2498 271.828 84.3202 271.828 83.1815C271.828 82.0428 270.9 81.1133 269.764 81.1133H227.242C226.106 81.1133 225.179 82.0428 225.179 83.1815C225.179 84.3434 226.106 85.2498 227.242 85.2498Z" fill="#3F3C36"/>
<path d="M319.589 92.1514C320.285 92.1514 320.934 91.8028 321.328 91.1754C321.931 90.1994 321.653 88.9212 320.679 88.317L311.753 82.6933C311.359 82.4377 311.104 81.9962 311.104 81.5314V59.2224C311.104 58.7343 311.359 58.2928 311.776 58.0372L320.633 52.7853C321.606 52.2043 321.931 50.9262 321.351 49.9501C320.772 48.9741 319.497 48.6488 318.523 49.2298L309.666 54.4817C307.997 55.4809 306.977 57.2936 306.977 59.2224V81.5314C306.977 83.437 307.927 85.1798 309.55 86.2023L318.476 91.8261C318.847 92.0585 319.218 92.1514 319.589 92.1514Z" fill="#736B66"/>
<path fill-rule="evenodd" clip-rule="evenodd" d="M237.536 119.897H290.491C299.603 119.897 306.999 127.311 306.999 136.443V182.618C306.999 191.751 299.603 199.164 290.491 199.164H237.536C228.424 199.164 221.028 191.751 221.028 182.618V136.443C221.052 127.311 228.424 119.897 237.536 119.897Z" fill="#736B66"/>
<path fill-rule="evenodd" clip-rule="evenodd" d="M277.808 132.954L253.619 132.547C242.846 132.357 233.946 140.961 233.766 151.745C233.563 162.534 242.144 171.436 252.94 171.622L277.129 172.029C287.902 172.219 296.802 163.615 296.982 152.831C297.158 142.023 288.604 133.14 277.808 132.954Z" fill="#3F3C36"/>
<path fill-rule="evenodd" clip-rule="evenodd" d="M272.054 132.509L248.338 132.112C237.424 131.923 228.445 140.612 228.243 151.542C228.243 151.542 228.243 151.542 228.247 151.565C228.045 162.494 236.738 171.495 247.652 171.683L271.368 172.08C282.282 172.268 291.262 163.58 291.463 152.65C291.463 152.65 291.463 152.65 291.459 152.627C291.661 141.698 282.969 132.697 272.054 132.509Z" fill="#928D86"/>
<path d="M271.474 162.236C276.539 162.235 280.698 158.15 280.794 153.062C280.879 147.905 276.788 143.654 271.635 143.553L271.494 143.554C269.015 143.522 266.655 144.435 264.862 146.168C263.07 147.9 262.064 150.225 262.01 152.734C261.926 157.891 266.016 162.142 271.169 162.243L271.31 162.242C271.356 162.234 271.406 162.249 271.474 162.236ZM271.56 147.693C274.421 147.752 276.722 150.128 276.66 152.992C276.616 155.83 274.283 158.107 271.457 158.112C271.434 158.116 271.389 158.124 271.362 158.106L271.221 158.107C268.36 158.048 266.059 155.673 266.122 152.808C266.136 151.414 266.708 150.11 267.718 149.152C268.728 148.195 270.046 147.655 271.419 147.695L271.56 147.693Z" fill="#736B66"/>
<path d="M255.858 149.987C256.963 149.98 257.87 149.112 257.91 147.997C257.946 146.859 257.072 145.906 255.932 145.849L242.329 145.358C241.17 145.328 240.24 146.2 240.181 147.342C240.145 148.48 241.019 149.433 242.16 149.49L255.762 149.98C255.812 149.995 255.835 149.991 255.858 149.987Z" fill="#736B66"/>
<path d="M255.974 157.548C257.032 157.487 257.876 156.618 257.911 155.559C257.953 154.428 257.06 153.471 255.93 153.43L248.098 153.171C246.946 153.136 246.012 154.026 245.97 155.158C245.928 156.289 246.821 157.246 247.951 157.287L255.783 157.546C255.856 157.552 255.924 157.536 255.974 157.548Z" fill="#736B66"/>
<path d="M330.36 151.321C338.011 143.652 338.011 131.219 330.36 123.551C322.709 115.882 310.305 115.882 302.654 123.551C295.003 131.219 295.003 143.652 302.654 151.321C310.305 158.989 322.709 158.989 330.36 151.321Z" fill="#5A554E"/>
<path d="M316.852 184.06H316.875C318.962 184.036 320.654 182.34 320.631 180.248L320.283 137.396C320.26 135.305 318.568 133.632 316.504 133.632H316.481C314.394 133.655 312.702 135.351 312.725 137.443L313.073 180.295C313.096 182.386 314.788 184.06 316.852 184.06Z" fill="#736B66"/>
<path fill-rule="evenodd" clip-rule="evenodd" d="M298.884 193.914L299.835 207.671C300.09 211.459 303.382 214.317 307.162 214.062C307.254 214.062 307.37 214.038 307.463 214.038C311.52 213.573 314.581 210.111 314.558 206.021L314.465 193.147C314.442 190.358 316.575 188.034 319.357 187.802C322.047 187.593 324.388 189.591 324.597 192.287C324.597 192.31 324.597 192.333 324.597 192.357L325.478 205.858C325.733 209.948 329.28 213.062 333.361 212.783C333.454 212.783 333.547 212.76 333.639 212.76C337.905 212.319 341.059 208.577 340.757 204.301L339.83 191.055C339.041 179.738 329.257 171.186 317.943 171.976C317.943 171.976 317.943 171.976 317.92 171.976C306.628 172.743 298.096 182.573 298.884 193.914Z" fill="#ACA9A5"/>
<path fill-rule="evenodd" clip-rule="evenodd" d="M224.189 14H190.811C185.383 14 181 18.4058 181 23.8334V43.9116C181 49.3525 185.396 53.745 190.811 53.745H200.436L213.094 61.7206C214.378 62.5301 216.073 62.1452 216.881 60.858C217.159 60.4201 217.304 59.9158 217.304 59.3982V53.7583H224.189C229.618 53.7583 234 49.3525 234 43.9249V23.8467C234.013 18.4058 229.618 14 224.189 14Z" fill="#C9C7C5"/>
<circle cx="195" cy="34" r="4" fill="#736B66"/>
<circle cx="207" cy="34" r="4" fill="#736B66"/>
<circle cx="219" cy="34" r="4" fill="#736B66"/>
</g>
<defs>
<clipPath id="clip0_1_5207">
<rect width="343" height="198" rx="32" fill="white"/>
</clipPath>
</defs>
</svg>
