<svg width="18" height="12" viewBox="0 0 18 12" fill="none" xmlns="http://www.w3.org/2000/svg">
<path d="M16.1282 2.44869C15.3465 1.42994 14.2505 0.697588 13.0101 0.365234L12.5787 1.97511C13.4647 2.21251 14.2476 2.73561 14.806 3.4633C15.193 3.96763 15.4571 4.5507 15.5828 5.16647L0.666992 5.16647V6.83314L15.5828 6.83313C15.4571 7.4489 15.193 8.03197 14.806 8.53631C14.2476 9.26399 13.4647 9.7871 12.5787 10.0245L13.0101 11.6344C14.2505 11.302 15.3465 10.5697 16.1282 9.55091C16.9099 8.53215 17.3337 7.28392 17.3337 5.9998C17.3337 4.71569 16.9099 3.46745 16.1282 2.44869Z" fill="#C9C7C5"/>
</svg>
