<svg width="64" height="64" viewBox="0 0 64 64" fill="none" xmlns="http://www.w3.org/2000/svg">
<rect width="64" height="64" rx="24" fill="#F2F5EB"/>
<path fill-rule="evenodd" clip-rule="evenodd" d="M22 32C22 26.4772 26.4772 22 32 22C37.5228 22 42 26.4772 42 32C42 37.5228 37.5228 42 32 42C26.4772 42 22 37.5228 22 32ZM30.3067 25.6706C29.6889 27.9762 30.0123 30.4328 31.2058 32.5C32.3992 34.5672 34.365 36.0755 36.6706 36.6933L37.1883 34.7615C35.395 34.281 33.8661 33.1078 32.9378 31.5C32.0096 29.8922 31.758 27.9815 32.2385 26.1883L30.3067 25.6706Z" fill="#9BB168"/>
</svg>
