<svg width="313" height="186" viewBox="0 0 313 186" fill="none" xmlns="http://www.w3.org/2000/svg">
<rect width="16" height="137" rx="8" fill="#E5EAD7"/>
<rect y="121" width="16" height="16" rx="8" fill="#9BB168"/>
<rect x="27" width="16" height="137" rx="8" fill="#E5EAD7"/>
<rect x="27" y="112" width="16" height="25" rx="8" fill="#9BB168"/>
<rect x="54" width="16" height="137" rx="8" fill="#E5EAD7"/>
<rect x="54" y="90" width="16" height="47" rx="8" fill="#9BB168"/>
<rect x="81" width="16" height="137" rx="8" fill="#E5EAD7"/>
<rect x="81" y="57" width="16" height="80" rx="8" fill="#9BB168"/>
<rect x="108" width="16" height="137" rx="8" fill="#E5EAD7"/>
<rect x="108" y="25" width="16" height="112" rx="8" fill="#9BB168"/>
<rect x="135" width="16" height="137" rx="8" fill="#E5EAD7"/>
<rect x="135" y="56" width="16" height="81" rx="8" fill="#9BB168"/>
<rect x="162" width="16" height="137" rx="8" fill="#FFEEE2"/>
<rect x="162" y="121" width="16" height="16" rx="8" fill="#ED7E1C"/>
<rect x="189" width="16" height="137" rx="8" fill="#FFEEE2"/>
<rect x="189" y="68" width="16" height="69" rx="8" fill="#ED7E1C"/>
<rect x="216" width="16" height="137" rx="8" fill="#FFEEE2"/>
<rect x="216" y="101" width="16" height="36" rx="8" fill="#ED7E1C"/>
<rect x="243" width="16" height="137" rx="8" fill="#E5EAD7"/>
<rect x="243" y="89" width="16" height="48" rx="8" fill="#9BB168"/>
<rect x="270" width="16" height="137" rx="8" fill="#E5EAD7"/>
<rect x="270" y="107" width="16" height="30" rx="8" fill="#9BB168"/>
<rect x="297" width="16" height="137" rx="8" fill="#E5EAD7"/>
<rect x="297" y="121" width="16" height="16" rx="8" fill="#9BB168"/>
<path d="M5.5 160H301.5" stroke="#C0A091"/>
<rect x="1.5" y="156" width="8" height="8" rx="4" fill="#D6C2B8"/>
<rect x="297.5" y="156" width="8" height="8" rx="4" fill="#D6C2B8"/>
<path d="M3.63 183.156C3.142 183.156 2.698 183.044 2.298 182.82C1.898 182.592 1.552 182.278 1.26 181.878C0.972 181.478 0.75 181.016 0.594 180.492C0.438 179.964 0.36 179.4 0.36 178.8C0.36 178.2 0.438 177.638 0.594 177.114C0.75 176.586 0.972 176.122 1.26 175.722C1.552 175.322 1.898 175.01 2.298 174.786C2.698 174.558 3.142 174.444 3.63 174.444C4.118 174.444 4.562 174.558 4.962 174.786C5.362 175.01 5.704 175.322 5.988 175.722C6.276 176.122 6.498 176.586 6.654 177.114C6.814 177.638 6.894 178.2 6.894 178.8C6.894 179.4 6.814 179.964 6.654 180.492C6.498 181.016 6.276 181.478 5.988 181.878C5.704 182.278 5.362 182.592 4.962 182.82C4.562 183.044 4.118 183.156 3.63 183.156ZM3.63 181.692C4.058 181.692 4.412 181.556 4.692 181.284C4.972 181.012 5.18 180.656 5.316 180.216C5.452 179.776 5.52 179.304 5.52 178.8C5.52 178.268 5.448 177.784 5.304 177.348C5.16 176.908 4.948 176.558 4.668 176.298C4.388 176.038 4.042 175.908 3.63 175.908C3.306 175.908 3.024 175.988 2.784 176.148C2.548 176.304 2.352 176.518 2.196 176.79C2.04 177.062 1.924 177.372 1.848 177.72C1.772 178.064 1.734 178.424 1.734 178.8C1.734 179.3 1.802 179.772 1.938 180.216C2.078 180.656 2.288 181.012 2.568 181.284C2.852 181.556 3.206 181.692 3.63 181.692ZM8.97591 183L10.5899 180.21C10.1939 180.234 9.81591 180.18 9.45591 180.048C9.09991 179.916 8.78191 179.72 8.50191 179.46C8.22191 179.2 7.99991 178.892 7.83591 178.536C7.67591 178.18 7.59591 177.794 7.59591 177.378C7.59591 176.974 7.67191 176.596 7.82391 176.244C7.97591 175.888 8.18591 175.576 8.45391 175.308C8.72591 175.036 9.03791 174.824 9.38991 174.672C9.74591 174.52 10.1279 174.444 10.5359 174.444C11.0679 174.444 11.5539 174.576 11.9939 174.84C12.4379 175.104 12.7919 175.458 13.0559 175.902C13.3239 176.346 13.4579 176.838 13.4579 177.378C13.4579 177.646 13.4239 177.9 13.3559 178.14C13.2919 178.376 13.1899 178.616 13.0499 178.86L10.6679 183H8.97591ZM10.5239 178.848C10.8119 178.848 11.0659 178.778 11.2859 178.638C11.5099 178.498 11.6839 178.316 11.8079 178.092C11.9319 177.868 11.9939 177.628 11.9939 177.372C11.9939 177.092 11.9259 176.842 11.7899 176.622C11.6539 176.398 11.4739 176.224 11.2499 176.1C11.0259 175.972 10.7879 175.908 10.5359 175.908C10.2479 175.908 9.99191 175.978 9.76791 176.118C9.54791 176.254 9.37391 176.434 9.24591 176.658C9.11791 176.882 9.05391 177.12 9.05391 177.372C9.05391 177.64 9.11791 177.886 9.24591 178.11C9.37791 178.334 9.55391 178.514 9.77391 178.65C9.99791 178.782 10.2479 178.848 10.5239 178.848ZM18.6127 183.156C18.3047 183.156 18.0027 183.104 17.7067 183C17.4147 182.896 17.1487 182.742 16.9087 182.538L17.8447 181.41C17.9327 181.482 18.0407 181.548 18.1687 181.608C18.2967 181.664 18.4447 181.692 18.6127 181.692C18.8327 181.692 19.0327 181.636 19.2127 181.524C19.3927 181.408 19.5367 181.258 19.6447 181.074C19.7567 180.886 19.8127 180.682 19.8127 180.462V174.6H21.2767V180.462C21.2767 180.954 21.1567 181.404 20.9167 181.812C20.6767 182.216 20.3547 182.542 19.9507 182.79C19.5467 183.034 19.1007 183.156 18.6127 183.156ZM27.2267 177H28.6907V183H27.2267L27.1607 182.256C26.9967 182.524 26.7787 182.742 26.5067 182.91C26.2387 183.074 25.9207 183.156 25.5527 183.156C25.1087 183.156 24.6927 183.072 24.3047 182.904C23.9167 182.736 23.5747 182.504 23.2787 182.208C22.9867 181.912 22.7567 181.57 22.5887 181.182C22.4247 180.794 22.3427 180.378 22.3427 179.934C22.3427 179.506 22.4207 179.104 22.5767 178.728C22.7367 178.352 22.9587 178.022 23.2427 177.738C23.5267 177.454 23.8547 177.232 24.2267 177.072C24.5987 176.912 24.9987 176.832 25.4267 176.832C25.8227 176.832 26.1767 176.92 26.4887 177.096C26.8047 177.272 27.0727 177.496 27.2927 177.768L27.2267 177ZM25.5167 181.746C25.8287 181.746 26.1047 181.668 26.3447 181.512C26.5847 181.356 26.7727 181.146 26.9087 180.882C27.0447 180.614 27.1127 180.32 27.1127 180C27.1127 179.676 27.0447 179.382 26.9087 179.118C26.7727 178.85 26.5827 178.638 26.3387 178.482C26.0987 178.326 25.8247 178.248 25.5167 178.248C25.2087 178.248 24.9267 178.328 24.6707 178.488C24.4187 178.644 24.2167 178.854 24.0647 179.118C23.9167 179.382 23.8427 179.676 23.8427 180C23.8427 180.324 23.9187 180.618 24.0707 180.882C24.2227 181.146 24.4247 181.356 24.6767 181.512C24.9327 181.668 25.2127 181.746 25.5167 181.746ZM35.3643 179.208V183H33.9003V179.592C33.9003 179.356 33.8423 179.142 33.7263 178.95C33.6103 178.754 33.4543 178.6 33.2583 178.488C33.0663 178.372 32.8523 178.314 32.6163 178.314C32.3803 178.314 32.1643 178.372 31.9683 178.488C31.7763 178.6 31.6223 178.754 31.5063 178.95C31.3943 179.142 31.3383 179.356 31.3383 179.592V183H29.8743L29.8683 177H31.3323L31.3383 177.534C31.5423 177.318 31.7863 177.148 32.0703 177.024C32.3543 176.896 32.6603 176.832 32.9883 176.832C33.4243 176.832 33.8223 176.94 34.1823 177.156C34.5423 177.368 34.8283 177.654 35.0403 178.014C35.2563 178.37 35.3643 178.768 35.3643 179.208Z" fill="#736B66"/>
<path d="M274.72 183.156C274.232 183.156 273.788 183.044 273.388 182.82C272.988 182.592 272.642 182.278 272.35 181.878C272.062 181.478 271.84 181.016 271.684 180.492C271.528 179.964 271.45 179.4 271.45 178.8C271.45 178.2 271.528 177.638 271.684 177.114C271.84 176.586 272.062 176.122 272.35 175.722C272.642 175.322 272.988 175.01 273.388 174.786C273.788 174.558 274.232 174.444 274.72 174.444C275.208 174.444 275.652 174.558 276.052 174.786C276.452 175.01 276.794 175.322 277.078 175.722C277.366 176.122 277.588 176.586 277.744 177.114C277.904 177.638 277.984 178.2 277.984 178.8C277.984 179.4 277.904 179.964 277.744 180.492C277.588 181.016 277.366 181.478 277.078 181.878C276.794 182.278 276.452 182.592 276.052 182.82C275.652 183.044 275.208 183.156 274.72 183.156ZM274.72 181.692C275.148 181.692 275.502 181.556 275.782 181.284C276.062 181.012 276.27 180.656 276.406 180.216C276.542 179.776 276.61 179.304 276.61 178.8C276.61 178.268 276.538 177.784 276.394 177.348C276.25 176.908 276.038 176.558 275.758 176.298C275.478 176.038 275.132 175.908 274.72 175.908C274.396 175.908 274.114 175.988 273.874 176.148C273.638 176.304 273.442 176.518 273.286 176.79C273.13 177.062 273.014 177.372 272.938 177.72C272.862 178.064 272.824 178.424 272.824 178.8C272.824 179.3 272.892 179.772 273.028 180.216C273.168 180.656 273.378 181.012 273.658 181.284C273.942 181.556 274.296 181.692 274.72 181.692ZM280.066 183L281.68 180.21C281.284 180.234 280.906 180.18 280.546 180.048C280.19 179.916 279.872 179.72 279.592 179.46C279.312 179.2 279.09 178.892 278.926 178.536C278.766 178.18 278.686 177.794 278.686 177.378C278.686 176.974 278.762 176.596 278.914 176.244C279.066 175.888 279.276 175.576 279.544 175.308C279.816 175.036 280.128 174.824 280.48 174.672C280.836 174.52 281.218 174.444 281.626 174.444C282.158 174.444 282.644 174.576 283.084 174.84C283.528 175.104 283.882 175.458 284.146 175.902C284.414 176.346 284.548 176.838 284.548 177.378C284.548 177.646 284.514 177.9 284.446 178.14C284.382 178.376 284.28 178.616 284.14 178.86L281.758 183H280.066ZM281.614 178.848C281.902 178.848 282.156 178.778 282.376 178.638C282.6 178.498 282.774 178.316 282.898 178.092C283.022 177.868 283.084 177.628 283.084 177.372C283.084 177.092 283.016 176.842 282.88 176.622C282.744 176.398 282.564 176.224 282.34 176.1C282.116 175.972 281.878 175.908 281.626 175.908C281.338 175.908 281.082 175.978 280.858 176.118C280.638 176.254 280.464 176.434 280.336 176.658C280.208 176.882 280.144 177.12 280.144 177.372C280.144 177.64 280.208 177.886 280.336 178.11C280.468 178.334 280.644 178.514 280.864 178.65C281.088 178.782 281.338 178.848 281.614 178.848ZM288.479 183V174.6H293.441V176.064H289.943V177.768H292.865V179.232H289.943V183H288.479ZM296.456 183.156C295.904 183.156 295.4 183.014 294.944 182.73C294.492 182.446 294.13 182.064 293.858 181.584C293.59 181.104 293.456 180.574 293.456 179.994C293.456 179.558 293.534 179.15 293.69 178.77C293.846 178.386 294.06 178.05 294.332 177.762C294.608 177.47 294.928 177.242 295.292 177.078C295.656 176.914 296.044 176.832 296.456 176.832C296.924 176.832 297.352 176.932 297.74 177.132C298.132 177.328 298.464 177.598 298.736 177.942C299.008 178.286 299.206 178.678 299.33 179.118C299.454 179.558 299.482 180.018 299.414 180.498H295.028C295.084 180.722 295.176 180.924 295.304 181.104C295.432 181.28 295.594 181.422 295.79 181.53C295.986 181.634 296.208 181.688 296.456 181.692C296.712 181.696 296.944 181.636 297.152 181.512C297.364 181.384 297.54 181.212 297.68 180.996L299.174 181.344C298.93 181.876 298.566 182.312 298.082 182.652C297.598 182.988 297.056 183.156 296.456 183.156ZM294.98 179.4H297.932C297.888 179.16 297.794 178.944 297.65 178.752C297.51 178.556 297.336 178.4 297.128 178.284C296.92 178.168 296.696 178.11 296.456 178.11C296.216 178.11 295.994 178.168 295.79 178.284C295.586 178.396 295.412 178.55 295.268 178.746C295.128 178.938 295.032 179.156 294.98 179.4ZM303.471 176.832C304.055 176.832 304.587 176.974 305.067 177.258C305.547 177.542 305.929 177.924 306.213 178.404C306.497 178.88 306.639 179.408 306.639 179.988C306.639 180.424 306.557 180.834 306.393 181.218C306.229 181.602 306.001 181.94 305.709 182.232C305.421 182.52 305.085 182.746 304.701 182.91C304.321 183.074 303.911 183.156 303.471 183.156C303.095 183.156 302.761 183.072 302.469 182.904C302.181 182.732 301.939 182.51 301.743 182.238V183H300.279V174H301.743V177.75C301.939 177.478 302.181 177.258 302.469 177.09C302.761 176.918 303.095 176.832 303.471 176.832ZM303.453 181.74C303.765 181.74 304.047 181.662 304.299 181.506C304.555 181.346 304.759 181.134 304.911 180.87C305.063 180.606 305.139 180.312 305.139 179.988C305.139 179.668 305.063 179.376 304.911 179.112C304.759 178.844 304.555 178.632 304.299 178.476C304.043 178.32 303.761 178.242 303.453 178.242C303.149 178.242 302.877 178.322 302.637 178.482C302.397 178.638 302.209 178.85 302.073 179.118C301.937 179.382 301.869 179.672 301.869 179.988C301.869 180.312 301.937 180.608 302.073 180.876C302.209 181.14 302.397 181.35 302.637 181.506C302.877 181.662 303.149 181.74 303.453 181.74Z" fill="#736B66"/>
</svg>
