<svg width="20" height="20" viewBox="0 0 20 20" fill="none" xmlns="http://www.w3.org/2000/svg">
<path fill-rule="evenodd" clip-rule="evenodd" d="M10.0003 1.66699C6.77866 1.66699 4.16699 4.27866 4.16699 7.50033C4.16699 9.48364 5.15714 11.2349 6.66699 12.288V12.5003C6.66699 14.3413 8.15938 15.8337 10.0003 15.8337C11.8413 15.8337 13.3337 14.3413 13.3337 12.5003V12.288C14.8435 11.2349 15.8337 9.48364 15.8337 7.50033C15.8337 4.27866 13.222 1.66699 10.0003 1.66699ZM10.5896 8.08958C10.7459 7.9333 10.8337 7.72134 10.8337 7.50033H12.5003C12.5003 8.16337 12.2369 8.79925 11.7681 9.26809C11.2993 9.73693 10.6634 10.0003 10.0003 10.0003C9.33728 10.0003 8.7014 9.73693 8.23256 9.26809C7.76372 8.79925 7.50033 8.16337 7.50033 7.50033L9.16699 7.50033C9.16699 7.72134 9.25479 7.9333 9.41107 8.08958C9.56735 8.24586 9.77931 8.33366 10.0003 8.33366C10.2213 8.33366 10.4333 8.24586 10.5896 8.08958Z" fill="white"/>
<path d="M12.5003 18.3337V16.667H7.50033V18.3337H12.5003Z" fill="white"/>
</svg>
