<svg width="24" height="24" viewBox="0 0 24 24" fill="none" xmlns="http://www.w3.org/2000/svg">
    <path
        d="M14 6V18C14 19.1046 13.1046 20 12 20C10.8954 20 10 19.1046 10 18V6C10 4.89543 10.8954 4 12 4C13.1046 4 14 4.89543 14 6Z"
        fill="#C9C7C5" />
    <path
        d="M20 18V11C20 9.89543 19.1046 9 18 9C16.8954 9 16 9.89543 16 11V18C16 19.1046 16.8954 20 18 20C19.1046 20 20 19.1046 20 18Z"
        fill="#C9C7C5" />
    <path
        d="M8 18V15C8 13.8954 7.10457 13 6 13C4.89543 13 4 13.8954 4 15V18C4 19.1046 4.89543 20 6 20C7.10457 20 8 19.1046 8 18Z"
        fill="#C9C7C5" />
</svg>
