<svg width="64" height="64" viewBox="0 0 64 64" fill="none" xmlns="http://www.w3.org/2000/svg">
<rect width="64" height="64" rx="24" fill="#F7F4F2"/>
<path fill-rule="evenodd" clip-rule="evenodd" d="M22 32C22 26.4772 26.4772 22 32 22C37.5228 22 42 26.4772 42 32C42 37.5228 37.5228 42 32 42C26.4772 42 22 37.5228 22 32ZM28.5 31C29.3284 31 30 30.3284 30 29.5C30 28.6716 29.3284 28 28.5 28C27.6716 28 27 28.6716 27 29.5C27 30.3284 27.6716 31 28.5 31ZM35.5 31C36.3284 31 37 30.3284 37 29.5C37 28.6716 36.3284 28 35.5 28C34.6716 28 34 28.6716 34 29.5C34 30.3284 34.6716 31 35.5 31ZM29 37.1962C29.9121 37.7228 30.9468 38 32 38C33.0532 38 34.0879 37.7228 35 37.1962C35.9121 36.6695 36.6695 35.9121 37.1961 35L35.4641 34C35.113 34.6081 34.6081 35.113 34 35.4641C33.3919 35.8152 32.7021 36 32 36C31.2978 36 30.6081 35.8152 30 35.4641C29.3919 35.113 28.887 34.6081 28.5359 34L26.8038 35C27.3304 35.9121 28.0879 36.6695 29 37.1962Z" fill="#926247"/>
</svg>
