<svg width="129" height="91" viewBox="0 0 129 91" fill="none" xmlns="http://www.w3.org/2000/svg">
<rect y="83" width="8" height="8" rx="4" fill="#F6A460"/>
<rect x="11" y="75" width="8" height="16" rx="4" fill="#F6A460"/>
<rect x="22" y="55" width="8" height="36" rx="4" fill="#F6A460"/>
<rect x="33" y="62" width="8" height="29" rx="4" fill="#FFEEE2"/>
<rect x="44" y="39" width="8" height="52" rx="4" fill="#FFEEE2"/>
<rect x="55" width="8" height="91" rx="4" fill="#FFEEE2"/>
<rect x="66" y="27" width="8" height="64" rx="4" fill="#FFEEE2"/>
<rect x="77" y="50" width="8" height="41" rx="4" fill="#FFEEE2"/>
<rect x="88" y="60" width="8" height="31" rx="4" fill="#F6A460"/>
<rect x="99" y="83" width="8" height="8" rx="4" fill="#F6A460"/>
<rect x="110" y="83" width="8" height="8" rx="4" fill="#F6A460"/>
<rect x="121" y="83" width="8" height="8" rx="4" fill="#F6A460"/>
</svg>
