<svg width="24" height="24" viewBox="0 0 24 24" fill="none" xmlns="http://www.w3.org/2000/svg">
<path fill-rule="evenodd" clip-rule="evenodd" d="M2 12C2 6.47715 6.47715 2 12 2C17.5228 2 22 6.47715 22 12C22 17.5228 17.5228 22 12 22C6.47715 22 2 17.5228 2 12ZM8.5 11C9.32843 11 10 10.3284 10 9.5C10 8.67157 9.32843 8 8.5 8C7.67157 8 7 8.67157 7 9.5C7 10.3284 7.67157 11 8.5 11ZM17 9.5C17 10.3284 16.3284 11 15.5 11C14.6716 11 14 10.3284 14 9.5C14 8.67157 14.6716 8 15.5 8C16.3284 8 17 8.67157 17 9.5ZM12 13C10.9468 13 9.91211 13.2772 9 13.8038C8.08788 14.3305 7.33046 15.0879 6.80385 16L8.5359 17C8.88697 16.3919 9.39192 15.887 10 15.5359C10.6081 15.1848 11.2979 15 12 15C12.7021 15 13.3919 15.1848 14 15.5359C14.6081 15.887 15.113 16.3919 15.4641 17L17.1962 16C16.6695 15.0879 15.9121 14.3305 15 13.8038C14.0879 13.2772 13.0532 13 12 13Z" fill="white"/>
</svg>
