<svg width="14" height="18" viewBox="0 0 14 18" fill="none" xmlns="http://www.w3.org/2000/svg">
<path fill-rule="evenodd" clip-rule="evenodd" d="M8 1.08296V0H6V1.08296C3.16229 1.55904 1 4.027 1 7V13H0V15H3.12701C3.30416 15.686 3.66203 16.3189 4.17158 16.8284C4.92172 17.5786 5.93914 18 7 18C8.06087 18 9.07828 17.5786 9.82843 16.8284C10.338 16.3189 10.6958 15.686 10.873 15H14V13H13V7C13 4.027 10.8377 1.55904 8 1.08296ZM8.73206 15C8.6454 15.1501 8.53889 15.2895 8.41421 15.4142C8.03914 15.7893 7.53043 16 7 16C6.46957 16 5.96086 15.7893 5.58579 15.4142C5.46111 15.2895 5.3546 15.1501 5.26795 15L8.73206 15Z" fill="white"/>
</svg>
