<svg width="18" height="18" viewBox="0 0 18 18" fill="none" xmlns="http://www.w3.org/2000/svg">
<path d="M9.00033 7.33366C10.8413 7.33366 12.3337 5.84127 12.3337 4.00033C12.3337 2.15938 10.8413 0.666992 9.00033 0.666992C7.15938 0.666992 5.66699 2.15938 5.66699 4.00033C5.66699 5.84127 7.15938 7.33366 9.00033 7.33366Z" fill="#ED7E1C"/>
<path d="M9.00033 17.3337C10.8413 17.3337 12.3337 15.8413 12.3337 14.0003C12.3337 12.1594 10.8413 10.667 9.00033 10.667C7.15938 10.667 5.66699 12.1594 5.66699 14.0003C5.66699 15.8413 7.15938 17.3337 9.00033 17.3337Z" fill="#ED7E1C"/>
<path d="M14.0003 12.3337C12.1594 12.3337 10.667 10.8413 10.667 9.00033C10.667 7.15938 12.1594 5.66699 14.0003 5.66699C15.8413 5.66699 17.3337 7.15938 17.3337 9.00033C17.3337 10.8413 15.8413 12.3337 14.0003 12.3337Z" fill="#ED7E1C"/>
<path d="M0.666992 9.00033C0.666992 10.8413 2.15938 12.3337 4.00033 12.3337C5.84127 12.3337 7.33366 10.8413 7.33366 9.00033C7.33366 7.15938 5.84127 5.66699 4.00033 5.66699C2.15938 5.66699 0.666992 7.15938 0.666992 9.00033Z" fill="#ED7E1C"/>
</svg>
