<svg width="16" height="16" viewBox="0 0 16 16" fill="none" xmlns="http://www.w3.org/2000/svg">
<path d="M6.78863 1.29147C7.26518 0.258311 8.73356 0.258311 9.21011 1.29147L10.32 3.6978C10.5143 4.11888 10.9133 4.4088 11.3738 4.4634L14.0053 4.77541C15.1352 4.90937 15.589 6.30589 14.7536 7.07838L12.8081 8.87759C12.4676 9.19242 12.3152 9.66153 12.4056 10.1163L12.922 12.7155C13.1437 13.8315 11.9558 14.6946 10.963 14.1388L8.65062 12.8445C8.24599 12.618 7.75274 12.618 7.34811 12.8445L5.03575 14.1388C4.04294 14.6946 2.85499 13.8315 3.07673 12.7155L3.59318 10.1163C3.68355 9.66153 3.53113 9.19242 3.19068 8.87759L1.24512 7.07838C0.409784 6.30589 0.863539 4.90937 1.9934 4.77541L4.62494 4.4634C5.08542 4.4088 5.48447 4.11888 5.67869 3.6978L6.78863 1.29147Z" fill="#9BB168"/>
</svg>
