<svg width="64" height="65" viewBox="0 0 64 65" fill="none" xmlns="http://www.w3.org/2000/svg">
<rect y="0.5" width="64" height="64" rx="32" fill="#E8DDD9"/>
<path d="M27 29.5C27 28.5111 27.2932 27.5444 27.8427 26.7222C28.3921 25.8999 29.173 25.259 30.0866 24.8806C31.0002 24.5022 32.0055 24.4031 32.9755 24.5961C33.9454 24.789 34.8363 25.2652 35.5355 25.9645C36.2348 26.6637 36.711 27.5546 36.9039 28.5246C37.0969 29.4945 36.9978 30.4998 36.6194 31.4134C36.241 32.3271 35.6001 33.1079 34.7778 33.6574V33.6574C33.4254 34.561 32 35.8186 32 37.4452V37.5" stroke="#4F3422" stroke-width="2" stroke-linejoin="round"/>
<rect x="31" y="39.5" width="2" height="2" rx="1" fill="#4F3422"/>
</svg>
