<svg width="18" height="18" viewBox="0 0 18 18" fill="none" xmlns="http://www.w3.org/2000/svg">
<path d="M7 9C7 7.89543 7.89543 7 9 7C10.1046 7 11 7.89543 11 9C11 10.1046 10.1046 11 9 11C7.89543 11 7 10.1046 7 9Z" fill="#C9C7C5"/>
<path fill-rule="evenodd" clip-rule="evenodd" d="M9.00043 0C7.89586 0 7.00043 0.89543 7.00043 2C7.00043 2.80152 6.03121 3.20278 5.46444 2.63602C4.68339 1.85497 3.41706 1.85497 2.63602 2.63602C1.85497 3.41707 1.85497 4.6834 2.63602 5.46445C3.20266 6.0311 2.80136 7 2 7C0.895431 7 0 7.89543 0 9C0 10.1046 0.89543 11 2 11C2.80135 11 3.2027 11.9689 2.63606 12.5355C1.85501 13.3166 1.85501 14.5829 2.63606 15.3639C3.41711 16.145 4.68344 16.145 5.46449 15.3639C6.03125 14.7972 7.00043 15.1985 7.00043 16C7.00043 17.1046 7.89586 18 9.00043 18C10.105 18 11.0004 17.1046 11.0004 16C11.0004 15.1989 11.969 14.7975 12.5355 15.3639C13.3166 16.145 14.5829 16.145 15.3639 15.3639C16.145 14.5829 16.145 13.3166 15.3639 12.5355C14.7973 11.9689 15.1986 11 16 11C17.1046 11 18 10.1046 18 9C18 7.89543 17.1046 7 16 7C15.1986 7 14.7973 6.03109 15.364 5.46444C16.145 4.68339 16.145 3.41706 15.364 2.63602C14.5829 1.85497 13.3166 1.85497 12.5356 2.63602C11.9691 3.20252 11.0004 2.80115 11.0004 2C11.0004 0.895431 10.105 0 9.00043 0ZM9 5C6.79086 5 5 6.79086 5 9C5 11.2091 6.79086 13 9 13C11.2091 13 13 11.2091 13 9C13 6.79086 11.2091 5 9 5Z" fill="#C9C7C5"/>
</svg>
