<svg width="104" height="104" viewBox="0 0 104 104" fill="none" xmlns="http://www.w3.org/2000/svg">
<circle cx="52" cy="52" r="52" fill="#DDD1FF"/>
<path fill-rule="evenodd" clip-rule="evenodd" d="M52.0001 51.9999L22.5039 34.9702L22.4723 34.952L6.9668 25.9999L6.96844 25.997C8.72685 22.9518 10.7814 20.1068 13.0938 17.4991C14.8242 15.5478 16.6991 13.7293 18.7023 12.0592C20.9771 10.1627 23.4176 8.45759 26.0001 6.96656C26.2929 6.79755 26.587 6.63156 26.8823 6.46859C31.9885 3.65161 37.4847 1.73877 43.1337 0.761349C44.5155 0.522264 45.9064 0.339147 47.3029 0.212456C53.3427 -0.335445 59.4883 0.171982 65.4587 1.77174L60.8153 19.1011L58.5669 27.4924L52.0001 51.9999Z" fill="#C2B1FF"/>
<mask id="path-3-inside-1_28_3364" fill="white">
<path d="M65.4586 1.77186C68.6169 2.61811 71.6883 3.76036 74.632 5.18342L52 52L65.4586 1.77186Z"/>
</mask>
<path d="M65.4586 1.77186C68.6169 2.61811 71.6883 3.76036 74.632 5.18342L52 52L65.4586 1.77186Z" stroke="white" stroke-width="35.8814" mask="url(#path-3-inside-1_28_3364)"/>
<mask id="path-4-inside-2_28_3364" fill="white">
<path d="M74.6413 5.1879C75.6218 5.66214 76.5872 6.16707 77.536 6.70194L52 52L74.6413 5.1879Z"/>
</mask>
<path d="M74.6413 5.1879C75.6218 5.66214 76.5872 6.16707 77.536 6.70194L52 52L74.6413 5.1879Z" stroke="#C2B1FF" stroke-width="35.8814" mask="url(#path-4-inside-2_28_3364)"/>
</svg>
