<svg width="64" height="64" viewBox="0 0 64 64" fill="none" xmlns="http://www.w3.org/2000/svg">
<rect width="64" height="64" rx="24" fill="#FFF4E0"/>
<path fill-rule="evenodd" clip-rule="evenodd" d="M25 35H24C23.6534 35 23.3316 34.8205 23.1494 34.5257C22.9671 34.2309 22.9506 33.8628 23.1056 33.5528L25.0037 29.7565C25.043 28.4671 25.3935 27.205 26.0271 26.0785C26.7004 24.8812 27.6708 23.8774 28.8446 23.1639C30.0184 22.4504 31.3562 22.0511 32.7291 22.0046C34.102 21.9581 35.4637 22.2658 36.6831 22.8983C37.9026 23.5307 38.9386 24.4665 39.6915 25.6155C40.4443 26.7645 40.8887 28.088 40.9817 29.4585C41.0746 30.829 40.8132 32.2004 40.2224 33.4405C39.9735 33.963 39.6697 34.4548 39.3174 34.9082C38.5475 35.8991 38.0325 36.8459 38.0325 37.7963V41C38.0325 41.5523 37.5848 42 37.0325 42H29C28.4477 42 28 41.5523 28 41V38H26C25.4477 38 25 37.5523 25 37V35ZM33 27.6033C31.7737 26.5776 29.945 26.6408 28.7929 27.7929C27.5739 29.0118 27.5739 30.9881 28.7929 32.2071L31.9988 35.413C32.5517 35.9659 33.4482 35.9659 34.0012 35.413L37.2071 32.2071C38.426 30.9881 38.426 29.0118 37.2071 27.7929C36.055 26.6408 34.2263 26.5776 33 27.6033Z" fill="#FFBD1A"/>
</svg>
