<svg width="48" height="48" viewBox="0 0 48 48" fill="none" xmlns="http://www.w3.org/2000/svg">
<rect width="48" height="48" rx="24" fill="#F2F5EB"/>
<path d="M23 19C23 16.7909 24.7909 15 27 15H30C32.2091 15 34 16.7909 34 19C34 21.2091 32.2091 23 30 23H26.4142L26.1213 23.2929C24.9695 24.4447 23 23.629 23 22V19Z" fill="#9BB168"/>
<path d="M22 21C19.2386 21 17 23.2386 17 26C17 28.7614 19.2386 31 22 31H26C28.7614 31 31 28.7614 31 26V24H33V25H34V27H32.9291C32.4439 30.3923 29.5265 33 26 33H22C18.4735 33 15.5561 30.3923 15.0709 27H14V25H15.0709C15.5561 21.6077 18.4735 19 22 19V21Z" fill="#9BB168"/>
<path d="M22 26C22 26.5523 21.5523 27 21 27C20.4477 27 20 26.5523 20 26C20 25.4477 20.4477 25 21 25C21.5523 25 22 25.4477 22 26Z" fill="#9BB168"/>
<path d="M27 27C27.5523 27 28 26.5523 28 26C28 25.4477 27.5523 25 27 25C26.4477 25 26 25.4477 26 26C26 26.5523 26.4477 27 27 27Z" fill="#9BB168"/>
<path d="M23 19C23 16.7909 24.7909 15 27 15H30C32.2091 15 34 16.7909 34 19C34 21.2091 32.2091 23 30 23H26.4142L26.1213 23.2929C24.9695 24.4447 23 23.629 23 22V19Z" stroke="#9BB168"/>
<path d="M22 21C19.2386 21 17 23.2386 17 26C17 28.7614 19.2386 31 22 31H26C28.7614 31 31 28.7614 31 26V24H33V25H34V27H32.9291C32.4439 30.3923 29.5265 33 26 33H22C18.4735 33 15.5561 30.3923 15.0709 27H14V25H15.0709C15.5561 21.6077 18.4735 19 22 19V21Z" stroke="#9BB168"/>
<path d="M22 26C22 26.5523 21.5523 27 21 27C20.4477 27 20 26.5523 20 26C20 25.4477 20.4477 25 21 25C21.5523 25 22 25.4477 22 26Z" stroke="#9BB168"/>
<path d="M27 27C27.5523 27 28 26.5523 28 26C28 25.4477 27.5523 25 27 25C26.4477 25 26 25.4477 26 26C26 26.5523 26.4477 27 27 27Z" stroke="#9BB168"/>
</svg>
