<svg width="375" height="812" viewBox="0 0 375 812" fill="none" xmlns="http://www.w3.org/2000/svg">
<g clip-path="url(#clip0_1_5098)">
<rect width="375" height="812" fill="#9BB168"/>
<path opacity="0.48" fill-rule="evenodd" clip-rule="evenodd" d="M-6.5 315.88C3.09854 315.88 10.8797 308.099 10.8797 298.5C10.8797 288.901 3.09854 281.12 -6.5 281.12C-16.0985 281.12 -23.8797 288.901 -23.8797 298.5C-23.8797 308.099 -16.0985 315.88 -6.5 315.88ZM-6.5 332C12.0015 332 27 317.002 27 298.5C27 279.998 12.0015 265 -6.5 265C-25.0015 265 -40 279.998 -40 298.5C-40 317.002 -25.0015 332 -6.5 332Z" fill="#B4C48D"/>
<path opacity="0.24" fill-rule="evenodd" clip-rule="evenodd" d="M-29 611.038C9.68069 611.038 41.0376 579.681 41.0376 541C41.0376 502.319 9.68069 470.962 -29 470.962C-67.6807 470.962 -99.0376 502.319 -99.0376 541C-99.0376 579.681 -67.6807 611.038 -29 611.038ZM-29 676C45.5584 676 106 615.558 106 541C106 466.442 45.5584 406 -29 406C-103.558 406 -164 466.442 -164 541C-164 615.558 -103.558 676 -29 676Z" fill="#B4C48D"/>
<path opacity="0.48" fill-rule="evenodd" clip-rule="evenodd" d="M383.5 93.9248C439.515 93.9248 484.925 48.5154 484.925 -7.5C484.925 -63.5154 439.515 -108.925 383.5 -108.925C327.485 -108.925 282.075 -63.5154 282.075 -7.5C282.075 48.5154 327.485 93.9248 383.5 93.9248ZM383.5 188C491.472 188 579 100.472 579 -7.5C579 -115.472 491.472 -203 383.5 -203C275.528 -203 188 -115.472 188 -7.5C188 100.472 275.528 188 383.5 188Z" fill="#B4C48D"/>
<path opacity="0.48" fill-rule="evenodd" clip-rule="evenodd" d="M319 889.962C356.535 889.962 386.962 859.535 386.962 822C386.962 784.465 356.535 754.038 319 754.038C281.465 754.038 251.038 784.465 251.038 822C251.038 859.535 281.465 889.962 319 889.962ZM319 953C391.349 953 450 894.349 450 822C450 749.651 391.349 691 319 691C246.651 691 188 749.651 188 822C188 894.349 246.651 953 319 953Z" fill="#B4C48D"/>
<circle opacity="0.32" cx="-19.5" cy="98.5" r="98.5" fill="#B4C48D"/>
<circle opacity="0.24" cx="406.5" cy="534.5" r="103.5" fill="#B4C48D"/>
<circle opacity="0.32" cx="391.5" cy="276.5" r="35.5" fill="#B4C48D"/>
<ellipse opacity="0.48" cx="49.5" cy="787.5" rx="35.5" ry="34.5" fill="#B4C48D"/>
<circle opacity="0.32" cx="126" cy="299" r="58" fill="#B4C48D"/>
</g>
<defs>
<clipPath id="clip0_1_5098">
<rect width="375" height="812" fill="white"/>
</clipPath>
</defs>
</svg>
