<svg width="251" height="250" viewBox="0 0 251 250" fill="none" xmlns="http://www.w3.org/2000/svg">
    <path
        d="M130.254 124.611V124.5V124.39C130.217 122.956 129.666 121.706 128.747 120.787L128.71 120.75L128.673 120.714C127.755 119.795 126.432 119.243 124.998 119.243C123.528 119.243 122.205 119.831 121.287 120.75L121.103 120.934C120.294 121.853 119.78 123.103 119.78 124.463C119.78 125.934 120.368 127.257 121.287 128.176C122.242 129.132 123.528 129.684 124.998 129.684C126.468 129.684 127.791 129.095 128.71 128.176C129.629 127.294 130.217 126.007 130.254 124.611ZM123.271 86.6353C125.954 86.525 128.232 88.6204 128.379 91.3041C128.49 93.9877 126.395 96.2669 123.712 96.414C116.215 96.7448 109.527 100.017 104.676 105.09C99.8615 110.126 96.9214 116.964 96.9214 124.537C96.9214 130.272 98.6119 135.639 101.552 140.051C104.565 144.646 108.939 148.285 114.047 150.454C116.546 151.52 117.685 154.388 116.619 156.851C115.554 159.351 112.687 160.49 110.225 159.424C103.353 156.52 97.5094 151.594 93.4302 145.418C89.4612 139.426 87.146 132.22 87.146 124.5C87.146 114.354 91.1517 105.127 97.6197 98.3256C104.124 91.4879 113.165 87.0764 123.271 86.6353ZM162.924 124.5V124.611C162.888 132.22 160.609 139.352 156.677 145.308C152.634 151.484 146.828 156.373 139.992 159.314C137.53 160.38 134.627 159.24 133.561 156.741C132.495 154.241 133.635 151.373 136.134 150.307C141.205 148.101 145.542 144.462 148.518 139.94C151.385 135.566 153.075 130.309 153.112 124.611V124.5V124.39C153.112 120.603 152.34 117.001 150.981 113.729C149.547 110.273 147.453 107.185 144.843 104.575C142.932 102.664 142.932 99.5755 144.807 97.6639C146.718 95.7523 149.805 95.7523 151.716 97.6271C155.244 101.12 158.073 105.31 159.984 109.942C161.822 114.391 162.851 119.28 162.888 124.353V124.5H162.924ZM70.0939 150.491C68.9547 148.065 69.9837 145.124 72.4459 143.984C74.8714 142.845 77.8114 143.874 78.9507 146.337C83.1034 155.086 89.6817 162.475 97.8035 167.622C105.668 172.585 115.002 175.489 125.035 175.489C133.488 175.489 141.462 173.431 148.445 169.828C155.721 166.078 161.969 160.601 166.673 153.947C168.253 151.741 171.303 151.226 173.472 152.807C175.677 154.388 176.191 157.439 174.611 159.608C169.025 167.512 161.565 174.019 152.892 178.504C144.549 182.805 135.068 185.268 125.035 185.268C113.128 185.268 101.993 181.812 92.6217 175.894C82.8829 169.754 75.0184 160.931 70.0939 150.491ZM185.783 124.5V124.611C185.783 125.75 185.746 126.963 185.673 128.287V128.471C185.599 129.684 185.452 130.97 185.268 132.367C184.938 135.051 182.475 136.926 179.829 136.595C177.147 136.264 175.272 133.801 175.603 131.154C175.713 130.162 175.824 129.059 175.934 127.846V127.809C175.971 126.853 176.007 125.787 176.044 124.647V124.537C176.044 110.42 170.348 97.7007 161.124 88.4734L161.087 88.4366C151.899 79.2461 139.147 73.5112 125.035 73.5112C111.254 73.5112 98.7589 78.952 89.5714 87.8117C80.3839 96.7081 74.5039 109.097 74.0629 122.809C73.9894 125.493 71.7109 127.625 69.0282 127.551C66.3454 127.478 64.2139 125.199 64.2874 122.515C64.8019 106.156 71.7844 91.4511 82.7359 80.8269C93.6875 70.2394 108.571 63.6957 124.998 63.6957C141.72 63.6957 156.861 70.46 167.849 81.3783L167.959 81.4886C178.911 92.4437 185.709 107.59 185.746 124.316V124.5H185.783ZM168.657 53.145C170.973 54.542 171.671 57.5565 170.274 59.8725C168.878 62.1885 165.864 62.887 163.549 61.49C157.853 57.9976 151.605 55.2405 145.027 53.3656C138.669 51.5642 131.944 50.6084 124.962 50.6084C104.565 50.6084 86.1169 58.8799 72.7399 72.2245C59.3997 85.5692 51.1309 104.061 51.1309 124.463C51.1309 139.352 55.5409 153.211 63.1114 164.791C70.9392 176.776 82.1479 186.334 95.3412 192.106C97.8035 193.172 98.9427 196.076 97.877 198.539C96.8112 201.002 93.908 202.142 91.4457 201.076C76.4517 194.495 63.7729 183.687 54.9529 170.159C46.3534 157.035 41.3554 141.3 41.3554 124.463C41.3554 101.377 50.7267 80.4225 65.8309 65.3133C80.972 50.1673 101.883 40.8297 124.962 40.8297C132.789 40.8297 140.433 41.9326 147.673 43.9545C155.17 46.0499 162.226 49.1747 168.657 53.145ZM208.641 124.5V124.611C208.641 125.971 208.605 127.441 208.494 129.059C207.318 151.263 197.506 171.041 182.475 185.231C167.445 199.458 147.159 208.134 124.998 208.134C123.639 208.134 122.095 208.097 120.405 207.987C117.722 207.84 115.627 205.561 115.774 202.84C115.921 200.157 118.2 198.061 120.919 198.208C122.132 198.282 123.492 198.319 124.998 198.319C144.586 198.319 162.52 190.672 175.787 178.099C189.054 165.563 197.69 148.101 198.756 128.544C198.829 127.404 198.866 126.081 198.866 124.611V124.5V124.39C198.866 115.824 197.396 107.663 194.75 100.09C191.957 92.1496 187.878 84.8339 182.733 78.4006C181.042 76.3051 181.41 73.2171 183.504 71.5628C185.599 69.8718 188.686 70.2394 190.34 72.3348C196.183 79.6137 200.814 87.922 203.937 96.8551C206.951 105.494 208.605 114.758 208.641 124.39V124.5ZM33.6747 156.41C34.5567 158.946 33.1969 161.74 30.6612 162.622C28.1254 163.505 25.3324 162.181 24.4504 159.608C23.3112 156.373 22.3557 153.138 21.5839 149.94C15.0792 123.544 19.1217 96.5978 31.2859 73.9524C43.4502 51.3437 63.7729 33.0362 89.6817 23.9559C92.8422 22.8531 96.113 21.8972 99.4204 21.0517C102.03 20.4268 104.676 22.0075 105.337 24.6176C105.962 27.2277 104.382 29.8746 101.772 30.5363C98.7222 31.2716 95.7822 32.1539 92.9524 33.1464C69.3957 41.4179 50.9472 58.0344 39.9222 78.5844C28.8604 99.1344 25.1854 123.655 31.1022 147.624C31.8004 150.565 32.6824 153.506 33.6747 156.41ZM189.458 196.627C191.479 194.826 194.566 195.01 196.33 196.995C198.131 199.017 197.947 202.105 195.963 203.87C186.334 212.472 175.199 219.346 162.961 224.015C151.164 228.537 138.375 231 124.998 231C106.954 231 89.9389 226.478 75.0184 218.538C59.5467 210.303 46.3534 198.355 36.6147 183.908C35.1079 181.665 35.6959 178.614 37.9377 177.107C40.1794 175.6 43.2297 176.188 44.7364 178.43C53.5932 191.591 65.5737 202.436 79.6122 209.899C93.0994 217.104 108.571 221.185 124.998 221.185C137.163 221.185 148.776 218.942 159.47 214.861C170.605 210.634 180.748 204.384 189.458 196.627ZM231.5 124.353V124.5V124.611C231.5 135.198 229.92 145.455 227.017 155.123C224.003 165.159 219.556 174.57 213.897 183.136C212.39 185.378 209.376 186.003 207.135 184.496C204.893 182.989 204.268 179.974 205.775 177.732C210.883 169.975 214.926 161.409 217.682 152.292C220.291 143.543 221.724 134.242 221.724 124.574V124.463C221.724 97.9948 211.104 73.9891 193.868 56.5271C176.632 39.0284 152.745 28.0733 126.358 27.7424C123.675 27.7057 121.507 25.4999 121.544 22.8163C121.544 20.1327 123.749 17.9637 126.432 18.0005C155.538 18.4048 181.814 30.4628 200.814 49.6894C219.74 68.8792 231.463 95.2744 231.5 124.353ZM140.029 124.5V124.611C139.992 128.728 138.339 132.441 135.619 135.124C132.9 137.845 129.151 139.536 124.998 139.536C120.846 139.536 117.06 137.845 114.341 135.124C111.621 132.404 109.931 128.654 109.931 124.463C109.931 120.456 111.474 116.817 114.047 114.133L114.341 113.802C117.06 111.082 120.809 109.391 124.998 109.391C129.114 109.391 132.826 111.045 135.546 113.692L135.619 113.766L135.656 113.802C138.339 116.486 140.029 120.199 140.066 124.316V124.5H140.029Z"
        fill="#4F3422" />
    <path d="M2.5 26V26C2.5 12.7452 13.2452 2 26.5 2V2" stroke="#9BB168" stroke-width="4" />
    <path d="M248.5 26V26C248.5 12.7452 237.755 2 224.5 2V2" stroke="#9BB168" stroke-width="4" />
    <path d="M248.5 224V224C248.5 237.255 237.755 248 224.5 248V248" stroke="#9BB168"
        stroke-width="4" />
    <path d="M2.5 224V224C2.5 237.255 13.2452 248 26.5 248V248" stroke="#9BB168" stroke-width="4" />
</svg>
