<svg width="48" height="48" viewBox="0 0 48 48" fill="none" xmlns="http://www.w3.org/2000/svg">
<rect width="48" height="48" rx="24" fill="#FFF4E0"/>
<path d="M21 26V24H23V22H25V24H27V26H25V28H23V26H21Z" fill="#FFBD1A"/>
<path fill-rule="evenodd" clip-rule="evenodd" d="M17 19C17 16.2386 19.2386 14 22 14H26C28.7614 14 31 16.2386 31 19V29C31 31.7614 28.7614 34 26 34H22C19.2386 34 17 31.7614 17 29V19ZM20.3026 16.5261C19.5159 17.0669 19 17.9732 19 19V29C19 30.6569 20.3431 32 22 32H26C27.6569 32 29 30.6569 29 29V19C29 17.9732 28.4841 17.0669 27.6974 16.5261L27.6955 16.5307C27.4945 17.016 27.1999 17.457 26.8284 17.8284C26.457 18.1999 26.016 18.4945 25.5307 18.6955C25.0454 18.8965 24.5253 19 24 19C23.4747 19 22.9546 18.8965 22.4693 18.6955C21.984 18.4945 21.543 18.1999 21.1716 17.8284C20.8001 17.457 20.5055 17.016 20.3045 16.5307L20.3026 16.5261Z" fill="#FFBD1A"/>
<path d="M21 26V24H23V22H25V24H27V26H25V28H23V26H21Z" stroke="#FFBD1A"/>
<path fill-rule="evenodd" clip-rule="evenodd" d="M17 19C17 16.2386 19.2386 14 22 14H26C28.7614 14 31 16.2386 31 19V29C31 31.7614 28.7614 34 26 34H22C19.2386 34 17 31.7614 17 29V19ZM20.3026 16.5261C19.5159 17.0669 19 17.9732 19 19V29C19 30.6569 20.3431 32 22 32H26C27.6569 32 29 30.6569 29 29V19C29 17.9732 28.4841 17.0669 27.6974 16.5261L27.6955 16.5307C27.4945 17.016 27.1999 17.457 26.8284 17.8284C26.457 18.1999 26.016 18.4945 25.5307 18.6955C25.0454 18.8965 24.5253 19 24 19C23.4747 19 22.9546 18.8965 22.4693 18.6955C21.984 18.4945 21.543 18.1999 21.1716 17.8284C20.8001 17.457 20.5055 17.016 20.3045 16.5307L20.3026 16.5261Z" stroke="#FFBD1A"/>
</svg>
