<svg width="48" height="48" viewBox="0 0 48 48" fill="none" xmlns="http://www.w3.org/2000/svg">
    <rect width="48" height="48" rx="24" fill="#FFEEE2" />
    <path fill-rule="evenodd" clip-rule="evenodd"
        d="M14 24C14 18.4772 18.4772 14 24 14C29.5228 14 34 18.4772 34 24C34 29.5228 29.5228 34 24 34C18.4772 34 14 29.5228 14 24ZM24 30C22.6792 30 21.3953 29.5642 20.3474 28.7601C19.2996 27.9561 18.5463 26.8287 18.2044 25.5529L20.1363 25.0353C20.3642 25.8858 20.8664 26.6374 21.565 27.1734C22.2635 27.7095 23.1195 28 24 28C24.8805 28 25.7365 27.7094 26.435 27.1734C27.1336 26.6374 27.6358 25.8858 27.8637 25.0353L29.7956 25.5529C29.4537 26.8287 28.7004 27.9561 27.6526 28.7601C26.6047 29.5642 25.3208 30 24 30ZM19.5433 20.1903C19.8466 20.0647 20.1717 20 20.5 20C20.8283 20 21.1534 20.0647 21.4567 20.1903C21.76 20.3159 22.0356 20.5001 22.2678 20.7322C22.4999 20.9644 22.6841 21.24 22.8097 21.5433C22.9353 21.8466 23 22.1717 23 22.5H21C21 22.4343 20.9871 22.3693 20.9619 22.3087C20.9368 22.248 20.9 22.1929 20.8536 22.1464C20.8071 22.1 20.752 22.0632 20.6913 22.0381C20.6307 22.0129 20.5657 22 20.5 22C20.4343 22 20.3693 22.0129 20.3087 22.0381C20.248 22.0632 20.1929 22.1 20.1464 22.1464C20.1 22.1929 20.0632 22.248 20.0381 22.3087C20.0129 22.3693 20 22.4343 20 22.5H18C18 22.1717 18.0647 21.8466 18.1903 21.5433C18.3159 21.24 18.5001 20.9644 18.7322 20.7322C18.9644 20.5001 19.24 20.3159 19.5433 20.1903ZM27.5 20C27.1717 20 26.8466 20.0647 26.5433 20.1903C26.24 20.3159 25.9644 20.5001 25.7322 20.7322C25.5001 20.9644 25.3159 21.24 25.1903 21.5433C25.0647 21.8466 25 22.1717 25 22.5H27C27 22.4343 27.0129 22.3693 27.0381 22.3087C27.0632 22.248 27.1 22.1929 27.1464 22.1464C27.1929 22.1 27.248 22.0632 27.3087 22.0381C27.3693 22.0129 27.4343 22 27.5 22C27.5657 22 27.6307 22.0129 27.6913 22.0381C27.752 22.0632 27.8071 22.1 27.8536 22.1464C27.9 22.1929 27.9368 22.248 27.9619 22.3087C27.9871 22.3693 28 22.4343 28 22.5H30C30 22.1717 29.9353 21.8466 29.8097 21.5433C29.6841 21.24 29.4999 20.9644 29.2678 20.7322C29.0356 20.5001 28.76 20.3159 28.4567 20.1903C28.1534 20.0647 27.8283 20 27.5 20Z"
        fill="#ED7E1C" />
</svg>
