<svg width="375" height="443" viewBox="0 0 375 443" fill="none" xmlns="http://www.w3.org/2000/svg">
<g clip-path="url(#clip0_1_4992)">
<rect x="-292" y="-517" width="960" height="960" rx="480" fill="#F6F1FF"/>
<g opacity="0.48">
<path d="M403 389.472C321.811 435.522 94.2449 524.885 1.17747 517.578C-11.1091 516.598 -25.9264 513.128 -29.3552 501.289C-32.1717 491.532 -25.2733 481.816 -18.1299 474.631C8.89227 447.524 45.1804 431.562 81.8767 420.621C118.573 409.68 156.494 403.189 192.986 391.595C136.003 387.268 79.8358 372.489 28.0772 348.158C13.5456 341.341 -0.86348 333.584 -12.2112 322.235C-22.171 312.274 -29.5184 296.067 -21.5179 284.432C-16.3747 277.002 -6.78224 274.267 2.03467 272.389C93.9591 252.875 192.66 267.163 275.318 311.906C215.926 282.023 161.719 241.812 115.838 193.68C100.164 177.228 84.8973 158.735 80.6113 136.445C79.2643 129.423 79.101 121.911 82.04 115.42C88.571 100.969 107.348 96.8455 123.104 98.5193C145.514 100.928 166.331 111.175 185.557 122.932C245.847 159.796 294.952 212.418 337.812 268.51C313.402 234.382 288.992 200.253 264.583 166.083C251.031 147.141 237.234 127.668 231.315 105.133C225.396 82.5979 228.948 56.0623 246.133 40.3859C249.031 37.7323 252.5 35.3645 256.419 35.0379C259.44 34.793 262.46 35.7728 265.277 36.875C315.117 55.8174 349.282 103.949 364.875 154.979C380.468 206.009 397.326 306.763 396.959 360.12L403 389.472Z" fill="#DDD1FF"/>
<path d="M360.411 248.815C410.804 205.355 477.966 181.783 544.513 184.24C551.829 184.503 559.321 185.117 565.964 188.217C572.607 191.317 578.284 197.371 579.016 204.654C579.66 211 576.529 217.083 572.9 222.318C563.067 236.415 548.961 246.943 534.417 256.068C483.438 287.975 423.534 305.493 363.366 306.02C431.523 281.599 507.523 279.698 576.821 300.668C595.316 306.254 614.514 314.355 625.049 330.528C627.185 333.774 628.941 337.459 628.853 341.349C628.649 351.906 616.211 357.317 605.822 359.306C551.215 369.776 495.027 358.224 440.624 346.701C423.183 343.016 405.39 339.184 390.114 330.001C424.47 332.399 458.651 337.02 492.423 343.805C535.032 352.404 579.367 365.944 608.31 398.349C618.201 409.433 625.927 426.483 617.206 438.503C613.109 444.148 606.29 447.131 599.618 449.149C572.051 457.367 542.201 453.039 514.722 444.499C487.243 435.959 461.197 423.383 433.747 414.697C405.331 405.719 374.516 400.455 351.309 381.796C400.649 384.165 443.697 415.282 480.102 448.652C493.856 461.286 507.318 474.593 516.858 490.649C520.341 496.498 523.326 503.107 522.419 509.834C520.575 523.258 504.684 529.721 491.135 530.277C473.459 531.008 455.579 526.095 440.741 516.444C429.299 508.986 419.817 498.955 410.453 489.04C371.531 447.774 332.609 406.508 293.717 365.213L360.411 248.815Z" fill="#DDD1FF"/>
<path d="M120.26 115.808C122.586 110.585 120.235 104.465 115.008 102.139C109.781 99.8138 103.657 102.163 101.33 107.387C99.0035 112.611 101.355 118.731 106.582 121.056C111.809 123.382 117.933 121.032 120.26 115.808Z" fill="#DDD1FF"/>
</g>
<path d="M100.779 341.7V340.998C100.779 336.407 95.9214 332.576 89.688 332.02C95.9214 331.464 100.779 327.662 100.779 323.041V322.34C100.779 317.836 96.097 314.063 90.0685 313.42C96.097 312.747 100.779 309.003 100.779 304.5V303.798C100.779 298.826 95.102 294.761 88.1663 294.761H39.7629C32.8272 294.761 27.1499 298.826 27.1499 303.798V304.5C27.1499 309.003 31.8322 312.776 37.8607 313.42C31.8322 314.092 27.1499 317.836 27.1499 322.34V323.041C27.1499 327.633 32.0078 331.464 38.2411 332.02C32.0078 332.576 27.1499 336.378 27.1499 340.998V341.7C27.1499 346.672 32.8272 350.737 39.7629 350.737H88.1663C95.102 350.737 100.779 346.672 100.779 341.7Z" fill="#C2B1FF"/>
<path d="M93.3769 310.992C74.7062 310.992 56.0062 310.992 37.3355 310.992C35.6089 310.992 35.6089 313.654 37.3355 313.654C56.0062 313.654 74.7062 313.654 93.3769 313.654C95.1035 313.654 95.1035 310.992 93.3769 310.992Z" fill="#3C357C"/>
<path d="M93.3741 331.786C74.7326 331.786 56.0619 331.786 37.4204 331.786C35.6938 331.786 35.6938 334.447 37.4204 334.447C56.0619 334.447 74.7326 334.447 93.3741 334.447C95.1007 334.447 95.1007 331.786 93.3741 331.786Z" fill="#3C357C"/>
<path d="M35.8999 295.55C35.8999 313.682 35.8999 331.815 35.8999 349.947C35.8999 351.673 38.563 351.673 38.563 349.947C38.563 331.815 38.563 313.682 38.563 295.55C38.563 293.824 35.8999 293.824 35.8999 295.55Z" fill="#3C357C"/>
<path d="M230.536 118.202C234.516 118.231 238.262 114.751 240.515 110.101C242.769 105.451 243.705 99.7187 243.998 94.1035C244.232 99.3385 244.466 104.691 245.988 109.458C247.48 114.254 250.494 118.436 254.182 118.904C250.758 119.664 247.978 123.554 246.485 127.999C244.993 132.445 244.525 137.417 244.086 142.301C243.149 136.949 242.213 131.48 240.076 126.83C237.969 122.209 234.458 118.465 230.565 118.465L230.536 118.202Z" fill="white"/>
<path d="M188.66 161.954C192.64 161.983 196.385 158.503 198.639 153.853C200.892 149.203 201.829 143.471 202.121 137.855C202.355 143.09 202.59 148.442 204.111 153.21C205.604 158.006 208.618 162.188 212.305 162.656C208.881 163.416 206.101 167.306 204.609 171.751C203.116 176.197 202.648 181.169 202.209 186.053C201.273 180.701 200.336 175.232 198.2 170.582C196.093 165.961 192.581 162.217 188.689 162.217L188.66 161.954Z" fill="white"/>
<path d="M88.9834 416.071C92.9634 416.1 96.7092 412.62 98.9626 407.97C101.216 403.32 102.152 397.588 102.445 391.973C102.679 397.208 102.913 402.56 104.435 407.327C105.928 412.123 108.942 416.305 112.629 416.773C109.205 417.534 106.425 421.423 104.933 425.869C103.44 430.314 102.972 435.286 102.533 440.17C101.596 434.818 100.66 429.349 98.5236 424.699C96.4166 420.078 92.9048 416.334 89.0127 416.334L88.9834 416.071Z" fill="white"/>
<path d="M296.674 130.836C296.879 121.975 301.356 115.687 309.462 114.254C317.569 112.792 325.792 116.36 332.581 121.01C339.371 125.66 345.341 131.509 352.51 135.603C369.133 145.079 392.661 145.898 401.704 162.773C403.079 165.346 403.987 169.061 402.611 171.81C400.533 175.992 397.285 174.266 393.715 175.963C390.613 177.454 390.174 182.046 391.959 185C393.744 187.954 396.934 189.738 399.919 191.434C412.122 198.394 423.477 206.817 433.661 216.468C439.514 222.025 445.425 229.512 443.406 237.32C442.382 241.239 435.68 240.713 435.387 244.749C434.656 254.78 453.883 264.929 451.893 274.784C450.956 279.405 446.098 282.447 441.387 282.622C436.675 282.798 432.168 280.751 428.159 278.294C417.858 272.006 403.635 247.03 393.656 240.187C378.088 229.512 383.004 250.159 370.947 250.744C359.534 251.3 353.593 233.665 349.847 225.417C343.79 212.023 337.556 197.575 325.646 188.304C323.48 186.637 320.876 185.087 318.183 185.555C316.018 185.936 314.291 187.544 312.155 188.129C305.453 189.913 301.151 181.198 300.01 174.354C297.64 159.994 296.498 145.43 296.674 130.836Z" fill="#3C357C"/>
<path d="M361.642 205.033H261.967V333.101H361.642V205.033Z" fill="white"/>
<path d="M411.127 433.678C364.421 421.628 317.978 408.175 272.238 392.88C267.087 391.154 261.937 389.458 256.786 387.703C247.334 407.912 237.706 427.975 227.785 447.891C266.619 462.836 306.858 474.095 346.892 485.384C362.372 489.742 377.912 494.041 393.481 498.048C410.395 502.405 430.471 492.403 434.509 474.651C438.519 457.279 429.212 438.357 411.127 433.678Z" fill="#C2B1FF"/>
<path d="M451.102 301.721C437.113 295.199 422.188 292.128 406.707 292.479C393.187 292.801 379.55 294.877 366.235 297.217C347.652 300.493 329.83 305.844 312.329 312.425C297.17 306.693 281.748 301.896 265.711 298.621C241.714 293.766 216.81 290.052 192.55 294.907C167.412 299.937 144.79 318.713 137.562 343.601C129.924 369.805 141.981 399.46 162.788 416.16C181.312 431.046 205.104 439.176 227.053 447.658C227.316 447.745 227.55 447.862 227.814 447.95C237.734 428.034 247.362 407.971 256.815 387.762C248.474 384.925 240.193 381.942 232.086 378.491C226.146 375.976 192.784 362.903 209.875 359.452C237.734 353.808 276.246 368.986 301.414 379.339C300.887 379.105 300.36 378.871 299.834 378.637C301.97 379.427 304.194 379.924 306.477 380.217C313.705 381.416 321.226 380.597 327.693 377.555C329.274 377.058 330.883 376.473 332.463 375.859C357.982 366.032 387.451 357.522 415.106 359.511C417.623 359.686 419.73 360.417 420.901 362.347C416.716 368.782 407.702 372.525 400.825 375.303C386.983 380.919 372.965 386.124 358.831 391.038C367.698 411.656 374.604 432.918 381.745 454.004C429.826 438.942 485.429 417.242 489.175 363.371C490.96 337.693 474.074 312.454 451.102 301.721Z" fill="#3C357C"/>
<path d="M381.717 454.003C374.576 432.888 367.699 411.626 358.803 391.037C316.194 405.836 272.502 417.885 229.103 429.554C223.923 430.958 218.772 432.332 213.563 433.678C197.409 437.86 185.645 455.758 189.332 472.224C189.098 472.341 188.864 472.458 188.63 472.575L190.327 475.675C191.673 479.535 193.634 483.074 196.034 486.145L223.923 537.208C229.571 547.561 244.349 548.204 250.641 538.231C259.157 524.749 260.533 507.348 252.924 492.286C285.963 483.396 318.827 473.744 351.399 463.333C360.734 460.35 371.035 457.337 381.717 454.003Z" fill="#C2B1FF"/>
<path d="M184.795 307.072C181.839 310.67 183.361 308.915 184.795 307.072V307.072Z" fill="#C2B1FF"/>
<path d="M250.816 192.048C244.085 198.219 238.32 205.091 233.228 212.461C224.624 224.949 217.952 238.841 211.806 253.084C202.5 274.697 192.843 305.463 172.241 319.209C152.224 332.574 123.164 320.437 108.825 303.972C99.6355 293.414 80.2332 294.057 71.0441 304.176C60.7138 315.553 61.4161 330.644 71.249 341.933C90.6806 364.277 121.877 377.086 151.2 377.554C175.284 377.934 197.964 368.839 215.494 352.491C240.69 328.977 250.669 294.672 264.95 264.431C268.287 257.354 271.886 250.364 276.129 243.755C273.349 223.75 266.472 204.887 250.816 192.048Z" fill="#C2B1FF"/>
<path d="M544.777 298.796C531.023 291.63 518.117 296.836 508.811 307.774C498.54 319.882 487.068 328.773 469.948 327.076C433.163 323.45 419.204 271.188 405.888 243.609C396.699 224.599 385.374 205.238 369.308 191.2C357.134 206.291 349.115 225.272 346.013 244.077C362.548 266.128 372.585 299.702 382.213 317.367C390.027 331.697 399.626 346.057 412.034 356.79C427.983 370.623 446.273 378.286 467.197 380.479C501.964 384.106 536.73 364.57 554.552 335.236C561.809 323.304 557.39 305.376 544.777 298.796ZM507.085 310.786C506.792 311.108 506.529 311.43 506.236 311.781C507.319 310.436 508.782 308.827 507.085 310.786Z" fill="#C2B1FF"/>
<path d="M353.825 180.379C325.614 165.054 286.605 165.376 260.091 184.474C256.784 186.843 253.712 189.387 250.785 192.048C266.471 204.887 273.348 223.722 276.099 243.755C276.626 242.936 277.152 242.117 277.708 241.298C278.177 240.596 278.674 239.895 279.142 239.222C286.312 229.074 298.223 222.581 310.719 222.727C325.263 222.903 336.676 231.647 345.982 244.077C349.084 225.301 357.132 206.291 369.277 191.2C364.595 187.106 359.444 183.45 353.825 180.379Z" fill="white"/>
<path d="M117.926 312.687C117.107 311.927 116.492 311.371 116.083 310.991C116.668 311.547 117.282 312.103 117.926 312.687C117.897 312.687 117.897 312.687 117.926 312.687Z" fill="#C2B1FF"/>
<path d="M75.6692 252.763C63.9049 260.542 55.5938 273.615 57.4375 287.068C59.4274 301.545 71.8941 311.693 87.6091 312.161C95.7446 312.395 104.378 312.044 111.401 307.628C117.869 303.592 122.287 296.953 124.336 290.139C128.726 275.487 122.024 260.805 109.236 252.09C99.5783 245.51 88.1651 259.636 97.8517 266.245C104.436 270.749 108.709 278.236 106.251 285.986C105.402 288.706 103.47 291.923 100.807 293.473C97.7053 295.316 92.3207 294.965 88.8089 294.76C81.0539 294.292 76.4301 290.198 76.0496 283.354C75.6692 276.335 81.2587 270.223 87.2872 266.216C91.472 263.438 91.911 257.442 88.8967 253.962C85.6484 250.131 79.8833 249.984 75.6692 252.763Z" fill="#C2B1FF"/>
<path d="M73.9124 254.167C77.5412 257.794 81.1993 261.449 84.8281 265.076C86.0572 266.304 87.9301 264.403 86.7302 263.175C83.1015 259.548 79.4434 255.893 75.8146 252.266C74.5855 251.067 72.7126 252.939 73.9124 254.167Z" fill="#3C357C"/>
<path d="M99.4606 265.075C102.797 261.741 106.133 258.407 109.469 255.073C110.698 253.845 108.796 251.973 107.567 253.172C104.231 256.506 100.895 259.84 97.5584 263.175C96.3586 264.403 98.2315 266.304 99.4606 265.075Z" fill="#3C357C"/>
<path d="M89.3334 324.62C94.3377 322.164 100.512 323.86 103.585 328.51C104.522 329.943 106.834 328.598 105.897 327.165C101.976 321.257 94.3377 319.21 87.9873 322.339C86.4362 323.1 87.7824 325.381 89.3334 324.62Z" fill="#3C357C"/>
<path d="M331.939 184.181L327.374 154.672C330.008 155.725 333.08 155.52 335.597 153.794C339.636 151.075 340.689 145.606 337.968 141.57C335.246 137.534 329.774 136.481 325.735 139.201C325.501 139.376 325.267 139.522 325.062 139.727L323.101 127.005C322.867 125.426 321.521 124.256 319.911 124.256C311.981 124.227 289.535 126.333 284.209 150.577C283.799 152.42 285.028 154.233 286.872 154.496L296.412 155.959L289.359 181.9C286.696 191.697 291.027 202.196 300.041 206.876C300.451 207.08 300.89 207.314 301.329 207.519C317.102 214.831 334.573 201.319 331.939 184.181Z" fill="#C2B1FF"/>
<path d="M317.862 142.563C317.657 137.943 313.414 134.579 308.878 135.194C307.181 135.427 307.912 138.001 309.58 137.767C312.361 137.387 315.053 139.814 315.17 142.563C315.258 144.289 317.921 144.289 317.862 142.563Z" fill="#3C357C"/>
<path d="M304.342 129.346C299.25 131.042 294.158 132.767 289.066 134.464C288.335 134.727 287.72 135.692 288.276 136.423C289.447 138.061 290.647 139.699 291.817 141.307C292.812 142.682 295.124 141.366 294.129 139.962C292.958 138.324 291.759 136.686 290.588 135.078C290.325 135.721 290.061 136.394 289.798 137.037C294.89 135.341 299.982 133.616 305.074 131.919C306.684 131.364 305.981 128.79 304.342 129.346Z" fill="#3C357C"/>
<path d="M300.187 146.073C300.158 146.775 298.929 147.477 298.343 146.951C297.026 145.869 295.124 147.74 296.441 148.852C298.812 150.84 302.733 149.232 302.85 146.073C302.909 144.348 300.245 144.348 300.187 146.073Z" fill="#3C357C"/>
<path d="M332.407 144.494C330.476 144.845 328.544 145.166 326.642 145.517C324.945 145.81 325.677 148.384 327.345 148.091C329.276 147.74 331.207 147.418 333.11 147.067C334.807 146.775 334.075 144.201 332.407 144.494Z" fill="#3C357C"/>
<path d="M202.149 353.778C206.714 351.029 210.021 346.818 211.601 341.729C212.128 340.091 209.553 339.389 209.026 341.027C207.65 345.443 204.753 349.099 200.803 351.468C199.339 352.345 200.686 354.655 202.149 353.778Z" fill="#3C357C"/>
</g>
<defs>
<clipPath id="clip0_1_4992">
<rect x="-292" y="-517" width="960" height="960" rx="480" fill="white"/>
</clipPath>
</defs>
</svg>
