<svg width="375" height="454" viewBox="0 0 375 454" fill="none" xmlns="http://www.w3.org/2000/svg">
    <path
        d="M214.914 0C198.614 2.50568 182.216 4.78809 165.544 6.35104C118.656 10.891 74.7443 23.742 31.6267 44.1596C-30.5192 73.5083 -88.3484 109.63 -153 131.387V267.19C-85.0737 233.202 -34.9104 175.795 23.2909 125.83C128.48 35.0796 266.938 45.6729 395.571 13.9177C410.283 10.1468 424.374 5.3835 438.068 0L214.914 0Z"
        fill="#F2F5EB" />
    <path
        d="M375.922 89.5356C307.822 119.777 239.722 143.222 169.34 166.666C107.293 187.828 57.3533 226.405 3.64241 267.985C-44.4617 304.578 -92.5907 344.594 -153 349.854V454.001H-120.501C-101.571 423.685 -69.593 403.465 -36.4733 390.49C-6.20667 379.153 23.2909 368.56 52.0443 351.938C59.6109 348.167 65.6643 342.113 73.2309 336.804C111.064 312.616 144.358 292.198 182.191 267.985C204.147 254.365 223.82 242.283 247.264 236.23C319.16 216.581 376.642 178.004 440.227 141.708C467.963 125.93 497.659 117.644 528 114.617V64.3051C475.926 62.6181 424.225 67.7287 375.922 89.5356Z"
        fill="#F2F5EB" />
    <path
        d="M388.029 339.83C342.629 365.531 291.176 364.787 243.518 381.409C220.818 389.72 191.916 395.227 163.113 417.307C149.518 427.727 141.753 441.57 130.465 453.999H528V280.14C522.245 280.586 516.439 281.306 510.584 282.348C463.696 289.914 428.12 317.899 388.029 339.83Z"
        fill="#F2F5EB" />
</svg>
