<svg width="375" height="341" viewBox="0 0 375 341" fill="none" xmlns="http://www.w3.org/2000/svg">
<path d="M191.994 256.941C203.249 269.424 215.047 281.365 227.389 292.763C228.363 293.667 229.835 292.197 228.861 291.293C216.519 279.895 204.721 267.932 193.466 255.471C192.56 254.476 191.11 255.946 191.994 256.941Z" fill="#9BB168"/>
<path d="M312.65 45.6055L303.932 50.3546C298.633 54.2896 299.335 55.5786 298.134 62.0691L295.077 81.3821C294.964 82.038 294.035 82.0153 293.922 81.3821L290.91 62.1822C289.71 55.7143 289.846 54.2896 284.592 50.3546L276.349 45.6055C276.032 45.3794 276.032 44.9045 276.349 44.6557L285.679 40.2006C290.888 36.243 290.593 33.6197 291.771 27.1745L293.922 8.94695C294.035 8.29112 294.964 8.29112 295.077 8.94695L297.591 27.8529C298.768 34.2529 299.403 36.9214 304.566 40.879L312.65 44.6557C312.967 44.9045 312.967 45.3794 312.65 45.6055Z" fill="#ED7E1C"/>
<path d="M358.146 76.791L352.53 79.844C349.111 82.3768 349.586 83.2136 348.794 87.3973L346.823 99.8354C346.756 100.243 346.144 100.243 346.076 99.8354L344.151 87.4878C343.381 83.3266 343.472 82.4221 340.075 79.8666L334.776 76.8136C334.572 76.6553 334.572 76.3613 334.776 76.203L340.777 73.3309C344.129 70.7754 343.947 69.1019 344.695 64.9408L346.076 53.2037C346.144 52.7967 346.756 52.7967 346.823 53.2037L348.431 65.3705C349.179 69.4864 349.609 71.2051 352.938 73.7606L358.146 76.1804C358.35 76.3387 358.35 76.6327 358.146 76.791Z" fill="#ED7E1C"/>
<path d="M49.9511 23.9151L44.3349 26.9681C40.9154 29.501 41.391 30.3378 40.5983 34.5215L38.6282 46.9596C38.5602 47.3667 37.9488 47.3667 37.8808 46.9596L35.956 34.6119C35.186 30.4508 35.2539 29.5462 31.8797 26.9908L26.5806 23.9151C26.3768 23.7568 26.3768 23.4628 26.5806 23.3045L32.5817 20.4325C35.9333 17.877 35.7521 16.2035 36.4995 12.0424L37.8808 0.3053C37.9488 -0.101767 38.5602 -0.101767 38.6282 0.3053L40.236 12.4721C40.9833 16.588 41.4136 18.3067 44.7199 20.8622L49.9284 23.2819C50.1549 23.4629 50.1549 23.7795 49.9511 23.9151Z" fill="#ED7E1C"/>
<path d="M205.649 38.7539C208.004 36.3115 210.382 33.8691 212.737 31.4041C213.665 30.4542 212.193 28.9843 211.265 29.9341C208.91 32.3765 206.532 34.8189 204.177 37.2839C203.248 38.2337 204.72 39.7037 205.649 38.7539Z" fill="#4F3422"/>
<path d="M212.578 47.4152C215.318 45.8774 218.058 44.3622 220.798 42.8244C221.953 42.1686 220.911 40.382 219.757 41.0378C217.016 42.5756 214.276 44.0908 211.536 45.6286C210.381 46.2845 211.423 48.071 212.578 47.4152Z" fill="#4F3422"/>
<path d="M215.047 57.9086C218.172 57.592 221.297 57.298 224.422 56.9814C225.735 56.8457 225.758 54.7877 224.422 54.9234C221.297 55.24 218.172 55.534 215.047 55.8506C213.733 55.9637 213.733 58.0216 215.047 57.9086Z" fill="#4F3422"/>
<path d="M186.265 62.9511C192.402 56.0988 189.345 43.9999 181.509 39.2734C173.651 34.5469 163.075 36.3787 155.693 41.8515C151.503 44.9497 147.835 49.2465 142.739 50.2868C139.478 50.9426 136.127 50.1285 132.934 49.2465C122.268 46.284 111.783 42.3943 100.777 41.2409C89.7709 40.0649 77.8366 42.0098 69.5482 49.3822C62.4374 55.7144 58.565 65.5066 50.4351 70.4592C36.055 79.2111 16.5344 68.6274 1.04462 75.2309C-4.5036 77.6055 -9.1007 82.1511 -11.5238 87.7143C-16.7323 99.7001 -11.8182 114.829 -18.929 125.798C-24.6584 134.617 -36.9777 138.507 -40.2387 148.503C-42.2542 154.677 -39.9443 161.71 -35.5057 166.436C-31.0671 171.14 -24.8169 173.786 -18.4761 175.12C-3.23544 178.332 13.3866 174.239 25.4568 164.333C31.1636 159.652 35.8286 153.817 41.5127 149.113C47.1741 144.41 54.3755 140.769 61.6448 141.718C64.4755 142.103 67.1704 143.143 69.9558 143.844C81.4146 146.739 94.3001 143.188 102.702 134.821C111.284 126.273 115.972 112.862 127.34 108.791C135.946 105.716 146.408 108.972 153.994 103.861C161.988 98.4789 162.622 86.6288 169.303 79.6634C172.587 76.2486 177.252 74.2359 181.962 74.2133L186.265 62.9511Z" fill="#4F3422"/>
<path d="M188.166 53.1824C193.08 44.1138 187.011 33.1004 177.704 30.07C171.929 28.193 165.475 29.075 159.995 31.4721C153.971 34.0955 149.238 39.523 142.716 41.0608C135.175 42.8248 127.77 39.2743 121.067 36.1986C115.518 33.6432 109.97 31.1329 103.833 30.3866C92.8047 29.075 81.1874 32.716 73.0122 40.2467C63.2972 49.2248 61.0779 64.4671 48.0113 69.8947C33.3368 76.0007 17.3035 69.5328 2.13085 71.7943C-8.01447 73.2869 -18.5221 79.6869 -19.9262 90.6324C-20.7188 96.7158 -18.975 102.731 -18.1598 108.702C-17.1634 115.984 -18.341 122.271 -23.8892 127.427C-28.3051 131.497 -33.8533 134.347 -37.6578 139.073C-41.2812 143.596 -42.2776 149.34 -40.4433 154.836C-35.982 168.314 -20.7188 171.345 -8.35416 168.382C-7.38039 168.156 -7.78801 166.663 -8.76178 166.89C-21.3529 169.92 -38.5863 165.804 -39.7639 150.381C-40.6924 138.327 -27.5804 134.143 -20.8999 126.613C-13.4495 118.222 -17.1181 107.888 -18.273 98.0049C-19.0203 91.5597 -18.0466 85.4084 -13.2909 80.6593C-9.10147 76.4756 -3.32679 74.1689 2.44789 73.3095C15.741 71.342 29.1247 75.8424 42.3951 73.1964C47.4225 72.2014 52.2687 70.1434 56.0732 66.6382C60.0362 62.9972 62.6178 58.2028 65.2447 53.5894C68.234 48.2749 71.4497 43.2997 76.3185 39.5004C80.7344 36.0403 85.9656 33.6884 91.4459 32.4898C97.2206 31.246 103.267 31.3365 108.951 32.9195C114.839 34.5478 120.206 37.6008 125.8 39.9301C131.257 42.1916 137.258 43.9555 143.169 42.5082C149.419 40.9704 153.948 36.0856 159.61 33.3039C166.607 29.8891 175.937 29.075 182.346 34.1633C187.713 38.4149 190.227 46.1491 186.853 52.3456C186.355 53.2728 187.691 54.0643 188.166 53.1824Z" fill="#4F3422"/>
<path d="M187.011 173.606C189.796 176.681 198.606 177.134 201.685 174.352C220.278 155.514 231.827 133.984 242.969 110.917C236.311 108.95 229.472 107.503 222.701 106.123C217.334 105.015 211.944 103.907 206.509 103.455C195.865 102.55 185.222 104.065 174.714 105.942C170.683 129.71 169.03 155.763 187.011 173.606Z" fill="#FFCE5C"/>
<path d="M265.478 121.274C258.662 116.435 250.962 113.291 242.968 110.894C231.826 133.961 220.277 155.491 201.685 174.329C198.605 177.11 189.796 176.658 187.01 173.582C169.03 155.762 170.683 129.71 174.691 105.919C173.921 106.055 173.151 106.19 172.381 106.349C124.825 115.055 92.8265 149.927 59.741 181.995C45.2477 196.039 7.65565 238.283 4.64376 258.252C3.46618 266.009 6.02515 273.178 10.8487 280.03C26.9046 302.758 58.0652 309.022 82.0698 294.843C87.0971 291.88 97.3557 286.046 97.3557 286.046L115.11 338.557L265.637 341C265.637 341 303.41 236.723 327.731 235.841C318.628 209.63 307.622 184.098 294.759 159.561C287.218 145.133 278.635 130.614 265.478 121.274Z" fill="#FFCE5C"/>
<path d="M163.233 47.3467C163.233 47.3467 162.327 49.7665 161.331 53.7014C165.113 54.7191 168.963 55.3975 172.835 55.7142L163.233 47.3467Z" fill="#F6A460"/>
<path d="M172.835 55.6914C168.962 55.3974 165.113 54.719 161.331 53.6787C158.432 65.054 154.786 89.1387 170.027 104.743L179.787 92.1239L193.511 120.551C198.538 130.976 211.99 134.029 221.048 126.792C221.206 126.679 221.365 126.544 221.501 126.43C230.31 119.307 230.627 106.009 222.09 98.5691L172.835 55.6914Z" fill="#F6A460"/>
<path d="M196.16 60.8932C195.934 65.4162 192.061 68.9214 187.532 68.6953C183.003 68.4691 179.493 64.602 179.719 60.0791C179.946 55.5561 183.818 52.0508 188.347 52.277C192.899 52.5031 196.409 56.3702 196.16 60.8932Z" fill="#F6A460"/>
<path d="M187.373 64.2625C188.46 61.5487 189.57 58.8349 190.702 56.1438C191.223 54.9226 189.434 53.8823 188.913 55.1035C187.69 57.953 186.535 60.825 185.38 63.7197C184.859 64.9409 186.875 65.4837 187.373 64.2625Z" fill="#4F3422"/>
<path d="M179.787 92.1467L192.74 118.945L186.309 82.3545L179.787 92.1467Z" fill="#4F3422"/>
<path d="M163.505 87.533C163.505 87.533 171.295 80.2963 176.504 73.3535C176.504 73.3535 175.326 91.6715 167.921 97.3026L163.505 87.533Z" fill="white"/>
<path d="M158.546 66.5691C157.323 71.7931 156.44 77.3337 156.236 82.6934C156.213 83.4624 157.142 83.9825 157.798 83.5754C159.587 82.4673 161.376 81.3592 163.165 80.251C164.298 79.55 163.256 77.7634 162.124 78.4645C160.335 79.5726 158.546 80.6807 156.757 81.7889C157.277 82.0828 157.798 82.3768 158.319 82.6934C158.523 77.5147 159.384 72.1776 160.561 67.1119C160.855 65.8228 158.863 65.2801 158.546 66.5691Z" fill="#4F3422"/>
<path d="M167.717 62.6576C168.691 64.4894 169.664 66.3211 170.661 68.1303C171.295 69.3063 173.084 68.266 172.45 67.0901C171.476 65.2583 170.502 63.4265 169.506 61.6173C168.872 60.4413 167.083 61.4816 167.717 62.6576Z" fill="#4F3422"/>
<path d="M166.403 92.5082C167.218 91.4001 168.011 90.292 168.826 89.1839C169.166 88.7316 168.894 88.0305 168.464 87.7591C167.943 87.4425 167.377 87.6913 167.037 88.121C166.222 89.2291 165.429 90.3372 164.614 91.4453C164.274 91.8976 164.546 92.5987 164.976 92.8701C165.52 93.1867 166.086 92.9605 166.403 92.5082Z" fill="#4F3422"/>
<path d="M171.589 71.2056C172.654 69.0572 174.511 67.5646 176.866 67.0218C178.156 66.7278 177.613 64.7151 176.322 65.0317C173.491 65.6876 171.114 67.5646 169.823 70.1653C169.211 71.3639 171 72.4041 171.589 71.2056Z" fill="#4F3422"/>
<path d="M218.217 134.324C219.055 132.808 219.915 131.248 220.074 129.552C220.368 126.386 218.24 123.491 215.771 121.478C211.921 118.312 207.03 116.481 202.048 116.322L186.286 131.926C185.63 137.965 184.996 144.025 184.339 150.064C191.404 152.596 198.651 154.586 206.011 156.192C210.087 148.888 214.163 141.606 218.217 134.324Z" fill="#F6A460"/>
<path d="M206.034 156.17C198.674 154.564 191.45 152.574 184.362 150.041C182.369 168.563 180.399 187.107 178.406 205.628C187.623 189.142 196.817 172.656 206.034 156.17Z" fill="white"/>
<path d="M247.68 231.906C235.723 265.693 244.577 314.202 305.811 307.915C325.038 305.947 347.865 288.873 362.109 276.503C385.774 255.946 389.352 248.28 410.095 224.873C388.287 229.939 364.94 230.708 343.856 223.222C322.75 215.737 311.654 208.41 305.404 186.948L247.68 231.906Z" fill="#FFCE5C"/>
<path d="M413.016 223.63C407.83 238.555 379.591 242.355 349.925 232.088C320.236 221.82 300.399 201.377 305.585 186.451C310.77 171.525 339.01 167.726 368.676 177.993C398.342 188.26 418.202 208.704 413.016 223.63Z" fill="#4F3422"/>
<path d="M245.12 146.265C251.846 166.663 259.364 186.79 267.63 206.601C268.128 207.822 270.144 207.279 269.623 206.058C261.357 186.247 253.839 166.12 247.113 145.722C246.705 144.455 244.712 144.998 245.12 146.265Z" fill="#4F3422"/>
<path d="M125.188 231.069C135.265 252.734 115.269 283.355 80.53 299.479C45.7913 315.604 9.46745 311.103 -0.609937 289.438C-10.6873 267.773 9.30893 237.153 44.0476 221.028C78.7636 204.904 115.11 209.404 125.188 231.069Z" fill="#4F3422"/>
<path d="M399.473 224.489C402.259 218.88 404.931 213.249 407.513 207.595C411 199.929 414.329 192.104 415.688 184.098C416.141 181.498 416.367 178.852 415.756 176.432C415.144 174.012 413.536 171.864 411.136 171.072C408.554 170.236 405.225 171.185 403.142 173.356C402.191 171.638 401.965 169.58 401.217 167.748C398.998 162.275 391.683 159.833 385.546 162.501C384.799 162.841 383.938 163.225 383.236 162.954C382.874 162.795 382.625 162.479 382.398 162.185C380.677 159.878 378.843 157.481 376.058 156.395C372.525 155.016 368.177 156.034 364.237 157.458C355.291 160.692 346.799 166.052 340.209 173.085C333.597 180.118 328.954 188.893 327.505 197.78C327.03 200.698 326.916 203.638 327.573 206.351C328.094 208.477 329.113 210.399 330.313 212.186C335.001 219.129 342.565 223.697 350.626 226.886C357.964 229.78 365.89 231.703 374.201 231.725C382.512 231.77 391.185 229.848 398.885 225.597L399.473 224.489Z" fill="#F6A460"/>
<path d="M267.789 286.318C255.764 291.293 243.762 296.268 231.737 301.243C235.066 302.125 238.372 303.007 241.701 303.889C232.598 296.381 223.494 288.896 214.39 281.388C207.846 275.983 201.573 270.329 196.002 263.861C193.76 261.238 193.284 260.672 191.473 258.14C189.571 255.494 187.782 252.78 186.128 249.976C182.89 244.503 180.784 239.98 179.176 235.434C178.225 232.698 177.41 229.916 176.73 227.089C176.413 225.778 176.142 224.466 175.892 223.132C175.734 222.295 175.621 221.481 175.462 220.644C175.145 218.722 175.485 221.074 175.372 219.921C175.1 217.094 174.919 214.267 174.941 211.44C174.941 210.106 175.009 208.771 175.077 207.437C175.123 206.781 175.168 206.103 175.236 205.447C175.281 205.085 175.598 202.258 175.349 204.113C175.689 201.58 176.096 199.047 176.481 196.537C178.565 182.606 180.648 168.675 182.754 154.745C184.385 143.912 185.993 133.08 187.623 122.225C184.271 124.758 180.92 127.313 177.546 129.846C184.113 130.479 190.408 129.642 196.93 128.625C205.151 127.336 213.258 125.278 221.116 122.519C237.489 116.797 252.775 108.565 267.449 99.4063C263.283 98.8862 259.093 98.3661 254.926 97.8459C268.672 113.156 285.498 125.888 302.981 136.653C311.314 141.786 319.965 146.603 328.956 150.538C333.145 152.37 337.742 153.275 342.158 154.473C339.735 150.244 337.312 145.993 334.889 141.764C332.284 159.2 329.658 176.658 327.053 194.094C325.717 203.05 324.358 212.028 323.022 220.983C322.547 224.195 322.026 227.383 321.233 230.55C320.735 232.517 320.146 234.462 319.49 236.384C319.173 237.266 318.855 238.148 318.516 239.03C318.493 239.121 317.904 240.568 318.312 239.55C318.765 238.465 317.655 240.975 317.701 240.907C315.979 244.639 313.941 248.257 311.677 251.694C310.975 252.757 310.227 253.82 309.48 254.86C309.435 254.906 308.484 256.195 309.118 255.358C309.775 254.499 308.076 256.67 308.121 256.602C306.559 258.501 304.928 260.356 303.23 262.142C301.509 263.952 299.72 265.693 297.863 267.389C296.346 268.769 293.447 271.188 292.677 271.799C291.839 272.432 288.737 274.671 286.993 275.824C284.796 277.294 282.554 278.674 280.267 279.985C275.421 282.79 270.371 285.209 265.208 287.381C260.044 289.552 258.957 297.195 261.516 301.537C264.664 306.897 270.529 307.395 275.693 305.224C307.94 291.723 337.244 264.359 342.702 228.514C345.691 208.839 348.612 189.142 351.556 169.467C352.666 162.049 353.775 154.632 354.885 147.237C355.723 141.719 353.549 136.133 347.616 134.527C345.713 134.007 343.811 133.509 341.909 132.989C340.754 132.673 339.576 132.356 338.421 132.039C337.516 131.791 335.41 131.745 338.331 132.198C336.474 131.904 334.119 130.208 332.443 129.394C330.269 128.308 328.095 127.177 325.944 126.024C321.664 123.717 317.451 121.297 313.33 118.742C297.002 108.678 282.464 97.6198 269.488 83.1463C266.521 79.8446 260.656 79.2792 256.965 81.5859C250.058 85.9053 243.037 90.0438 235.813 93.7753C232.303 95.5844 228.748 97.3032 225.147 98.8862C222.271 100.153 219.757 101.148 215.772 102.55C203.113 106.982 190.431 110.375 177.704 109.153C173.628 108.769 168.261 112.568 167.627 116.775C164.049 140.656 160.471 164.537 156.893 188.418C156.394 191.788 155.874 195.135 155.375 198.504C153.677 210.083 154.039 221.526 156.825 232.947C162.735 257.145 178.361 278.402 197.361 294.097C207.257 302.284 217.176 310.448 227.095 318.612C229.676 320.737 233.594 322.682 237.059 321.257C249.084 316.282 261.086 311.307 273.111 306.332C278.093 304.274 282.283 299.479 280.426 293.667C278.976 288.873 273.156 284.101 267.789 286.318Z" fill="white"/>
<path d="M270.484 296.313L234.432 311.239L204.335 286.431C176.594 263.567 160.833 231.861 165.385 201.377L177.659 119.488L182.459 119.941C212.828 117.883 236.9 106.327 262.241 90.4736C280.38 110.872 309.367 130.389 334.164 141.583L344.921 144.5L332.646 226.389C328.072 256.851 303.705 282.564 270.484 296.313Z" fill="#9BB168"/>
<path d="M367.884 156.192C352.801 159.901 338.512 167.409 326.759 177.767C324.268 179.961 321.822 183.896 324.2 185.999C325.762 187.378 328.299 186.677 330.314 185.886C342.384 181.136 354.115 175.505 365.415 169.06C355.134 175.234 345.147 181.905 335.477 189.006C331.65 191.811 327.733 194.886 325.785 199.183C325.513 199.748 325.287 200.382 325.332 200.992C325.4 201.987 326.147 202.779 326.963 203.299C330.201 205.357 334.572 204.294 338.353 203.005C349.79 199.138 360.818 193.959 371.122 187.604C360.41 193.077 350.424 200.02 341.546 208.184C340.052 209.563 338.512 211.056 337.855 212.956C337.198 214.855 337.697 217.252 339.486 218.089C341.094 218.835 343.064 218.066 344.74 217.298C360.342 210.061 375.13 200.97 388.65 190.25L367.884 156.192Z" fill="#F6A460"/>
<path d="M207.007 214.651C208.185 219.083 211.242 222.747 215.454 224.579C216.654 225.099 217.719 223.335 216.496 222.792C212.737 221.164 210.042 218.066 209 214.108C208.683 212.819 206.667 213.362 207.007 214.651Z" fill="#4F3422"/>
<path d="M344.966 182.515C352.122 179.598 359.097 176.342 365.913 172.701C367.091 172.067 366.049 170.281 364.871 170.914C358.214 174.465 351.397 177.676 344.422 180.525C343.199 181.023 343.72 183.013 344.966 182.515Z" fill="#4F3422"/>
<path d="M351.261 199.884C360.365 195.361 369.4 190.68 378.346 185.863C379.523 185.229 378.481 183.443 377.304 184.076C368.359 188.893 359.323 193.552 350.219 198.097C349.019 198.708 350.061 200.494 351.261 199.884Z" fill="#4F3422"/>
<path d="M348.566 219.287C360.704 212.095 373.635 205.786 386.77 200.697C387.992 200.223 387.472 198.21 386.226 198.707C372.91 203.886 359.798 210.241 347.524 217.5C346.369 218.179 347.411 219.965 348.566 219.287Z" fill="#4F3422"/>
<path d="M385.977 198.799C381.018 202.394 376.828 207.008 373.59 212.209C372.005 214.742 370.669 217.433 369.695 220.237C369.129 221.888 367.815 224.715 368.97 226.321C369.219 226.683 369.695 226.954 370.148 226.796C370.759 226.57 371.031 226.343 371.19 225.688C371.303 225.258 371.122 224.738 370.714 224.512C370.646 224.489 370.601 224.444 370.533 224.421C369.355 223.788 368.313 225.575 369.491 226.208C369.559 226.23 369.604 226.276 369.672 226.298C369.514 225.914 369.355 225.529 369.197 225.122C369.333 225.009 369.468 224.896 369.582 224.783C369.967 224.941 370.352 225.1 370.759 225.258C369.921 224.082 372.141 219.514 372.616 218.428C373.635 216.099 374.881 213.905 376.307 211.802C379.229 207.505 382.829 203.616 387.042 200.563C388.106 199.816 387.064 198.03 385.977 198.799Z" fill="#4F3422"/>
<path d="M326.713 201.354C331.673 200.2 335.545 196.084 336.292 191.041C336.496 189.73 334.481 189.187 334.3 190.498C333.643 194.886 330.495 198.368 326.147 199.363C324.879 199.657 325.422 201.648 326.713 201.354Z" fill="#4F3422"/>
<path d="M324.698 185.251C329.952 183.08 333.462 178.512 334.186 172.881C334.368 171.57 332.284 171.57 332.103 172.881C331.492 177.495 328.434 181.475 324.132 183.261C322.931 183.759 323.475 185.772 324.698 185.251Z" fill="#4F3422"/>
<path d="M336.949 216.732C342.769 216.37 347.049 210.422 345.418 204.791C345.033 203.525 343.041 204.067 343.426 205.334C344.671 209.608 341.455 214.357 336.971 214.651C335.635 214.742 335.613 216.822 336.949 216.732Z" fill="#4F3422"/>
<path d="M371.348 161.439C372.299 161.507 373.092 161.982 373.703 162.705C374.564 163.723 376.036 162.253 375.175 161.235C374.201 160.105 372.843 159.471 371.348 159.358C370.012 159.268 370.035 161.348 371.348 161.439Z" fill="white"/>
<path d="M-25.2256 147.01C-16.8466 145.54 -11.0946 138.575 -8.03739 131.022C-5.95398 125.888 -5.0255 120.415 -3.87056 115.033C-2.8515 110.216 -1.87773 101.193 3.55726 99.361C4.80278 98.9313 4.28193 96.9412 3.01376 97.3709C-0.473694 98.5469 -2.12684 101.532 -3.32707 104.811C-5.25196 110.103 -6.04456 115.757 -7.29008 121.23C-9.57731 131.27 -14.3329 143.008 -25.7691 144.998C-27.0825 145.246 -26.539 147.237 -25.2256 147.01Z" fill="#E5EAD7"/>
<path d="M10.1471 91.6944C14.4725 87.5106 19.6357 86.8096 25.3878 87.8725C29.3055 88.6187 32.9967 89.546 36.8692 88.0986C38.1147 87.6463 37.5712 85.6336 36.3257 86.1085C30.8907 88.1438 25.5689 85.023 20.066 85.2039C15.718 85.3622 11.8003 87.2392 8.6978 90.2244C7.72403 91.1742 9.19601 92.6216 10.1471 91.6944Z" fill="#E5EAD7"/>
<path d="M70.4542 69.3963C77.5197 59.491 89.5672 54.2896 101.615 55.6465C102.928 55.8048 102.928 53.7243 101.615 53.5886C88.7973 52.1412 76.1383 57.908 68.6652 68.356C67.8726 69.4415 69.6842 70.4818 70.4542 69.3963Z" fill="#E5EAD7"/>
<path d="M112.416 55.9408C116.56 56.2122 120.432 57.343 124.101 59.2878C125.279 59.9211 126.32 58.1345 125.143 57.5013C121.157 55.3755 116.9 54.1769 112.416 53.8603C111.102 53.7698 111.102 55.8504 112.416 55.9408Z" fill="#E5EAD7"/>
<path d="M246.683 297.738C264.188 290.501 280.403 280.686 294.896 268.542C295.666 267.909 294.556 266.801 293.786 267.434C279.497 279.397 263.486 289.122 246.253 296.245C245.347 296.607 245.754 298.1 246.683 297.738Z" fill="white"/>
<path d="M303.501 264.472C307.781 261.035 310.77 256.489 312.287 251.22C312.559 250.247 311.064 249.84 310.793 250.813C309.343 255.833 306.49 260.107 302.414 263.364C301.621 263.997 302.731 265.083 303.501 264.472Z" fill="white"/>
<path d="M334.005 164.717C334.594 161.099 335.545 157.593 336.813 154.156C337.153 153.229 335.659 152.822 335.319 153.749C334.028 157.186 333.1 160.692 332.511 164.31C332.352 165.283 333.847 165.712 334.005 164.717Z" fill="white"/>
<path d="M96.2695 198.074C91.2875 197.645 86.3054 197.192 81.3006 196.763C78.5831 196.514 75.8657 196.288 73.1482 196.039C72.0838 195.948 70.7477 196.084 69.7513 195.745C67.5546 194.976 66.762 193.642 69.2757 192.941C73.8049 191.652 79.4211 191.923 84.0861 192.24C89.3399 192.624 94.4579 193.687 99.4626 195.315C100.663 195.7 101.138 194.071 100.255 193.416C96.6998 190.747 93.1218 188.101 89.5664 185.41C87.9359 184.166 86.2601 182.945 85.0372 181.294C84.4711 180.661 84.0634 179.915 83.7917 179.078C84.4258 178.196 85.0598 177.336 85.7166 176.455C86.2374 176.341 88.2982 178.399 88.7058 178.739C94.8655 183.714 100.459 189.3 105.532 195.383C106.392 196.401 107.842 194.931 107.004 193.913C102.837 188.938 98.3303 184.257 93.4388 180.005C91.4007 178.241 86.2148 172.226 82.9991 174.487C79.8966 176.681 82.2744 181.385 84.1314 183.442C88.2756 188.056 94.2767 191.471 99.2135 195.18C99.4852 194.546 99.757 193.913 100.006 193.28C93.3935 191.154 86.5318 190.001 79.5796 189.978C76.2959 189.978 72.967 190.182 69.7286 190.724C68.0755 190.996 65.8336 191.561 65.0183 193.257C62.867 197.69 70.1816 197.826 72.4688 198.029C80.3948 198.73 88.3435 199.431 96.2695 200.11C97.583 200.268 97.583 198.187 96.2695 198.074Z" fill="#4F3422"/>
<path d="M220.12 190.883C224.74 203.615 229.382 216.325 234.024 229.034C235.27 232.449 239.89 234.507 242.72 231.341C262.853 208.749 279.927 183.624 300.06 161.031C304.476 156.079 297.138 148.752 292.7 153.749C272.568 176.342 255.493 201.467 235.361 224.059C238.259 224.828 241.158 225.597 244.057 226.366C239.391 213.656 234.772 200.924 230.152 188.214C227.865 181.995 217.833 184.619 220.12 190.883Z" fill="#3D4A26"/>
<path d="M179.539 218.269C190.658 216.211 202.366 218.857 211.719 225.529L211.809 225.596C215.614 228.31 219.849 222.702 216.769 219.016C214.527 216.347 211.628 214.108 208.752 212.412C203.272 209.156 197.429 206.69 191.36 205.062C190.522 204.836 189.73 204.293 189.299 203.457C186.718 198.391 196.75 201.082 197.995 201.512C203.747 203.389 209.703 204.384 215.41 206.442C215.75 206.577 216.112 206.69 216.452 206.826C220.234 208.16 223.268 202.891 220.483 199.793C217.493 196.446 213.213 194.524 208.231 192.782C201.596 190.43 193.104 188.553 185.699 186.609C183.955 186.156 182.936 184.121 183.525 182.221C184.272 179.756 186.491 179.688 188.462 179.53C196.093 178.897 202.389 181.995 209.613 183.601C213.53 184.483 216.022 178.784 212.896 176.093C212.511 175.753 212.104 175.459 211.719 175.256C200.124 168.788 186.899 169.014 174.24 167.25C173.402 167.137 172.406 166.843 172.225 165.961C171.545 162.727 177.161 162.32 178.747 162.479C184.793 163.044 190.794 163.587 196.682 165.192C200.939 166.346 203.476 159.855 199.717 157.413C199.354 157.164 199.015 156.983 198.697 156.825C195.686 155.332 192.334 154.857 189.028 154.405C179.72 153.116 170.639 151.804 161.219 152.777C153.791 153.546 145.231 155.378 140 161.936C134.089 169.376 136.15 171.547 135.629 181.339L179.539 218.269Z" fill="#F6A460"/>
<path d="M144.143 158.408C142.354 158.091 99.6893 202.303 97.6285 204.271C85.7847 215.556 71.8576 223.765 57.4322 227.768C37.3906 233.331 13.9069 258.365 14.6316 278.741C14.6316 278.447 14.6316 279.035 14.6316 278.741C15.5601 304.545 48.8268 317.413 74.6656 312.573C89.7251 309.746 104.603 305.992 113.299 301.447C133.862 290.704 149.759 273.449 165.86 256.013C181.169 239.437 184.543 216.845 181.078 204.406C174.534 180.955 159.678 161.076 144.143 158.408Z" fill="#F6A460"/>
<path d="M209.227 194.049C210.382 198.843 214.459 202.168 219.327 202.665C220.664 202.801 220.641 200.72 219.327 200.607C215.387 200.2 212.149 197.351 211.243 193.506C210.903 192.195 208.91 192.737 209.227 194.049Z" fill="#4F3422"/>
<path d="M201.256 173.266C203 177.269 207.28 179.598 211.582 179.123C212.896 178.987 212.918 176.907 211.582 177.042C207.914 177.449 204.539 175.595 203.045 172.203C202.501 171.004 200.712 172.067 201.256 173.266Z" fill="#4F3422"/>
<path d="M187.555 156.417C189.955 161.189 195.3 163.496 200.486 162.455C201.799 162.184 201.233 160.194 199.942 160.465C195.639 161.347 191.337 159.312 189.366 155.377C188.755 154.178 186.966 155.219 187.555 156.417Z" fill="#4F3422"/>
<path d="M160.651 218.111C159.496 215.578 158.817 212.91 158.591 210.128C158.477 208.816 156.417 208.794 156.53 210.128C156.779 213.271 157.549 216.257 158.862 219.151C159.406 220.372 161.195 219.31 160.651 218.111Z" fill="white"/>
<path d="M155.126 199.295C154.651 196.265 154.198 193.234 153.722 190.204C153.518 188.892 151.526 189.458 151.729 190.747C152.205 193.777 152.658 196.807 153.133 199.838C153.315 201.149 155.307 200.607 155.126 199.295Z" fill="white"/>
<path d="M149.556 181.046C148.899 179.666 148.922 178.106 149.556 176.726C150.122 175.527 148.333 174.465 147.767 175.686C146.793 177.789 146.748 180.005 147.767 182.108C148.333 183.284 150.122 182.244 149.556 181.046Z" fill="white"/>
<path d="M148.853 165.803C148.513 164.016 148.173 162.252 147.834 160.466C147.585 159.154 145.592 159.719 145.841 161.008C146.181 162.795 146.52 164.559 146.86 166.345C147.109 167.657 149.124 167.114 148.853 165.803Z" fill="white"/>
</svg>
