<svg width="80" height="80" viewBox="0 0 80 80" fill="none" xmlns="http://www.w3.org/2000/svg">
    <rect width="80" height="80" rx="40" fill="#E1E1E0" />
    <path
        d="M40 0C32.0888 -9.43407e-08 24.3552 2.34596 17.7772 6.74122C11.1992 11.1365 6.07234 17.3836 3.04484 24.6927C0.0173314 32.0017 -0.774802 40.0444 0.768607 47.8036C2.31202 55.5629 6.12165 62.6902 11.7157 68.2843L40 40V0Z"
        fill="#ACA9A5" />
    <path
        d="M40 0C45.2529 6.26399e-08 50.4543 1.03463 55.3073 3.04482C60.1604 5.05501 64.5699 8.00139 68.2843 11.7157C71.9986 15.4301 74.945 19.8396 76.9552 24.6927C78.9654 29.5457 80 34.7471 80 40L40 40V0Z"
        fill="#736B66" />
</svg>
