<svg width="80" height="80" viewBox="0 0 80 80" fill="none" xmlns="http://www.w3.org/2000/svg">
    <g clip-path="url(#clip0_12_10222)">
        <rect width="80" height="80" rx="40" fill="#E1E1E0" />
        <path
            d="M48.3333 18.334C40.049 10.0497 26.6175 10.0497 18.3333 18.334V18.334C10.049 26.6183 10.049 40.0497 18.3332 48.334L53.3333 83.334L88.3333 48.334C96.6175 40.0497 96.6175 26.6183 88.3332 18.334V18.334C80.049 10.0497 66.6175 10.0497 58.3333 18.334L53.3333 23.334L48.3333 18.334Z"
            fill="#ACA9A5" />
        <path fill-rule="evenodd" clip-rule="evenodd"
            d="M36.6667 30.7869L33.3334 37.4536C30.5102 43.1 24.7392 46.6667 18.4263 46.6667H-3.33325V40H18.4263C22.214 40 25.6766 37.86 27.3706 34.4721L33.1159 22.9814C34.0295 21.1542 35.8971 20 37.94 20C40.9187 20 43.3334 22.4147 43.3334 25.3934V55.8798L46.6667 49.2131C49.49 43.5667 55.261 40 61.5739 40H90.0001V46.6667H61.5739C57.7861 46.6667 54.3235 48.8067 52.6296 52.1945L46.8842 63.6852C45.9706 65.5125 44.1031 66.6667 42.0602 66.6667C39.0815 66.6667 36.6667 64.2519 36.6667 61.2732V30.7869Z"
            fill="#736B66" />
    </g>
    <defs>
        <clipPath id="clip0_12_10222">
            <rect width="80" height="80" rx="40" fill="white" />
        </clipPath>
    </defs>
</svg>
