<svg width="375" height="205" viewBox="0 0 375 205" fill="none" xmlns="http://www.w3.org/2000/svg">
    <rect x="-292" y="-755" width="960" height="960" rx="480" fill="#9BB168" />
    <g opacity="0.64">
        <path
            d="M269.137 12.0036C266.381 6.97179 262.516 2.7362 257.954 -0.639549C253.234 -4.11084 247.563 -6.08532 242.051 -7.83689C239.421 -8.69675 236.76 -9.49292 234.163 -10.4483C233.529 -10.6712 232.864 -10.926 232.23 -11.1808C231.28 -11.563 231.818 -11.3719 232.008 -11.2763C231.692 -11.4037 231.375 -11.563 231.09 -11.6903C229.696 -12.3591 228.334 -13.0916 227.035 -13.9196C226.623 -14.1744 226.211 -14.461 225.831 -14.7476C225.862 -14.7476 225.324 -15.1616 225.102 -15.3527C224.247 -16.117 223.423 -16.9451 222.663 -17.8049C222.473 -18.0278 221.776 -18.9514 221.998 -18.6011C221.744 -18.9514 221.491 -19.3335 221.237 -19.6839C220.572 -20.7029 219.97 -21.7857 219.431 -22.8685C219.241 -23.2188 218.766 -24.5246 219.115 -23.5373C218.893 -24.1742 218.639 -24.8112 218.418 -25.48C218.038 -26.6583 217.721 -27.8366 217.499 -29.0468C217.436 -29.4289 217.214 -31.4034 217.309 -30.1296C217.246 -30.7346 217.182 -31.3716 217.151 -31.9767C217.087 -33.2187 217.087 -34.4289 217.151 -35.6709C217.182 -36.1804 217.246 -36.69 217.277 -37.1677C217.246 -36.6263 217.467 -38.2505 217.531 -38.5689C217.784 -39.7791 218.101 -40.9574 218.513 -42.1039C218.608 -42.3587 218.703 -42.6135 218.798 -42.8682C218.798 -42.9001 218.83 -42.9319 218.83 -42.9638C219.115 -43.5052 219.336 -44.0784 219.653 -44.6198C219.97 -45.2249 220.318 -45.7981 220.699 -46.3714C220.857 -46.5943 220.984 -46.8172 221.142 -47.0402C221.301 -47.2631 222.061 -48.2185 221.332 -47.3268C222.98 -49.3968 223.518 -52.5178 221.332 -54.5241C219.495 -56.212 215.915 -56.7534 214.173 -54.5241C207.742 -46.3714 205.682 -36.0531 207.805 -25.9258C209.959 -15.703 216.739 -7.16812 226.179 -2.77328C231.533 -0.289238 237.236 1.20757 242.78 3.15021C243.445 3.37314 244.078 3.6279 244.744 3.85082C245.061 3.97821 245.377 4.10562 245.694 4.23301C245.757 4.26485 246.043 4.36039 246.138 4.42408C247.31 4.93363 248.482 5.50687 249.622 6.14381C250.731 6.74889 251.777 7.44949 252.79 8.18196C252.822 8.21381 252.885 8.24567 252.917 8.27752C253.139 8.4686 253.361 8.62782 253.551 8.81889C254.089 9.26475 254.596 9.74246 255.103 10.2202C255.927 11.0482 256.719 11.8762 257.479 12.7997C257.606 12.959 257.732 13.1182 257.891 13.3093C257.954 13.4048 258.081 13.5641 258.113 13.6278C258.556 14.2647 259 14.9016 259.411 15.5704C260.013 16.5577 260.584 17.5767 261.091 18.6277C261.217 18.9143 261.344 19.2009 261.502 19.4875C261.534 19.5512 261.629 19.806 261.724 19.9971C261.787 20.1563 261.883 20.3792 261.883 20.4429C262.009 20.7932 262.136 21.1754 262.263 21.5576C262.675 22.7359 262.991 23.9461 263.276 25.1563C263.403 25.7613 263.53 26.3664 263.625 27.0034C263.625 27.0989 263.657 27.2581 263.688 27.3855C263.72 27.5766 263.72 27.7677 263.752 27.9588C263.847 29.2008 263.91 30.4428 263.878 31.6848C263.847 32.3218 263.815 32.9268 263.783 33.5638C263.752 33.7549 263.752 33.9459 263.72 34.1689C263.72 34.2644 263.657 34.5192 263.625 34.7421C263.371 36.1752 263.023 37.6083 262.579 38.9777C262.389 39.551 262.168 40.1242 261.978 40.6974C261.946 40.7611 261.946 40.8248 261.914 40.8567C261.756 41.2388 261.566 41.621 261.376 42.0032C260.774 43.2452 260.108 44.4553 259.348 45.6018C258.968 46.175 258.588 46.7483 258.176 47.3215C258.144 47.3534 258.144 47.3852 258.113 47.4171C257.891 47.7037 257.637 47.9903 257.384 48.2769C256.497 49.3279 255.547 50.3151 254.501 51.2705C253.994 51.7482 253.487 52.1941 252.949 52.6081C253.107 52.4807 252.188 53.1813 251.967 53.3406C250.763 54.1686 249.527 54.9329 248.228 55.6017C248.038 55.6972 246.898 56.2067 246.898 56.2386C246.264 56.4934 245.631 56.7163 244.997 56.9392C242.494 57.7673 240.594 60.5061 241.449 63.213C242.273 65.7289 244.997 67.6715 247.69 66.7798C258.556 63.1493 267.015 54.8373 271.387 44.2643C275.695 33.7549 274.491 21.7805 269.137 12.0036Z"
            fill="#CFD9B5" />
        <path
            d="M-26.3627 146.039C-43.4556 132.116 -45.9099 107.142 -31.9727 90.174C-31.885 90.087 -31.885 90.087 -31.7974 90L30 140.295C29.9123 140.382 29.9124 140.382 29.8247 140.469C15.8874 157.438 -9.26981 159.874 -26.3627 146.039Z"
            fill="#CFD9B5" />
        <path
            d="M321.103 114.599C318.14 109.792 318.457 104.984 318.775 101.64C319.092 98.2959 319.092 97.0418 317.611 95.4742C315.283 92.8614 315.494 88.8901 318.14 86.5909C320.785 84.2917 324.806 84.5007 327.134 87.1134C332.319 92.8614 331.79 98.8184 331.472 102.685C331.155 106.03 331.155 107.284 332.636 108.956C334.118 110.628 335.387 110.732 338.773 110.837C342.794 110.941 348.826 111.15 354.01 116.898C359.195 122.646 358.666 128.603 358.349 132.47C358.031 135.815 358.031 137.069 359.513 138.741C360.994 140.413 362.264 140.517 365.65 140.622C369.671 140.726 375.702 140.935 380.887 146.683C386.072 152.431 385.543 158.388 385.225 162.255C384.908 165.6 384.908 166.854 386.389 168.526C388.717 171.139 388.506 175.11 385.86 177.409C383.215 179.708 379.194 179.499 376.866 176.887C371.681 171.139 372.21 165.182 372.528 161.315C372.845 157.97 372.845 156.716 371.364 155.044C369.882 153.372 368.613 153.268 365.227 153.163C361.206 153.059 355.174 152.85 349.99 147.102C344.805 141.354 345.334 135.397 345.651 131.53C345.969 128.185 345.969 126.931 344.487 125.259C343.006 123.587 341.736 123.483 338.35 123.378C334.329 123.274 328.298 123.064 323.113 117.317C322.372 116.376 321.632 115.435 321.103 114.599Z"
            fill="#7D944D" />
        <path
            d="M110.665 179C109.626 179 108.588 178.72 107.738 178.161C106.039 177.135 105 175.269 105 173.217L107.455 81.4348C107.549 79.4761 108.682 77.6106 110.382 76.6778C112.176 75.7451 114.347 75.7451 116.047 76.8644L195.262 124.901C196.961 125.927 198 127.792 198 129.844C197.906 131.803 196.773 133.669 195.073 134.601L113.403 178.44C112.553 178.813 111.609 179 110.665 179ZM118.502 91.4152L116.519 163.796L181.005 129.285L118.502 91.4152Z"
            fill="#B4C48D" />
        <path
            d="M119.967 33.9908C122.131 30.2029 120.779 25.1975 116.991 23.033C113.203 20.8685 108.198 22.2213 106.033 26.0092C103.869 29.7971 105.221 34.8025 109.009 36.967C112.797 39.1315 117.802 37.7787 119.967 33.9908Z"
            fill="#7D944D" />
        <path
            d="M309.967 190.991C312.131 187.203 310.779 182.198 306.991 180.033C303.203 177.869 298.198 179.221 296.033 183.009C293.869 186.797 295.221 191.802 299.009 193.967C302.797 196.132 307.802 194.779 309.967 190.991Z"
            fill="#CFD9B5" />
    </g>
</svg>
