<svg width="24" height="24" viewBox="0 0 24 24" fill="none" xmlns="http://www.w3.org/2000/svg">
<path d="M21.3569 5.35023C21.2579 5.45023 21.129 5.50025 21 5.50025C20.874 5.50025 20.7469 5.45331 20.6499 5.35731L18.6499 3.39723C18.4529 3.20423 18.4491 2.8872 18.6421 2.6902C18.8371 2.4942 19.1541 2.48924 19.3491 2.68324L21.3491 4.6432C21.5471 4.8362 21.5509 5.15323 21.3569 5.35023ZM5.35401 2.64625C5.15901 2.45125 4.84198 2.45125 4.64698 2.64625L2.64698 4.64625C2.45198 4.84125 2.45198 5.15828 2.64698 5.35328C2.74498 5.45128 2.87299 5.49928 3.00099 5.49928C3.12899 5.49928 3.25699 5.45028 3.35499 5.35328L5.35499 3.35328C5.54899 3.15828 5.54901 2.84225 5.35401 2.64625ZM16.7561 19.0413L18.355 20.6472C18.549 20.8432 18.549 21.1593 18.353 21.3543C18.255 21.4513 18.128 21.5003 18 21.5003C17.872 21.5003 17.743 21.4513 17.646 21.3533L15.864 19.5623C14.703 20.1573 13.392 20.5003 12.001 20.5003C10.61 20.5003 9.29795 20.1573 8.13795 19.5623L6.35597 21.3533C6.25797 21.4513 6.12896 21.5003 6.00196 21.5003C5.87496 21.5003 5.74694 21.4523 5.64894 21.3543C5.45294 21.1593 5.45298 20.8432 5.64698 20.6472L7.2461 19.0413C4.9891 17.5113 3.50196 14.9263 3.50196 12.0003C3.50196 7.31325 7.31496 3.50025 12.002 3.50025C16.689 3.50025 20.502 7.31325 20.502 12.0003C20.5 14.9263 19.0131 17.5113 16.7561 19.0413ZM19.5 12.0003C19.5 7.86425 16.136 4.50025 12 4.50025C7.86401 4.50025 4.50001 7.86425 4.50001 12.0003C4.50001 16.1363 7.86401 19.5003 12 19.5003C16.136 19.5003 19.5 16.1363 19.5 12.0003ZM12.5 11.8333V8.04029C12.5 7.76429 12.276 7.54029 12 7.54029C11.724 7.54029 11.5 7.76429 11.5 8.04029V12.0403C11.5 12.1733 11.553 12.3003 11.646 12.3943L13.646 14.3943C13.744 14.4923 13.872 14.5403 14 14.5403C14.128 14.5403 14.256 14.4913 14.354 14.3943C14.549 14.1993 14.549 13.8823 14.354 13.6873L12.5 11.8333Z" fill="#4F3422" stroke="#4F3422"/>
</svg>
