<svg width="375" height="876" viewBox="0 0 375 876" fill="none" xmlns="http://www.w3.org/2000/svg">
    <path
        d="M242.426 631.103C240.402 574.839 300.045 537.483 349.783 563.862L478.306 632.025C528.044 658.404 530.575 728.734 482.861 758.619L359.568 835.842C311.854 865.727 249.681 832.753 247.657 776.489L242.426 631.103Z"
        fill="#AC836C" />
    <path opacity="0.48"
        d="M-45.1852 5.15299C-65.254 -53.3875 -14.4251 -111.701 46.3068 -99.8105L203.237 -69.0866C263.969 -57.1964 289.055 15.9792 248.392 62.6296L143.319 183.173C102.656 229.824 26.7411 214.961 6.6723 156.421L-45.1852 5.15299Z"
        fill="#9F7259" />
    <path
        d="M-48.2308 791.14C-79.0963 766.039 -71.2151 716.938 -34.0445 702.758L62.0038 666.117C99.1744 651.937 137.756 683.313 131.451 722.593L115.159 824.094C108.854 863.375 62.3909 881.1 31.5253 855.999L-48.2308 791.14Z"
        fill="#AC836C" />
    <path opacity="0.64"
        d="M5.6698 287.965C33.227 264.532 75.8165 279.719 82.3309 315.3L99.164 407.242C105.678 442.823 71.2319 472.113 37.1603 459.964L-50.88 428.571C-84.9516 416.422 -93.0946 371.946 -65.5375 348.513L5.6698 287.965Z"
        fill="#9F7259" />
    <path opacity="0.64"
        d="M426.231 122.874C457.414 129.307 469.94 167.084 448.777 190.874L394.093 252.345C372.93 276.134 333.951 268.093 323.93 237.871L298.037 159.778C288.016 129.555 314.469 99.8186 345.653 106.251L426.231 122.874Z"
        fill="#9F7259" />
    <path
        d="M321.669 425.524C339.195 411.244 365.608 421.292 369.212 443.61L378.524 501.281C382.128 523.599 360.22 541.45 339.09 533.412L284.489 512.641C263.359 504.603 258.854 476.705 276.381 462.424L321.669 425.524Z"
        fill="#9F7259" />
    <circle cx="135.5" cy="553.5" r="34.5" fill="#AC836C" />
    <circle cx="235.5" cy="361.5" r="19.5" fill="#9F7259" />
    <circle cx="228" cy="175" r="11" fill="#9F7259" />
    <circle cx="188" cy="758" r="11" fill="#AC836C" />
</svg>
