<svg width="16" height="16" viewBox="0 0 16 16" fill="none" xmlns="http://www.w3.org/2000/svg">
<path d="M5.99992 3.37443V2.6665H4.66659V3.72085C3.56034 4.16865 2.63853 4.97684 2.04676 5.99984H13.9531C13.3613 4.97684 12.4395 4.16865 11.3333 3.72085V2.6665H9.99992V3.37443C9.78152 3.3472 9.55903 3.33317 9.33325 3.33317H6.66659C6.44081 3.33317 6.21832 3.3472 5.99992 3.37443Z" fill="white"/>
<path fill-rule="evenodd" clip-rule="evenodd" d="M1.50128 7.33317C1.39159 7.75933 1.33325 8.2061 1.33325 8.6665C1.33325 11.612 3.72107 13.9998 6.66659 13.9998H9.33325C12.2788 13.9998 14.6666 11.612 14.6666 8.6665C14.6666 8.2061 14.6082 7.75933 14.4986 7.33317H1.50128ZM7.33325 9.99984C7.33325 9.63165 7.63173 9.33317 7.99992 9.33317C8.36811 9.33317 8.66659 9.63165 8.66659 9.99984C8.66659 10.368 8.36811 10.6665 7.99992 10.6665C7.63173 10.6665 7.33325 10.368 7.33325 9.99984ZM10.6666 9.33317C10.2984 9.33317 9.99992 9.63165 9.99992 9.99984C9.99992 10.368 10.2984 10.6665 10.6666 10.6665C11.0348 10.6665 11.3333 10.368 11.3333 9.99984C11.3333 9.63165 11.0348 9.33317 10.6666 9.33317ZM4.66659 9.99984C4.66659 9.63165 4.96506 9.33317 5.33325 9.33317C5.70144 9.33317 5.99992 9.63165 5.99992 9.99984C5.99992 10.368 5.70144 10.6665 5.33325 10.6665C4.96506 10.6665 4.66659 10.368 4.66659 9.99984Z" fill="white"/>
</svg>
