<svg width="375" height="720" viewBox="0 0 375 720" fill="none" xmlns="http://www.w3.org/2000/svg">
    <path
        d="M187 440C264.32 440 327 502.68 327 580C327 657.32 264.32 720 187 720C109.68 720 47 657.32 47 580C47 502.68 109.68 440 187 440Z"
        fill="#4F3422" />
    <path
        d="M-33 220C44.3199 220 107 282.68 107 360C107 437.32 44.3199 500 -33 500C-110.32 500 -173 437.32 -173 360C-173 282.68 -110.32 220 -33 220Z"
        fill="#4F3422" />
    <path
        d="M187 3.0598e-06C264.32 1.36992e-06 327 62.6801 327 140C327 217.32 264.32 280 187 280C109.68 280 47 217.32 47 140C47 62.6801 109.68 4.74968e-06 187 3.0598e-06Z"
        fill="#4F3422" />
    <path
        d="M407 220C484.32 220 547 282.68 547 360C547 437.32 484.32 500 407 500C329.68 500 267 437.32 267 360C267 282.68 329.68 220 407 220Z"
        fill="#4F3422" />
</svg>
