<svg width="14" height="20" viewBox="0 0 14 20" fill="none" xmlns="http://www.w3.org/2000/svg">
    <path fill-rule="evenodd" clip-rule="evenodd"
        d="M0 5C0 2.94968 1.2341 1.1876 3 0.416044V1C3 1.52529 3.10346 2.04543 3.30448 2.53073C3.5055 3.01604 3.80014 3.45699 4.17157 3.82843C4.54301 4.19986 4.98396 4.4945 5.46927 4.69552C5.95457 4.89654 6.47471 5 7 5C7.52529 5 8.04543 4.89654 8.53073 4.69552C9.01604 4.4945 9.45699 4.19986 9.82843 3.82843C10.1999 3.45699 10.4945 3.01604 10.6955 2.53073C10.8965 2.04543 11 1.52529 11 1V0.416044C12.7659 1.1876 14 2.94968 14 5V15C14 17.7614 11.7614 20 9 20H5C2.23858 20 0 17.7614 0 15V5ZM7 18C7.55228 18 8 17.5523 8 17C8 16.4477 7.55228 16 7 16C6.44772 16 6 16.4477 6 17C6 17.5523 6.44772 18 7 18Z"
        fill="white" />
    <path
        d="M5 0H9V1C9 1.26264 8.94827 1.52272 8.84776 1.76537C8.74725 2.00802 8.59993 2.2285 8.41421 2.41421C8.2285 2.59993 8.00802 2.74725 7.76537 2.84776C7.52272 2.94827 7.26264 3 7 3C6.73736 3 6.47728 2.94827 6.23463 2.84776C5.99198 2.74725 5.7715 2.59993 5.58579 2.41421C5.40007 2.2285 5.25275 2.00802 5.15224 1.76537C5.05173 1.52272 5 1.26264 5 1V0Z"
        fill="white" />
</svg>
