<svg width="123" height="120" viewBox="0 0 123 120" fill="none" xmlns="http://www.w3.org/2000/svg">
    <path
        d="M61.5 44C69.232 44 75.5 50.268 75.5 58C75.5 65.732 69.232 72 61.5 72C53.768 72 47.5 65.732 47.5 58C47.5 50.268 53.768 44 61.5 44Z"
        fill="#926247" />
    <path
        d="M39.5 22C47.232 22 53.5 28.268 53.5 36C53.5 43.732 47.232 50 39.5 50C31.768 50 25.5 43.732 25.5 36C25.5 28.268 31.768 22 39.5 22Z"
        fill="#926247" />
    <path
        d="M61.5 3.0598e-07C69.232 1.36992e-07 75.5 6.26801 75.5 14C75.5 21.732 69.232 28 61.5 28C53.768 28 47.5 21.732 47.5 14C47.5 6.26801 53.768 4.74968e-07 61.5 3.0598e-07Z"
        fill="#926247" />
    <path
        d="M83.5 22C91.232 22 97.5 28.268 97.5 36C97.5 43.732 91.232 50 83.5 50C75.768 50 69.5 43.732 69.5 36C69.5 28.268 75.768 22 83.5 22Z"
        fill="#926247" />
    <path
        d="M7.08256 94.3515V98.5993H12.56V103.535H7.08256V118.827H2.18697V103.535H0V98.5993H2.18697V94.3515C2.18697 93.1918 2.46786 92.1332 3.02965 91.1757C3.60482 90.2048 4.37394 89.4362 5.337 88.8698C6.30007 88.2899 7.36346 88 8.52717 88C9.36985 88 10.2058 88.1753 11.0352 88.5259C11.8645 88.8765 12.6001 89.4159 13.2422 90.1441L9.71094 93.6233C9.59056 93.3941 9.41667 93.2255 9.18928 93.1176C8.97526 92.9962 8.75456 92.9356 8.52717 92.9356C8.13926 92.9356 7.79818 93.0772 7.50391 93.3603C7.22301 93.63 7.08256 93.9604 7.08256 94.3515Z"
        fill="#4F3422" />
    <path
        d="M14.4316 118.827L14.4115 98.5993H19.3071L19.3272 100.4C20.0094 99.6714 20.8253 99.0983 21.775 98.6802C22.7247 98.2487 23.748 98.0329 24.8448 98.0329C25.5805 98.0329 26.3161 98.1408 27.0518 98.3566L25.1257 103.333C24.6174 103.13 24.1091 103.029 23.6008 103.029C22.8116 103.029 22.0893 103.225 21.4339 103.616C20.7919 103.993 20.2769 104.513 19.889 105.173C19.5145 105.821 19.3272 106.542 19.3272 107.338V118.827H14.4316Z"
        fill="#4F3422" />
    <path
        d="M35.3846 119.353C33.5387 119.353 31.8534 118.874 30.3285 117.917C28.817 116.959 27.6065 115.671 26.6969 114.053C25.8007 112.435 25.3526 110.648 25.3526 108.693C25.3526 107.223 25.6135 105.848 26.1351 104.566C26.6568 103.272 27.3724 102.139 28.282 101.168C29.2049 100.184 30.275 99.4152 31.4922 98.8623C32.7094 98.3094 34.0069 98.0329 35.3846 98.0329C36.9496 98.0329 38.3808 98.3701 39.6783 99.0443C40.9891 99.7051 42.0993 100.615 43.0089 101.775C43.9185 102.935 44.5806 104.256 44.9952 105.74C45.4099 107.223 45.5035 108.774 45.2761 110.392H30.6094C30.7967 111.147 31.1043 111.828 31.5323 112.435C31.9604 113.028 32.5021 113.507 33.1575 113.871C33.8129 114.222 34.5553 114.404 35.3846 114.417C36.2407 114.431 37.0165 114.229 37.712 113.811C38.421 113.379 39.0095 112.799 39.4776 112.071L44.4736 113.244C43.6576 115.038 42.4404 116.508 40.8219 117.654C39.2034 118.787 37.391 119.353 35.3846 119.353ZM30.4489 106.69H40.3203C40.1732 105.881 39.8589 105.153 39.3773 104.506C38.9092 103.845 38.3273 103.319 37.6318 102.928C36.9362 102.537 36.1872 102.341 35.3846 102.341C34.5821 102.341 33.8397 102.537 33.1575 102.928C32.4753 103.306 31.8935 103.825 31.412 104.486C30.9438 105.133 30.6228 105.868 30.4489 106.69Z"
        fill="#4F3422" />
    <path
        d="M45.5012 111.343V98.5993H50.3968V110.048C50.3968 110.844 50.5908 111.572 50.9787 112.233C51.3666 112.88 51.8815 113.399 52.5236 113.79C53.179 114.168 53.8946 114.357 54.6704 114.357C55.473 114.357 56.1953 114.168 56.8373 113.79C57.4794 113.399 57.9944 112.88 58.3823 112.233C58.7702 111.572 58.9641 110.844 58.9641 110.048V98.5993H63.8597L63.8798 118.827H58.9842L58.9641 116.986C58.2686 117.714 57.4459 118.294 56.4962 118.726C55.5466 119.144 54.53 119.353 53.4465 119.353C51.9885 119.353 50.6576 118.996 49.4538 118.281C48.25 117.553 47.2869 116.588 46.5646 115.388C45.8557 114.175 45.5012 112.826 45.5012 111.343Z"
        fill="#4F3422" />
    <path
        d="M80.9451 88.4855H85.8407V118.827H80.9451V116.299C80.303 117.202 79.4938 117.937 78.5173 118.503C77.5409 119.07 76.4106 119.353 75.1265 119.353C73.6686 119.353 72.3042 119.076 71.0335 118.524C69.7628 117.971 68.6392 117.209 67.6628 116.238C66.6997 115.253 65.9439 114.121 65.3955 112.84C64.8471 111.559 64.5729 110.183 64.5729 108.713C64.5729 107.243 64.8471 105.868 65.3955 104.587C65.9439 103.306 66.6997 102.18 67.6628 101.209C68.6392 100.224 69.7628 99.4556 71.0335 98.9027C72.3042 98.3498 73.6686 98.0734 75.1265 98.0734C76.4106 98.0734 77.5409 98.3566 78.5173 98.923C79.4938 99.4759 80.303 100.211 80.9451 101.128V88.4855ZM75.1867 114.599C76.2301 114.599 77.153 114.336 77.9556 113.811C78.7581 113.285 79.3868 112.577 79.8416 111.687C80.2963 110.783 80.5237 109.792 80.5237 108.713C80.5237 107.621 80.2963 106.63 79.8416 105.74C79.3868 104.836 78.7514 104.121 77.9355 103.596C77.1329 103.07 76.2167 102.807 75.1867 102.807C74.1568 102.807 73.2138 103.076 72.3577 103.616C71.515 104.142 70.8396 104.85 70.3313 105.74C69.8364 106.63 69.5889 107.621 69.5889 108.713C69.5889 109.805 69.843 110.797 70.3513 111.687C70.8596 112.577 71.5351 113.285 72.3778 113.811C73.2338 114.336 74.1702 114.599 75.1867 114.599Z"
        fill="#4F3422" />
    <path
        d="M90.5604 119.353C89.8648 119.353 89.2696 119.11 88.7747 118.625C88.2932 118.126 88.0524 117.519 88.0524 116.804C88.0524 116.117 88.2932 115.523 88.7747 115.024C89.2696 114.525 89.8648 114.276 90.5604 114.276C91.2559 114.276 91.8512 114.525 92.3461 115.024C92.841 115.523 93.0885 116.117 93.0885 116.804C93.0885 117.519 92.841 118.126 92.3461 118.625C91.8512 119.11 91.2559 119.353 90.5604 119.353Z"
        fill="#4F3422" />
    <path
        d="M110.916 98.5993H115.812V118.827H110.916L110.695 116.319C110.147 117.222 109.418 117.957 108.509 118.524C107.612 119.076 106.549 119.353 105.318 119.353C103.834 119.353 102.443 119.07 101.145 118.503C99.8476 117.937 98.7039 117.155 97.7141 116.157C96.7377 115.159 95.9686 114.006 95.4068 112.698C94.8584 111.39 94.5841 109.988 94.5841 108.491C94.5841 107.048 94.845 105.692 95.3666 104.425C95.9017 103.157 96.644 102.045 97.5937 101.087C98.5434 100.13 99.6403 99.3815 100.884 98.842C102.128 98.3026 103.466 98.0329 104.897 98.0329C106.221 98.0329 107.405 98.3296 108.448 98.923C109.505 99.5163 110.401 100.271 111.137 101.188L110.916 98.5993ZM105.198 114.599C106.241 114.599 107.164 114.336 107.967 113.811C108.769 113.285 109.398 112.577 109.853 111.687C110.308 110.783 110.535 109.792 110.535 108.713C110.535 107.621 110.308 106.63 109.853 105.74C109.398 104.836 108.763 104.121 107.947 103.596C107.144 103.07 106.228 102.807 105.198 102.807C104.168 102.807 103.225 103.076 102.369 103.616C101.526 104.142 100.851 104.85 100.342 105.74C99.8476 106.63 99.6001 107.621 99.6001 108.713C99.6001 109.805 99.8543 110.797 100.363 111.687C100.871 112.577 101.546 113.285 102.389 113.811C103.245 114.336 104.181 114.599 105.198 114.599Z"
        fill="#4F3422" />
    <path
        d="M118.004 98.5993H122.9V118.827H118.004V98.5993ZM120.492 95.9899C119.77 95.9899 119.161 95.754 118.666 95.282C118.171 94.7965 117.924 94.1897 117.924 93.4615C117.924 92.7468 118.171 92.1467 118.666 91.6612C119.161 91.1757 119.763 90.933 120.472 90.933C121.181 90.933 121.776 91.1757 122.258 91.6612C122.753 92.1467 123 92.7468 123 93.4615C123 94.1897 122.759 94.7965 122.278 95.282C121.796 95.754 121.201 95.9899 120.492 95.9899Z"
        fill="#4F3422" />
</svg>
