<svg width="162" height="198" viewBox="0 0 162 198" fill="none" xmlns="http://www.w3.org/2000/svg">
<g filter="url(#filter0_ddddd_824_22841)">
<rect x="21" y="4" width="120" height="120" rx="60" fill="#A694F5"/>
<path fill-rule="evenodd" clip-rule="evenodd" d="M92.8836 42.0604C94.2974 40.6465 96.5897 40.6465 98.0035 42.0604L108.864 52.9212C110.278 54.3351 110.278 56.6273 108.864 58.0411C107.451 59.4549 105.158 59.4549 103.744 58.0411L92.8836 47.1802C91.4698 45.7664 91.4698 43.4742 92.8836 42.0604Z" fill="#3C357C"/>
<path fill-rule="evenodd" clip-rule="evenodd" d="M108.864 42.0604C110.278 43.4742 110.278 45.7664 108.864 47.1802L98.0036 58.0411C96.5898 59.4549 94.2975 59.4549 92.8837 58.0411C91.4699 56.6273 91.4699 54.3351 92.8837 52.9212L103.745 42.0604C105.158 40.6465 107.451 40.6465 108.864 42.0604Z" fill="#3C357C"/>
<path fill-rule="evenodd" clip-rule="evenodd" d="M53.0604 42.0604C54.4742 40.6465 56.7664 40.6465 58.1802 42.0604L69.0411 52.9212C70.4549 54.3351 70.4549 56.6273 69.0411 58.0411C67.6273 59.4549 65.3351 59.4549 63.9212 58.0411L53.0604 47.1802C51.6465 45.7664 51.6465 43.4742 53.0604 42.0604Z" fill="#3C357C"/>
<path fill-rule="evenodd" clip-rule="evenodd" d="M69.0412 42.0604C70.455 43.4742 70.455 45.7664 69.0412 47.1802L58.1803 58.0411C56.7665 59.4549 54.4743 59.4549 53.0605 58.0411C51.6466 56.6273 51.6466 54.3351 53.0605 52.9212L63.9213 42.0604C65.3351 40.6465 67.6274 40.6465 69.0412 42.0604Z" fill="#3C357C"/>
<path fill-rule="evenodd" clip-rule="evenodd" d="M67.7399 70.8305C71.5335 67.9196 76.1816 66.3418 80.9633 66.3418C85.745 66.3418 90.3931 67.9196 94.1867 70.8305C97.9802 73.7414 100.707 77.8228 101.945 82.4416C102.462 84.3729 101.316 86.358 99.385 86.8755C97.4537 87.393 95.4685 86.2469 94.951 84.3156C94.126 81.2364 92.3079 78.5155 89.7789 76.5749C87.2498 74.6343 84.1511 73.5824 80.9633 73.5824C77.7755 73.5824 74.6768 74.6343 72.1477 76.5749C69.6187 78.5155 67.8006 81.2364 66.9755 84.3155C66.4581 86.2469 64.4729 87.393 62.5416 86.8755C60.6103 86.358 59.4642 84.3729 59.9817 82.4415C61.2193 77.8228 63.9463 73.7414 67.7399 70.8305Z" fill="#3C357C"/>
</g>
<defs>
<filter id="filter0_ddddd_824_22841" x="-1.90735e-06" y="0" width="162" height="198" filterUnits="userSpaceOnUse" color-interpolation-filters="sRGB">
<feFlood flood-opacity="0" result="BackgroundImageFix"/>
<feColorMatrix in="SourceAlpha" type="matrix" values="0 0 0 0 0 0 0 0 0 0 0 0 0 0 0 0 0 0 127 0" result="hardAlpha"/>
<feOffset/>
<feColorMatrix type="matrix" values="0 0 0 0 0.65098 0 0 0 0 0.580392 0 0 0 0 0.960784 0 0 0 0.1 0"/>
<feBlend mode="normal" in2="BackgroundImageFix" result="effect1_dropShadow_824_22841"/>
<feColorMatrix in="SourceAlpha" type="matrix" values="0 0 0 0 0 0 0 0 0 0 0 0 0 0 0 0 0 0 127 0" result="hardAlpha"/>
<feOffset dy="3"/>
<feGaussianBlur stdDeviation="3.5"/>
<feColorMatrix type="matrix" values="0 0 0 0 0.65098 0 0 0 0 0.580392 0 0 0 0 0.960784 0 0 0 0.1 0"/>
<feBlend mode="normal" in2="effect1_dropShadow_824_22841" result="effect2_dropShadow_824_22841"/>
<feColorMatrix in="SourceAlpha" type="matrix" values="0 0 0 0 0 0 0 0 0 0 0 0 0 0 0 0 0 0 127 0" result="hardAlpha"/>
<feOffset dy="13"/>
<feGaussianBlur stdDeviation="6.5"/>
<feColorMatrix type="matrix" values="0 0 0 0 0.65098 0 0 0 0 0.580392 0 0 0 0 0.960784 0 0 0 0.09 0"/>
<feBlend mode="normal" in2="effect2_dropShadow_824_22841" result="effect3_dropShadow_824_22841"/>
<feColorMatrix in="SourceAlpha" type="matrix" values="0 0 0 0 0 0 0 0 0 0 0 0 0 0 0 0 0 0 127 0" result="hardAlpha"/>
<feOffset dy="30"/>
<feGaussianBlur stdDeviation="9"/>
<feColorMatrix type="matrix" values="0 0 0 0 0.65098 0 0 0 0 0.580392 0 0 0 0 0.960784 0 0 0 0.05 0"/>
<feBlend mode="normal" in2="effect3_dropShadow_824_22841" result="effect4_dropShadow_824_22841"/>
<feColorMatrix in="SourceAlpha" type="matrix" values="0 0 0 0 0 0 0 0 0 0 0 0 0 0 0 0 0 0 127 0" result="hardAlpha"/>
<feOffset dy="53"/>
<feGaussianBlur stdDeviation="10.5"/>
<feColorMatrix type="matrix" values="0 0 0 0 0.65098 0 0 0 0 0.580392 0 0 0 0 0.960784 0 0 0 0.01 0"/>
<feBlend mode="normal" in2="effect4_dropShadow_824_22841" result="effect5_dropShadow_824_22841"/>
<feBlend mode="normal" in="SourceGraphic" in2="effect5_dropShadow_824_22841" result="shape"/>
</filter>
</defs>
</svg>
