<svg width="163" height="198" viewBox="0 0 163 198" fill="none" xmlns="http://www.w3.org/2000/svg">
<g filter="url(#filter0_ddddd_824_22804)">
<rect x="21.5" y="4" width="120" height="120" rx="60" fill="#926247"/>
<path fill-rule="evenodd" clip-rule="evenodd" d="M104.25 45C106.321 45 108 46.6789 108 48.75L108 60C108 62.0711 106.321 63.75 104.25 63.75C102.179 63.75 100.5 62.0711 100.5 60L100.5 48.75C100.5 46.6789 102.179 45 104.25 45Z" fill="white"/>
<path fill-rule="evenodd" clip-rule="evenodd" d="M59.25 45C61.3211 45 63 46.6789 63 48.75L63 60C63 62.0711 61.3211 63.75 59.25 63.75C57.1789 63.75 55.5 62.0711 55.5 60L55.5 48.75C55.5 46.6789 57.1789 45 59.25 45Z" fill="white"/>
<path fill-rule="evenodd" clip-rule="evenodd" d="M55.5 78.75C55.5 76.6789 57.1789 75 59.25 75H104.25C106.321 75 108 76.6789 108 78.75C108 80.8211 106.321 82.5 104.25 82.5H59.25C57.1789 82.5 55.5 80.8211 55.5 78.75Z" fill="white"/>
</g>
<defs>
<filter id="filter0_ddddd_824_22804" x="0.499998" y="0" width="162" height="198" filterUnits="userSpaceOnUse" color-interpolation-filters="sRGB">
<feFlood flood-opacity="0" result="BackgroundImageFix"/>
<feColorMatrix in="SourceAlpha" type="matrix" values="0 0 0 0 0 0 0 0 0 0 0 0 0 0 0 0 0 0 127 0" result="hardAlpha"/>
<feOffset/>
<feColorMatrix type="matrix" values="0 0 0 0 0.572549 0 0 0 0 0.384314 0 0 0 0 0.278431 0 0 0 0.1 0"/>
<feBlend mode="normal" in2="BackgroundImageFix" result="effect1_dropShadow_824_22804"/>
<feColorMatrix in="SourceAlpha" type="matrix" values="0 0 0 0 0 0 0 0 0 0 0 0 0 0 0 0 0 0 127 0" result="hardAlpha"/>
<feOffset dy="3"/>
<feGaussianBlur stdDeviation="3.5"/>
<feColorMatrix type="matrix" values="0 0 0 0 0.572549 0 0 0 0 0.384314 0 0 0 0 0.278431 0 0 0 0.1 0"/>
<feBlend mode="normal" in2="effect1_dropShadow_824_22804" result="effect2_dropShadow_824_22804"/>
<feColorMatrix in="SourceAlpha" type="matrix" values="0 0 0 0 0 0 0 0 0 0 0 0 0 0 0 0 0 0 127 0" result="hardAlpha"/>
<feOffset dy="13"/>
<feGaussianBlur stdDeviation="6.5"/>
<feColorMatrix type="matrix" values="0 0 0 0 0.572549 0 0 0 0 0.384314 0 0 0 0 0.278431 0 0 0 0.09 0"/>
<feBlend mode="normal" in2="effect2_dropShadow_824_22804" result="effect3_dropShadow_824_22804"/>
<feColorMatrix in="SourceAlpha" type="matrix" values="0 0 0 0 0 0 0 0 0 0 0 0 0 0 0 0 0 0 127 0" result="hardAlpha"/>
<feOffset dy="30"/>
<feGaussianBlur stdDeviation="9"/>
<feColorMatrix type="matrix" values="0 0 0 0 0.572549 0 0 0 0 0.384314 0 0 0 0 0.278431 0 0 0 0.05 0"/>
<feBlend mode="normal" in2="effect3_dropShadow_824_22804" result="effect4_dropShadow_824_22804"/>
<feColorMatrix in="SourceAlpha" type="matrix" values="0 0 0 0 0 0 0 0 0 0 0 0 0 0 0 0 0 0 127 0" result="hardAlpha"/>
<feOffset dy="53"/>
<feGaussianBlur stdDeviation="10.5"/>
<feColorMatrix type="matrix" values="0 0 0 0 0.572549 0 0 0 0 0.384314 0 0 0 0 0.278431 0 0 0 0.01 0"/>
<feBlend mode="normal" in2="effect4_dropShadow_824_22804" result="effect5_dropShadow_824_22804"/>
<feBlend mode="normal" in="SourceGraphic" in2="effect5_dropShadow_824_22804" result="shape"/>
</filter>
</defs>
</svg>
