<svg width="163" height="198" viewBox="0 0 163 198" fill="none" xmlns="http://www.w3.org/2000/svg">
<g filter="url(#filter0_ddddd_824_22768)">
<rect x="21.5" y="4" width="120" height="120" rx="60" fill="#9BB167"/>
<path fill-rule="evenodd" clip-rule="evenodd" d="M97.857 40.9895C99.4342 40.3362 101.125 40 102.832 40C104.539 40 106.229 40.3362 107.806 40.9895C109.384 41.6428 110.817 42.6004 112.024 43.8075C113.231 45.0147 114.189 46.4477 114.842 48.0249C115.495 49.6021 115.831 51.2926 115.831 52.9997C115.831 55.3929 113.891 57.3329 111.498 57.3329C109.105 57.3329 107.165 55.3929 107.165 52.9997C107.165 52.4306 107.053 51.8672 106.835 51.3414C106.617 50.8157 106.298 50.338 105.896 49.9356C105.493 49.5333 105.016 49.2141 104.49 48.9963C103.964 48.7785 103.401 48.6665 102.832 48.6665C102.263 48.6665 101.699 48.7785 101.173 48.9963C100.648 49.2141 100.17 49.5333 99.7677 49.9356C99.3653 50.338 99.0461 50.8157 98.8283 51.3414C98.6106 51.8672 98.4985 52.4306 98.4985 52.9997C98.4985 55.3929 96.5584 57.3329 94.1653 57.3329C91.7721 57.3329 89.832 55.3929 89.832 52.9997C89.832 51.2926 90.1683 49.6021 90.8216 48.0249C91.4749 46.4477 92.4324 45.0147 93.6396 43.8075C94.8467 42.6004 96.2798 41.6428 97.857 40.9895Z" fill="#3D4A26"/>
<path fill-rule="evenodd" clip-rule="evenodd" d="M103.215 67.4222C105.527 68.0416 106.898 70.4176 106.279 72.7293C104.798 78.2576 101.534 83.1427 96.993 86.6268C92.4523 90.111 86.8889 91.9995 81.1655 91.9995C75.4422 91.9995 69.8788 90.111 65.3381 86.6268C60.7975 83.1427 57.5334 78.2576 56.052 72.7293C55.4326 70.4176 56.8045 68.0416 59.1161 67.4222C61.4277 66.8028 63.8038 68.1746 64.4232 70.4862C65.4108 74.1718 67.5868 77.4285 70.6139 79.7513C73.641 82.074 77.35 83.3331 81.1655 83.3331C84.9811 83.3331 88.6901 82.074 91.7172 79.7513C94.7443 77.4285 96.9203 74.1718 97.9079 70.4862C98.5273 68.1746 100.903 66.8028 103.215 67.4222Z" fill="#3D4A26"/>
<path fill-rule="evenodd" clip-rule="evenodd" d="M54.5249 40.9895C56.1021 40.3362 57.7926 40 59.4997 40C61.2068 40 62.8973 40.3362 64.4745 40.9895C66.0517 41.6428 67.4847 42.6004 68.6919 43.8075C69.899 45.0147 70.8566 46.4477 71.5098 48.0249C72.1631 49.6021 72.4994 51.2926 72.4994 52.9997C72.4994 55.3929 70.5593 57.3329 68.1662 57.3329C65.773 57.3329 63.8329 55.3929 63.8329 52.9997C63.8329 52.4306 63.7208 51.8672 63.5031 51.3414C63.2853 50.8157 62.9661 50.338 62.5638 49.9356C62.1614 49.5333 61.6837 49.2141 61.158 48.9963C60.6322 48.7785 60.0687 48.6665 59.4997 48.6665C58.9306 48.6665 58.3672 48.7785 57.8414 48.9963C57.3157 49.2141 56.838 49.5333 56.4356 49.9356C56.0333 50.338 55.7141 50.8157 55.4963 51.3414C55.2785 51.8672 55.1665 52.4306 55.1665 52.9997C55.1665 55.3929 53.2264 57.3329 50.8332 57.3329C48.4401 57.3329 46.5 55.3929 46.5 52.9997C46.5 51.2926 46.8362 49.6021 47.4895 48.0249C48.1428 46.4477 49.1004 45.0147 50.3075 43.8075C51.5147 42.6004 52.9477 41.6428 54.5249 40.9895Z" fill="#3D4A26"/>
</g>
<defs>
<filter id="filter0_ddddd_824_22768" x="0.499998" y="0" width="162" height="198" filterUnits="userSpaceOnUse" color-interpolation-filters="sRGB">
<feFlood flood-opacity="0" result="BackgroundImageFix"/>
<feColorMatrix in="SourceAlpha" type="matrix" values="0 0 0 0 0 0 0 0 0 0 0 0 0 0 0 0 0 0 127 0" result="hardAlpha"/>
<feOffset/>
<feColorMatrix type="matrix" values="0 0 0 0 0.607843 0 0 0 0 0.694118 0 0 0 0 0.403922 0 0 0 0.1 0"/>
<feBlend mode="normal" in2="BackgroundImageFix" result="effect1_dropShadow_824_22768"/>
<feColorMatrix in="SourceAlpha" type="matrix" values="0 0 0 0 0 0 0 0 0 0 0 0 0 0 0 0 0 0 127 0" result="hardAlpha"/>
<feOffset dy="3"/>
<feGaussianBlur stdDeviation="3.5"/>
<feColorMatrix type="matrix" values="0 0 0 0 0.607843 0 0 0 0 0.694118 0 0 0 0 0.403922 0 0 0 0.1 0"/>
<feBlend mode="normal" in2="effect1_dropShadow_824_22768" result="effect2_dropShadow_824_22768"/>
<feColorMatrix in="SourceAlpha" type="matrix" values="0 0 0 0 0 0 0 0 0 0 0 0 0 0 0 0 0 0 127 0" result="hardAlpha"/>
<feOffset dy="13"/>
<feGaussianBlur stdDeviation="6.5"/>
<feColorMatrix type="matrix" values="0 0 0 0 0.607843 0 0 0 0 0.694118 0 0 0 0 0.403922 0 0 0 0.09 0"/>
<feBlend mode="normal" in2="effect2_dropShadow_824_22768" result="effect3_dropShadow_824_22768"/>
<feColorMatrix in="SourceAlpha" type="matrix" values="0 0 0 0 0 0 0 0 0 0 0 0 0 0 0 0 0 0 127 0" result="hardAlpha"/>
<feOffset dy="30"/>
<feGaussianBlur stdDeviation="9"/>
<feColorMatrix type="matrix" values="0 0 0 0 0.607843 0 0 0 0 0.694118 0 0 0 0 0.403922 0 0 0 0.05 0"/>
<feBlend mode="normal" in2="effect3_dropShadow_824_22768" result="effect4_dropShadow_824_22768"/>
<feColorMatrix in="SourceAlpha" type="matrix" values="0 0 0 0 0 0 0 0 0 0 0 0 0 0 0 0 0 0 127 0" result="hardAlpha"/>
<feOffset dy="53"/>
<feGaussianBlur stdDeviation="10.5"/>
<feColorMatrix type="matrix" values="0 0 0 0 0.607843 0 0 0 0 0.694118 0 0 0 0 0.403922 0 0 0 0.01 0"/>
<feBlend mode="normal" in2="effect4_dropShadow_824_22768" result="effect5_dropShadow_824_22768"/>
<feBlend mode="normal" in="SourceGraphic" in2="effect5_dropShadow_824_22768" result="shape"/>
</filter>
</defs>
</svg>
