<svg width="24" height="24" viewBox="0 0 24 24" fill="none" xmlns="http://www.w3.org/2000/svg">
<path d="M6 8C6 6.34315 4.65685 5 3 5V3C5.76142 3 8 5.23858 8 8V12C8 14.7614 10.2386 17 13 17H15.5C17.9853 17 20 14.9853 20 12.5C20 10.0147 17.9853 8 15.5 8H11V6H15.5C19.0898 6 22 8.91015 22 12.5C22 16.0899 19.0899 19 15.5 19H13C9.13401 19 6 15.866 6 12V8Z" fill="#4F3422"/>
<path d="M7 20C7 19.4477 7.44772 19 8 19C8.55228 19 9 19.4477 9 20C9 20.5523 8.55228 21 8 21C7.44772 21 7 20.5523 7 20Z" fill="#4F3422"/>
<path d="M19 19C18.4477 19 18 19.4477 18 20C18 20.5523 18.4477 21 19 21C19.5523 21 20 20.5523 20 20C20 19.4477 19.5523 19 19 19Z" fill="#4F3422"/>
</svg>
