<svg width="25" height="24" viewBox="0 0 25 24" fill="none" xmlns="http://www.w3.org/2000/svg">
<path fill-rule="evenodd" clip-rule="evenodd" d="M2.5 12C2.5 6.47715 6.97715 2 12.5 2C18.0228 2 22.5 6.47715 22.5 12C22.5 17.5228 18.0228 22 12.5 22C6.97715 22 2.5 17.5228 2.5 12ZM13.189 14.9756L18.2241 9.68972L16.7759 8.31028L11.7408 13.5961C11.5024 13.8464 11.3404 13.9181 11.0713 13.9743C10.8246 14.0258 10.5682 13.9998 10.3325 13.8973C10.0962 13.7946 9.88626 13.617 9.73504 13.3794C9.58354 13.1414 9.5 12.8567 9.5 12.5618H7.5C7.5 13.2313 7.6889 13.8894 8.04781 14.4533C8.40701 15.0177 8.92255 15.4651 9.535 15.7314C10.1481 15.998 10.8258 16.0687 11.4801 15.932C12.112 15.8001 12.6475 15.544 13.189 14.9756Z" fill="#ACA9A5"/>
</svg>
