<svg width="375" height="812" viewBox="0 0 375 812" fill="none" xmlns="http://www.w3.org/2000/svg">
<g clip-path="url(#clip0_6_5534)">
<rect width="375" height="812" fill="#9BB168"/>
<path opacity="0.48" fill-rule="evenodd" clip-rule="evenodd" d="M375.5 342C394.554 342 410 326.554 410 307.5C410 288.446 394.554 273 375.5 273C356.446 273 341 288.446 341 307.5C341 326.554 356.446 342 375.5 342ZM375.5 374C412.227 374 442 344.227 442 307.5C442 270.773 412.227 241 375.5 241C338.773 241 309 270.773 309 307.5C309 344.227 338.773 374 375.5 374Z" fill="#B4C48D"/>
<path opacity="0.72" fill-rule="evenodd" clip-rule="evenodd" d="M314.5 463.88C324.099 463.88 331.88 456.099 331.88 446.5C331.88 436.901 324.099 429.12 314.5 429.12C304.901 429.12 297.12 436.901 297.12 446.5C297.12 456.099 304.901 463.88 314.5 463.88ZM314.5 480C333.002 480 348 465.002 348 446.5C348 427.998 333.002 413 314.5 413C295.998 413 281 427.998 281 446.5C281 465.002 295.998 480 314.5 480Z" fill="#B4C48D"/>
<path opacity="0.72" fill-rule="evenodd" clip-rule="evenodd" d="M-6.5 315.88C3.09854 315.88 10.8797 308.099 10.8797 298.5C10.8797 288.901 3.09854 281.12 -6.5 281.12C-16.0985 281.12 -23.8797 288.901 -23.8797 298.5C-23.8797 308.099 -16.0985 315.88 -6.5 315.88ZM-6.5 332C12.0015 332 27 317.002 27 298.5C27 279.998 12.0015 265 -6.5 265C-25.0015 265 -40 279.998 -40 298.5C-40 317.002 -25.0015 332 -6.5 332Z" fill="#B4C48D"/>
<path opacity="0.48" fill-rule="evenodd" clip-rule="evenodd" d="M44 614.038C82.6807 614.038 114.038 582.681 114.038 544C114.038 505.319 82.6807 473.962 44 473.962C5.3193 473.962 -26.0376 505.319 -26.0376 544C-26.0376 582.681 5.3193 614.038 44 614.038ZM44 679C118.558 679 179 618.558 179 544C179 469.442 118.558 409 44 409C-30.5584 409 -91 469.442 -91 544C-91 618.558 -30.5584 679 44 679Z" fill="#B4C48D"/>
<path opacity="0.48" fill-rule="evenodd" clip-rule="evenodd" d="M357.5 107.925C413.515 107.925 458.925 62.5154 458.925 6.5C458.925 -49.5154 413.515 -94.9248 357.5 -94.9248C301.485 -94.9248 256.075 -49.5154 256.075 6.5C256.075 62.5154 301.485 107.925 357.5 107.925ZM357.5 202C465.472 202 553 114.472 553 6.5C553 -101.472 465.472 -189 357.5 -189C249.528 -189 162 -101.472 162 6.5C162 114.472 249.528 202 357.5 202Z" fill="#B4C48D"/>
<path fill-rule="evenodd" clip-rule="evenodd" d="M311 888.962C348.535 888.962 378.962 858.535 378.962 821C378.962 783.465 348.535 753.038 311 753.038C273.465 753.038 243.038 783.465 243.038 821C243.038 858.535 273.465 888.962 311 888.962ZM311 952C383.349 952 442 893.349 442 821C442 748.651 383.349 690 311 690C238.651 690 180 748.651 180 821C180 893.349 238.651 952 311 952Z" fill="#B4C48D"/>
<circle opacity="0.64" cx="-19.5" cy="98.5" r="98.5" fill="#B4C48D"/>
<circle opacity="0.64" cx="278.5" cy="604.5" r="35.5" fill="#B4C48D"/>
<circle cx="90.5" cy="811.5" r="35.5" fill="#B4C48D"/>
<circle opacity="0.32" cx="126" cy="299" r="58" fill="#B4C48D"/>
</g>
<defs>
<clipPath id="clip0_6_5534">
<rect width="375" height="812" fill="white"/>
</clipPath>
</defs>
</svg>
