<svg width="20" height="20" viewBox="0 0 20 20" fill="none" xmlns="http://www.w3.org/2000/svg">
    <path
        d="M7.50008 5C7.50008 3.61929 8.61937 2.5 10.0001 2.5C11.3808 2.5 12.5001 3.61929 12.5001 5V10C12.5001 11.3807 11.3808 12.5 10.0001 12.5C8.61937 12.5 7.50008 11.3807 7.50008 10V5Z"
        fill="#926247" />
    <path
        d="M12.9464 12.9463C13.7278 12.1649 14.1667 11.1051 14.1667 10H15.8334C15.8334 11.5471 15.2188 13.0308 14.1249 14.1248C13.2293 15.0204 12.0724 15.5947 10.8334 15.7735V18.3333H9.16675V15.7735C7.92776 15.5947 6.7709 15.0204 5.87529 14.1248C4.78133 13.0308 4.16675 11.5471 4.16675 10H5.83341C5.83341 11.1051 6.2724 12.1649 7.0538 12.9463C7.8352 13.7277 8.89501 14.1667 10.0001 14.1667C11.1051 14.1667 12.165 13.7277 12.9464 12.9463Z"
        fill="#926247" />
</svg>
