<svg width="16" height="16" viewBox="0 0 16 16" fill="none" xmlns="http://www.w3.org/2000/svg">
    <path
        d="M10 2V14C10 15.1046 9.10457 16 8 16C6.89543 16 6 15.1046 6 14V2C6 0.895431 6.89543 0 8 0C9.10457 0 10 0.895431 10 2Z"
        fill="#4F3422" />
    <path
        d="M16 14V7C16 5.89543 15.1046 5 14 5C12.8954 5 12 5.89543 12 7V14C12 15.1046 12.8954 16 14 16C15.1046 16 16 15.1046 16 14Z"
        fill="#4F3422" />
    <path
        d="M4 14V11C4 9.89543 3.10457 9 2 9C0.895431 9 0 9.89543 0 11V14C0 15.1046 0.895431 16 2 16C3.10457 16 4 15.1046 4 14Z"
        fill="#4F3422" />
</svg>
