<svg width="106" height="106" viewBox="0 0 106 106" fill="none" xmlns="http://www.w3.org/2000/svg">
<g filter="url(#filter0_d_6_5868)">
<rect x="21" y="13" width="64" height="64" rx="32" fill="white"/>
<path fill-rule="evenodd" clip-rule="evenodd" d="M62.2071 39.8644L53.5355 48.536C52.7093 49.3622 51.9237 49.7157 50.9755 49.9044C50.0055 50.0973 49.0002 49.9983 48.0866 49.6198C47.173 49.2414 46.3921 48.6005 45.8427 47.7783C45.2932 46.956 45 45.9893 45 45.0004H47C47 45.5938 47.1759 46.1738 47.5056 46.6671C47.8352 47.1605 48.3038 47.545 48.8519 47.7721C49.4001 47.9991 50.0033 48.0586 50.5853 47.9428C51.1889 47.8227 51.6044 47.6386 52.1213 47.1218L60.7929 38.4502L62.2071 39.8644Z" fill="#4F3422"/>
</g>
<defs>
<filter id="filter0_d_6_5868" x="0" y="0" width="106" height="106" filterUnits="userSpaceOnUse" color-interpolation-filters="sRGB">
<feFlood flood-opacity="0" result="BackgroundImageFix"/>
<feColorMatrix in="SourceAlpha" type="matrix" values="0 0 0 0 0 0 0 0 0 0 0 0 0 0 0 0 0 0 127 0" result="hardAlpha"/>
<feOffset dy="8"/>
<feGaussianBlur stdDeviation="10.5"/>
<feComposite in2="hardAlpha" operator="out"/>
<feColorMatrix type="matrix" values="0 0 0 0 1 0 0 0 0 1 0 0 0 0 1 0 0 0 0.25 0"/>
<feBlend mode="normal" in2="BackgroundImageFix" result="effect1_dropShadow_6_5868"/>
<feBlend mode="normal" in="SourceGraphic" in2="effect1_dropShadow_6_5868" result="shape"/>
</filter>
</defs>
</svg>
