<svg width="48" height="48" viewBox="0 0 48 48" fill="none" xmlns="http://www.w3.org/2000/svg">
<path d="M37.523 13.6232C36.7253 16.6 34.9677 19.2305 32.5227 21.1066C30.0777 22.9828 27.0819 23.9997 24 23.9997C20.9181 23.9997 17.9224 22.9828 15.4774 21.1066C13.0323 19.2305 11.2747 16.6 10.4771 13.6232L14.3408 12.5879C14.9105 14.7142 16.166 16.5931 17.9124 17.9332C19.6588 19.2733 21.7987 19.9997 24 19.9997C26.2014 19.9997 28.3412 19.2733 30.0876 17.9332C31.8341 16.5931 33.0895 14.7142 33.6593 12.5879L37.523 13.6232Z" fill="#C9C7C5"/>
<path d="M37.523 25.6232C36.7253 28.6 34.9677 31.2305 32.5227 33.1066C30.0777 34.9828 27.0819 35.9997 24 35.9997C20.9181 35.9997 17.9224 34.9828 15.4774 33.1067C13.0323 31.2305 11.2747 28.6 10.4771 25.6232L14.3408 24.5879C14.9105 26.7142 16.166 28.5931 17.9124 29.9332C19.6588 31.2733 21.7987 31.9997 24 31.9997C26.2014 31.9997 28.3412 31.2733 30.0876 29.9332C31.8341 28.5931 33.0895 26.7142 33.6593 24.5879L37.523 25.6232Z" fill="#C9C7C5"/>
</svg>
