<svg width="150" height="150" viewBox="0 0 150 150" fill="none" xmlns="http://www.w3.org/2000/svg">
<rect width="150" height="150" fill="#A694F5"/>
<path fill-rule="evenodd" clip-rule="evenodd" d="M86.0548 54.9611C87.3362 53.6796 89.4138 53.6796 90.6952 54.9611L100.539 64.8048C101.82 66.0862 101.82 68.1638 100.539 69.4452C99.2575 70.7266 97.18 70.7266 95.8986 69.4452L86.0548 59.6014C84.7734 58.32 84.7734 56.2425 86.0548 54.9611Z" fill="#3C357C"/>
<path fill-rule="evenodd" clip-rule="evenodd" d="M100.539 54.9611C101.82 56.2425 101.82 58.32 100.539 59.6014L90.6952 69.4452C89.4138 70.7266 87.3362 70.7266 86.0548 69.4452C84.7734 68.1638 84.7734 66.0862 86.0548 64.8048L95.8986 54.9611C97.18 53.6796 99.2575 53.6796 100.539 54.9611Z" fill="#3C357C"/>
<path fill-rule="evenodd" clip-rule="evenodd" d="M49.9611 54.9611C51.2425 53.6796 53.32 53.6796 54.6014 54.9611L64.4452 64.8048C65.7266 66.0862 65.7266 68.1638 64.4452 69.4452C63.1638 70.7266 61.0862 70.7266 59.8048 69.4452L49.9611 59.6014C48.6796 58.32 48.6796 56.2425 49.9611 54.9611Z" fill="#3C357C"/>
<path fill-rule="evenodd" clip-rule="evenodd" d="M64.4452 54.9611C65.7266 56.2425 65.7266 58.32 64.4452 59.6014L54.6014 69.4452C53.32 70.7266 51.2425 70.7266 49.9611 69.4452C48.6796 68.1638 48.6796 66.0862 49.9611 64.8048L59.8048 54.9611C61.0862 53.6796 63.1638 53.6796 64.4452 54.9611Z" fill="#3C357C"/>
<path fill-rule="evenodd" clip-rule="evenodd" d="M63.2651 81.0371C66.7035 78.3988 70.9162 76.9687 75.2501 76.9687C79.584 76.9687 83.7968 78.3988 87.2351 81.0371C90.6734 83.6754 93.1451 87.3745 94.2668 91.5608C94.7358 93.3112 93.697 95.1104 91.9466 95.5794C90.1962 96.0485 88.3969 95.0097 87.9279 93.2593C87.1801 90.4684 85.5323 88.0024 83.2401 86.2435C80.9479 84.4846 78.1394 83.5313 75.2501 83.5312C72.3609 83.5312 69.5523 84.4846 67.2601 86.2435C64.9679 88.0024 63.3202 90.4684 62.5724 93.2592C62.1033 95.0097 60.3041 96.0485 58.5537 95.5794C56.8032 95.1104 55.7644 93.3112 56.2335 91.5607C57.3552 87.3745 59.8268 83.6754 63.2651 81.0371Z" fill="#3C357C"/>
</svg>
