<svg width="150" height="150" viewBox="0 0 150 150" fill="none" xmlns="http://www.w3.org/2000/svg">
<rect width="150" height="150" fill="#9BB167"/>
<path fill-rule="evenodd" clip-rule="evenodd" d="M89.4448 52.8564C90.8097 52.291 92.2726 52 93.75 52C95.2274 52 96.6903 52.291 98.0552 52.8564C99.4201 53.4217 100.66 54.2504 101.705 55.295C102.75 56.3397 103.578 57.5799 104.144 58.9448C104.709 60.3097 105 61.7726 105 63.25C105 65.3211 103.321 67 101.25 67C99.1789 67 97.5 65.3211 97.5 63.25C97.5 62.7575 97.403 62.2699 97.2145 61.8149C97.0261 61.36 96.7499 60.9466 96.4017 60.5983C96.0534 60.2501 95.64 59.9739 95.1851 59.7855C94.7301 59.597 94.2425 59.5 93.75 59.5C93.2575 59.5 92.7699 59.597 92.3149 59.7855C91.86 59.9739 91.4466 60.2501 91.0983 60.5983C90.7501 60.9466 90.4739 61.36 90.2855 61.8149C90.097 62.2699 90 62.7575 90 63.25C90 65.3211 88.3211 67 86.25 67C84.1789 67 82.5 65.3211 82.5 63.25C82.5 61.7726 82.791 60.3097 83.3564 58.9448C83.9217 57.5799 84.7504 56.3397 85.795 55.295C86.8397 54.2504 88.0799 53.4217 89.4448 52.8564Z" fill="#3D4A26"/>
<path fill-rule="evenodd" clip-rule="evenodd" d="M94.0819 75.7303C96.0824 76.2663 97.2696 78.3226 96.7336 80.3231C95.4516 85.1073 92.6269 89.3349 88.6974 92.3501C84.7679 95.3653 79.9532 96.9996 75.0002 96.9996C70.0472 96.9996 65.2326 95.3653 61.3031 92.3501C57.3736 89.3349 54.5488 85.1073 53.2669 80.3231C52.7309 78.3226 53.918 76.2663 55.9185 75.7303C57.919 75.1942 59.9753 76.3814 60.5113 78.3819C61.366 81.5714 63.2491 84.3898 65.8688 86.3999C68.4885 88.4101 71.6982 89.4996 75.0002 89.4996C78.3022 89.4996 81.512 88.4101 84.1316 86.3999C86.7513 84.3898 88.6345 81.5714 89.4891 78.3819C90.0251 76.3814 92.0814 75.1942 94.0819 75.7303Z" fill="#3D4A26"/>
<path fill-rule="evenodd" clip-rule="evenodd" d="M51.9448 52.8564C53.3097 52.291 54.7726 52 56.25 52C57.7274 52 59.1903 52.291 60.5552 52.8564C61.9201 53.4217 63.1603 54.2504 64.205 55.295C65.2496 56.3397 66.0783 57.5799 66.6436 58.9448C67.209 60.3097 67.5 61.7726 67.5 63.25C67.5 65.3211 65.8211 67 63.75 67C61.6789 67 60 65.3211 60 63.25C60 62.7575 59.903 62.2699 59.7145 61.8149C59.5261 61.36 59.2499 60.9466 58.9017 60.5983C58.5534 60.2501 58.14 59.9739 57.6851 59.7855C57.2301 59.597 56.7425 59.5 56.25 59.5C55.7575 59.5 55.2699 59.597 54.8149 59.7855C54.36 59.9739 53.9466 60.2501 53.5983 60.5983C53.2501 60.9466 52.9739 61.36 52.7855 61.8149C52.597 62.2699 52.5 62.7575 52.5 63.25C52.5 65.3211 50.8211 67 48.75 67C46.6789 67 45 65.3211 45 63.25C45 61.7726 45.291 60.3097 45.8564 58.9448C46.4217 57.5799 47.2504 56.3397 48.295 55.295C49.3397 54.2504 50.5799 53.4217 51.9448 52.8564Z" fill="#3D4A26"/>
</svg>
