<svg width="150" height="150" viewBox="0 0 150 150" fill="none" xmlns="http://www.w3.org/2000/svg">
<rect width="150" height="150" fill="#C0A091"/>
<path fill-rule="evenodd" clip-rule="evenodd" d="M97.75 56C99.8211 56 101.5 57.6789 101.5 59.75L101.5 71C101.5 73.0711 99.8211 74.75 97.75 74.75C95.6789 74.75 94 73.0711 94 71L94 59.75C94 57.6789 95.6789 56 97.75 56Z" fill="#4F3422"/>
<path fill-rule="evenodd" clip-rule="evenodd" d="M52.75 56C54.8211 56 56.5 57.6789 56.5 59.75L56.5 71C56.5 73.0711 54.8211 74.75 52.75 74.75C50.6789 74.75 49 73.0711 49 71L49 59.75C49 57.6789 50.6789 56 52.75 56Z" fill="#4F3422"/>
<path fill-rule="evenodd" clip-rule="evenodd" d="M49 89.75C49 87.6789 50.6789 86 52.75 86L97.75 86C99.8211 86 101.5 87.6789 101.5 89.75C101.5 91.8211 99.8211 93.5 97.75 93.5L52.75 93.5C50.6789 93.5 49 91.8211 49 89.75Z" fill="#4F3422"/>
</svg>
