<svg width="150" height="150" viewBox="0 0 150 150" fill="none" xmlns="http://www.w3.org/2000/svg">
<rect width="150" height="150" fill="#ED7E1C"/>
<path fill-rule="evenodd" clip-rule="evenodd" d="M61.5531 80.1495C65.4826 77.1343 70.2972 75.5 75.2502 75.5C80.2032 75.5 85.0179 77.1343 88.9474 80.1496C92.8769 83.1648 95.7016 87.3923 96.9836 92.1766C97.5196 94.1771 96.3324 96.2333 94.3319 96.7694C92.3314 97.3054 90.2751 96.1182 89.7391 94.1177C88.8845 90.9282 87.0013 88.1098 84.3817 86.0997C81.762 84.0896 78.5522 83 75.2502 83C71.9482 83 68.7385 84.0896 66.1188 86.0997C63.4991 88.1098 61.616 90.9282 60.7613 94.1177C60.2253 96.1182 58.169 97.3054 56.1685 96.7694C54.168 96.2333 52.9809 94.1771 53.5169 92.1766C54.7988 87.3923 57.6236 83.1648 61.5531 80.1495Z" fill="#663600"/>
<path fill-rule="evenodd" clip-rule="evenodd" d="M52.75 53C54.8211 53 56.5 54.6789 56.5 56.75V68C56.5 70.0711 54.8211 71.75 52.75 71.75C50.6789 71.75 49 70.0711 49 68V56.75C49 54.6789 50.6789 53 52.75 53Z" fill="#663600"/>
<path fill-rule="evenodd" clip-rule="evenodd" d="M97.75 53C99.8211 53 101.5 54.6789 101.5 56.75V68C101.5 70.0711 99.8211 71.75 97.75 71.75C95.6789 71.75 94 70.0711 94 68V56.75C94 54.6789 95.6789 53 97.75 53Z" fill="#663600"/>
</svg>
