<svg width="150" height="150" viewBox="0 0 150 150" fill="none" xmlns="http://www.w3.org/2000/svg">
<rect width="150" height="150" fill="#FFCE5C"/>
<path fill-rule="evenodd" clip-rule="evenodd" d="M97.75 51C99.8211 51 101.5 52.6789 101.5 54.75L101.5 66C101.5 68.0711 99.8211 69.75 97.75 69.75C95.6789 69.75 94 68.0711 94 66L94 54.75C94 52.6789 95.6789 51 97.75 51Z" fill="#705600"/>
<path fill-rule="evenodd" clip-rule="evenodd" d="M52.75 51C54.8211 51 56.5 52.6789 56.5 54.75L56.5 66C56.5 68.0711 54.8211 69.75 52.75 69.75C50.6789 69.75 49 68.0711 49 66L49 54.75C49 52.6789 50.6789 51 52.75 51Z" fill="#705600"/>
<path fill-rule="evenodd" clip-rule="evenodd" d="M94.3319 78.4803C96.3324 79.0163 97.5196 81.0726 96.9836 83.0731C95.7016 87.8573 92.8769 92.0849 88.9474 95.1001C85.0179 98.1153 80.2032 99.7496 75.2502 99.7496C70.2972 99.7496 65.4826 98.1153 61.5531 95.1001C57.6236 92.0849 54.7988 87.8573 53.5169 83.0731C52.9809 81.0726 54.168 79.0163 56.1685 78.4803C58.169 77.9442 60.2253 79.1314 60.7613 81.1319C61.616 84.3214 63.4991 87.1398 66.1188 89.1499C68.7385 91.1601 71.9482 92.2496 75.2502 92.2496C78.5522 92.2496 81.762 91.1601 84.3816 89.1499C87.0013 87.1398 88.8845 84.3214 89.7391 81.1319C90.2751 79.1314 92.3314 77.9442 94.3319 78.4803Z" fill="#705600"/>
</svg>
