<svg width="209" height="145" viewBox="0 0 209 145" fill="none" xmlns="http://www.w3.org/2000/svg">
    <path
        d="M213.668 254.186C228.501 221.766 234.1 187.655 232.571 150.799C231.578 126.792 223.358 104.854 207.87 91.6072C158.191 49.1623 114.31 95.0083 114.31 95.0083C99.4978 77.9031 74.9759 66.188 37.7265 82.1396C25.8131 87.2513 14.4754 98.9664 8.08189 112.114C1.13239 126.375 0.933838 143.699 0.913971 160.167C0.894119 177.412 6.35445 213.353 12.3509 229.086C16.2029 239.17 23.49 256.454 26.7463 258.304L213.668 254.186Z"
        fill="#ED7E1C" />
    <path
        d="M137.303 129.934C103.985 141.292 64.6314 132.659 41.4994 103.6C36.8929 97.9517 33.4182 91.8256 30.9362 85.3813C33.16 83.989 35.4236 82.8155 37.7268 81.8608C74.9762 66.4462 99.4981 77.7635 114.31 94.272C114.31 94.272 151.044 57.2372 195.342 82.2984C191.013 89.4985 186.685 96.6986 180.827 103.143C169.231 116.33 153.506 124.047 137.303 129.934Z"
        fill="#F6A460" />
    <path
        d="M108.513 30.6256C104.601 15.4696 111.69 9.1446 118.083 7.07606C124.496 5.00752 131.744 8.09044 136.112 13.2618C138.574 16.1856 140.48 19.8851 143.955 21.4763C146.179 22.4907 148.701 22.4708 151.143 22.3713C159.264 22.0332 167.425 21.0188 175.486 22.0332C183.548 23.0476 191.768 26.4288 196.454 33.1317C200.484 38.8799 201.596 46.5374 206.58 51.4701C215.376 60.1619 231.142 55.8657 241.089 63.1852C244.664 65.8106 247.185 69.8682 247.979 74.2439C249.687 83.7115 243.631 93.7359 246.887 102.806C249.508 110.085 257.669 114.958 258.324 122.676C258.721 127.449 255.882 132.103 251.931 134.729C247.96 137.354 243.055 138.21 238.31 138.09C226.873 137.832 215.674 132.103 208.705 122.974C205.409 118.658 203.046 113.685 199.79 109.369C196.533 105.033 192.006 101.214 186.625 100.677C184.54 100.479 182.436 100.777 180.331 100.817C171.654 100.976 163.037 96.2619 158.43 88.843C153.724 81.265 152.692 78.3213 146.219 72.2351C134.742 61.4548 126.76 75.7953 113.179 63.7819C107.877 59.0879 114.191 43.733 110.578 37.6268C108.81 34.6234 115.283 32.8532 111.928 32.0577L108.513 30.6256Z"
        fill="#3F3C36" />
    <path
        d="M110.637 16.0065C108.711 8.70695 114.588 1.66596 121.796 0.830587C126.184 0.313453 130.652 1.80519 134.226 4.3113C138.237 7.09588 140.718 11.77 144.948 14.1965C150.09 17.1402 156.166 15.8275 161.627 14.6938C166.213 13.759 170.78 12.844 175.486 13.4606C183.547 14.4949 191.152 19.0496 195.739 25.8122C201.477 34.3051 200.266 46.2191 209.836 52.0667C219.268 57.8348 230.943 56.2038 240.95 60.2215C248.178 63.1255 254.73 69.6692 253.757 78.0229C252.705 87.212 244.227 95.2077 250.223 104.397C252.784 108.335 256.557 111.438 258.483 115.794C260.171 119.632 259.813 123.849 257.649 127.429C252.109 136.579 240.454 136.161 231.936 131.904C230.883 131.387 231.817 129.816 232.849 130.333C241.347 134.59 255.127 134.391 257.57 122.835C259.337 114.441 250.044 109.429 247.145 102.567C244.107 95.3668 248.694 88.7236 250.938 82.0606C252.367 77.8041 252.467 73.4681 249.985 69.5697C247.483 65.5918 243.254 62.9464 238.885 61.4547C230.189 58.4911 220.678 59.0679 212.179 55.3883C204.495 52.0468 201.04 46.0401 198.777 38.2632C197.526 33.967 196.295 29.7305 193.614 26.0708C191.053 22.5701 187.558 19.7657 183.686 17.8563C179.795 15.9468 175.446 14.9523 171.098 15.1115C166.531 15.2706 162.103 16.6231 157.616 17.3391C153.486 17.9955 149.157 18.2342 145.265 16.464C141.056 14.5347 138.634 10.5567 135.298 7.55334C131.208 3.87373 125.231 1.3875 119.751 3.13781C114.628 4.76877 110.915 10.2186 112.325 15.5689C112.682 16.6629 110.935 17.1402 110.637 16.0065Z"
        fill="#3F3C36" />
    <path
        d="M112.047 17.04C104.005 15.2301 95.7847 19.4467 92.9057 27.3032C90.245 34.5629 93.5212 41.0271 96.7378 47.4118C99.1801 52.2848 101.523 57.5755 100.272 63.1247C99.0411 68.6143 94.792 72.4928 89.5302 74.0641C83.1962 75.9536 72.1365 75.8343 72.1365 85.0433C72.1365 91.8655 77.8351 97.5341 76.6636 104.555C75.8496 109.369 71.938 111.517 67.4307 111.914C64.8495 112.153 62.2484 111.934 59.6671 112.233C55.1996 112.75 52.9956 115.316 51.7447 119.552C50.5136 123.709 47.7934 131.824 41.6778 129C38.2626 127.428 38.9377 121.74 42.8692 121.561C44.0406 121.501 44.0406 123.331 42.8692 123.391C40.3475 123.51 41.3998 125.778 42.0749 126.573C43.2067 127.926 44.4576 127.886 45.9865 126.971C47.5551 126.036 48.389 124.266 48.9847 122.595C49.9179 119.95 50.2754 117.086 51.8241 114.679C54.2465 110.88 58.6346 110.363 62.7845 110.264C65.2069 110.204 67.7683 110.363 70.1112 109.627C73.9633 108.434 75.3532 104.953 74.8965 101.174C74.2015 95.2666 69.8928 90.1748 70.3694 84.0687C70.7466 79.2156 74.5192 76.1923 78.8279 74.6807C85.0229 72.5127 92.3695 73.2287 96.5392 67.1623C103.965 56.3821 91.2576 45.6416 90.1457 34.9409C88.8551 22.3904 100.431 12.5847 112.523 15.2897C113.675 15.5284 113.198 17.2986 112.047 17.04Z"
        fill="#3F3C36" />
    <path
        d="M174.93 97.6731C185.315 97.1559 193.872 105.549 193.892 115.952C193.892 122.436 190.715 128.84 194.269 134.986C195.957 137.91 198.995 140.635 202.49 140.854C204.594 140.993 207.295 140.018 207.871 137.691C208.685 134.41 203.741 131.605 202.788 135.663C202.51 136.796 200.762 136.319 201.04 135.185C202.39 129.497 210.273 131.705 209.797 137.234C209.221 143.996 200.643 143.4 196.672 140.396C193.932 138.348 191.966 135.324 191.132 132.003C190.139 128.025 191.132 124.007 191.728 120.049C193.356 109.309 186.585 98.9261 174.97 99.5029C173.758 99.5427 173.758 97.7327 174.93 97.6731Z"
        fill="#3F3C36" />
    <path
        d="M125.688 38.9604C124.496 39.8356 123.285 39.5173 123.285 39.5173C123.206 38.7218 121.637 38.0057 121.637 38.0057C121.835 37.7273 122.769 36.8919 122.491 36.7129L125.688 38.9604Z"
        fill="#3F3C36" />
    <path
        d="M126.144 39.7356C125.25 40.3323 124.119 40.6307 123.046 40.392C122.749 40.3324 122.471 40.0539 122.411 39.7555C122.312 39.2981 121.577 38.9798 121.18 38.8008C120.584 38.5224 120.684 37.7865 121.001 37.3688C121.12 37.2295 121.24 37.0903 121.359 36.9511C121.517 36.7721 121.617 36.4737 121.617 36.7721C121.696 36.9909 121.795 37.2097 121.875 37.4085C121.855 37.3887 121.835 37.3688 121.835 37.3489C121.101 36.4538 122.371 35.161 123.126 36.056C123.96 37.0704 122.868 37.866 122.272 38.6218C122.212 38.1445 122.153 37.6671 122.093 37.1898C122.947 37.5876 123.96 38.2638 124.158 39.2384C123.94 39.0196 123.741 38.8207 123.523 38.6019C123.999 38.7014 124.714 38.4627 125.231 38.1246C126.203 37.508 127.117 39.0992 126.144 39.7356Z"
        fill="#3F3C36" />
    <path
        d="M136.31 83.2136L119.194 16.7617C119.194 16.7617 89.5096 35.8361 93.0439 62.2298L106.943 58.3314C106.943 58.3314 104.342 71.4189 101.82 84.2876C99.4573 96.3408 109.901 107.002 121.974 104.874C122.133 104.854 122.291 104.814 122.45 104.794C132.458 102.984 138.851 93.0789 136.31 83.2136Z"
        fill="#F6A460" />
    <path
        d="M135.774 44.448C133.153 47.6303 128.467 48.0679 125.29 45.4424C122.113 42.817 121.677 38.123 124.298 34.9406C126.918 31.7583 131.604 31.3207 134.781 33.9461C137.938 36.5716 138.395 41.2855 135.774 44.448Z"
        fill="#F6A460" />
    <path
        d="M126.521 40.6093C128.844 39.1772 131.187 37.7651 133.55 36.3927C134.563 35.796 135.476 37.3673 134.463 37.964C132.101 39.3364 129.777 40.7684 127.434 42.1806C126.442 42.7972 125.528 41.2259 126.521 40.6093Z"
        fill="#3F3C36" />
    <path d="M106.963 58.3321L101.86 84.8651L117.01 54.752L106.963 58.3321Z" fill="#3F3C36" />
    <path
        d="M101.027 43.9311C101.027 43.9311 105.753 45.025 112.266 43.2946C113.516 42.9565 114.688 44.0504 114.43 45.3034C113.854 47.909 111.173 51.6881 100.809 53.1002L101.027 43.9311Z"
        fill="white" />
    <path
        d="M101.305 42.9162C104.422 43.5925 107.897 43.1947 110.955 42.5383C113.635 41.9615 116.216 43.0754 115.243 46.2577C113.556 51.8468 105.931 53.4181 101.066 54.1341C99.7361 54.333 99.1603 52.2844 100.511 52.0855C104.045 51.5683 111.967 50.4346 113.099 45.9594C113.595 44.0301 110.836 44.7461 109.604 44.945C108.155 45.1837 106.686 45.3229 105.216 45.3428C103.727 45.3627 102.198 45.2831 100.749 44.9649C99.3986 44.6666 99.9744 42.6179 101.305 42.9162Z"
        fill="#ED7E1C" />
    <path
        d="M106.626 29.61C102.972 32.6929 99.3785 36.1935 96.4001 39.9129C96.1817 39.3958 95.9633 38.8786 95.7648 38.3615C97.6511 38.5206 99.5572 38.6797 101.463 38.8389C102.615 38.9383 102.635 40.7483 101.463 40.6687C99.5572 40.5096 97.6709 40.3505 95.7648 40.1914C94.9308 40.1118 94.6131 39.2565 95.1294 38.64C98.1077 34.9007 101.702 31.42 105.355 28.337C106.229 27.5613 107.519 28.8542 106.626 29.61Z"
        fill="#3F3C36" />
    <path
        d="M117.507 44.9655C115.998 46.6562 113.893 47.591 111.63 47.6109C110.458 47.6308 110.458 45.8009 111.63 45.8009C113.437 45.781 115.025 45.0451 116.216 43.6926C117.011 42.8174 118.281 44.0904 117.507 44.9655Z"
        fill="#3F3C36" />
    <path
        d="M118.143 33.0715C115.78 31.5997 112.96 31.3809 110.419 32.5743C109.366 33.0715 108.453 31.5002 109.505 31.003C112.623 29.5311 116.117 29.6704 119.056 31.5002C120.049 32.1168 119.136 33.6881 118.143 33.0715Z"
        fill="#3F3C36" />
    <path
        d="M116.554 32.1761C116.614 32.8325 116.554 33.4888 116.336 34.1054C116.157 34.6226 115.522 35.0005 115.006 34.6424C114.708 34.4435 114.43 34.2844 114.072 34.2446C113.755 34.2049 113.437 34.3043 113.119 34.3043C112.166 34.3242 111.988 33.5286 111.908 32.7728C111.829 32.017 111.829 31.2015 112.722 30.923C113.477 30.7043 114.47 31.1418 115.184 31.3407C115.82 31.5198 116.098 32.3949 115.581 32.8524C114.887 33.4689 113.874 33.5087 113.199 32.8126C112.385 31.9573 113.675 30.6844 114.489 31.5197C114.45 31.48 114.331 31.5396 114.291 31.5595C114.43 32.0568 114.549 32.5739 114.688 33.0711C114.39 32.9916 114.092 32.912 113.814 32.8325C113.675 32.7927 113.516 32.7529 113.377 32.7131C113.1 32.6932 113.08 32.6535 113.318 32.6137C113.417 32.5142 113.536 32.3949 113.636 32.2955C113.675 32.1164 113.675 32.1164 113.675 32.2557C113.675 32.3551 113.695 32.4546 113.695 32.554C113.695 32.6336 113.814 33.1109 113.675 32.8524C113.576 32.7529 113.457 32.6336 113.358 32.5341C113.397 32.554 113.417 32.5739 113.457 32.5938C113.298 32.554 113.159 32.5142 113 32.4745C113.437 32.4943 113.953 32.3949 114.45 32.4745C114.966 32.554 115.462 32.7728 115.899 33.0711C115.462 33.2502 115.006 33.4292 114.569 33.6082C114.728 33.1109 114.787 32.6734 114.728 32.1562C114.668 31.659 115.184 31.2413 115.641 31.2413C116.177 31.2612 116.495 31.6789 116.554 32.1761Z"
        fill="#3F3C36" />
    <path
        d="M116.158 35.5383C114.648 35.2997 113.139 35.3593 111.67 35.7173C110.538 35.9759 110.042 34.2256 111.194 33.967C113.02 33.5493 114.807 33.4897 116.654 33.788C117.786 33.9869 117.309 35.7372 116.158 35.5383Z"
        fill="#3F3C36" />
    <path
        d="M117.924 23.4651C116.554 22.928 115.164 22.7888 113.735 23.1269C112.603 23.3855 112.107 21.6352 113.258 21.3766C114.986 20.9788 116.753 21.0584 118.401 21.7148C119.493 22.1324 119.016 23.8827 117.924 23.4651Z"
        fill="#3F3C36" />
    <path
        d="M138.177 91.567C136.946 88.0465 135.735 84.526 134.504 81.0254C134.127 79.9115 135.874 79.4342 136.251 80.548C137.482 84.0685 138.694 87.589 139.925 91.0896C140.322 92.1835 138.555 92.6609 138.177 91.567Z"
        fill="#3F3C36" />
</svg>
