<svg width="48" height="48" viewBox="0 0 48 48" fill="none" xmlns="http://www.w3.org/2000/svg">
<rect width="48" height="48" rx="24" fill="#FFCE5C"/>
<path fill-rule="evenodd" clip-rule="evenodd" d="M36 14C37.1046 14 38 14.8954 38 16L38 22C38 23.1046 37.1046 24 36 24C34.8954 24 34 23.1046 34 22L34 16C34 14.8954 34.8954 14 36 14Z" fill="#705600"/>
<path fill-rule="evenodd" clip-rule="evenodd" d="M12 14C13.1046 14 14 14.8954 14 16L14 22C14 23.1046 13.1046 24 12 24C10.8954 24 10 23.1046 10 22L10 16C10 14.8954 10.8954 14 12 14Z" fill="#705600"/>
<path fill-rule="evenodd" clip-rule="evenodd" d="M34.177 28.6565C35.2439 28.9424 35.8771 30.0391 35.5912 31.106C34.9075 33.6576 33.401 35.9123 31.3052 37.5204C29.2095 39.1285 26.6417 40.0002 24.0001 40.0002C21.3585 40.0002 18.7907 39.1285 16.695 37.5204C14.5992 35.9123 13.0927 33.6576 12.409 31.106C12.1231 30.0391 12.7563 28.9424 13.8232 28.6565C14.8901 28.3707 15.9868 29.0038 16.2727 30.0707C16.7285 31.7718 17.7328 33.275 19.13 34.347C20.5271 35.4191 22.239 36.0002 24.0001 36.0002C25.7612 36.0002 27.473 35.4191 28.8702 34.347C30.2673 33.2749 31.2717 31.7718 31.7275 30.0707C32.0134 29.0038 33.1101 28.3707 34.177 28.6565Z" fill="#705600"/>
</svg>
