<svg width="200" height="155" viewBox="0 0 200 155" fill="none" xmlns="http://www.w3.org/2000/svg">
    <path
        d="M211.197 154.409C213.514 157.549 214.012 158.679 217.018 160.25C221.193 162.433 225.158 159.752 227.973 155.941C242.355 136.426 253.941 95.0987 256.009 95.2327C311.26 99.2544 316.756 115.226 272.211 204.335C249.575 249.339 197.753 229.786 188.886 219.885C187.928 218.813 173.91 219.77 191.165 211.038C192.122 210.559 184.73 207.533 184.06 206.671C179.789 201.079 186.549 194.319 182.834 188.363C194.382 178.807 204.628 167.565 211.197 154.409Z"
        fill="#CFD9B5" />
    <path
        d="M163.53 164.941C163.702 164.424 164.181 164.099 164.641 163.812C174.063 157.702 184.615 153.374 195.608 151.115L207.807 150.1C209.722 152.34 211.599 154.6 213.437 156.917C206.37 172.564 194.956 186.141 181.896 197.823C175.193 187.942 169.16 177.581 163.875 166.876C163.607 166.244 163.3 165.554 163.53 164.941Z"
        fill="#3F3C36" />
    <path
        d="M158.321 100.555C179.406 114.65 198.001 132.997 215.773 150.558C206.447 162.642 194.899 174.248 181.398 181.391C202.674 213.124 231.132 286.51 229.198 314.7C228.796 320.732 229.504 327.09 226.708 332.452C223.893 337.853 218.856 341.377 213.226 343.962C209.3 323.739 203.823 303.784 197.369 284.231C175.652 216.36 158.474 147.475 127.067 84.1621C138.136 88.3561 148.496 93.9865 158.321 100.555Z"
        fill="#9BB168" />
    <path
        d="M119.866 81.6538C122.298 82.4199 124.711 83.2434 127.067 84.1435C158.474 147.475 175.653 216.342 197.37 284.212C203.824 303.765 209.301 323.72 213.227 343.943C210.45 345.227 207.52 346.261 204.647 347.18C181.168 354.649 156.732 358 132.065 358.9C130.744 265.674 109.084 172.295 88.6122 76.6172C99.0302 76.7321 109.621 78.4557 119.866 81.6538Z"
        fill="white" />
    <path
        d="M14.1738 120.587C23.3279 101.072 38.4762 88.4518 56.1907 81.9405C66.3789 78.2061 77.4098 76.4826 88.6513 76.6166C109.124 172.313 130.764 265.673 132.104 358.9C113.088 359.589 93.9369 358.804 74.9967 357.329C72.5454 357.138 69.8069 356.793 68.2365 354.897C66.1874 352.427 67.1832 348.75 68.0833 345.666C73.5796 326.822 71.5305 306.695 68.9068 287.237C64.6362 255.524 59.025 223.982 52.0732 192.728C51.537 190.334 51.0008 187.902 50.6561 185.451C47.5536 186.983 44.4704 188.534 41.3871 190.066C30.4328 195.562 4.42601 181.908 1.03632 193.686C-1.03197 167.526 2.54922 145.368 14.1738 120.587Z"
        fill="#9BB168" />
    <path
        d="M1.53318 200.198C6.68475 209.237 29.0146 206.211 51.4211 193.437C73.8275 180.664 87.8076 162.987 82.656 153.948C77.5045 144.909 55.1746 147.935 32.7682 160.709C10.3617 173.482 -3.61839 191.177 1.53318 200.198Z"
        fill="#3F3C36" />
    <path
        d="M66.7613 151.095C71.549 156.305 79.4009 166.32 84.1886 171.51C92.9979 160.939 105.599 153.604 119.139 151.172C141.22 147.208 155.219 171.932 155.793 173.234C155.793 173.234 151.638 187.425 146.601 180.147C145.509 178.577 143.116 180.013 143.977 181.718C148.899 191.465 140.703 197.134 137.294 191.389C138.27 200.792 134.306 212.876 129.193 220.804C119.56 235.742 107.821 247.826 89.8189 251.867C48.1276 261.251 20.3015 225.401 8.04492 192.117C12.2964 182.254 44.8145 152.436 66.7613 151.095Z"
        fill="#CFD9B5" />
    <path
        d="M81.5067 155.366C76.6424 146.748 72.5633 137.69 67.699 129.072C67.1436 128.095 68.6565 127.214 69.2119 128.191C74.0762 136.809 78.1553 145.867 83.0196 154.485C83.575 155.462 82.0621 156.343 81.5067 155.366Z"
        fill="#3F3C36" />
    <path
        d="M95.5437 160.843C95.5437 160.843 107.781 147.743 114.56 143.071C126.185 135.085 127.257 130.297 132.926 123.269C134.42 121.43 137.427 122.579 137.503 125.031C137.656 130.316 135.128 137.019 132.505 140.753C130.053 144.239 133.252 149.18 137.35 148.222C152.556 144.66 170.94 140.026 182.852 139.758C186.089 139.681 190.896 141.749 189.861 144.967C189.498 146.077 188.483 146.709 187.506 147.226C178.352 152.148 164.199 155.806 153.226 157.817C158.224 158.832 170.117 155.653 172.281 162.126C174.119 167.641 169.657 172.467 164.467 172.467C167.781 171.433 184.269 184.379 135.186 197.842L95.5437 160.843Z"
        fill="#CFD9B5" />
    <path
        d="M94.9125 160.211C101.136 153.565 107.609 146.939 115.04 141.654C120.575 137.709 124.788 133.151 128.637 127.616C130.361 125.146 133.999 118.596 137.542 122.771C139.227 124.744 138.308 128.267 137.791 130.546C137.006 134.127 135.531 137.421 133.693 140.562C132.735 142.19 132.065 143.569 133.08 145.407C134.421 147.801 136.738 147.437 139.017 146.901C143.249 145.905 147.481 144.89 151.714 143.933C159.087 142.247 166.479 140.639 173.967 139.624C178.659 138.992 186.492 137.211 189.977 141.692C194.344 147.284 182.355 150.655 178.985 151.899C170.731 154.944 162.094 157.032 153.457 158.64C153.457 158.085 153.457 157.511 153.457 156.955C159.049 157.913 167.341 154.906 171.803 159.636C177.127 165.267 170.75 173.042 164.468 173.329C163.472 173.367 163.3 171.855 164.238 171.606C166.958 170.878 169.85 173.961 170.462 176.317C172.09 182.387 164.564 187.079 160.236 189.435C152.499 193.667 143.881 196.329 135.416 198.666C134.325 198.972 133.865 197.268 134.957 196.98C143.364 194.644 151.963 192.039 159.623 187.788C162.879 185.969 166.939 183.556 168.471 179.936C169.447 177.638 167.743 172.486 164.717 173.31C164.641 172.735 164.564 172.161 164.487 171.586C172.186 171.223 174.886 160.498 166.479 159.043C162.017 158.277 157.459 159.426 153.016 158.66C152.173 158.506 152.193 157.128 153.016 156.974C159.815 155.71 166.556 154.121 173.163 152.053C176.476 151.018 179.77 149.85 182.949 148.471C184.289 147.878 185.898 147.322 187.105 146.461C190.437 144.067 188.292 141.749 185.438 140.964C182.872 140.256 180.019 140.715 177.414 140.983C173.737 141.366 170.079 141.96 166.422 142.65C159.336 143.971 152.288 145.599 145.279 147.246C141.047 148.242 134.421 151.363 131.586 146.307C130.686 144.718 130.59 142.822 131.318 141.137C132.64 138.111 134.516 135.602 135.512 132.346C136.068 130.527 136.527 128.631 136.623 126.735C136.642 126.237 136.814 125.05 136.585 124.571C135.053 121.277 133.061 124.514 132.41 125.375C131.031 127.214 129.767 129.148 128.426 131.006C125.401 135.238 121.819 138.819 117.664 141.922C109.869 147.782 102.86 154.312 96.1956 161.456C95.3913 162.279 94.1464 161.034 94.9125 160.211Z"
        fill="#3F3C36" />
    <path
        d="M133.693 124.533C134.478 128.593 131.472 132.844 127.163 132.749C126.033 132.729 126.033 130.968 127.163 131.006C130.265 131.082 132.582 127.98 132.008 124.992C131.797 123.901 133.482 123.422 133.693 124.533Z"
        fill="#3F3C36" />
    <path
        d="M186.357 141.616C185.074 141.577 183.791 141.616 182.546 141.999C181.933 142.19 181.34 142.324 180.995 142.918C180.478 143.243 180.459 143.588 180.957 143.971C181.11 144.526 181.474 144.775 182.067 144.68C184.289 144.929 186.625 144.814 188.866 144.871C189.996 144.909 189.996 146.652 188.866 146.614C186.472 146.556 183.944 146.71 181.569 146.365C180.344 146.193 179.156 145.541 178.869 144.239C178.046 140.294 183.791 139.758 186.338 139.854C187.487 139.892 187.487 141.654 186.357 141.616Z"
        fill="#3F3C36" />
    <path
        d="M136.03 152.55C136.413 154.025 136.776 155.499 137.159 156.974C137.447 158.065 135.742 158.525 135.474 157.433C135.091 155.959 134.727 154.484 134.344 153.01C134.057 151.918 135.761 151.458 136.03 152.55Z"
        fill="white" />
    <path
        d="M181.934 -1.44122L185.113 0.282349C187.047 1.71866 186.779 2.19743 187.219 4.55298L188.33 11.6005C188.368 11.8303 188.713 11.8303 188.751 11.6005L189.843 4.59128C190.283 2.23573 190.226 1.71866 192.141 0.2632L195.148 -1.46037C195.263 -1.53698 195.263 -1.70933 195.148 -1.80509L191.758 -3.43291C189.862 -4.86922 189.977 -5.82676 189.537 -8.18231L188.751 -14.8276C188.713 -15.0575 188.368 -15.0575 188.33 -14.8276L187.411 -7.93335C186.989 -5.59695 186.74 -4.62026 184.864 -3.18395L181.915 -1.80509C181.819 -1.69018 181.819 -1.51783 181.934 -1.44122Z"
        fill="white" />
    <path
        d="M120.019 35.884C122.643 33.6051 122.892 29.7174 122.394 26.2894C121.915 22.8615 120.881 19.3569 121.647 16.0055C122.413 12.6732 125.86 9.60909 129.365 10.6815C130.188 10.9305 130.955 11.3901 131.816 11.5242C135.11 12.0412 136.585 8.03872 138.711 5.70232C141.162 3.02121 145.777 2.40838 149.071 4.32347C152.384 6.23855 153.993 10.4709 152.71 13.8223C151.905 15.9097 150.412 18.7249 152.461 19.9122C153.074 20.2761 153.801 20.2952 154.51 20.3335C156.674 20.4485 158.915 20.7932 160.772 21.9039C162.649 23.0147 164.066 25.0063 163.875 27.0555C163.607 29.8515 160.657 31.4985 158.091 32.8582C155.525 34.2179 152.729 36.267 153.035 39.0822C153.246 40.8824 154.721 42.4144 155.046 44.1955C155.621 47.317 152.614 49.845 149.665 51.1664C146.275 52.6793 142.541 53.5411 138.749 53.656C136.623 53.7326 134.421 53.5602 132.41 54.1539C130.399 54.7476 128.542 56.3562 128.561 58.3862L120.019 35.884Z"
        fill="#3F3C36" />
    <path
        d="M108.203 62.6945L92.8251 61.6604C96.6936 43.2181 114.159 33.2406 125.458 28.6061C131.165 26.2697 135.321 25.293 135.321 25.293L133.616 44.7119L128.905 98.2959C127.948 109.097 118.008 116.642 107.303 114.88C107.131 114.861 106.958 114.823 106.786 114.804C93.8784 112.64 87.1565 98.2001 93.8401 86.9394C100.926 74.9127 108.203 62.6945 108.203 62.6945Z"
        fill="#CFD9B5" />
    <path
        d="M142.119 59.0185C138.346 61.2783 133.482 60.0526 131.222 56.2799C128.962 52.5072 130.188 47.6429 133.961 45.3831C137.733 43.1233 142.598 44.349 144.857 48.1217C147.098 51.8944 145.891 56.7779 142.119 59.0185Z"
        fill="#CFD9B5" />
    <path
        d="M134.134 51.9699C136.987 51.3762 139.84 50.7825 142.694 50.2272C143.805 50.0165 144.264 51.7018 143.154 51.9124C140.3 52.4678 137.447 53.0615 134.593 53.6552C133.502 53.9041 133.023 52.1997 134.134 51.9699Z"
        fill="#3F3C36" />
    <path d="M108.185 62.6949L93.6302 87.5335L119.58 62.6758L108.185 62.6949Z" fill="#3F3C36" />
    <path
        d="M117.875 33.6999C113.183 35.481 108.395 37.6833 104.124 40.3261C104.124 39.8282 104.124 39.3111 104.124 38.8132C105.982 39.6558 107.82 40.4793 109.678 41.322C110.712 41.7816 109.812 43.2945 108.797 42.8349C106.939 41.9922 105.101 41.1688 103.243 40.3261C102.611 40.0389 102.726 39.1196 103.243 38.8132C107.648 36.0938 112.57 33.834 117.415 32.0147C118.468 31.6125 118.928 33.2978 117.875 33.6999Z"
        fill="#3F3C36" />
    <path
        d="M106.977 44.1758L105.828 46.8186C110.29 49.6529 115.327 51.4914 120.536 52.3532C121.455 51.7978 122.336 51.185 123.16 50.4956C117.376 49.7104 111.765 47.5272 106.977 44.1758Z"
        fill="white" />
    <path
        d="M106.557 55.2071C109.506 55.5901 112.532 55.3603 115.385 54.5368C114.543 54.0772 113.662 53.6942 112.704 53.4452C110.483 52.9664 108.089 53.5984 106.557 55.2071Z"
        fill="#ED7E1C" />
    <path
        d="M105.847 46.8008L102.611 54.2888C103.894 54.7292 105.235 55.0165 106.575 55.1888C108.088 53.5802 110.501 52.9673 112.722 53.427C113.68 53.6951 114.561 54.0589 115.404 54.5186C117.204 54.0015 118.947 53.2738 120.555 52.3162C115.327 51.4927 110.29 49.6543 105.847 46.8008Z"
        fill="#3F3C36" />
    <path
        d="M120.383 38.4108C124.194 37.549 127.947 38.9662 130.322 42.0495C131.012 42.9496 129.48 43.8114 128.809 42.9304C126.932 40.4983 123.83 39.4258 120.862 40.0961C119.751 40.3642 119.291 38.6598 120.383 38.4108Z"
        fill="#3F3C36" />
    <path
        d="M124.463 40.2871C124.329 41.034 124.884 41.8384 125.631 41.9724C126.378 42.1065 127.182 41.5702 127.335 40.8425C126.742 41.3979 125.574 40.9766 125.497 40.1722C126.052 40.1148 126.627 40.3637 126.972 40.8042L124.463 40.2871Z"
        fill="#3F3C36" />
    <path
        d="M125.324 40.2879C125.228 41.0923 126.243 41.4561 126.473 40.5944C126.952 40.8816 127.449 41.1689 127.928 41.4561C126.818 42.3562 124.902 41.9349 124.634 40.4029C124.539 39.8283 124.864 39.3113 125.477 39.2921C126.281 39.2538 127.047 39.5794 127.564 40.173C128.311 41.0157 127.086 42.2605 126.32 41.4178C126.071 41.1306 125.841 41.0348 125.458 41.0348C125.745 40.671 126.013 40.2879 126.3 39.9241C126.32 40.039 126.511 40.3454 126.683 40.2113C127.335 39.6751 128.388 40.1539 128.139 41.0731C127.833 42.2222 126.683 43.0457 125.477 42.835C124.309 42.6435 123.428 41.4753 123.562 40.2879C123.619 39.8092 123.926 39.407 124.443 39.407C124.883 39.407 125.381 39.8092 125.324 40.2879Z"
        fill="#3F3C36" />
    <path
        d="M123.753 41.3044C125.419 41.2661 126.951 41.879 128.158 43.0088C128.981 43.7749 127.737 45.0197 126.913 44.2537C126.032 43.4302 124.941 43.0472 123.734 43.0663C122.623 43.0855 122.623 41.3236 123.753 41.3044Z"
        fill="#3F3C36" />
    <path
        d="M158.417 31.2877C155.468 32.1878 154.051 35.7498 156.349 38.1628C157.211 39.0629 158.552 39.3693 159.337 40.3652C160.505 41.8589 160.294 43.9272 159.567 45.5551C157.307 50.6683 151.14 51.4152 146.257 51.7599C145.127 51.8365 145.127 50.0938 146.257 50.0172C149.953 49.7682 154.128 49.4618 156.809 46.5892C158.513 44.7507 158.896 42.4143 156.847 40.6524C156.004 39.9247 155.219 39.6758 154.511 38.6991C151.964 35.1753 154.051 30.7898 157.939 29.6024C159.03 29.2577 159.509 30.9621 158.417 31.2877Z"
        fill="#3F3C36" />
    <path
        d="M153.744 25.5417C150.182 24.6799 150.469 20.7349 152.02 18.2261C153.629 15.6024 156.272 13.0745 155.62 9.66569C154.816 5.41421 149.684 4.51412 146.83 7.23354C146.007 8.01872 144.781 6.77392 145.585 5.98874C148.726 3.00121 153.801 3.09696 156.31 6.86967C157.574 8.76561 157.727 11.0446 157.038 13.1894C156.367 15.3152 149.875 22.8223 154.222 23.8564C155.295 24.1054 154.835 25.7907 153.744 25.5417Z"
        fill="#3F3C36" />
    <path
        d="M121.532 28.1274C120.938 24.9101 119.061 21.9992 118.832 18.7052C118.64 16.0624 119.502 13.3622 121.091 11.2556C122.413 9.51284 124.577 7.55946 126.894 7.55946C128.235 7.55946 129.039 8.22974 130.131 8.90002C132.505 10.3363 135.244 10.3555 137.063 7.90418C137.733 7.00409 139.246 7.88503 138.576 8.78511C137.446 10.298 136.01 11.313 134.095 11.6194C131.222 12.0791 129.479 9.89586 126.856 9.85756C122.987 9.80011 120.574 14.3005 120.536 17.8818C120.498 21.2906 122.585 24.3547 123.198 27.6678C123.428 28.7594 121.743 29.2382 121.532 28.1274Z"
        fill="#3F3C36" />
    <path
        d="M96.0427 115.093C103.511 121.145 114.619 122.083 122.835 116.931C130.801 111.933 134.842 101.975 133.061 92.8398C132.851 91.729 134.536 91.2694 134.746 92.3801C136.662 102.319 132.372 113.025 123.716 118.464C114.791 124.056 102.88 122.887 94.7979 116.357C93.9169 115.629 95.1617 114.384 96.0427 115.093Z"
        fill="#3F3C36" />
    <path
        d="M101.557 47.5092C105.407 43.3918 110.96 41.5342 116.265 44.0621C121.493 46.5517 124.232 51.9714 124.672 57.5443C124.883 60.1679 120.785 60.1488 120.574 57.5443C119.904 48.9072 111.056 43.3343 104.43 50.401C102.649 52.3352 99.7571 49.4435 101.557 47.5092Z"
        fill="#3F3C36" />
    <path
        d="M129.939 28.6264C132.888 28.952 135.167 31.2692 135.435 34.2376C135.531 35.3675 133.788 35.3483 133.673 34.2376C133.501 32.3034 131.873 30.5989 129.939 30.3883C128.828 30.2542 128.828 28.4924 129.939 28.6264Z"
        fill="#3F3C36" />
    <path
        d="M135.838 42.9886C130.304 39.9245 124.769 36.8604 119.234 33.7962C119.637 33.7005 120.039 33.5856 120.441 33.4898C118.717 36.9753 118.813 41.5332 121.858 44.2526C126.052 47.987 132.544 46.206 135.513 41.8013C136.145 40.8629 137.657 41.7438 137.026 42.6822C133.598 47.738 126.512 49.8638 121.398 46.1294C117.09 42.9695 116.668 37.1668 118.909 32.6089C119.119 32.1684 119.713 32.0727 120.115 32.3025C125.65 35.3666 131.185 38.4307 136.719 41.4949C137.715 42.0311 136.815 43.544 135.838 42.9886Z"
        fill="#3F3C36" />
    <path
        d="M113.145 30.0804C107.61 27.0163 102.076 23.9522 96.541 20.888C96.9432 20.7923 97.3454 20.6774 97.7475 20.5816C96.024 24.0671 96.1197 28.625 99.1647 31.3444C103.359 35.0788 109.851 33.2978 112.819 28.8931C113.451 27.9547 114.964 28.8356 114.332 29.774C110.904 34.8298 103.818 36.9556 98.7051 33.2212C94.3961 30.0613 93.9748 24.2586 96.2155 19.7007C96.4261 19.2602 97.0198 19.1645 97.422 19.3943C102.957 22.4584 108.491 25.5225 114.026 28.5867C115.022 29.1037 114.141 30.6166 113.145 30.0804Z"
        fill="#3F3C36" />
    <path
        d="M118.142 36.2656C115.844 35.04 113.527 33.7952 111.229 32.5695C110.233 32.0333 111.114 30.5204 112.11 31.0566C114.408 32.2823 116.725 33.5271 119.023 34.7527C120.019 35.2889 119.138 36.8019 118.142 36.2656Z"
        fill="#3F3C36" />
    <path
        d="M104.871 45.0762C96.7126 50.1894 89.78 57.8689 88.8991 67.4635C88.7459 69.2445 88.8799 71.217 90.0864 72.5384C91.7717 74.3769 96.9999 74.4918 99.4703 74.0322C108.586 72.3086 114.542 70.0488 122.719 65.7016C125.669 64.1312 129.212 61.1629 131.203 58.4626C133.195 55.7623 134.038 51.9896 132.486 49.0212C128.924 53.4451 124.328 57.1412 118.985 59.0754C115.174 60.4543 101.807 63.3077 102.017 55.973C102.094 53.4642 103.894 51.0704 105.848 49.4809L104.871 45.0762Z"
        fill="#3F3C36" />
</svg>
