<svg width="121" height="120" viewBox="0 0 121 120" fill="none" xmlns="http://www.w3.org/2000/svg">
<rect x="0.5" width="120" height="120" rx="60" fill="#926247"/>
<path fill-rule="evenodd" clip-rule="evenodd" d="M83.25 41C85.3211 41 87 42.6789 87 44.75L87 56C87 58.0711 85.3211 59.75 83.25 59.75C81.1789 59.75 79.5 58.0711 79.5 56L79.5 44.75C79.5 42.6789 81.1789 41 83.25 41Z" fill="white"/>
<path fill-rule="evenodd" clip-rule="evenodd" d="M38.25 41C40.3211 41 42 42.6789 42 44.75L42 56C42 58.0711 40.3211 59.75 38.25 59.75C36.1789 59.75 34.5 58.0711 34.5 56L34.5 44.75C34.5 42.6789 36.1789 41 38.25 41Z" fill="white"/>
<path fill-rule="evenodd" clip-rule="evenodd" d="M34.5 74.75C34.5 72.6789 36.1789 71 38.25 71H83.25C85.3211 71 87 72.6789 87 74.75C87 76.8211 85.3211 78.5 83.25 78.5H38.25C36.1789 78.5 34.5 76.8211 34.5 74.75Z" fill="white"/>
</svg>
