<svg width="207" height="194" viewBox="0 0 207 194" fill="none" xmlns="http://www.w3.org/2000/svg">
    <circle cx="107" cy="97" r="97" fill="white" />
    <path
        d="M20.38 63.3561C19.4266 62.7753 18.4951 62.1507 17.6185 61.4494C16.9829 60.9453 15.6021 60.0796 15.2843 59.3234C14.6268 57.7673 17.1472 58.5234 18.0458 58.6659C19.1307 58.8412 20.2156 59.0385 21.3005 59.2467C21.6402 59.3125 21.8703 58.9947 21.7279 58.6988C20.4238 55.8825 19.5691 52.9456 19.1088 49.8772C18.9225 50.0197 18.7362 50.1621 18.5609 50.3046C20.7635 51.9264 22.9443 53.5812 25.0921 55.2688C25.3771 55.4879 25.8264 55.3017 25.7168 54.9071C25.136 52.6716 25.0921 50.4799 25.6072 48.2334C25.399 48.2882 25.1908 48.343 24.9826 48.3978C26.6263 50.1512 28.2701 51.8936 29.9139 53.6469C30.2426 53.9976 30.7796 53.4716 30.4508 53.11C28.8071 51.3566 27.1633 49.6142 25.5195 47.8608C25.3332 47.6636 24.9497 47.7513 24.8949 48.0252C24.347 50.4032 24.3798 52.7483 25.0045 55.1044C25.2127 54.9839 25.4209 54.8633 25.6291 54.7428C23.4265 53.0113 21.2019 51.3237 18.9444 49.658C18.6486 49.4389 18.3527 49.8005 18.3965 50.0854C18.8568 53.2195 19.7554 56.2112 21.0813 59.0823C21.2238 58.896 21.3663 58.7097 21.5087 58.5344C19.7006 58.1837 17.8924 57.855 16.0733 57.6249C15.3172 57.5262 14.298 57.3399 14.046 58.2714C13.772 59.3015 15.1747 60.2987 15.7884 60.8686C17.0815 62.063 18.5061 63.0931 20.0074 64.0137C20.4129 64.2547 20.7964 63.6082 20.38 63.3561Z"
        fill="#FFBD1A" />
    <path
        d="M152.77 48.4648C153.548 45.8896 154.808 43.5773 156.54 41.5281C156.32 41.4404 156.112 41.3527 155.893 41.2651C156.09 43.7198 156.287 46.1745 156.485 48.6292C156.507 48.9689 156.868 49.1113 157.131 48.8922C160.189 46.3827 163.487 44.2019 166.994 42.3609C166.808 42.2185 166.621 42.076 166.446 41.9335C166.073 44.6732 165.35 47.3032 164.243 49.8456C164.101 50.1634 164.408 50.5798 164.758 50.3606C167.038 48.9251 169.482 47.9607 172.112 47.4347C171.958 47.2813 171.805 47.1279 171.651 46.9744C170.764 49.462 169.58 51.7743 168.112 53.966C167.838 54.3714 168.495 54.744 168.758 54.3495C170.271 52.103 171.465 49.725 172.375 47.1717C172.484 46.8758 172.166 46.6566 171.914 46.7114C169.208 47.2484 166.709 48.2456 164.375 49.7141C164.55 49.8894 164.715 50.0538 164.89 50.2291C166.019 47.632 166.786 44.9471 167.169 42.1417C167.213 41.8239 166.928 41.55 166.621 41.7144C163.06 43.5883 159.718 45.8019 156.616 48.3552C156.835 48.4429 157.044 48.5305 157.263 48.6182C157.066 46.1635 156.868 43.7088 156.671 41.2541C156.649 40.9582 156.255 40.7171 156.024 40.9911C154.205 43.139 152.879 45.5608 152.058 48.2566C151.904 48.7278 152.627 48.9251 152.77 48.4648Z"
        fill="#FFBD1A" />
    <path
        d="M88.1586 20.3775C87.8189 18.0871 87.797 15.8297 88.06 13.5284C87.8408 13.6161 87.6326 13.7037 87.4134 13.7914C89.1558 15.6982 90.8873 17.6159 92.6297 19.5227C92.8379 19.7528 93.1557 19.5994 93.2543 19.3583C94.3063 16.8379 95.7967 14.6133 97.7144 12.6736C97.5062 12.6189 97.298 12.5641 97.0898 12.5093C97.4076 14.5037 97.7254 16.5091 98.0432 18.5036C98.098 18.8652 98.5582 18.8214 98.7335 18.5912C100.29 16.4762 102.185 14.7229 104.421 13.3312C104.235 13.2216 104.048 13.112 103.851 13.0024C103.72 15.1503 103.391 17.2433 102.876 19.3254C102.755 19.7967 103.479 19.9939 103.599 19.5227C104.136 17.3748 104.465 15.2051 104.607 12.9914C104.629 12.7065 104.279 12.5202 104.037 12.6627C101.692 14.1202 99.7198 15.9721 98.087 18.1858C98.3171 18.2186 98.5472 18.2406 98.7774 18.2734C98.4596 16.279 98.1418 14.2736 97.824 12.2791C97.7802 11.9942 97.3747 11.9285 97.1994 12.1148C95.183 14.153 93.6488 16.4872 92.542 19.1282C92.7502 19.0734 92.9584 19.0186 93.1666 18.9638C91.4242 17.057 89.6928 15.1393 87.9504 13.2325C87.7093 12.9695 87.3367 13.1997 87.3038 13.4955C87.0408 15.8626 87.0847 18.1858 87.4353 20.5418C87.5011 21.0459 88.2244 20.8487 88.1586 20.3775Z"
        fill="#FFBD1A" />
    <path
        d="M83.6219 173.522C84.3342 176.305 85.0465 179.1 85.7588 181.883C85.8355 182.179 86.3067 182.267 86.4492 181.971C87.5779 179.659 88.7176 177.347 89.8463 175.034C89.6491 175.056 89.4518 175.089 89.2546 175.111C91.3695 177.215 93.8133 178.826 96.5748 179.955C96.8378 180.064 97.1228 179.746 97.0351 179.494C96.2351 177.237 95.9173 174.936 96.0707 172.547C95.9173 172.667 95.7529 172.788 95.5995 172.908C97.6488 173.434 99.687 173.96 101.736 174.497C102.065 174.585 102.317 174.234 102.164 173.949C100.805 171.374 99.435 168.799 98.0761 166.224C97.846 165.796 97.1995 166.18 97.4296 166.607C98.7884 169.182 100.158 171.758 101.517 174.333C101.66 174.147 101.802 173.96 101.944 173.785C99.8953 173.259 97.857 172.733 95.8077 172.196C95.5557 172.13 95.3475 172.317 95.3365 172.558C95.1831 175.023 95.5119 177.379 96.3228 179.714C96.4762 179.56 96.6296 179.407 96.783 179.253C94.142 178.168 91.8188 176.612 89.7915 174.607C89.6271 174.443 89.3094 174.464 89.1998 174.684C88.071 176.996 86.9314 179.308 85.8026 181.62C86.0328 181.653 86.2629 181.675 86.493 181.708C85.7807 178.925 85.0684 176.13 84.3561 173.347C84.2246 172.854 83.5013 173.051 83.6219 173.522Z"
        fill="#FFBD1A" />
    <path
        d="M198.992 128.187C201.677 128.702 204.121 129.798 206.268 131.497C206.323 131.288 206.378 131.08 206.433 130.872C203.419 132.088 200.417 133.305 197.403 134.521C197.151 134.62 197.02 134.938 197.239 135.146C199.715 137.557 201.644 140.351 203.014 143.518C203.156 143.332 203.299 143.146 203.441 142.97C201.052 142.181 198.641 141.535 196.176 141.031C195.847 140.965 195.595 141.283 195.748 141.578C197.129 144.318 198.51 147.058 199.891 149.797C200 149.611 200.11 149.425 200.219 149.227C197.885 149.041 195.639 148.581 193.425 147.847C192.965 147.693 192.768 148.417 193.228 148.57C195.507 149.326 197.83 149.786 200.23 149.973C200.537 149.995 200.669 149.644 200.559 149.403C199.178 146.663 197.798 143.924 196.417 141.184C196.274 141.37 196.132 141.557 195.989 141.732C198.455 142.236 200.866 142.883 203.255 143.672C203.606 143.781 203.803 143.398 203.682 143.124C202.291 139.902 200.307 137.042 197.787 134.598C197.732 134.806 197.677 135.014 197.622 135.223C200.636 134.006 203.638 132.79 206.652 131.573C206.882 131.486 207.068 131.146 206.816 130.949C204.57 129.162 202.038 127.99 199.211 127.453C198.718 127.376 198.521 128.099 198.992 128.187Z"
        fill="#FFBD1A" />
    <path
        d="M185.185 145.853C181.711 149.907 170.775 146.258 160.759 137.688C150.742 129.119 145.428 118.884 148.901 114.829C152.375 110.774 163.312 114.424 173.328 122.993C183.344 131.563 188.659 141.798 185.185 145.853Z"
        fill="#4F3422" />
    <path
        d="M114.075 149.468C110.601 153.522 99.6644 149.873 89.6484 141.304C79.6323 132.734 74.3175 122.499 77.7913 118.444C81.2651 114.39 92.2017 118.039 102.218 126.608C112.234 135.167 117.549 145.402 114.075 149.468Z"
        fill="#4F3422" />
    <path
        d="M146.172 73.9965C150.709 68.32 159.947 61.8216 166.906 59.7505C173.875 57.6793 181.985 58.7204 187.464 63.4873C193.622 68.857 195.442 77.6457 195.694 85.8098C196.263 103.431 191.135 126.214 186.247 143.156C183.946 136.022 176.615 125.458 170.423 121.228C164.232 116.987 155.903 115.573 149.043 118.619C144.167 120.789 140.397 124.986 137.975 129.742C135.553 134.487 136.101 108.417 135.367 113.688C132.945 113.053 130.304 120.274 127.882 119.639C127.882 119.639 117.658 140.547 114.754 147.879C111.445 140.208 102.798 131.978 94.996 128.953C87.2045 125.929 78.7775 125.03 70.46 124.154C74.5256 116.855 78.6131 109.546 81.9116 101.875C83.7088 97.7107 85.2758 93.4369 87.4128 89.437C95.2481 74.7636 111.532 64.5174 128.145 65.4708C135.981 65.9201 144.222 69.2405 148.035 76.1005L146.172 73.9965Z"
        fill="#FFBD1A" />
    <path
        d="M108.947 142.904C105.221 155.944 93.9446 166.53 80.6958 169.412C73.7262 170.935 66.2745 169.916 61.6719 163.977C51.0531 150.301 57.8583 128.46 62.0554 113.71C67.184 95.6834 74.1536 73.613 85.0573 58.3697C85.0573 58.3697 82.3396 54.8192 79.6 48.1783C78.3178 45.0552 78.1535 41.5046 79.3589 38.3595C80.5643 35.2144 84.3779 32.9351 87.4353 34.3377C86.3175 32.7049 87.6873 30.3269 89.5393 29.6694C91.4023 29.0119 93.4515 29.5379 95.3473 30.0749C94.109 28.99 94.7337 26.7654 96.1473 25.9216C97.5609 25.0778 99.3472 25.2532 100.947 25.6257C105.331 26.6558 109.374 29.0448 112.464 32.3104C114.207 34.1515 112.454 37.1431 110.01 36.4856C106.788 35.6199 103.873 34.5569 101.55 33.4392C102.558 34.1076 105.55 36.2555 108.235 38.502C110.371 40.2773 108.487 43.6853 105.835 42.8306C103.742 42.1621 101.835 41.3512 101.013 40.8033C104.947 44.8908 108.947 49.0988 111.248 54.2822C115.785 64.4736 113.001 76.2649 110.262 87.07C106.437 102.193 103.205 120.702 99.8293 135.934C99.8403 135.934 105.988 138.915 108.947 142.904Z"
        fill="#F6A460" />
    <path
        d="M108.453 64.9451C110.141 59.1042 111.741 52.551 108.552 47.2909C106.218 43.4445 101.593 41.0994 96.8922 40.6282C92.191 40.157 87.435 41.3514 83.1831 43.2801C79.8079 44.8143 76.6519 46.8088 74.0109 49.3073C66.6906 56.2221 63.951 66.2162 58.4717 74.4899C55.9184 78.3473 51.5679 82.2376 46.8886 81.0541C44.8174 80.528 43.1737 79.0815 41.2669 78.1501C37.0917 76.1008 31.8535 76.6816 27.6564 78.7089C23.4593 80.7363 20.1389 84.0238 17.1144 87.4319C11.4927 93.7769 6.4956 101.053 5.45454 109.239C4.41348 117.425 8.28183 126.608 16.3254 129.973C18.9773 131.091 21.9032 131.518 24.7744 131.934C30.955 132.844 37.9136 134.268 41.1463 139.298C42.6586 141.644 43.1627 144.569 45.2119 146.531C46.4831 147.736 48.2146 148.438 49.9789 148.832C56.1485 150.191 62.636 148.054 68.0494 144.975C71.5233 143.002 74.8218 140.548 76.8162 137.227C79.4901 132.789 79.5011 127.441 80.2353 122.389C80.7832 118.686 81.7476 115.025 83.1283 111.508C83.753 109.919 84.4872 108.319 85.7584 107.135C87.0295 105.941 88.9692 105.228 90.6787 105.765C91.6979 106.083 92.5307 106.796 93.5279 107.19C95.7416 108.067 98.3606 107.179 100.202 105.744C105.451 101.656 105.834 94.3577 105.56 87.9689C105.286 81.5801 105.034 74.4461 109.582 69.6901L108.453 64.9451Z"
        fill="#4F3422" />
    <path
        d="M86.2509 43.8938C75.5773 41.0885 65.4736 49.5375 60.4437 58.1837C57.8465 62.6657 55.852 67.7614 51.9289 71.312C47.3483 75.4543 40.9375 76.0022 35.0967 74.9392C32.1927 74.4132 29.4969 73.2845 26.6477 72.5832C24.0286 71.9366 21.5848 72.2873 19.1521 73.416C14.1988 75.7173 9.42092 78.972 6.53884 83.6951C3.55813 88.5826 0.895213 94.6097 0.182911 100.308C-0.474598 105.59 0.654126 111.08 3.34992 115.672C6.18816 120.494 10.7469 124.241 15.9851 126.159C22.5273 128.559 29.5955 127.671 36.335 126.773C36.8062 126.707 36.8172 125.962 36.335 126.017C30.4174 126.806 24.2587 127.628 18.385 126.115C13.2783 124.8 8.64287 121.699 5.4649 117.491C2.10065 113.031 0.445914 107.365 0.785627 101.798C1.14726 95.9686 3.7773 90.051 6.6265 85.021C9.4538 80.0021 14.1112 76.6268 19.2616 74.1831C22.5602 72.616 25.4422 72.89 28.8175 74.0187C31.3269 74.8516 33.8584 75.5529 36.4884 75.9036C40.9814 76.4953 45.7593 76.1337 49.7482 73.8215C53.6494 71.5531 56.1041 67.6957 58.2081 63.8383C61.0025 58.7097 63.6655 53.7784 68.1913 49.921C73.0569 45.7677 79.6101 42.9185 86.0427 44.6061C86.5139 44.7486 86.7221 44.0253 86.2509 43.8938Z"
        fill="#4F3422" />
    <path
        d="M20.9063 127.211C24.8952 128.088 28.4567 130.268 31.0868 133.391C34.0784 136.953 34.7688 140.898 35.6455 145.314C36.3578 148.931 37.9906 151.911 41.2672 153.763C44.3356 155.506 48.0615 156.251 51.5463 156.492C58.0446 156.93 64.8389 155.067 69.8689 150.837C76.2357 145.468 77.5836 137.402 77.6823 129.479C77.748 124.197 77.485 118.937 78.0001 113.666C78.5151 108.384 80.4876 102.258 86.2628 100.768C86.734 100.647 86.5367 99.9242 86.0655 100.045C77.6384 102.215 77.0467 112.603 76.9152 119.704C76.7398 128.46 78.1754 138.487 73.0468 146.191C68.9264 152.383 61.4856 155.582 54.2092 155.802C50.4285 155.911 46.4067 155.319 42.9438 153.785C41.1138 152.974 39.4042 151.813 38.2536 150.158C36.8728 148.185 36.4783 145.775 36.0729 143.451C35.3606 139.331 34.1223 135.693 31.3059 132.515C28.6211 129.49 25.0486 127.375 21.1036 126.499C20.6324 126.378 20.4351 127.112 20.9063 127.211Z"
        fill="#4F3422" />
    <path
        d="M78.1208 105.152C81.5727 103.87 83.9069 107.388 85.3753 109.93C86.5479 111.946 87.7862 113.941 89.9889 114.927C94.2846 116.856 98.3502 114.368 100.597 110.686C105.539 102.588 105.67 91.0047 99.8077 83.3776C99.5118 82.9941 98.8652 83.3776 99.1611 83.7612C104.936 91.2677 104.827 102.873 99.6871 110.73C98.1968 113.009 95.9503 114.872 93.1011 114.861C90.0656 114.85 88.0492 112.933 86.5698 110.478C84.7726 107.497 82.1974 102.851 77.9345 104.44C77.4743 104.593 77.6715 105.317 78.1208 105.152Z"
        fill="#4F3422" />
    <path
        d="M84.4763 45.1867C77.8245 39.2801 68.2577 40.8033 61.1566 44.9894C56.9924 47.4441 53.2446 50.6769 49.8146 54.0631C46.1215 57.7232 42.56 63.6627 36.9493 64.3202C33.9795 64.6709 30.4509 62.8627 30.6153 59.4766C30.692 58.052 31.5906 56.4959 33.07 56.1781C34.7576 55.8164 36.6205 57.0328 36.7301 58.7752C36.763 59.2574 37.5082 59.2574 37.4863 58.7752C37.2561 55.126 32.2481 54.2274 30.4947 57.3177C28.2483 61.2628 32.0837 65.0544 35.974 65.1531C41.9573 65.3065 45.8147 59.2245 49.5077 55.4658C53.8582 51.0166 58.8005 46.7099 64.5099 44.1018C70.7343 41.2636 78.5696 40.9458 83.9612 45.7346C84.3119 46.0415 84.8489 45.5154 84.4763 45.1867Z"
        fill="#4F3422" />
    <path
        d="M99.5886 42.3705C103.095 41.8774 106.416 43.9595 109.835 44.4417C112.432 44.8033 115.084 44.6828 117.648 44.1239C122.897 42.9952 127.599 40.0144 131.127 35.9927C134.009 32.7051 137.965 27.6752 135.511 23.226C133.472 19.544 128.541 15.2154 124.004 15.7085C122.119 15.9058 120.585 17.44 121.045 19.4344C121.517 21.4727 123.763 22.1302 125.484 21.2206C125.911 20.9905 125.527 20.344 125.1 20.5741C122.218 22.0864 120.3 17.7468 123.27 16.629C124.453 16.1797 125.834 16.5194 126.985 16.9359C129.538 17.8673 131.839 19.5988 133.549 21.6918C134.601 22.985 135.719 24.6397 135.664 26.3821C135.62 27.8396 134.798 29.2422 134.108 30.4806C132.87 32.7161 131.335 34.7872 129.549 36.6064C125.681 40.5514 120.563 43.2472 115.029 43.7951C112.202 44.08 109.396 43.7951 106.69 42.9623C104.246 42.2171 101.999 41.2966 99.4023 41.6582C98.9092 41.713 99.1174 42.4363 99.5886 42.3705Z"
        fill="#4F3422" />
    <path
        d="M95.0502 72.5845C95.894 74.294 97.0008 75.9268 98.4583 77.4062L103.313 71.0722L110.096 85.0333C112.496 89.9756 118.874 91.455 123.159 88.0141C123.224 87.9593 123.301 87.9045 123.367 87.8387C127.433 84.5402 127.564 78.3706 123.696 74.8419L94.9516 48.6621C94.9516 48.6621 90.1408 61.5931 94.7543 71.9379L95.0502 72.5845Z"
        fill="#F6A460" />
    <path
        d="M94.7557 71.9378C95.9283 68.1242 97.9885 62.8313 101.397 65.1216C101.802 65.2969 101.32 67.4996 100.564 68.1352C98.5364 69.4393 96.4762 70.8419 95.0516 72.5843L94.7557 71.9378Z"
        fill="#F6A460" />
    <path
        d="M94.733 72.7695C95.6535 74.5777 96.7932 76.1995 98.1959 77.668C98.3822 77.8652 98.6452 77.7775 98.7877 77.5912C100.41 75.4763 102.02 73.3722 103.642 71.2572C103.423 71.2572 103.204 71.2572 102.996 71.2572C105.067 75.5201 107.138 79.7829 109.209 84.0348C110.316 86.3032 111.642 88.2758 114.02 89.3935C117.253 90.9058 120.902 90.3141 123.652 88.1004C124.025 87.7936 123.499 87.2676 123.116 87.5635C119.872 90.1826 115.16 90.1168 112.124 87.1799C110.721 85.8211 109.987 83.9143 109.143 82.1829C107.313 78.4131 105.472 74.6434 103.642 70.8737C103.5 70.5888 103.149 70.6764 102.996 70.8737C101.374 72.9887 99.763 75.0927 98.1411 77.2077C98.3384 77.1858 98.5356 77.1529 98.7329 77.131C97.374 75.7064 96.2782 74.1393 95.3905 72.386C95.1604 71.9586 94.5139 72.3421 94.733 72.7695Z"
        fill="#4F3422" />
    <path
        d="M94.5905 48.5627C91.8838 55.8939 91.3139 64.8799 94.4371 72.1235C94.6234 72.5618 95.2809 72.1892 95.0836 71.7399C92.0481 64.6826 92.6947 55.883 95.3138 48.7599C95.4781 48.3106 94.7549 48.1134 94.5905 48.5627Z"
        fill="#4F3422" />
    <path
        d="M94.7557 71.9373C94.8544 72.1565 94.953 72.3647 95.0516 72.5839C95.4023 72.1565 95.7858 71.7401 96.2132 71.3565C97.1009 68.6498 98.7994 66.3266 101.539 65.5157C101.528 65.3184 101.484 65.176 101.397 65.1321C97.9885 62.8308 95.9283 68.1238 94.7557 71.9373Z"
        fill="#4F3422" />
    <path
        d="M96.2117 71.3557C97.4938 70.1613 99.039 69.1202 100.562 68.1339C101.154 67.6408 101.57 66.2052 101.538 65.5039C98.7979 66.3258 97.0993 68.638 96.2117 71.3557Z"
        fill="#ED7E1C" />
    <path
        d="M111.445 55.3895C111.336 57.6579 109.418 59.4113 107.15 59.3127C104.881 59.2031 103.128 57.2854 103.226 55.0169C103.336 52.7485 105.254 50.9952 107.522 51.0938C109.802 51.1924 111.555 53.1102 111.445 55.3895Z"
        fill="#F6A460" />
    <path
        d="M106.919 57.0441C107.478 55.6414 108.037 54.2387 108.618 52.847C108.804 52.3977 108.081 52.2114 107.894 52.6497C107.313 54.0415 106.755 55.4442 106.196 56.8468C106.009 57.2961 106.744 57.4934 106.919 57.0441Z"
        fill="#4F3422" />
    <path d="M103.314 71.0707L109.845 84.462L106.568 66.1504L103.314 71.0707Z" fill="#4F3422" />
    <path
        d="M97.6156 59.1057C97.1225 60.2563 96.6403 61.407 96.1472 62.5576C96.0157 62.8644 96.3115 63.3137 96.6622 63.0726C97.254 62.6562 97.8896 62.3713 98.5909 62.2069C99.0621 62.0973 98.8649 61.3741 98.3936 61.4837C97.6266 61.659 96.9252 61.9768 96.2787 62.4261C96.454 62.6014 96.6184 62.7658 96.7937 62.9411C97.2868 61.7905 97.769 60.6399 98.2622 59.4892C98.4484 59.0509 97.8019 58.6673 97.6156 59.1057Z"
        fill="#4F3422" />
    <path
        d="M93.6586 60.6605C93.3627 63.1042 93.0668 65.537 92.7709 67.9807C92.749 68.178 92.9572 68.3752 93.1435 68.3533C93.801 68.2985 94.5133 67.8821 95.1161 67.641C95.5544 67.4657 95.3681 66.7315 94.9188 66.9178C94.3928 67.126 93.7024 67.5643 93.1435 67.6081C93.2641 67.7287 93.3956 67.8602 93.5161 67.9807C93.812 65.537 94.1079 63.1042 94.4038 60.6605C94.4695 60.1783 93.7134 60.1783 93.6586 60.6605Z"
        fill="#4F3422" />
    <path
        d="M95.4787 55.5533C96.2896 56.3094 97.3635 56.682 98.4703 56.5395C98.9415 56.4738 98.9525 55.7286 98.4703 55.7834C97.5498 55.9039 96.6951 55.6519 96.0156 55.0163C95.654 54.6985 95.128 55.2245 95.4787 55.5533Z"
        fill="#4F3422" />
    <path
        d="M180.89 139.901C176.09 150.345 167.06 158.783 156.299 162.848C147.652 166.114 136.749 166.125 130.382 159.451C126.163 155.035 124.804 148.657 124.092 142.586C123.533 137.786 123.259 132.965 123.292 128.132C123.314 124.264 123.522 120.384 123.412 116.516C123.138 106.851 122.349 96.8126 120.081 87.4102C117.297 75.86 112.673 64.244 104.246 55.8607C104.092 55.7073 103.939 55.5758 103.797 55.4443C102.471 54.2936 103.523 52.1239 105.254 52.4088C106.284 52.5841 107.336 52.9129 108.081 53.5485C111.643 56.5621 111.741 55.4552 116.837 60.1016C113.166 57.2086 109.868 53.8553 107.04 50.1404C106.262 49.1103 107.15 47.6309 108.421 47.8939C111.873 48.6171 118.623 53.5156 122.525 56.0032C122.525 56.0032 112.355 47.4117 112.355 46.283C112.355 44.4091 115.325 45.1433 117.517 46.1953C121.845 48.2884 128.037 52.1458 133.089 55.6306C134.152 56.3648 135.335 54.8744 134.371 54.0087C131.795 51.6965 128.464 49.8226 126.261 49.8116C125.845 49.8116 125.44 49.7568 125.067 49.5815C123.051 48.6172 124.135 46.7432 125.472 46.4364C126.426 46.2172 130.437 46.535 131.346 46.8967C139.543 50.1513 142.151 53.5485 148.704 63.1591C152.595 68.8684 155.17 75.3559 157.274 81.931C162.03 96.7907 166.72 111.004 167.191 126.598C173.372 128.888 178.851 134.773 180.89 139.901Z"
        fill="#F6A460" />
    <path
        d="M123.893 136.318C123.433 128.691 123.981 121.053 123.663 113.426C123.367 106.095 122.742 98.7633 121.351 91.5526C118.918 78.9394 114.304 65.833 105.274 56.3868C104.551 55.6307 103.05 54.6115 103.773 53.439C104.529 52.2116 106.568 53.0006 107.488 53.5924C108.474 54.228 109.329 55.0718 110.326 55.7074C112.551 57.143 114.6 58.5895 116.573 60.3757C116.748 60.2004 116.923 60.025 117.11 59.8387C114.819 58.0196 112.671 56.0471 110.688 53.8992C110.162 53.3294 109.647 52.7486 109.143 52.1459C108.814 51.7623 107.367 50.3597 107.378 49.9432C107.795 49.4063 108.2 48.8583 108.617 48.3214C108.814 48.3762 109.022 48.431 109.219 48.4967C109.767 48.6173 110.315 48.9241 110.819 49.1652C114.907 51.1048 118.567 53.8883 122.359 56.3211C122.709 56.5512 123.148 56.0142 122.819 55.7293C120.057 53.3952 117.318 51.0281 114.743 48.4967C114.238 48.0036 113.285 47.2913 112.989 46.6228C112.222 44.8475 115.323 45.7023 116.156 45.9982C119.663 47.2584 122.972 49.5049 126.106 51.4665C127.772 52.5075 129.416 53.5705 131.038 54.6663C131.904 55.2471 133.164 56.617 134.314 56.0471C137.021 54.7102 132.506 51.9815 131.52 51.3678C130.282 50.6007 128.934 49.8884 127.498 49.5816C126.874 49.4501 126.172 49.5268 125.57 49.3515C123.323 48.7049 124.704 46.8858 126.139 46.7324C128.89 46.4475 131.52 47.2474 133.953 48.42C140.506 51.6089 144.396 57.4717 148.385 63.3235C148.659 63.7181 149.306 63.3455 149.032 62.94C145.328 57.5046 141.635 51.7514 135.728 48.4858C133.153 47.0611 130.786 46.1735 127.849 45.9982C126.326 45.9105 122.918 46.031 123.652 48.5734C123.926 49.5378 124.967 50.009 125.865 50.1405C128.211 50.4692 130.084 51.2254 132.046 52.5952C132.55 52.9459 133.032 53.3184 133.503 53.702C133.821 53.965 135.366 55.0937 133.295 55.2691C132.725 55.3239 130.961 53.6801 130.446 53.3404C128.495 52.0473 126.512 50.787 124.507 49.5706C121.537 47.7844 118.052 45.242 114.534 44.7708C112.956 44.5626 111.28 45.505 112.441 47.105C113.921 49.1323 116.101 50.8199 117.964 52.4746C119.389 53.7458 120.835 54.9951 122.293 56.2334C122.446 56.0362 122.6 55.8389 122.753 55.6416C120.134 53.954 117.581 52.1678 114.918 50.5459C113.658 49.7789 112.376 49.0227 111.039 48.3981C110.184 48.0036 109.033 47.368 108.058 47.4557C107.269 47.5214 106.6 48.1241 106.447 48.9022C106.228 50.0309 107.258 50.9514 107.893 51.7404C110.469 54.9184 113.406 57.7786 116.605 60.3209C116.978 60.6168 117.504 60.1237 117.142 59.784C115.323 58.1402 113.471 56.6717 111.378 55.3896C109.417 54.1842 107.707 52.1568 105.285 51.9706C103.565 51.85 102.272 53.5486 103.148 55.1376C103.828 56.3649 105.329 57.406 106.261 58.4689C107.554 59.9593 108.737 61.5373 109.833 63.1701C118.512 76.1779 121.624 92.4074 122.666 107.738C123.312 117.25 122.611 126.751 123.192 136.252C123.17 136.8 123.926 136.8 123.893 136.318Z"
        fill="#4F3422" />
    <path
        d="M180.56 139.715C175.87 149.764 167.432 157.939 157.131 162.114C147.531 166.004 134.326 166.114 128.354 156.164C124.836 150.312 124.332 142.959 123.894 136.307C123.861 135.825 123.105 135.825 123.138 136.307C123.543 142.477 124.047 149.052 126.732 154.717C129.045 159.616 133.198 163.1 138.425 164.525C149.219 167.473 160.945 162.574 169.185 155.703C174.281 151.452 178.402 146.104 181.207 140.088C181.415 139.66 180.769 139.277 180.56 139.715Z"
        fill="#4F3422" />
    <path
        d="M103.489 54.8853C104.694 55.0278 105.834 54.2388 106.195 53.0881C106.338 52.6279 105.615 52.4306 105.472 52.8909C105.209 53.7456 104.365 54.2388 103.489 54.1401C103.007 54.0744 103.007 54.8305 103.489 54.8853Z"
        fill="#4F3422" />
    <path
        d="M106.94 50.1088C108.321 50.7444 109.888 50.3389 110.797 49.1225C111.093 48.7389 110.436 48.3554 110.151 48.7389C109.504 49.6047 108.299 49.9005 107.313 49.4513C106.885 49.265 106.502 49.9115 106.94 50.1088Z"
        fill="#4F3422" />
    <path
        d="M113.121 47.1822C114.283 47.3904 115.39 46.9411 116.091 45.9877C116.376 45.6042 115.729 45.2206 115.444 45.6042C114.962 46.2617 114.118 46.5904 113.319 46.448C112.847 46.3713 112.639 47.0945 113.121 47.1822Z"
        fill="#4F3422" />
    <path
        d="M124.408 47.8826C125.636 48.299 126.929 48.0251 127.904 47.1922C128.277 46.8744 127.74 46.3484 127.367 46.6553C126.589 47.3128 125.559 47.4772 124.606 47.1484C124.145 47.0059 123.948 47.7292 124.408 47.8826Z"
        fill="#4F3422" />
    <path
        d="M86.3284 35.0287C92.9035 35.467 98.9307 39.0285 102.492 44.5625C102.755 44.968 103.402 44.5954 103.139 44.179C99.4238 38.4039 93.1775 34.7328 86.3284 34.2725C85.8463 34.2397 85.8463 34.9958 86.3284 35.0287Z"
        fill="#4F3422" />
    <path
        d="M94.7003 30.7554C97.1879 31.4787 99.544 32.4978 101.779 33.8128C102.196 34.0649 102.579 33.4074 102.163 33.1663C99.8727 31.8184 97.4618 30.7664 94.8976 30.0322C94.4373 29.8897 94.2291 30.613 94.7003 30.7554Z"
        fill="#4F3422" />
    <path
        d="M106.591 37.8128C106.218 39.4347 107.457 41.0675 109.111 41.1552C109.594 41.1771 109.594 40.4319 109.111 40.399C107.95 40.3333 107.051 39.1388 107.314 38.0101C107.424 37.5388 106.701 37.3416 106.591 37.8128Z"
        fill="#4F3422" />
    <path
        d="M110.886 31.1497C110.295 32.673 111.281 34.4811 112.87 34.8208C113.341 34.9195 113.538 34.1962 113.067 34.0976C111.851 33.8346 111.16 32.4976 111.61 31.347C111.785 30.8977 111.062 30.7114 110.886 31.1497Z"
        fill="#4F3422" />
    <path
        d="M100.497 133.754C99.5769 137.327 99.018 140.943 98.8208 144.625C98.7989 145.107 99.544 145.107 99.5769 144.625C99.7632 141.009 100.322 137.458 101.221 133.951C101.341 133.491 100.618 133.294 100.497 133.754Z"
        fill="#4F3422" />
    <path
        d="M167.453 121.842C167.333 127.902 167.212 133.962 167.092 140.011C167.081 140.493 167.837 140.493 167.848 140.011C167.969 133.951 168.089 127.891 168.21 121.842C168.21 121.36 167.464 121.36 167.453 121.842Z"
        fill="#4F3422" />
    <path
        d="M117.78 67.9367C118.624 67.4107 119.467 66.8847 120.322 66.3696C120.739 66.1176 120.355 65.4601 119.939 65.7231C119.095 66.2491 118.251 66.7641 117.396 67.2902C116.991 67.5422 117.374 68.1888 117.78 67.9367Z"
        fill="#FFBD1A" />
    <path
        d="M123.499 64.0462C124.167 63.5201 124.836 62.9832 125.504 62.4572C125.888 62.1613 125.351 61.6243 124.967 61.9202C124.299 62.4462 123.63 62.9832 122.962 63.5092C122.589 63.816 123.126 64.342 123.499 64.0462Z"
        fill="#FFBD1A" />
    <path
        d="M128.508 60.9777C129.275 60.5504 130.042 60.123 130.809 59.6956C131.236 59.4545 130.853 58.808 130.425 59.049C129.658 59.4764 128.891 59.9038 128.124 60.3312C127.708 60.5613 128.08 61.2079 128.508 60.9777Z"
        fill="#FFBD1A" />
    <path
        d="M138.042 55.9163C138.645 55.9163 139.237 55.9163 139.839 55.9163C140.321 55.9163 140.321 55.1602 139.839 55.1602C139.237 55.1602 138.645 55.1602 138.042 55.1602C137.56 55.1602 137.56 55.9163 138.042 55.9163Z"
        fill="#FFBD1A" />
    <path
        d="M81.4842 38.6558C81.9774 38.2065 82.4815 37.7682 82.9746 37.3189C83.3362 36.9901 82.7993 36.4641 82.4376 36.7819C81.9445 37.2312 81.4404 37.6696 80.9473 38.1189C80.5857 38.4476 81.1226 38.9736 81.4842 38.6558Z"
        fill="#FFBD1A" />
    <path
        d="M89.1551 32.5085C89.7031 31.8729 90.3606 31.3798 91.1277 31.0291C91.566 30.8209 91.1824 30.1744 90.7441 30.3826C89.9332 30.7661 89.2099 31.3031 88.6182 31.9825C88.3113 32.3332 88.8373 32.8701 89.1551 32.5085Z"
        fill="#FFBD1A" />
    <path
        d="M98.3277 27.7523C99.2372 27.1934 100.147 26.6346 101.056 26.0866C101.473 25.8346 101.089 25.188 100.673 25.4401C99.7633 25.999 98.8537 26.5579 97.9441 27.1058C97.5387 27.3578 97.9222 28.0044 98.3277 27.7523Z"
        fill="#FFBD1A" />
    <path
        d="M99.9395 62.0744C100.641 63.7949 101.846 65.3181 103.359 66.403C104.465 67.192 106.361 67.5427 106.876 66.2934C107.391 65.0442 105.846 63.9702 104.586 63.4881C103.096 62.9182 101.594 62.3484 100.104 61.7676L99.9395 62.0744Z"
        fill="white" />
    <path
        d="M91.7852 94.8633C90.2729 96.4303 89.0017 98.2275 88.0045 100.167C87.7524 100.671 87.5004 101.241 87.6648 101.778C87.9387 102.721 89.3195 102.907 90.1085 102.326C90.8975 101.745 91.1934 100.715 91.3578 99.7508C91.5989 98.2056 92.0153 96.4084 91.7852 94.8633Z"
        fill="white" />
    <path
        d="M87.0297 79.5527C85.4407 81.1417 84.0818 82.9608 83.0189 84.9443C82.7449 85.4594 82.4819 86.0402 82.6353 86.599C82.8983 87.5743 84.312 87.8045 85.1448 87.2237C85.9667 86.6429 86.3064 85.5909 86.4817 84.5936C86.7667 83.0047 87.2379 81.1527 87.0297 79.5527Z"
        fill="white" />
    <path
        d="M68.9045 111.234C67.3156 112.823 65.9567 114.642 64.8937 116.626C64.6198 117.141 64.3568 117.722 64.5102 118.281C64.7732 119.256 66.1868 119.486 67.0197 118.905C67.8416 118.325 68.1813 117.273 68.3566 116.275C68.6415 114.686 69.1128 112.834 68.9045 111.234Z"
        fill="white" />
</svg>
