<svg width="24" height="24" viewBox="0 0 24 24" fill="none" xmlns="http://www.w3.org/2000/svg">
<path d="M7.23891 11.0833H15.7599C16.5429 11.0833 17.2349 10.6433 17.5639 9.93533C17.8909 9.23133 17.7829 8.42432 17.2819 7.83132L13.266 3.07034C12.387 2.02734 10.6118 2.02734 9.7328 3.07034L5.71693 7.83035C5.21593 8.42435 5.10795 9.23133 5.43495 9.93533C5.76495 10.6443 6.45591 11.0833 7.23891 11.0833ZM6.86391 8.79836L10.8798 4.03738C11.0338 3.85438 11.2599 3.75027 11.4999 3.75027C11.7399 3.75027 11.966 3.85438 12.12 4.03738L16.1359 8.79836C16.3129 9.00736 16.242 9.22125 16.204 9.30325C16.165 9.38725 16.0429 9.58328 15.7609 9.58328H7.23988C6.95788 9.58328 6.83601 9.38725 6.79701 9.30325C6.75801 9.22125 6.68791 9.00736 6.86391 8.79836ZM15.7609 12.9173H7.23988C6.45688 12.9173 5.76493 13.3572 5.43593 14.0652C5.10893 14.7692 5.21691 15.5762 5.71791 16.1692L9.73378 20.9302C10.1728 21.4512 10.8169 21.7503 11.5009 21.7503C12.1849 21.7503 12.828 21.4512 13.268 20.9302L17.2838 16.1702C17.7848 15.5762 17.8928 14.7692 17.5658 14.0652C17.2348 13.3562 16.5439 12.9173 15.7609 12.9173ZM16.1359 15.2022L12.12 19.9632C11.811 20.3282 11.1878 20.3282 10.8798 19.9632L6.86391 15.2022C6.68691 14.9932 6.75779 14.7793 6.79579 14.6973C6.83479 14.6133 6.95691 14.4173 7.23891 14.4173H15.7599C16.0419 14.4173 16.1638 14.6133 16.2028 14.6973C16.2418 14.7793 16.3119 14.9932 16.1359 15.2022Z" fill="#4F3422"/>
</svg>
