<svg width="24" height="12" viewBox="0 0 24 12" fill="none" xmlns="http://www.w3.org/2000/svg">
<path d="M12.0006 0.206543C6.83569 0.206543 2.44481 4.23392 2.00492 9.37493C1.99179 9.53316 2.01155 9.69239 2.06295 9.8426C2.11435 9.99282 2.19628 10.1308 2.30358 10.2478C2.41271 10.3666 2.54528 10.4615 2.69291 10.5265C2.84055 10.5915 3.00006 10.6253 3.16138 10.6256H5.4886C6.07281 10.6256 6.56635 10.181 6.63735 9.59141C6.96264 6.88141 9.26824 4.83743 12.0006 4.83743C13.0456 4.83743 14.038 5.13185 14.9024 5.68867C13.6228 6.62249 12.1642 7.77934 10.9495 8.98945C10.3915 9.54703 10.2893 10.4118 10.7052 11.0427C10.8525 11.2727 11.0552 11.4619 11.2947 11.5931C11.5342 11.7242 11.8028 11.793 12.0759 11.7932C12.2897 11.7933 12.5015 11.7511 12.699 11.6691C12.8964 11.587 13.0757 11.4667 13.2265 11.3151C14.4467 10.0954 15.612 8.62711 16.5509 7.33983C16.9886 8.01922 17.2666 8.78906 17.3639 9.59141C17.4341 10.1806 17.9277 10.6256 18.5123 10.6256H20.8395C21.1644 10.6256 21.4769 10.4882 21.6973 10.2478C21.8047 10.131 21.8867 9.99321 21.9382 9.8431C21.9896 9.69298 22.0092 9.53382 21.9959 9.37571C21.7909 7.0227 20.7624 4.81743 19.0915 3.14807C17.1945 1.25111 14.6767 0.206543 12.0006 0.206543ZM11.6147 0.997201V4.08343C10.2466 4.16699 8.94541 4.70429 7.91691 5.61034L5.74405 3.43747C7.35116 1.95621 9.43117 1.09172 11.6147 0.997201ZM5.87061 9.49957C5.8463 9.70486 5.68539 9.85381 5.4886 9.85381H3.16138C3.05218 9.85381 2.94645 9.8075 2.87236 9.72647C2.83689 9.68848 2.80977 9.64347 2.79275 9.59435C2.77574 9.54524 2.76921 9.4931 2.77358 9.44131C2.9534 7.3433 3.84786 5.44788 5.19958 3.98426L7.37475 6.15944C6.54523 7.09386 6.0205 8.2591 5.87061 9.49957ZM12.3865 4.0815V0.987554C14.5748 1.0737 16.6603 1.93903 18.2668 3.42744L17.6051 4.08922C17.5144 4.06859 17.4204 4.06654 17.3289 4.08318C17.2374 4.09983 17.1502 4.13483 17.0726 4.18607C16.5651 4.51906 16.0634 4.86074 15.5677 5.21096C14.6358 4.54074 13.5324 4.14932 12.3865 4.0815ZM12.6813 10.7695C12.591 10.8602 12.4814 10.9296 12.3608 10.9724C12.2401 11.0152 12.1114 11.0304 11.984 11.0168C11.7236 10.9894 11.4994 10.8494 11.3508 10.6209C11.1339 10.2914 11.1945 9.83528 11.4944 9.53584C13.3431 7.69445 15.7888 5.96496 17.2389 5.00143C16.2742 6.45502 14.5358 8.91536 12.6813 10.7695ZM21.1293 9.72647C21.0552 9.8075 20.9495 9.85381 20.8403 9.85381H18.513C18.3162 9.85381 18.1553 9.70524 18.1314 9.49996C18.0078 8.47983 17.6293 7.50724 17.0309 6.67188C17.3803 6.17653 17.7213 5.67534 18.0538 5.16851C18.1615 5.00451 18.1866 4.81505 18.1499 4.63639L18.8075 3.97886C20.1939 5.4857 21.054 7.40736 21.2281 9.44169C21.2325 9.49337 21.226 9.54542 21.209 9.59442C21.192 9.64343 21.1648 9.68867 21.1293 9.72647Z" fill="white"/>
</svg>
