<svg width="375" height="812" viewBox="0 0 375 812" fill="none" xmlns="http://www.w3.org/2000/svg">
<g clip-path="url(#clip0_206_3899)">
<rect width="375" height="812" fill="#ED7E1C"/>
<path opacity="0.64" d="M133.349 598.771L97.548 811.729L-69.0002 674.188L133.349 598.771Z" fill="#F6A460"/>
<path opacity="0.64" d="M-4.59027 -55.6204L208.921 -23.2814L74.1018 145.478L-4.59027 -55.6204Z" fill="#F6A460"/>
<path opacity="0.64" d="M-33.9029 361.663L105.527 424.52L-18.667 513.846L-33.9029 361.663Z" fill="#F6A460"/>
<path opacity="0.64" fill-rule="evenodd" clip-rule="evenodd" d="M346.5 55C365.554 55 381 39.5538 381 20.5C381 1.44617 365.554 -14 346.5 -14C327.446 -14 312 1.44617 312 20.5C312 39.5538 327.446 55 346.5 55ZM346.5 87C383.227 87 413 57.2269 413 20.5C413 -16.2269 383.227 -46 346.5 -46C309.773 -46 280 -16.2269 280 20.5C280 57.2269 309.773 87 346.5 87Z" fill="#F6A460"/>
<path opacity="0.64" fill-rule="evenodd" clip-rule="evenodd" d="M64.5 311.474C75.5312 311.474 84.4737 302.531 84.4737 291.5C84.4737 280.469 75.5312 271.526 64.5 271.526C53.4688 271.526 44.5263 280.469 44.5263 291.5C44.5263 302.531 53.4688 311.474 64.5 311.474ZM64.5 330C85.763 330 103 312.763 103 291.5C103 270.237 85.763 253 64.5 253C43.237 253 26 270.237 26 291.5C26 312.763 43.237 330 64.5 330Z" fill="#F6A460"/>
<path opacity="0.64" fill-rule="evenodd" clip-rule="evenodd" d="M280.5 842.226C302.992 842.226 321.226 823.992 321.226 801.5C321.226 779.008 302.992 760.774 280.5 760.774C258.008 760.774 239.774 779.008 239.774 801.5C239.774 823.992 258.008 842.226 280.5 842.226ZM280.5 880C323.854 880 359 844.854 359 801.5C359 758.146 323.854 723 280.5 723C237.146 723 202 758.146 202 801.5C202 844.854 237.146 880 280.5 880Z" fill="#F6A460"/>
<path opacity="0.64" d="M277.652 177.887L385.44 171.681L336.895 268.149L277.652 177.887Z" fill="#F6A460"/>
<path opacity="0.64" d="M456.851 441.079L233.373 642.157L171 347.999L456.851 441.079Z" fill="#F6A460"/>
</g>
<defs>
<clipPath id="clip0_206_3899">
<rect width="375" height="812" fill="white"/>
</clipPath>
</defs>
</svg>
