<svg width="103" height="103" viewBox="0 0 103 103" fill="none" xmlns="http://www.w3.org/2000/svg">
<path d="M23.2904 23.2904C28.8698 17.7111 35.9782 13.9115 43.717 12.3722C51.4557 10.8329 59.4772 11.6229 66.7669 14.6424C74.0567 17.6619 80.2873 22.7753 84.671 29.3359C89.0546 35.8965 91.3944 43.6096 91.3944 51.5" stroke="#FFEEE2" stroke-width="23.2113"/>
<path d="M91.3944 51.5C91.3944 57.8949 89.857 64.1962 86.912 69.8726C83.9669 75.549 79.7004 80.4343 74.472 84.1167C69.2437 87.799 63.2067 90.1705 56.87 91.0313C50.5332 91.8921 44.0824 91.2169 38.0612 89.0627" stroke="#F6A360" stroke-width="23.2113"/>
<path d="M39.2479 89.4664C32.9104 87.4212 27.1856 83.8221 22.5957 78.9973" stroke="#F6A360" stroke-width="23.2113"/>
<path d="M91.3944 51.5C91.3944 57.2893 90.1343 63.0093 87.7018 68.2628C85.2692 73.5162 81.7224 78.1774 77.3076 81.9225" stroke="#F5BE91" stroke-width="23.2113"/>
<path d="M23.2904 79.7096C19.5859 76.005 16.6473 71.6071 14.6424 66.7669C12.6375 61.9267 11.6056 56.739 11.6056 51.5" stroke="#FFAC69" stroke-width="23.2113"/>
<path d="M11.6216 52.629C11.4363 46.0838 12.8649 39.5937 15.7812 33.7312C18.6976 27.8688 23.0121 22.8143 28.3439 19.0137" stroke="#F6A360" stroke-width="23.2113"/>
</svg>
