<svg width="148" height="367" viewBox="0 0 148 367" fill="none" xmlns="http://www.w3.org/2000/svg">
<path d="M25.4708 131.977C27.5333 158.597 29.2973 188.808 28.8631 213.552C31.9026 213.552 46.4758 218.746 51.5778 206.564C55.16 158.869 53.3417 141.303 53.3417 141.303C53.3417 141.303 54.8615 114.438 40.3425 114.438C40.3425 114.465 23.8696 121.426 25.4708 131.977Z" fill="#FDB77E"/>
<path d="M7.58683 292.653C6.88124 293.17 2.56626 295.998 2.15918 296.433C-1.36879 299.343 0.720775 300.485 2.75614 299.315C1.69775 301.518 1.88777 300.403 0.775105 302.796C-1.23313 307.174 0.965139 308.751 3.89607 309.539C7.45118 312.259 10.5178 311.253 13.7744 308.751C18.2794 305.27 17.3023 299.778 16.2168 294.394L7.58683 292.653Z" fill="#FDB77E"/>
<path d="M28.7545 208.631L6.33832 295.019L13.5029 301.137L50.6551 211.404C50.6551 211.404 55.5943 197.808 43.0293 192.152C43.0293 192.152 34.7249 190.82 28.7545 208.631Z" fill="#FDB77E"/>
<path d="M38.0629 63.3447C42.6222 68.3208 47.4799 71.5023 43.3549 78.844C39.9626 84.7719 36.7874 85.3429 36.0276 93.2557C35.132 102.827 39.0128 109.136 46.2587 115.009C51.6864 119.496 56.7341 121.698 55.54 129.285C54.1559 137.932 50.1123 141.44 57.711 149.679C61.9174 154.274 76.0565 161.861 82.841 158.543C88.6215 155.824 88.4858 142.065 88.9471 136.572C89.7341 127.463 92.855 120.257 95.0532 111.61C97.4957 101.903 96.763 92.0592 100.481 82.5421C104.145 73.5145 106.397 67.5322 103.195 58.0695C99.6667 47.1928 92.1766 45.1262 84.7136 38.1923C78.3904 32.3461 80.6428 24.9227 71.8229 20.7896C63.003 16.6564 44.4948 13.3118 37.4388 21.3878C28.7003 31.6663 29.2973 53.7188 38.0629 63.3447Z" fill="#181D0F"/>
<path d="M74.3198 244.415V228.616H35.485C33.4225 235.033 31.9298 240.064 30.8443 244.415H74.3198Z" fill="#FDB77E"/>
<g style="mix-blend-mode:multiply">
<path d="M63.7359 374.99L67.481 313.727L74.3199 271.987C71.7643 272.347 69.1917 272.574 66.6126 272.667C58.8361 273.069 51.0459 272.206 43.545 270.111L45.0104 271.552C49.1914 275.39 52.8421 279.77 55.8657 284.577C59.0681 290.45 59.2853 297.248 60.2351 303.611L63.7359 374.99Z" fill="#D1D3D4"/>
</g>
<path d="M112.585 244.415C110.918 239.046 108.961 233.772 106.723 228.616H63.7358C63.7358 231.499 63.7358 236.964 63.7358 244.415H112.585Z" fill="#FDB77E"/>
<path d="M37.4389 516.333H65.4456L66.694 400.224L74.4011 277.208V228.616H35.485C25.281 260.512 26.8822 264.237 27.3435 308.642L35.0235 397.45L37.4389 516.333Z" fill="#6E7D43"/>
<g style="mix-blend-mode:multiply">
<path d="M68.2138 374.99L71.9859 314.216L74.3199 271.987C71.7643 272.347 69.1917 272.574 66.6126 272.667C58.8361 273.069 51.0459 272.206 43.545 270.111L45.0104 271.552C49.1914 275.39 52.8421 279.77 55.8657 284.577C59.0681 290.45 59.2853 297.248 60.2351 303.611L68.2138 374.99Z" fill="#D1D3D4"/>
</g>
<path d="M76.8165 516.333H104.606L101.241 392.8C101.241 392.8 111.201 309.784 114.43 293.496C114.43 293.496 125.285 271.389 106.723 228.616H63.7359C63.6002 243.218 63.4374 323.597 70.5476 396.689L76.8165 516.333Z" fill="#839060"/>
<path d="M40.1525 16.7917C37.4387 21.8222 35.9461 29.0552 38.0086 34.3848C42.6221 46.186 65.1468 50.1288 71.8771 38.7899C76.8705 30.3332 74.5909 17.7978 68.322 10.592C59.5292 0.585382 45.5801 6.02374 40.1525 16.7917Z" fill="#252C19"/>
<path d="M80.1544 120.447C80.1544 120.447 79.3402 164.335 109.844 154.628C109.844 154.628 129.79 131.433 106.099 115.063L80.1544 120.447Z" fill="#FDB77E"/>
<path d="M83.1396 86.3486H59.5565V113.296H83.1396V86.3486Z" fill="#FDB77E"/>
<path d="M59.5565 98.6936V86.3213H83.1666V101.086C75.2189 101.588 67.243 100.78 59.5565 98.6936Z" fill="#FFAA64"/>
<path d="M26.8818 124.934C30.277 119.722 35.354 115.834 41.265 113.921L62.3243 106.09H82.4067L103.466 113.921C109.377 115.834 114.454 119.722 117.849 124.934H26.8818Z" fill="#FDB77E"/>
<path d="M115.407 255.101C112.34 228.616 96.7089 201.914 96.7089 201.914L107.564 154.627L109.844 133.255C113.724 116.94 108.351 114.927 108.351 114.927L87.8889 108.129C87.8889 108.129 84.3338 120.774 64.6586 118.408C64.6586 118.408 49.841 116.831 55.7572 108.537L43.2736 113.269C43.2736 113.269 39.6099 125.151 29.4059 154.328C29.4059 154.328 26.8822 167.081 40.9126 179.317L25.3351 260.24C25.3351 260.24 114.43 270.899 115.407 255.101Z" fill="#94A661"/>
<path d="M90.7658 78.8706C89.8364 80.8701 88.5061 82.6565 86.8579 84.1186C79.2474 91.1888 69.2292 95.0795 58.8512 94.9953C32.31 82.3783 43.0839 30.7139 43.0839 30.7139C48.0773 5.94221 69.3537 6.81234 69.3537 6.81234C85.4466 6.81234 99.83 14.9699 101.621 31.9648C102.327 38.4908 100.807 45.5607 100.237 51.9235C99.912 56.6936 98.9349 61.3964 97.3332 65.9001C95.6235 70.3596 92.8826 74.4655 90.7658 78.8706Z" fill="#FDB77E"/>
<path d="M87.7802 285.773C83.0581 282.864 85.2564 280.661 87.1832 276.881C88.6487 274.026 88.7029 274.57 90.1412 271.606C89.7179 272.351 89.1446 272.999 88.4578 273.509C87.771 274.019 86.9858 274.381 86.1519 274.57C83.4381 275.032 83.4381 272.177 83.4381 272.177L89.5984 267.12C90.8739 266.086 92.0952 264.944 93.425 263.993C95.1925 262.837 97.2578 262.223 99.3682 262.225C100.142 262.243 100.902 262.426 101.599 262.762C102.296 263.099 102.913 263.58 103.409 264.175C103.905 264.77 104.269 265.464 104.475 266.211C104.681 266.958 104.726 267.741 104.606 268.506C103.943 271.34 102.932 274.081 101.594 276.664C101.594 276.664 96.0302 287.133 87.7802 285.773Z" fill="#FDB77E"/>
<path d="M148 204.089L104.579 268.507L98.6897 263.068L124.498 202.648L102.57 152.452C102.57 152.452 89.354 124.662 101.81 113.269C101.81 113.269 121.242 110.958 128.08 148.618L148 204.089Z" fill="#FDB77E"/>
<path d="M46.5571 9.09677C46.5571 9.09677 47.0727 44.3101 78.4173 46.8662C78.4173 46.8662 95.3246 48.5249 92.4479 64.7312C92.4479 64.7312 93.4249 52.1686 103.466 55.1325C103.466 55.1325 110.739 46.9749 109.735 30.1432C109.735 30.1432 111.39 11.3809 85.0662 3.22333C85.0662 3.22333 60.8046 -7.05516 46.5571 9.09677Z" fill="#181D0F"/>
<path d="M94.0219 59.1841C94.0219 59.1841 97.3871 51.1898 103.792 54.6975C103.792 54.6975 107.618 56.9544 104.552 63.2085C104.552 63.2085 100.454 71.3661 94.0219 67.9671V59.1841Z" fill="#FDB77E"/>
<path d="M73.5055 43.9291C79.8558 43.3036 83.1668 47.3008 83.4382 52.9839C83.8181 60.217 76.8435 62.5011 76.4093 69.299C76.1379 73.1059 80.4801 77.0487 79.8559 82.8949C79.1232 89.4481 77.1421 92.1673 78.689 98.5302C80.1002 104.24 81.8913 105.845 80.5072 112.806C79.5302 117.728 75.2695 125.124 79.096 130.045C83.5738 135.783 89.1915 131.052 94.2935 130.888C100.427 130.671 104.389 135.022 107.13 125.64C115.678 125.124 121.405 127 121.432 116.422C121.432 112.67 119.125 110.685 118.718 107.34C118.257 103.153 120.156 100.624 120.319 97.1978C120.672 89.7472 115.108 83.2212 115.054 75.6347C115.054 71.855 117.307 68.3473 116.9 64.758C116.574 61.6581 114.186 58.1232 113.263 54.8058C110.821 44.1466 113.507 22.7738 102.408 15.8127C95.5961 11.4892 86.7219 19.3205 82.4612 24.1606C78.2005 29.0008 79.9915 41.7809 75.1881 42.1072L73.5055 43.9291Z" fill="#181D0F"/>
<path d="M90.657 263.911C91.7574 270.037 94.3015 275.811 98.0776 280.753C101.854 285.696 106.753 289.663 112.368 292.327L102.408 321.34H76.8438V269.404L90.657 263.911Z" fill="#839060"/>
</svg>
