<svg width="24" height="12" viewBox="0 0 24 12" fill="none" xmlns="http://www.w3.org/2000/svg">
<path d="M11.9996 0C6.83471 0 2.44384 4.02738 2.00394 9.16839C1.99081 9.32661 2.01057 9.48584 2.06197 9.63606C2.11337 9.78627 2.1953 9.92423 2.30261 10.0412C2.41174 10.16 2.5443 10.255 2.69194 10.32C2.83958 10.385 2.99909 10.4187 3.16041 10.419H5.48762C6.07183 10.419 6.56537 9.97449 6.63637 9.38487C6.96166 6.67487 9.26727 4.63089 11.9996 4.63089C13.0446 4.63089 14.0371 4.92531 14.9014 5.48213C13.6219 6.41595 12.1633 7.5728 10.9485 8.7829C10.3905 9.34049 10.2883 10.2052 10.7043 10.8361C10.8515 11.0661 11.0542 11.2554 11.2937 11.3865C11.5332 11.5177 11.8018 11.5865 12.0749 11.5867C12.2887 11.5868 12.5005 11.5446 12.698 11.4625C12.8955 11.3805 13.0748 11.2602 13.2256 11.1086C14.4457 9.88882 15.6111 8.42057 16.5499 7.13329C16.9877 7.81268 17.2657 8.58252 17.3629 9.38487C17.4332 9.9741 17.9267 10.419 18.5113 10.419H20.8385C21.1634 10.419 21.476 10.2816 21.6963 10.0412C21.8037 9.92447 21.8858 9.78667 21.9372 9.63655C21.9886 9.48644 22.0083 9.32728 21.995 9.16916C21.7899 6.81615 20.7614 4.61089 19.0905 2.94153C17.1935 1.04456 14.6757 0 11.9996 0ZM11.6138 0.790658V3.87689C10.2457 3.96045 8.94443 4.49774 7.91593 5.40379L5.74307 3.23093C7.35019 1.74967 9.43019 0.885178 11.6138 0.790658ZM5.86964 9.29303C5.84533 9.49831 5.68442 9.64726 5.48762 9.64726H3.16041C3.0512 9.64726 2.94547 9.60096 2.87139 9.51992C2.83591 9.48193 2.80879 9.43693 2.79178 9.38781C2.77476 9.33869 2.76823 9.28656 2.7726 9.23476C2.95242 7.13676 3.84688 5.24134 5.1986 3.77772L7.37378 5.95289C6.54426 6.88732 6.01952 8.05255 5.86964 9.29303ZM12.3855 3.87496V0.781011C14.5739 0.867161 16.6594 1.73249 18.2659 3.2209L17.6041 3.88267C17.5134 3.86205 17.4195 3.85999 17.3279 3.87664C17.2364 3.89328 17.1492 3.92828 17.0716 3.97953C16.5641 4.31251 16.0624 4.65419 15.5667 5.00441C14.6348 4.3342 13.5314 3.94278 12.3855 3.87496ZM12.6803 10.5629C12.59 10.6537 12.4805 10.723 12.3598 10.7658C12.2391 10.8086 12.1104 10.8238 11.9831 10.8103C11.7226 10.7829 11.4984 10.6428 11.3498 10.4144C11.133 10.0848 11.1936 9.62874 11.4934 9.3293C13.3421 7.48791 15.7878 5.75841 17.2379 4.79488C16.2732 6.24848 14.5348 8.70881 12.6803 10.5629ZM21.1283 9.51992C21.0542 9.60096 20.9485 9.64726 20.8393 9.64726H18.5121C18.3153 9.64726 18.1544 9.4987 18.1304 9.29342C18.0068 8.27328 17.6284 7.30069 17.0299 6.46534C17.3793 5.96999 17.7203 5.4688 18.0529 4.96197C18.1605 4.79797 18.1856 4.60851 18.149 4.42985L18.8065 3.77231C20.1929 5.27916 21.053 7.20081 21.2271 9.23515C21.2315 9.28683 21.225 9.33888 21.208 9.38788C21.191 9.43688 21.1638 9.48213 21.1283 9.51992Z" fill="white"/>
<path d="M13.3 7.9L13.3102 7.89231L13.3201 7.88411L16.0997 5.5678L14.5852 8.21809L12.7597 10.5H12H11.8604L11.5 9.41886V9.25L13.3 7.9Z" fill="white" stroke="white"/>
<path d="M6.05279 7.77639L6.0369 7.80818L6.02566 7.84189L5.56298 9.22991L5.29289 9.5H3.1099L3.48796 7.60972L3.97176 5.67452L4.41093 4.79618L5.83134 3.37576L6.94908 5.98381L6.05279 7.77639Z" fill="white" stroke="white"/>
<path d="M9.87873 4.01493L9.74438 4.04852L9.64645 4.14645C9.49306 4.29984 9.23719 4.53219 8.9788 4.72217C8.84936 4.81735 8.7299 4.89401 8.62986 4.94481C8.53625 4.99235 8.4948 4.99899 8.49493 4.99988C8.49495 5.00006 8.49667 5 8.5 5C8.29989 5 8.11856 5.04844 7.98208 5.09352C7.96647 4.9893 7.93765 4.88228 7.88471 4.77639C7.82403 4.65502 7.74285 4.55365 7.66071 4.46239C7.58151 4.37439 7.47984 4.27273 7.36236 4.15526L7.35355 4.14645L6.5 3.29289V3.20711L6.81854 2.88856L8.25145 1.93329L9.19182 1.4631L10.5811 1H11.5V3.60961L9.87873 4.01493ZM8.00041 5.51122C8.00038 5.51126 8.00027 5.51036 8.00018 5.50844L8.00041 5.51122Z" fill="white" stroke="white"/>
<path d="M14 1H12.5L12 2V4H14C14.5 4.33333 16 5.5 16 5.5C16 5.5 16.5 6.16667 16.5 6.5L17 7L18 8.5L18.5 9.5H19.5H21V8.5L20.5 6L18.5 3.5L17.5 2.5L16 1.5L14 1Z" fill="white" stroke="white"/>
</svg>
