<svg width="16" height="17" viewBox="0 0 16 17" fill="none" xmlns="http://www.w3.org/2000/svg">
<path fill-rule="evenodd" clip-rule="evenodd" d="M8.00008 1.8335C5.05456 1.8335 2.66675 4.22131 2.66675 7.16683C2.66675 9.14187 3.74034 10.865 5.33341 11.7865V11.8335C5.33341 13.0761 6.18326 14.1201 7.33342 14.4162V15.1668H8.66675V14.4162C9.8169 14.1201 10.6667 13.0761 10.6667 11.8335V11.7865C12.2598 10.865 13.3334 9.14187 13.3334 7.16683C13.3334 4.22131 10.9456 1.8335 8.00008 1.8335ZM8.66675 11.8335V9.74948C9.8169 9.45346 10.6667 8.40939 10.6667 7.16683H9.33342C9.33342 7.90321 8.73646 8.50016 8.00008 8.50016C7.2637 8.50016 6.66675 7.90321 6.66675 7.16683H5.33341C5.33341 8.40939 6.18326 9.45346 7.33342 9.74948V11.8335H8.66675Z" fill="#ACA9A5"/>
</svg>
