<svg width="181" height="558" viewBox="0 0 181 558" fill="none" xmlns="http://www.w3.org/2000/svg">
<path d="M179.2 551C179.1 550.9 179 550.7 178.9 550.6C178.8 550.5 178.6 550.4 178.5 550.4L144.9 536.9H145.4L144.3 400.4L146.3 320.8L147.3 297.6C151.2 296.9 153.4 296.4 153.4 296.4L149.9 217.2C156.7 258.2 155.9 297.3 155.4 308.7L154.4 314L154.6 314.2C150.8 316.2 149.1 320.2 149.1 320.2C149.1 320.2 146.6 327.8 151.1 328.9L150.5 331.3C150.5 331.3 151.5 334.7 154.2 332.8C154.3 333.1 154.5 333.4 154.7 333.6C154.9 333.8 155.2 334 155.5 334C155.8 334.1 156.1 334 156.5 333.9C156.8 333.8 157.1 333.6 157.3 333.4C157.5 333.7 157.7 333.9 158 334.1C158.3 334.3 158.6 334.4 158.9 334.4C159.2 334.4 159.6 334.3 159.8 334.1C160.1 333.9 160.3 333.7 160.5 333.4C160.5 333.4 162.8 334.9 164 332.8C165.1 330 165.9 327.1 166.5 324.1C166.5 324.1 166.4 320 165.4 317L166.5 311.2H166.6C166.7 310.4 166.8 309.7 167 308.9L167.1 308.5C175.2 254.6 169.7 212.4 166.7 195.8C167.7 195 168.7 194.1 169.6 193.3C164.7 168 158.6 149.9 156.4 145.1C156.4 145.1 155.3 143 153.1 141C151.1 138.5 148.6 136.4 145.7 134.9L122.3 127.2C122.3 127.2 122.2 127.2 122.1 127.3L117.2 125.5H116.7V116.7V114.3C122.7 111.8 125.5 110.1 127.1 104.8C127.1 104.7 127.6 100.5 128.3 94.7C143.7 82.4 144 46.8 144 46.8C144.9 44.1 145.4 41 146.3 38.2C143.3 14.4 104.8 19 104.8 19C81.3 20.3 75.1 2 75.1 2C59.4 17.8 72.6 29.9 72.6 29.9C70.8 29.5 69.1 28.8 67.6 27.7C66.1 26.6 64.9 25.3 63.9 23.7C61.4 32.9 65.3 44.4 73.7 47.8C73 50.5 72.7 53 72.8 54.3C73.1 58.7 73.8 63 74.8 67.2C75.4 70.3 76.7 76.5 78.3 81.7C78.4 82.5 78.4 83.3 78.5 84.1C78.9 91.6 79.7 102 81.2 108C84.7 118.2 89.7 120.7 89.7 120.7L93 121.1V126.8L90.7 127.6L71.5 134.2C71.5 134.2 65.2 136.5 61.4 140.6C59.6 142.1 58 144.3 57.1 147.3C57 147.3 49.3 174.9 44.6 197.2C44.6 199 45.9 200.8 47.8 202.5C45.5 210 42.9 217.4 40 224.7C39.5 225.6 38.9 226.5 38.4 227.6L12.1 288.3C10.9 288.8 9.7 289.6 8.8 290.5C7.8 291.6 6.9 292.9 6 294.1L1.5 299.9C1.5 299.9 2.2 302.4 4.4 301.5C5.1 301.2 5.7 300.7 6.2 300.1C6.7 299.5 7.1 298.8 7.3 298.1C6.6 301.1 6.5 300.6 5.7 303.4C4.7 307.2 1.6 310.4 8.1 311.2C10.3 314 15.5 308.8 15.4 308.8C18.3 304.8 19.9 294.9 19.6 292.3C19.6 292 19.5 291.7 19.4 291.3L56.4 238.5C56.4 238.5 58.7 235.4 60.2 231.5L55.7 295.4C58.6 296.1 61.5 296.8 64.4 297.4L68.9 406.9L80.1 538.4L46.6 551.9C46.4 551.9 46.3 552 46.2 552.1C46.1 552.2 46 552.3 45.9 552.5C45.8 552.6 45.8 552.8 45.8 553C45.8 553.2 45.8 553.3 45.9 553.5C49.1 558.2 67.5 555.5 67.5 555.5L93.7 549.7C94.3 545.9 93.6 541.9 91.8 538.5L103.1 410.1L107 380.7L111.1 414.8L133.4 537.2H133.1C131.4 540.7 130.7 544.6 131.3 548.5L157.5 554.3C157.5 554.3 175.8 557 179 552.3C179.1 552.1 179.1 552 179.1 551.8C179.4 551.3 179.3 551.1 179.2 551Z" stroke="#6E7D43" stroke-width="2.9572" stroke-miterlimit="10" stroke-linecap="round" stroke-linejoin="round"/>
</svg>
