<svg width="221" height="562" viewBox="0 0 221 562" fill="none" xmlns="http://www.w3.org/2000/svg">
<path d="M95.0106 240.543C117.417 199.53 114.483 184.04 114.483 184.04L95.0106 175.398C90.1285 197.572 83.0112 219.195 73.7678 239.937C76.2967 241.124 86.2353 249.211 95.0106 240.543Z" fill="#FDB77E"/>
<path d="M47.4879 313.425C40.8947 312.539 44.1211 309.293 45.0856 305.484C45.8395 302.563 46.0008 303.065 46.6773 300.07C46.4469 300.831 46.0622 301.536 45.5472 302.141C45.0321 302.747 44.3978 303.24 43.6837 303.589C41.3749 304.543 40.6938 301.978 40.6938 301.978L45.2112 296.13C46.1747 294.924 47.0341 293.568 48.0759 292.486C49.4357 291.081 51.1743 290.1 53.0808 289.662C53.7854 289.518 54.5126 289.526 55.2139 289.685C55.9151 289.844 56.5743 290.151 57.1475 290.585C57.7207 291.019 58.1946 291.571 58.5378 292.202C58.8809 292.834 59.0853 293.531 59.1374 294.248C59.4669 296.946 57.8354 306.91 54.9035 311.009C55.0299 311.007 49.7682 316.288 47.4879 313.425Z" fill="#FDB77E"/>
<path d="M78.0996 228.68L50.9619 291.269L58.2042 294.367L96.5212 239.728C96.5212 239.728 107.724 224.983 96.7237 218.469C96.7227 218.418 85.5901 212.918 78.0996 228.68Z" fill="#FDB77E"/>
<path d="M84.3386 197.862C84.3386 202.765 93.8725 207.97 101.813 210.649C105.933 212.107 110.161 213.239 114.458 214.035C126.141 179.618 130.39 164.254 131.022 158.29C131.022 158.29 131.755 137.67 113.775 137.013C113.775 137.013 100.625 135.294 97.0336 147.247C96.9324 147.247 89.0929 175.221 84.3386 197.862Z" fill="#6E7D43"/>
<path d="M103.912 281.556L109.172 410.533L120.578 543.957H132.413L143.843 413.692L161.293 281.556H103.912Z" fill="#6E7D43"/>
<path d="M134.284 555.354L107.655 561.217C107.655 561.217 89.0675 563.946 85.7799 559.195C85.7208 559.039 85.6943 558.873 85.7022 558.707C85.71 558.541 85.7521 558.378 85.8256 558.229C85.8992 558.079 86.0027 557.947 86.1297 557.839C86.2567 557.732 86.4044 557.651 86.5639 557.603L120.552 543.957H132.388C134.19 547.467 134.853 551.451 134.284 555.354Z" fill="#252C19"/>
<path d="M172.445 554.065L199.049 559.903C199.049 559.903 217.637 562.632 220.899 557.906C220.963 557.751 220.993 557.584 220.989 557.416C220.985 557.248 220.946 557.083 220.875 556.931C220.804 556.779 220.701 556.644 220.575 556.533C220.448 556.422 220.3 556.339 220.14 556.289L186.051 542.643H174.241C172.474 546.173 171.847 550.164 172.445 554.065Z" fill="#252C19"/>
<path d="M189.237 281.556H122.778L140.809 326.208L151.961 418.493L174.544 542.643H186.582L185.419 404.215L187.492 323.453L189.237 281.556Z" fill="#839060"/>
<path d="M157.221 99.6388H133.424V132.666H157.221V99.6388Z" fill="#FDB77E"/>
<path d="M133.424 114.978V99.6388H157.221V116.266C148.724 117.05 140.885 117.858 133.424 114.978Z" fill="#F6A47A"/>
<path d="M194.7 144.771C191.145 139.365 185.857 135.329 179.703 133.323L157.778 125.212H136.838L114.888 133.323C108.739 135.326 103.459 139.364 99.9166 144.771H194.7Z" fill="#FDB77E"/>
<path d="M131.123 127.309L111.6 133.955C111.6 133.955 98.6015 138.731 98.6015 146.59L104.14 179.618L95.7692 297.451C146.094 310.313 194.699 298.714 194.699 298.714L189.313 175.448L198.999 156.218C199.228 151.847 198.191 147.502 196.011 143.706C193.831 139.909 190.601 136.822 186.708 134.814L162.987 126.955C162.987 126.955 138.912 140.45 131.123 127.309Z" fill="#94A661"/>
<path d="M196.621 314.558C196.621 314.558 200.592 248.402 185.216 190.256L206.484 188.866C206.484 188.866 219.533 241.225 208.052 313.649L196.621 314.558Z" fill="#FDB77E"/>
<path d="M205.852 324.616L208.482 310.945L197.405 307.988L195.736 316.529L205.852 324.616Z" fill="#FDB77E"/>
<path d="M194.093 324.969L192.702 331.716C187.644 330.883 190.35 322.746 190.35 322.746C190.35 322.746 194.674 312.815 204.512 316.302C207.723 317.338 207.951 326.713 207.951 326.713C207.34 329.714 206.494 332.663 205.422 335.532C204.259 337.731 201.882 336.164 201.882 336.164C201.725 336.46 201.49 336.708 201.202 336.881C200.915 337.053 200.586 337.145 200.25 337.145C199.915 337.145 199.586 337.053 199.299 336.881C199.011 336.708 198.776 336.46 198.619 336.164C198.407 336.415 198.131 336.603 197.821 336.71C197.51 336.816 197.177 336.837 196.855 336.77C196.534 336.702 196.237 336.55 195.995 336.327C195.754 336.105 195.577 335.821 195.483 335.507C192.727 337.453 191.741 334.016 191.741 334.016L194.093 324.969Z" fill="#FDB77E"/>
<path d="M165.617 170.445C157.676 145.807 173.482 140.121 173.482 140.121C190.274 130.999 197.557 145.175 197.557 145.175C199.783 149.951 206.029 168.322 210.986 194.021C202.817 201.805 189.718 209.183 179.374 209.638L165.617 170.445Z" fill="#6E7D43"/>
<path d="M114.989 66.1058C113.931 61.8103 113.254 57.4302 112.966 53.016C112.612 49.0487 116 35.6557 120.906 34.746C127.659 33.4825 127.633 52.4348 128.493 57.4888C129.205 64.7352 128.942 72.0444 127.709 79.2208C127.431 81.7478 127.886 86.8018 125.18 88.141C122.879 89.3793 123.309 89.733 121.943 88.141C118.58 83.9715 116.026 71.0839 114.989 66.1058Z" fill="#252C19"/>
<path d="M121.412 99.184C124.978 109.519 129.985 112.046 129.985 112.046L136.459 112.754C140.101 111.996 146.297 109.974 146.297 109.974C160.458 103.834 165.339 103.733 167.716 95.9242C167.716 95.6715 174.62 55.7199 174.62 55.7199C174.797 35.2261 153.15 32.7497 149.888 32.497C146.625 32.2443 125.888 28.0495 121.513 48.0632C117.319 64.8416 117.284 82.3891 121.412 99.184Z" fill="#FDB77E"/>
<path d="M168.348 72.7517C163.291 78.5132 160.509 87.4082 152.467 90.0363C150.806 90.709 148.998 90.9347 147.223 90.6908C145.448 90.4469 143.768 89.742 142.351 88.6464C137.167 85.0581 132.893 89.5814 127.431 88.2674C122.98 87.206 120.375 81.8488 118.504 77.1487C118.706 83.8704 119.516 99.5377 121.463 107.472C125.029 117.808 130.036 120.335 130.036 120.335L136.51 121.068C140.151 120.284 146.347 118.263 146.347 118.263C160.509 112.122 165.39 112.021 167.767 104.213C167.767 104.061 170.296 81.4698 172.243 70.0479C170.735 70.602 169.394 71.5329 168.348 72.7517Z" fill="#181D0F"/>
<path d="M162.127 43.8179C163.392 45.0561 167.817 57.7921 167.817 57.7921C167.817 57.7921 164.631 73.3077 163.948 81.9247L167.969 82.1269C167.969 82.1269 168.298 75.9863 171.282 75.2282L167.919 94.7617C184.786 83.1882 185.115 45.4604 185.115 45.4604L162.127 43.8179Z" fill="#252C19"/>
<path d="M166.958 78.3616C166.958 78.3616 169.916 70.1994 175.986 74.3942C175.986 74.3942 178.717 76.1884 175.986 81.6972C175.986 81.6972 172.015 89.6319 166.123 85.9172L166.958 78.3616Z" fill="#FDB77E"/>
<path d="M187.441 36.7675C186.556 39.5978 186.051 42.6807 185.115 45.4603C183.825 49.2255 183.421 49.6551 179.577 49.6551C176.278 49.3746 173.124 48.1752 170.473 46.1932C165.288 42.8828 162.557 47.2798 157.044 47.6083C153.226 47.8357 150.772 49.8825 147.257 50.4638C143.287 51.1208 140.859 49.1245 137.749 47.2292C132.843 44.2221 126.849 46.4964 121.336 47.2292C107.882 49.1245 100.776 33.7604 103.963 21.9594C104.9 23.5641 106.162 24.955 107.669 26.043C109.176 27.131 110.894 27.892 112.713 28.2769C112.713 28.2769 99.3096 15.9958 115.242 0C115.242 0 121.513 18.5227 145.361 17.2593C145.335 17.2593 184.432 12.6602 187.441 36.7675Z" fill="#181D0F"/>
</svg>
