<svg width="303" height="302" viewBox="0 0 303 302" fill="none" xmlns="http://www.w3.org/2000/svg">
<circle cx="151.5" cy="151" r="128" stroke="#E8DDD9" stroke-width="46"/>
<path d="M151.5 23C180.384 23 208.419 32.7691 231.047 50.7193C253.676 68.6695 269.569 93.7456 276.142 121.872" stroke="#A694F5" stroke-width="46" stroke-linecap="round"/>
<path d="M83.4 172V164.62C84.6 163.78 86.06 162.7 87.78 161.38C89.5 160.04 91.29 158.57 93.15 156.97C95.01 155.35 96.74 153.71 98.34 152.05C99.96 150.39 101.27 148.82 102.27 147.34C103.29 145.86 103.8 144.59 103.8 143.53C103.8 142.43 103.53 141.42 102.99 140.5C102.45 139.58 101.73 138.85 100.83 138.31C99.93 137.77 98.93 137.5 97.83 137.5C96.73 137.5 95.72 137.77 94.8 138.31C93.9 138.85 93.17 139.58 92.61 140.5C92.07 141.42 91.8 142.43 91.8 143.53H83.52C83.52 140.83 84.17 138.4 85.47 136.24C86.79 134.08 88.53 132.37 90.69 131.11C92.87 129.85 95.25 129.22 97.83 129.22C100.45 129.22 102.84 129.86 105 131.14C107.16 132.42 108.88 134.15 110.16 136.33C111.44 138.49 112.08 140.89 112.08 143.53C112.08 144.89 111.87 146.21 111.45 147.49C111.05 148.77 110.46 150.05 109.68 151.33C108.9 152.59 107.95 153.88 106.83 155.2C105.73 156.5 104.48 157.86 103.08 159.28C101.7 160.68 100.21 162.16 98.61 163.72H112.2V172H83.4ZM121.295 172.78C120.135 172.78 119.145 172.38 118.325 171.58C117.525 170.76 117.125 169.76 117.125 168.58C117.125 167.44 117.525 166.46 118.325 165.64C119.145 164.82 120.135 164.41 121.295 164.41C122.455 164.41 123.445 164.82 124.265 165.64C125.085 166.46 125.495 167.44 125.495 168.58C125.495 169.76 125.085 170.76 124.265 171.58C123.445 172.38 122.455 172.78 121.295 172.78ZM130.4 172V164.62C131.6 163.78 133.06 162.7 134.78 161.38C136.5 160.04 138.29 158.57 140.15 156.97C142.01 155.35 143.74 153.71 145.34 152.05C146.96 150.39 148.27 148.82 149.27 147.34C150.29 145.86 150.8 144.59 150.8 143.53C150.8 142.43 150.53 141.42 149.99 140.5C149.45 139.58 148.73 138.85 147.83 138.31C146.93 137.77 145.93 137.5 144.83 137.5C143.73 137.5 142.72 137.77 141.8 138.31C140.9 138.85 140.17 139.58 139.61 140.5C139.07 141.42 138.8 142.43 138.8 143.53H130.52C130.52 140.83 131.17 138.4 132.47 136.24C133.79 134.08 135.53 132.37 137.69 131.11C139.87 129.85 142.25 129.22 144.83 129.22C147.45 129.22 149.84 129.86 152 131.14C154.16 132.42 155.88 134.15 157.16 136.33C158.44 138.49 159.08 140.89 159.08 143.53C159.08 144.89 158.87 146.21 158.45 147.49C158.05 148.77 157.46 150.05 156.68 151.33C155.9 152.59 154.95 153.88 153.83 155.2C152.73 156.5 151.48 157.86 150.08 159.28C148.7 160.68 147.21 162.16 145.61 163.72H159.2V172H130.4ZM178.435 172.78C175.695 172.78 173.215 172.12 170.995 170.8C168.795 169.46 167.045 167.69 165.745 165.49C164.465 163.27 163.825 160.85 163.825 158.23H172.105C172.105 159.39 172.385 160.45 172.945 161.41C173.525 162.35 174.295 163.1 175.255 163.66C176.215 164.22 177.275 164.5 178.435 164.5C179.575 164.5 180.615 164.22 181.555 163.66C182.515 163.1 183.275 162.35 183.835 161.41C184.415 160.45 184.705 159.39 184.705 158.23C184.705 157.07 184.465 156 183.985 155.02C183.525 154.04 182.725 153.26 181.585 152.68C180.445 152.08 178.875 151.78 176.875 151.78H165.895L170.485 130H191.425V138.28H177.205L176.125 143.5L178.465 143.56C181.325 143.66 183.835 144.37 185.995 145.69C188.175 147.01 189.885 148.76 191.125 150.94C192.365 153.12 192.985 155.55 192.985 158.23C192.985 160.21 192.605 162.08 191.845 163.84C191.105 165.6 190.065 167.15 188.725 168.49C187.405 169.83 185.865 170.88 184.105 171.64C182.345 172.4 180.455 172.78 178.435 172.78Z" fill="#4F3422"/>
<path d="M219.36 160.714V172H215.616V161.632C215.616 160.828 215.418 160.096 215.022 159.436C214.638 158.776 214.116 158.254 213.456 157.87C212.808 157.474 212.076 157.276 211.26 157.276C210.468 157.276 209.742 157.474 209.082 157.87C208.422 158.254 207.894 158.776 207.498 159.436C207.102 160.096 206.904 160.828 206.904 161.632V172H203.16V145H206.904V155.908C207.528 155.164 208.296 154.576 209.208 154.144C210.12 153.712 211.104 153.496 212.16 153.496C213.492 153.496 214.704 153.82 215.796 154.468C216.888 155.116 217.752 155.986 218.388 157.078C219.036 158.17 219.36 159.382 219.36 160.714Z" fill="#C9C7C5"/>
</svg>
