<svg width="375" height="812" viewBox="0 0 375 812" fill="none" xmlns="http://www.w3.org/2000/svg">
    <g clip-path="url(#clip0_6_5801)">
        <rect width="375" height="812" fill="#A694F5" />
        <path opacity="0.64"
            d="M20.531 566.591C27.6632 555.136 44.3369 555.136 51.4691 566.591L57.0286 575.519C61.1508 582.139 69.0289 585.403 76.6249 583.636L86.8695 581.254C100.012 578.198 111.802 589.988 108.746 603.131L106.364 613.375C104.597 620.971 107.861 628.849 114.481 632.971L123.409 638.531C134.864 645.663 134.864 662.337 123.409 669.469L114.481 675.029C107.861 679.151 104.597 687.029 106.364 694.625L108.746 704.869C111.802 718.012 100.012 729.802 86.8695 726.746L76.6249 724.364C69.0289 722.597 61.1508 725.861 57.0286 732.481L51.4691 741.409C44.3369 752.864 27.6632 752.864 20.531 741.409L14.9714 732.481C10.8492 725.861 2.97115 722.597 -4.62492 724.364L-14.8695 726.746C-28.0121 729.802 -39.8021 718.012 -36.746 704.869L-34.3638 694.625C-32.5975 687.029 -35.8607 679.151 -42.4809 675.029L-51.4094 669.469C-62.8636 662.337 -62.8635 645.663 -51.4094 638.531L-42.4809 632.971C-35.8606 628.849 -32.5975 620.971 -34.3638 613.375L-36.746 603.131C-39.8021 589.988 -28.012 578.198 -14.8695 581.254L-4.62491 583.636C2.97116 585.403 10.8492 582.139 14.9714 575.519L20.531 566.591Z"
            fill="#C2B1FF" />
        <path opacity="0.64"
            d="M312.766 360.736C324.17 342.421 350.83 342.421 362.234 360.736L371.124 375.012C377.715 385.598 390.312 390.816 402.458 387.991L418.838 384.182C439.853 379.296 458.704 398.147 453.818 419.162L450.009 435.542C447.185 447.688 452.402 460.285 462.988 466.876L477.264 475.766C495.579 487.17 495.579 513.83 477.264 525.234L462.988 534.124C452.402 540.715 447.185 553.312 450.009 565.458L453.818 581.838C458.704 602.853 439.853 621.704 418.838 616.818L402.458 613.009C390.312 610.185 377.715 615.402 371.124 625.988L362.234 640.264C350.83 658.579 324.17 658.579 312.766 640.264L303.876 625.988C297.285 615.402 284.688 610.185 272.542 613.009L256.162 616.818C235.147 621.704 216.296 602.853 221.182 581.838L224.991 565.458C227.816 553.312 222.598 540.715 212.012 534.124L197.736 525.234C179.421 513.83 179.421 487.17 197.736 475.766L212.012 466.876C222.598 460.285 227.816 447.688 224.991 435.542L221.182 419.162C216.296 398.147 235.147 379.296 256.162 384.182L272.542 387.991C284.688 390.816 297.285 385.598 303.876 375.012L312.766 360.736Z"
            fill="#C2B1FF" />
        <path opacity="0.64"
            d="M149.979 68.3982C155.291 59.8673 167.709 59.8673 173.021 68.3982L177.162 75.0481C180.232 79.9788 186.1 82.4092 191.757 81.0936L199.387 79.3194C209.176 77.0432 217.957 85.8244 215.681 95.6128L213.906 103.243C212.591 108.9 215.021 114.768 219.952 117.838L226.602 121.979C235.133 127.291 235.133 139.709 226.602 145.021L219.952 149.162C215.021 152.232 212.591 158.1 213.906 163.757L215.681 171.387C217.957 181.176 209.176 189.957 199.387 187.681L191.757 185.906C186.1 184.591 180.232 187.021 177.162 191.952L173.021 198.602C167.709 207.133 155.291 207.133 149.979 198.602L145.838 191.952C142.768 187.021 136.9 184.591 131.243 185.906L123.613 187.681C113.824 189.957 105.043 181.176 107.319 171.387L109.094 163.757C110.409 158.1 107.979 152.232 103.048 149.162L96.3982 145.021C87.8673 139.709 87.8673 127.291 96.3982 121.979L103.048 117.838C107.979 114.768 110.409 108.9 109.094 103.243L107.319 95.6128C105.043 85.8244 113.824 77.0432 123.613 79.3194L131.243 81.0936C136.9 82.4092 142.768 79.9788 145.838 75.0481L149.979 68.3982Z"
            fill="#C2B1FF" />
        <path opacity="0.64" fill-rule="evenodd" clip-rule="evenodd"
            d="M23.5 339C42.5538 339 58 323.554 58 304.5C58 285.446 42.5538 270 23.5 270C4.44617 270 -11 285.446 -11 304.5C-11 323.554 4.44617 339 23.5 339ZM23.5 371C60.2269 371 90 341.227 90 304.5C90 267.773 60.2269 238 23.5 238C-13.2269 238 -43 267.773 -43 304.5C-43 341.227 -13.2269 371 23.5 371Z"
            fill="#C2B1FF" />
        <path opacity="0.64" d="M347.459 -10.3575L313.941 72.2896L259 1.00468L347.459 -10.3575Z"
            fill="#C2B1FF" />
        <path opacity="0.64"
            d="M365.679 896.478C375.078 885.402 382.203 872.584 386.648 858.755C391.093 844.926 392.77 830.356 391.584 815.879C390.398 801.402 386.373 787.299 379.737 774.378C373.101 761.456 363.985 749.968 352.91 740.569C341.834 731.171 329.016 724.046 315.186 719.601C301.357 715.156 286.788 713.479 272.311 714.665C257.833 715.85 243.731 719.876 230.809 726.512C217.888 733.148 206.4 742.264 197.001 753.339L365.679 896.478Z"
            fill="#C2B1FF" />
        <circle opacity="0.64" cx="295.5" cy="237.5" r="21.5" fill="#C2B1FF" />
        <circle opacity="0.64" cx="89.5" cy="464.5" r="21.5" fill="#C2B1FF" />
    </g>
    <defs>
        <clipPath id="clip0_6_5801">
            <rect width="375" height="812" fill="white" />
        </clipPath>
    </defs>
</svg>
