<svg width="64" height="64" viewBox="0 0 64 64" fill="none" xmlns="http://www.w3.org/2000/svg">
<path d="M55 32C55 35.0204 54.4051 38.0112 53.2492 40.8017C52.0934 43.5922 50.3992 46.1277 48.2635 48.2635C46.1277 50.3992 43.5922 52.0934 40.8017 53.2492C38.0112 54.4051 35.0204 55 32 55C28.9796 55 25.9888 54.4051 23.1983 53.2492C20.4078 52.0934 17.8723 50.3992 15.7365 48.2635C13.6008 46.1277 11.9066 43.5922 10.7508 40.8017C9.59491 38.0112 9 35.0204 9 32C9 28.9796 9.59491 25.9888 10.7508 23.1983C11.9066 20.4078 13.6008 17.8723 15.7365 15.7365C17.8723 13.6008 20.4078 11.9066 23.1983 10.7508C25.9888 9.59491 28.9796 9 32 9C35.0204 9 38.0112 9.59491 40.8017 10.7508C43.5922 11.9066 46.1277 13.6008 48.2635 15.7365C50.3992 17.8723 52.0934 20.4078 53.2492 23.1983C54.4051 25.9888 55 28.9796 55 32L55 32Z" stroke="#F6F1FF" stroke-width="10"/>
<path d="M32 9C37.0631 9 41.9847 10.6707 46.0015 13.7529C50.0183 16.8351 52.9059 21.1566 54.2163 26.0472" stroke="#C2B1FF" stroke-width="10" stroke-linecap="round"/>
</svg>
