<svg width="160" height="160" viewBox="0 0 160 160" fill="none" xmlns="http://www.w3.org/2000/svg">
<path fill-rule="evenodd" clip-rule="evenodd" d="M120 46.6667C123.682 46.6667 126.667 49.6515 126.667 53.3334L126.667 73.3334C126.667 77.0153 123.682 80 120 80C116.318 80 113.333 77.0153 113.333 73.3334L113.333 53.3334C113.333 49.6515 116.318 46.6667 120 46.6667Z" fill="#705600"/>
<path fill-rule="evenodd" clip-rule="evenodd" d="M40 46.6667C43.6819 46.6667 46.6667 49.6515 46.6667 53.3334L46.6667 73.3334C46.6667 77.0153 43.6819 80 40 80C36.3181 80 33.3333 77.0153 33.3333 73.3334L33.3333 53.3334C33.3333 49.6515 36.3181 46.6667 40 46.6667Z" fill="#705600"/>
<path fill-rule="evenodd" clip-rule="evenodd" d="M113.923 95.5218C117.48 96.4747 119.59 100.13 118.637 103.687C116.358 112.192 111.337 119.708 104.351 125.068C97.365 130.428 88.8057 133.334 80.0003 133.334C71.1949 133.334 62.6356 130.428 55.6498 125.068C48.6641 119.708 43.6422 112.192 41.3632 103.687C40.4103 100.13 42.5208 96.4747 46.0773 95.5218C49.6337 94.5688 53.2893 96.6794 54.2423 100.236C55.7616 105.906 59.1095 110.917 63.7666 114.49C68.4238 118.064 74.13 120.001 80.0003 120.001C85.8705 120.001 91.5767 118.064 96.2339 114.49C100.891 110.916 104.239 105.906 105.758 100.236C106.711 96.6794 110.367 94.5688 113.923 95.5218Z" fill="#705600"/>
</svg>
