<svg width="375" height="812" viewBox="0 0 375 812" fill="none" xmlns="http://www.w3.org/2000/svg">
<g clip-path="url(#clip0_1256_7635)">
<rect width="375" height="812" fill="#FFECC1"/>
<path opacity="0.64" fill-rule="evenodd" clip-rule="evenodd" d="M107.866 3.43472C98.0042 0.7924 87.7191 0.118275 77.5973 1.45083C67.4755 2.7834 57.7153 6.09655 48.8739 11.2011C40.0325 16.3057 32.2831 23.1017 26.0682 31.2012C19.8533 39.3006 15.2945 48.5449 12.6522 58.4061L-56.9987 39.7432C-51.9055 20.7353 -43.1183 2.91665 -31.1388 -12.6953C-19.1593 -28.3073 -4.22212 -41.4069 12.8199 -51.2462C29.862 -61.0854 48.6752 -67.4716 68.1853 -70.0402C87.6954 -72.6087 107.52 -71.3093 126.528 -66.2162C145.536 -61.123 163.355 -52.3358 178.967 -40.3563C194.579 -28.3768 207.679 -13.4396 217.518 3.60246C227.357 20.6445 233.743 39.4577 236.312 58.9678C238.88 78.478 237.581 98.303 232.488 117.311L162.837 98.648C165.479 88.7867 166.153 78.5016 164.821 68.3798C163.488 58.258 160.175 48.4978 155.071 39.6564C149.966 30.815 143.17 23.0657 135.07 16.8507C126.971 10.6358 117.727 6.07704 107.866 3.43472Z" fill="#DBC290"/>
<path opacity="0.72" fill-rule="evenodd" clip-rule="evenodd" d="M36.7753 680.405C44.9189 677.277 52.3667 672.577 58.6935 666.571C65.0203 660.565 70.1023 653.372 73.6492 645.402C77.1961 637.432 79.1385 628.842 79.3655 620.121C79.5925 611.401 78.0996 602.721 74.9721 594.578L132.491 572.488C138.519 588.185 141.396 604.916 140.959 621.725C140.521 638.534 136.777 655.092 129.94 670.454C123.104 685.816 113.308 699.681 101.113 711.258C88.9177 722.834 74.5618 731.895 58.8648 737.923C43.1679 743.952 26.4373 746.829 9.62825 746.392C-7.1808 745.954 -23.739 742.21 -39.1011 735.373C-54.4632 728.536 -68.3282 718.741 -79.9046 706.546C-91.481 694.35 -100.542 679.995 -106.57 664.298L-49.0519 642.208C-45.9244 650.352 -41.2236 657.799 -35.2178 664.126C-29.212 670.453 -22.0189 675.535 -14.0491 679.082C-6.07929 682.629 2.51108 684.571 11.2316 684.798C19.952 685.025 28.6318 683.532 36.7753 680.405Z" fill="#DBC290"/>
<path opacity="0.48" fill-rule="evenodd" clip-rule="evenodd" d="M32.5671 277.767C34.1542 270.772 34.3479 263.532 33.137 256.461C31.9262 249.391 29.3346 242.628 25.5101 236.559C21.6857 230.49 16.7033 225.234 10.8475 221.091C4.99166 216.947 -1.62292 213.998 -8.6186 212.411L2.59116 163C16.0756 166.059 28.8254 171.744 40.1127 179.731C51.4 187.717 61.0037 197.849 68.3755 209.547C75.7472 221.245 80.7427 234.28 83.0767 247.909C85.4106 261.538 85.0373 275.493 81.9782 288.977C78.919 302.462 73.2338 315.211 65.2472 326.499C57.2606 337.786 47.1291 347.39 35.431 354.762C23.7329 362.133 10.6973 367.129 -2.93132 369.463C-16.56 371.797 -30.515 371.423 -43.9994 368.364L-32.7896 318.953C-25.794 320.54 -18.5542 320.734 -11.4837 319.523C-4.41311 318.312 2.34967 315.721 8.41859 311.896C14.4875 308.072 19.7438 303.089 23.8872 297.234C28.0306 291.378 30.98 284.763 32.5671 277.767Z" fill="#DBC290"/>
<path opacity="0.64" fill-rule="evenodd" clip-rule="evenodd" d="M284.012 643.366C288.764 646.576 294.102 648.818 299.721 649.965C305.34 651.112 311.129 651.141 316.759 650.05C322.389 648.96 327.749 646.771 332.533 643.609C337.317 640.447 341.432 636.373 344.642 631.621L378.207 654.293C372.02 663.453 364.089 671.304 354.867 677.399C345.646 683.494 335.314 687.713 324.462 689.816C313.61 691.918 302.45 691.862 291.62 689.651C280.789 687.44 270.5 683.118 261.34 676.931C252.18 670.744 244.329 662.813 238.234 653.592C232.139 644.37 227.92 634.038 225.817 623.186C223.715 612.334 223.771 601.174 225.982 590.344C228.193 579.514 232.515 569.225 238.702 560.065L272.267 582.736C269.057 587.488 266.815 592.826 265.668 598.445C264.521 604.064 264.492 609.853 265.583 615.483C266.673 621.113 268.862 626.473 272.024 631.258C275.186 636.042 279.26 640.156 284.012 643.366Z" fill="#DBC290"/>
<path opacity="0.64" d="M297.001 139.937C299.557 146.702 303.421 152.899 308.373 158.171C313.324 163.444 319.265 167.689 325.857 170.666C332.449 173.642 339.563 175.291 346.792 175.518C354.021 175.745 361.224 174.546 367.99 171.99C374.756 169.433 380.952 165.569 386.225 160.618C391.497 155.667 395.743 149.725 398.719 143.133C401.696 136.541 403.345 129.428 403.572 122.198C403.799 114.969 402.6 107.766 400.043 101L297.001 139.937Z" fill="#DBC290"/>
<path opacity="0.48" d="M45.9832 425.064C43.3588 434.859 42.6892 445.074 44.0128 455.128C45.3363 465.181 48.6271 474.875 53.6971 483.657C58.7672 492.438 65.5173 500.135 73.562 506.308C81.6067 512.481 90.7885 517.009 100.583 519.634C110.378 522.258 120.593 522.928 130.647 521.604C140.7 520.281 150.394 516.99 159.176 511.92C167.958 506.85 175.655 500.1 181.828 492.055C188.001 484.01 192.528 474.828 195.153 465.034L45.9832 425.064Z" fill="#DBC290"/>
<path opacity="0.48" d="M541.079 288.156C528.32 275.398 513.173 265.277 496.503 258.372C479.833 251.467 461.966 247.913 443.922 247.913C425.879 247.913 408.012 251.467 391.342 258.372C374.672 265.277 359.525 275.398 346.766 288.156C334.007 300.915 323.886 316.062 316.981 332.732C310.076 349.402 306.522 367.269 306.522 385.313C306.522 403.357 310.076 421.224 316.981 437.894C323.886 454.564 334.007 469.711 346.766 482.47L541.079 288.156Z" fill="#DBC290"/>
</g>
<defs>
<clipPath id="clip0_1256_7635">
<rect width="375" height="812" fill="white"/>
</clipPath>
</defs>
</svg>
