<svg width="160" height="160" viewBox="0 0 160 160" fill="none" xmlns="http://www.w3.org/2000/svg">
<path fill-rule="evenodd" clip-rule="evenodd" d="M120 46.6667C123.682 46.6667 126.667 49.6515 126.667 53.3334L126.667 73.3334C126.667 77.0153 123.682 80 120 80C116.318 80 113.333 77.0153 113.333 73.3334L113.333 53.3334C113.333 49.6515 116.318 46.6667 120 46.6667Z" fill="#4F3422"/>
<path fill-rule="evenodd" clip-rule="evenodd" d="M40 46.6667C43.6819 46.6667 46.6666 49.6515 46.6666 53.3334L46.6666 73.3334C46.6666 77.0153 43.6819 80 40 80C36.3181 80 33.3333 77.0153 33.3333 73.3334L33.3333 53.3334C33.3333 49.6515 36.3181 46.6667 40 46.6667Z" fill="#4F3422"/>
<path fill-rule="evenodd" clip-rule="evenodd" d="M33.3333 106.667C33.3333 102.985 36.3181 100 40 100H120C123.682 100 126.667 102.985 126.667 106.667C126.667 110.349 123.682 113.333 120 113.333H40C36.3181 113.333 33.3333 110.349 33.3333 106.667Z" fill="#4F3422"/>
</svg>
