<svg width="160" height="160" viewBox="0 0 160 160" fill="none" xmlns="http://www.w3.org/2000/svg">
<path fill-rule="evenodd" clip-rule="evenodd" d="M105.68 54.8557C108.106 53.8506 110.707 53.3333 113.333 53.3333C115.96 53.3333 118.56 53.8506 120.987 54.8557C123.414 55.8608 125.618 57.334 127.475 59.1912C129.333 61.0483 130.806 63.2531 131.811 65.6796C132.816 68.1062 133.333 70.7069 133.333 73.3333C133.333 77.0152 130.349 80 126.667 80C122.985 80 120 77.0152 120 73.3333C120 72.4578 119.828 71.5909 119.493 70.7821C119.158 69.9733 118.666 69.2383 118.047 68.6193C117.428 68.0002 116.693 67.5091 115.885 67.1741C115.076 66.8391 114.209 66.6666 113.333 66.6666C112.458 66.6666 111.591 66.8391 110.782 67.1741C109.973 67.5091 109.238 68.0002 108.619 68.6193C108 69.2383 107.509 69.9733 107.174 70.7821C106.839 71.5909 106.667 72.4578 106.667 73.3333C106.667 77.0152 103.682 80 100 80C96.3181 80 93.3333 77.0152 93.3333 73.3333C93.3333 70.7069 93.8507 68.1062 94.8558 65.6796C95.8608 63.2531 97.334 61.0484 99.1912 59.1912C101.048 57.334 103.253 55.8608 105.68 54.8557Z" fill="#3D4A26"/>
<path fill-rule="evenodd" clip-rule="evenodd" d="M113.923 95.5218C117.48 96.4747 119.59 100.13 118.637 103.687C116.358 112.192 111.337 119.708 104.351 125.068C97.365 130.428 88.8057 133.334 80.0003 133.334C71.1949 133.334 62.6356 130.428 55.6498 125.068C48.6641 119.708 43.6422 112.192 41.3632 103.687C40.4103 100.13 42.5208 96.4747 46.0773 95.5218C49.6337 94.5688 53.2893 96.6794 54.2423 100.236C55.7616 105.906 59.1095 110.917 63.7666 114.49C68.4238 118.064 74.13 120.001 80.0003 120.001C85.8705 120.001 91.5767 118.064 96.2339 114.49C100.891 110.916 104.239 105.906 105.758 100.236C106.711 96.6794 110.367 94.5688 113.923 95.5218Z" fill="#3D4A26"/>
<path fill-rule="evenodd" clip-rule="evenodd" d="M39.013 54.8557C41.4395 53.8506 44.0402 53.3333 46.6667 53.3333C49.2931 53.3333 51.8938 53.8506 54.3203 54.8557C56.7469 55.8608 58.9516 57.334 60.8088 59.1912C62.666 61.0483 64.1392 63.2531 65.1443 65.6796C66.1494 68.1062 66.6667 70.7069 66.6667 73.3333C66.6667 77.0152 63.6819 80 60 80C56.3181 80 53.3333 77.0152 53.3333 73.3333C53.3333 72.4578 53.1609 71.5909 52.8259 70.7821C52.4908 69.9733 51.9998 69.2383 51.3807 68.6193C50.7617 68.0002 50.0267 67.5091 49.2179 67.1741C48.4091 66.8391 47.5422 66.6666 46.6667 66.6666C45.7912 66.6666 44.9243 66.8391 44.1154 67.1741C43.3066 67.5091 42.5717 68.0002 41.9526 68.6193C41.3336 69.2383 40.8425 69.9733 40.5075 70.7821C40.1724 71.5909 40 72.4578 40 73.3333C40 77.0152 37.0152 80 33.3333 80C29.6514 80 26.6667 77.0152 26.6667 73.3333C26.6667 70.7069 27.184 68.1062 28.1891 65.6796C29.1942 63.2531 30.6674 61.0484 32.5245 59.1912C34.3817 57.334 36.5865 55.8608 39.013 54.8557Z" fill="#3D4A26"/>
</svg>
