<svg width="160" height="160" viewBox="0 0 160 160" fill="none" xmlns="http://www.w3.org/2000/svg">
<path fill-rule="evenodd" clip-rule="evenodd" d="M55.6498 94.9325C62.6356 89.5722 71.1949 86.6667 80.0003 86.6667C88.8057 86.6667 97.365 89.5722 104.351 94.9326C111.337 100.293 116.358 107.809 118.637 116.314C119.59 119.87 117.48 123.526 113.923 124.479C110.367 125.432 106.711 123.321 105.758 119.765C104.239 114.095 100.891 109.084 96.2339 105.511C91.5767 101.937 85.8705 100 80.0003 100C74.13 100 68.4238 101.937 63.7666 105.511C59.1095 109.084 55.7616 114.095 54.2423 119.765C53.2893 123.321 49.6337 125.432 46.0773 124.479C42.5208 123.526 40.4103 119.87 41.3632 116.314C43.6422 107.809 48.6641 100.293 55.6498 94.9325Z" fill="#663600"/>
<path fill-rule="evenodd" clip-rule="evenodd" d="M40 46.6667C43.6819 46.6667 46.6667 49.6515 46.6667 53.3334V73.3334C46.6667 77.0153 43.6819 80 40 80C36.3181 80 33.3333 77.0153 33.3333 73.3334V53.3334C33.3333 49.6515 36.3181 46.6667 40 46.6667Z" fill="#663600"/>
<path fill-rule="evenodd" clip-rule="evenodd" d="M120 46.6667C123.682 46.6667 126.667 49.6515 126.667 53.3334V73.3334C126.667 77.0153 123.682 80 120 80C116.318 80 113.333 77.0153 113.333 73.3334V53.3334C113.333 49.6515 116.318 46.6667 120 46.6667Z" fill="#663600"/>
</svg>
