<svg width="161" height="160" viewBox="0 0 161 160" fill="none" xmlns="http://www.w3.org/2000/svg">
<rect x="0.5" width="160" height="160" rx="80" fill="white"/>
<path fill-rule="evenodd" clip-rule="evenodd" d="M120.5 46.6665C124.182 46.6665 127.167 49.6513 127.167 53.3332L127.167 73.3332C127.167 77.0151 124.182 79.9998 120.5 79.9998C116.818 79.9998 113.833 77.0151 113.833 73.3332L113.833 53.3332C113.833 49.6513 116.818 46.6665 120.5 46.6665Z" fill="#FFCE5C"/>
<path fill-rule="evenodd" clip-rule="evenodd" d="M40.4999 46.6665C44.1818 46.6665 47.1666 49.6513 47.1666 53.3332L47.1666 73.3332C47.1666 77.0151 44.1818 79.9998 40.4999 79.9998C36.818 79.9998 33.8333 77.0151 33.8333 73.3332L33.8333 53.3332C33.8333 49.6513 36.818 46.6665 40.4999 46.6665Z" fill="#FFCE5C"/>
<path fill-rule="evenodd" clip-rule="evenodd" d="M114.423 95.5218C117.98 96.4747 120.09 100.13 119.137 103.687C116.858 112.192 111.837 119.708 104.851 125.068C97.8651 130.428 89.3057 133.334 80.5004 133.334C71.695 133.334 63.1357 130.428 56.1499 125.068C49.1641 119.708 44.1423 112.192 41.8633 103.687C40.9104 100.13 43.0209 96.4747 46.5774 95.5218C50.1338 94.5688 53.7894 96.6794 54.7423 100.236C56.2617 105.906 59.6096 110.917 64.2667 114.49C68.9239 118.064 74.6301 120.001 80.5004 120.001C86.3706 120.001 92.0768 118.064 96.734 114.49C101.391 110.916 104.739 105.906 106.258 100.236C107.211 96.6794 110.867 94.5688 114.423 95.5218Z" fill="#FFCE5C"/>
</svg>
