<svg width="308" height="248" viewBox="0 0 308 248" fill="none" xmlns="http://www.w3.org/2000/svg">
    <g clip-path="url(#clip0_1_4192)">
        <rect width="308" height="248" rx="24" fill="#FFF4E0" />
        <path
            d="M31.222 -48.8635C1.53986 -15.9081 -16.9176 33.8526 -18.8843 79.151C-20.0978 106.189 -10.7508 211.601 32.4441 201.357C38.7305 199.895 42.8233 194.08 46.4354 188.542C83.4933 131.173 112.376 65.1961 120.321 -8.04465C121.706 -21.049 122.528 -34.6118 118.521 -47.7957C108.84 -80.1059 84.81 -87.5913 60.7 -73.4305C50.0143 -67.1005 40.1061 -58.7302 31.222 -48.8635Z"
            fill="#FFEBC2" />
        <path
            d="M472.173 63.8617C416.609 -84.2312 127.543 160.45 76.1295 222.791C30.0718 278.576 -28.9732 419.98 84.1629 441.92C173.199 459.177 294.503 364.997 356.225 309.345C406.835 263.861 474.047 168.343 476.859 97.8415C477.529 84.5974 475.788 73.3599 472.173 63.8617Z"
            fill="#FFEBC2" />
        <path
            d="M139.228 26.7225C138.92 22.7986 138.986 18.8526 139.536 14.9507C139.954 11.9967 135.423 10.7181 135.005 13.6941C134.389 18.0369 134.191 22.3356 134.543 26.7005C134.763 29.7206 139.47 29.7427 139.228 26.7225Z"
            fill="#ED7E1C" />
        <path
            d="M149.412 28.0451C151.127 23.6362 153.305 19.4477 155.878 15.4797C157.528 12.9225 153.459 10.5637 151.831 13.0989C149.038 17.4196 146.75 21.9829 144.881 26.7886C143.781 29.6324 148.312 30.8448 149.412 28.0451Z"
            fill="#ED7E1C" />
        <path
            d="M158.517 32.8064C162.696 30.161 166.391 26.8984 169.471 23.0186C171.34 20.6598 168.019 17.309 166.15 19.6898C163.312 23.2611 160.013 26.3032 156.164 28.7502C153.591 30.3594 155.944 34.4377 158.517 32.8064Z"
            fill="#ED7E1C" />
        <path
            d="M189.771 117.656H59.102C53.1634 117.656 48.3687 112.829 48.3687 106.877V55.1158C48.3687 49.1637 53.1854 44.3359 59.102 44.3359H189.771C195.71 44.3359 200.526 49.1637 200.526 55.1158V106.899C200.526 112.829 195.71 117.656 189.771 117.656Z"
            fill="#928D86" />
        <path
            d="M59.0139 129.253C85.5313 129.253 107.028 107.707 107.028 81.1293C107.028 54.5515 85.5313 33.0059 59.0139 33.0059C32.4966 33.0059 11 54.5515 11 81.1293C11 107.707 32.4966 129.253 59.0139 129.253Z"
            fill="#928D86" />
        <path
            d="M95.2329 89.952C100.093 69.9113 87.8242 49.716 67.8291 44.8446C47.8341 39.9731 27.6848 52.2702 22.8244 72.3108C17.964 92.3515 30.2331 112.547 50.2282 117.418C70.2232 122.29 90.3725 109.993 95.2329 89.952Z"
            fill="#3F3C36" />
        <path
            d="M25.0542 81.1282C25.0542 99.6457 39.8125 114.702 58.1779 115.143V47.1133C39.8125 47.5542 25.0542 62.6107 25.0542 81.1282Z"
            fill="#FFEBC2" />
        <path
            d="M59.014 47.0918C58.7281 47.0918 58.4642 47.1138 58.1782 47.1138V115.144C58.4642 115.144 58.7281 115.166 59.014 115.166C77.7753 115.166 92.9735 99.9328 92.9735 81.1287C92.9735 62.3247 77.7753 47.0918 59.014 47.0918Z"
            fill="#928D86" />
        <path
            d="M182.315 111.285H129.286C127.021 111.285 125.173 109.433 125.173 107.163V54.013C125.173 51.7424 127.021 49.8906 129.286 49.8906H182.315C184.58 49.8906 186.428 51.7424 186.428 54.013V107.163C186.428 109.433 184.58 111.285 182.315 111.285Z"
            fill="#3F3C36" />
        <path
            d="M136.919 68.8934C140.781 68.8934 143.913 65.7549 143.913 61.8832C143.913 58.0116 140.781 54.873 136.919 54.873C133.056 54.873 129.924 58.0116 129.924 61.8832C129.924 65.7549 133.056 68.8934 136.919 68.8934Z"
            fill="#FFEBC2" />
        <path
            d="M155.218 68.8934C159.081 68.8934 162.212 65.7549 162.212 61.8832C162.212 58.0116 159.081 54.873 155.218 54.873C151.355 54.873 148.224 58.0116 148.224 61.8832C148.224 65.7549 151.355 68.8934 155.218 68.8934Z"
            fill="#FFEBC2" />
        <path
            d="M180.534 61.8832C180.534 65.7631 177.389 68.8934 173.54 68.8934C169.669 68.8934 166.545 65.7411 166.545 61.8832C166.545 58.0034 169.691 54.873 173.54 54.873C177.389 54.873 180.534 58.0034 180.534 61.8832Z"
            fill="#FFEBC2" />
        <path
            d="M142.44 84.8835C144.811 81.8265 144.26 77.4221 141.21 75.0461C138.16 72.6701 133.766 73.2222 131.395 76.2792C129.024 79.3362 129.575 83.7406 132.625 86.1166C135.675 88.4926 140.07 87.9406 142.44 84.8835Z"
            fill="#FFEBC2" />
        <path
            d="M160.157 85.5448C162.889 82.8072 162.889 78.3686 160.157 75.631C157.426 72.8934 152.997 72.8934 150.266 75.631C147.535 78.3686 147.535 82.8072 150.266 85.5448C152.997 88.2824 157.426 88.2824 160.157 85.5448Z"
            fill="#FFEBC2" />
        <path
            d="M180.533 80.5786C180.533 84.4584 177.388 87.5888 173.539 87.5888C169.668 87.5888 166.545 84.4364 166.545 80.5786C166.545 76.6987 169.69 73.5684 173.539 73.5684C177.388 73.5684 180.533 76.7207 180.533 80.5786Z"
            fill="#FFEBC2" />
        <path
            d="M143.69 101.085C144.684 97.3438 142.463 93.5034 138.73 92.5076C134.997 91.5118 131.165 93.7377 130.172 97.4793C129.178 101.221 131.399 105.061 135.132 106.057C138.865 107.053 142.697 104.827 143.69 101.085Z"
            fill="#FFEBC2" />
        <path
            d="M162.032 100.924C162.931 97.1593 160.615 93.3761 156.859 92.4744C153.102 91.5727 149.327 93.894 148.428 97.6591C147.528 101.424 149.844 105.208 153.601 106.109C157.357 107.011 161.132 104.69 162.032 100.924Z"
            fill="#FFEBC2" />
        <path
            d="M180.534 99.2935C180.534 103.173 177.389 106.304 173.54 106.304C169.669 106.304 166.545 103.151 166.545 99.2935C166.545 95.4137 169.691 92.2833 173.54 92.2833C177.389 92.2613 180.534 95.4137 180.534 99.2935Z"
            fill="#FFEBC2" />
        <path
            d="M135.753 58.9071C135.753 60.9352 135.753 62.9413 135.753 64.9694C135.753 66.27 137.776 66.27 137.776 64.9694C137.776 62.9413 137.776 60.9352 137.776 58.9071C137.776 57.6065 135.753 57.6065 135.753 58.9071Z"
            fill="#3F3C36" />
        <path
            d="M135.489 61.5964C136.302 61.1555 136.984 60.4722 137.424 59.6565C137.688 59.1715 137.534 58.5543 137.072 58.2677C136.61 58.0031 135.95 58.1575 135.686 58.6204C135.379 59.1936 135.027 59.5463 134.455 59.8329C133.971 60.0974 133.817 60.7587 134.103 61.2217C134.411 61.7067 135.027 61.8389 135.489 61.5964Z"
            fill="#3F3C36" />
        <path
            d="M154.272 59.811C154.58 58.7749 155.658 59.282 155.526 60.1637C155.438 60.7149 154.888 61.2219 154.536 61.6187C153.81 62.3903 153.062 63.1177 152.336 63.8673C151.743 64.4625 152.16 65.6308 153.04 65.5867C154.58 65.4986 156.097 65.5206 157.637 65.5867C158.935 65.6529 158.935 63.6468 157.637 63.5807C156.097 63.4925 154.58 63.4925 153.04 63.5807C153.282 64.1538 153.524 64.727 153.744 65.3002C155.306 63.7129 158.627 61.266 157.285 58.6427C156.119 56.35 153.018 57.0555 152.358 59.304C151.962 60.5165 153.898 61.0676 154.272 59.811Z"
            fill="#3F3C36" />
        <path
            d="M173.517 59.1948C174.309 58.4894 174.661 58.6216 174.639 59.5696C174.419 60.0325 174.067 60.2529 173.561 60.2529C172.286 60.3411 172.264 62.3031 173.561 62.281C174.507 62.259 175.123 63.1849 174.419 63.9564C173.715 64.728 172.769 64.221 172.22 63.5817C171.384 62.5897 169.954 64.0226 170.79 65.0146C172.33 66.8443 175.277 66.8222 176.421 64.5516C177.476 62.4794 175.783 60.1868 173.561 60.2529C173.561 60.9363 173.561 61.5977 173.561 62.281C175.739 62.1488 177.542 59.9884 176.245 57.8721C175.013 55.8661 172.11 56.4833 171.56 58.6657C171.274 59.9002 173.209 60.4513 173.517 59.1948Z"
            fill="#3F3C36" />
        <path
            d="M135.203 76.632C134.609 78.0428 134.015 79.4757 133.421 80.8866C133.157 81.5038 133.795 82.1652 134.389 82.1652C135.489 82.1431 136.566 82.1431 137.666 82.1211C138.964 82.099 138.964 80.093 137.666 80.115C136.566 80.1371 135.489 80.1371 134.389 80.1591C134.719 80.578 135.027 81.0189 135.357 81.4377C135.951 80.0269 136.544 78.594 137.138 77.1831C137.358 76.6761 136.918 76.0809 136.434 75.9486C135.863 75.7502 135.423 76.1249 135.203 76.632Z"
            fill="#3F3C36" />
        <path
            d="M136.654 78.6591C136.654 80.3786 136.654 82.098 136.654 83.8175C136.654 85.1182 138.656 85.1182 138.656 83.8175C138.656 82.098 138.656 80.3786 138.656 78.6591C138.678 77.3584 136.654 77.3584 136.654 78.6591Z"
            fill="#3F3C36" />
        <path
            d="M153.568 78.5492C154.382 78.5492 155.218 78.5492 156.031 78.5492C157.329 78.5492 157.329 76.5431 156.031 76.5431C155.218 76.5431 154.382 76.5431 153.568 76.5431C152.27 76.5211 152.27 78.5492 153.568 78.5492Z"
            fill="#3F3C36" />
        <path
            d="M152.557 77.977C152.557 78.7926 152.557 79.6303 152.557 80.446C152.557 81.7466 154.58 81.7466 154.58 80.446C154.58 79.6303 154.58 78.7926 154.58 77.977C154.58 76.6984 152.557 76.6764 152.557 77.977Z"
            fill="#3F3C36" />
        <path
            d="M154.096 82.1653C154.602 81.9669 155.24 81.7024 155.768 81.9669C156.054 82.1213 156.362 82.4519 156.164 82.7826C155.834 83.3337 154.558 83.2455 154.03 83.2235C152.733 83.1794 152.733 85.1855 154.03 85.2516C155.68 85.3177 157.901 84.9209 158.209 82.9589C158.363 81.9229 157.835 80.8868 156.956 80.3356C155.922 79.6743 154.646 79.7845 153.568 80.2254C153.063 80.4459 152.711 80.8868 152.865 81.4599C152.975 81.9449 153.59 82.3637 154.096 82.1653Z"
            fill="#3F3C36" />
        <path
            d="M173.056 77.2057C172.198 78.7488 170.746 80.5565 170.724 82.4082C170.724 83.775 171.582 85.0977 173.012 85.23C176.157 85.4945 176.663 80.799 173.561 80.3581C172.286 80.1817 171.758 82.1217 173.034 82.298C173.451 82.3641 174.089 82.9594 173.429 83.2018C172.55 83.5105 172.792 82.0114 172.924 81.6587C173.363 80.4683 174.155 79.344 174.793 78.2418C175.431 77.0955 173.693 76.0814 173.056 77.2057Z"
            fill="#3F3C36" />
        <path
            d="M134.983 97.8601C136.369 97.8601 137.754 97.8822 139.162 97.8822C138.876 97.3752 138.59 96.8681 138.282 96.3611C137.358 98.3451 136.522 100.351 135.753 102.401C135.313 103.614 137.248 104.143 137.688 102.93C138.392 101.035 139.162 99.1828 139.998 97.3752C140.306 96.6918 139.932 95.8541 139.14 95.8541C137.754 95.8541 136.369 95.832 134.961 95.832C133.685 95.8541 133.685 97.8601 134.983 97.8601Z"
            fill="#3F3C36" />
        <path
            d="M59.0141 99.7781C69.2906 99.7781 77.6214 91.4283 77.6214 81.1283C77.6214 70.8283 69.2906 62.4785 59.0141 62.4785C48.7375 62.4785 40.4067 70.8283 40.4067 81.1283C40.4067 91.4283 48.7375 99.7781 59.0141 99.7781Z"
            fill="#3F3C36" />
        <path
            d="M63.7649 59.7453C63.567 56.5268 63.633 53.3303 63.9409 50.1118C64.0728 48.8111 62.0494 48.8332 61.9394 50.1118C61.6095 53.3082 61.5435 56.5268 61.7634 59.7453C61.8294 61.0239 63.8529 61.0459 63.7649 59.7453Z"
            fill="#FFEBC2" />
        <path
            d="M61.2134 102.688C61.2134 106.061 61.2134 109.434 61.2134 112.785C61.2134 114.085 63.2149 114.085 63.2149 112.785C63.2149 109.412 63.2149 106.039 63.2149 102.688C63.2149 101.388 61.2134 101.388 61.2134 102.688Z"
            fill="#FFEBC2" />
        <path
            d="M98.5162 50.1336C104.059 50.1336 109.601 50.1336 115.144 50.1336C116.442 50.1336 116.442 48.1055 115.144 48.1055C109.601 48.1055 104.059 48.1055 98.5162 48.1055C97.2186 48.1275 97.2186 50.1336 98.5162 50.1336Z"
            fill="#FFEBC2" />
        <path
            d="M115.276 92.2607H106.192C104.235 92.2607 102.629 90.6515 102.629 88.6895V67.2841C102.629 65.3222 104.235 63.7129 106.192 63.7129H115.276C117.234 63.7129 118.839 65.3222 118.839 67.2841V88.6895C118.839 90.6515 117.234 92.2607 115.276 92.2607Z"
            fill="#3F3C36" />
        <path
            d="M102.541 80.5782C102.541 87.0373 82.8558 92.2619 58.5739 92.2619C34.292 92.2619 14.6069 87.0373 14.6069 80.5782C14.6069 74.1191 34.292 68.8945 58.5739 68.8945C82.8558 68.9166 102.541 74.1412 102.541 80.5782Z"
            fill="#928D86" />
        <path
            d="M101.529 80.5785C101.331 84.282 94.9089 86.1779 92.1816 87.0597C85.6712 89.1539 78.787 90.1239 72.0127 90.697C57.0784 91.9756 41.0225 91.7111 26.5281 87.5226C23.4269 86.6408 17.1585 85.0756 15.8388 81.5264C14.5411 78.0213 20.4796 75.7507 22.811 74.869C36.2057 69.7546 51.9537 69.446 66.0742 70.0853C74.0362 70.438 82.1081 71.2977 89.8062 73.414C92.9734 74.2738 101.309 76.2357 101.529 80.5785C101.595 81.8792 103.619 81.8792 103.531 80.5785C103.333 76.7868 99.2198 74.7367 96.1626 73.4361C89.4543 70.5923 82.0202 69.468 74.828 68.7185C64.9745 67.6824 54.989 67.5942 45.1134 68.454C37.4374 69.1153 29.4974 70.1734 22.2392 72.929C19.1819 74.0974 14.4751 75.9932 13.6833 79.6526C12.8915 83.29 16.7186 85.737 19.4899 87.0817C25.3624 89.9255 32.0487 91.1159 38.4491 91.9977C48.3686 93.3424 58.4641 93.6069 68.4496 92.9897C77.0494 92.4606 85.9792 91.4465 94.1391 88.5146C97.6802 87.236 103.267 85.0756 103.509 80.6006C103.619 79.2999 101.617 79.2999 101.529 80.5785Z"
            fill="#3F3C36" />
        <path
            d="M25.3183 79.5869C29.6732 77.6029 34.248 76.5668 39.0208 76.4345C40.3185 76.3904 40.3185 74.3844 39.0208 74.4285C33.8741 74.5607 28.9694 75.7291 24.2845 77.8454C23.1188 78.3965 24.1526 80.138 25.3183 79.5869Z"
            fill="#FFEBC2" />
        <path
            d="M46.1032 75.6617C57.6723 74.7138 69.2634 74.7579 80.8325 75.7719C82.1302 75.8821 82.1082 73.8761 80.8325 73.7659C69.2634 72.7518 57.6723 72.7298 46.1032 73.6556C44.8275 73.7659 44.8055 75.7719 46.1032 75.6617Z"
            fill="#FFEBC2" />
        <path
            d="M269.743 302.083C222.763 267.296 168.085 200.06 162.894 162.43C162.586 160.159 159.661 159.454 158.297 161.283C153.172 168.205 145.716 177.508 141.559 180.065C141.031 180.396 140.481 180.661 139.866 180.793C136.962 181.498 135.841 179.272 135.511 177.244C134.873 173.209 136.434 169.175 137.974 165.362C142.857 153.347 147.74 141.333 153.018 129.495C154.448 126.298 155.966 123.036 158.429 120.545C165.621 113.314 179.192 112.873 187.066 119.332C177.586 112.851 171.934 108.663 167.007 106.106C159.023 101.983 155.702 101.388 141.735 99.6905C135.951 100.462 132.014 93.3858 136.215 89.3295C137.93 87.6762 140.152 86.4417 143.011 86.6401C179.566 88.9989 185.35 96.8247 215.087 117.745C208.708 111.044 202.88 103.813 197.667 96.1634C196.963 95.1273 196.589 93.8928 196.765 92.6583C197.469 87.7203 205.365 88.9107 208.774 92.4158C282.456 168.183 296.048 190.823 369.07 242.077L269.743 302.083Z"
            fill="#F6A460" />
        <path
            d="M234.002 128.943C226.524 123.741 219.463 117.987 212.821 111.726C211.875 110.844 210.446 112.255 211.391 113.159C218.144 119.53 225.358 125.394 232.968 130.707C234.046 131.412 235.058 129.671 234.002 128.943Z"
            fill="#4F3422" />
        <path
            d="M212.315 96.1641C208.158 97.2443 203.781 94.7533 202.594 90.6089C202.242 89.3744 200.284 89.9035 200.658 91.138C202.154 96.3184 207.652 99.4708 212.865 98.1041C214.119 97.7954 213.569 95.8335 212.315 96.1641Z"
            fill="#4F3422" />
        <path
            d="M205.805 131.765C198.371 126.364 190.937 120.963 183.525 115.562C182.469 114.791 181.479 116.554 182.513 117.304C189.947 122.705 197.381 128.106 204.793 133.507C205.849 134.256 206.861 132.515 205.805 131.765Z"
            fill="#4F3422" />
        <path
            d="M190.936 142.765C185.46 137.144 179.323 131.853 172.065 128.701C167.336 126.65 161.728 125.085 156.955 127.819C150.489 131.5 146.134 140.252 144.308 147.24C143.978 148.497 145.914 149.026 146.244 147.769C147.849 141.575 151.522 134.212 156.713 130.376C161.684 126.695 167.996 128.855 173.033 131.368C179.301 134.498 184.646 139.194 189.507 144.176C190.431 145.124 191.838 143.691 190.936 142.765Z"
            fill="#4F3422" />
        <path
            d="M180.621 158.286C174.133 152.532 168.348 143.207 159.045 141.929C150.621 140.782 142.087 148.3 140.569 156.346C140.327 157.625 142.263 158.154 142.505 156.875C144.132 148.278 153.898 141.179 162.388 144.971C169.25 148.035 173.715 154.847 179.192 159.697C180.159 160.556 181.589 159.146 180.621 158.286Z"
            fill="#4F3422" />
        <path
            d="M139.14 167.587C140.987 171.159 139.338 175.898 135.599 177.441C134.411 177.926 134.939 179.888 136.127 179.381C141.097 177.331 143.363 171.379 140.877 166.551C140.284 165.427 138.546 166.441 139.14 167.587Z"
            fill="#4F3422" />
        <path
            d="M146.574 87.3893C144.462 90.7842 139.536 91.7982 136.302 89.3513C135.291 88.5797 133.861 90.0126 134.895 90.8062C139.184 94.0468 145.452 92.9666 148.311 88.3592C149.015 87.2791 147.256 86.287 146.574 87.3893Z"
            fill="#4F3422" />
        <path
            d="M221.839 130.729C220.475 132.317 219.134 133.904 217.77 135.491C216.934 136.461 218.342 137.894 219.2 136.924C220.563 135.337 221.905 133.75 223.269 132.162C224.104 131.17 222.697 129.737 221.839 130.729Z"
            fill="white" />
        <path
            d="M211.128 147.064C209.06 148.365 207.543 150.195 206.619 152.443C206.113 153.634 208.071 154.163 208.554 152.972C209.28 151.231 210.556 149.798 212.14 148.806C213.239 148.122 212.228 146.381 211.128 147.064Z"
            fill="white" />
        <path
            d="M199.713 161.04C198.547 162.98 197.36 164.92 196.194 166.86C195.512 167.962 197.25 168.976 197.931 167.874C199.097 165.934 200.285 163.994 201.45 162.054C202.132 160.952 200.395 159.938 199.713 161.04Z"
            fill="white" />
        <path
            d="M262.331 306.029C241.678 290.025 223.444 270.912 208.378 249.551C207.41 248.184 207.85 246.266 209.324 245.495C224.962 237.316 280.454 192.742 293.541 179.691C302.954 193.05 353.894 232.577 375.69 245.715L262.331 306.029Z"
            fill="#9BB168" />
        <path
            d="M301.877 204.734C301.877 208.46 298.864 211.48 295.147 211.48C291.43 211.48 288.417 208.46 288.417 204.734C288.417 201.009 291.43 197.988 295.147 197.988C298.842 197.966 301.877 200.986 301.877 204.734Z"
            fill="white" />
        <path
            d="M313.434 221.141C316.063 218.507 316.063 214.236 313.434 211.601C310.806 208.967 306.545 208.967 303.916 211.601C301.288 214.236 301.288 218.507 303.916 221.141C306.545 223.775 310.806 223.775 313.434 221.141Z"
            fill="white" />
    </g>
    <defs>
        <clipPath id="clip0_1_4192">
            <rect width="308" height="248" rx="24" fill="white" />
        </clipPath>
    </defs>
</svg>
