<svg width="375" height="812" viewBox="0 0 375 812" fill="none" xmlns="http://www.w3.org/2000/svg">
<g clip-path="url(#clip0_265_4195)">
<rect width="375" height="812" fill="#F2EFFA"/>
<path opacity="0.48" fill-rule="evenodd" clip-rule="evenodd" d="M382.219 522.195C395.462 522.195 406.197 511.46 406.197 498.218C406.197 484.975 395.462 474.24 382.219 474.24C368.977 474.24 358.241 484.975 358.241 498.218C358.241 511.46 368.977 522.195 382.219 522.195ZM382.219 544.436C407.745 544.436 428.437 523.743 428.437 498.218C428.437 472.692 407.745 452 382.219 452C356.694 452 336.001 472.692 336.001 498.218C336.001 523.743 356.694 544.436 382.219 544.436Z" fill="#E6DCFF"/>
<path opacity="0.72" fill-rule="evenodd" clip-rule="evenodd" d="M284.284 409.362C290.955 409.362 296.363 403.954 296.363 397.283C296.363 390.612 290.955 385.204 284.284 385.204C277.613 385.204 272.205 390.612 272.205 397.283C272.205 403.954 277.613 409.362 284.284 409.362ZM284.284 420.565C297.143 420.565 307.567 410.141 307.567 397.283C307.567 384.424 297.143 374 284.284 374C271.425 374 261.001 384.424 261.001 397.283C261.001 410.141 271.425 420.565 284.284 420.565Z" fill="#E6DCFF"/>
<path opacity="0.72" fill-rule="evenodd" clip-rule="evenodd" d="M61.819 335.894C68.4901 335.894 73.898 330.486 73.898 323.815C73.898 317.144 68.4901 311.736 61.819 311.736C55.148 311.736 49.7401 317.144 49.7401 323.815C49.7401 330.486 55.148 335.894 61.819 335.894ZM61.819 347.098C74.6777 347.098 85.1017 336.674 85.1017 323.815C85.1017 310.956 74.6777 300.532 61.819 300.532C48.9604 300.532 38.5364 310.956 38.5364 323.815C38.5364 336.674 48.9604 347.098 61.819 347.098Z" fill="#E6DCFF"/>
<path opacity="0.48" fill-rule="evenodd" clip-rule="evenodd" d="M93.8269 556.502C120.71 556.502 142.503 534.709 142.503 507.826C142.503 480.942 120.71 459.149 93.8269 459.149C66.9437 459.149 45.1505 480.942 45.1505 507.826C45.1505 534.709 66.9437 556.502 93.8269 556.502ZM93.8269 601.651C145.645 601.651 187.653 559.644 187.653 507.826C187.653 456.007 145.645 414 93.8269 414C42.0085 414 0.00134277 456.007 0.00134277 507.826C0.00134277 559.644 42.0085 601.651 93.8269 601.651Z" fill="#E6DCFF"/>
<path opacity="0.48" fill-rule="evenodd" clip-rule="evenodd" d="M330.002 70.6541C355.216 70.6541 375.656 50.2141 375.656 25C375.656 -0.214088 355.216 -20.6541 330.002 -20.6541C304.788 -20.6541 284.348 -0.214088 284.348 25C284.348 50.2141 304.788 70.6541 330.002 70.6541ZM330.002 113C378.603 113 418.002 73.6011 418.002 25C418.002 -23.6011 378.603 -63 330.002 -63C281.401 -63 242.002 -23.6011 242.002 25C242.002 73.6011 281.401 113 330.002 113Z" fill="#E6DCFF"/>
<path fill-rule="evenodd" clip-rule="evenodd" d="M282.483 734.188C308.57 734.188 329.717 713.041 329.717 686.954C329.717 660.868 308.57 639.72 282.483 639.72C256.396 639.72 235.249 660.868 235.249 686.954C235.249 713.041 256.396 734.188 282.483 734.188ZM282.483 778C332.766 778 373.529 737.237 373.529 686.954C373.529 636.671 332.766 595.909 282.483 595.909C232.2 595.909 191.437 636.671 191.437 686.954C191.437 737.237 232.2 778 282.483 778Z" fill="#E6DCFF"/>
<circle opacity="0.64" cx="2.50134" cy="86.5" r="28.5" fill="#E6DCFF"/>
<circle opacity="0.64" cx="259.895" cy="536.486" r="24.6727" fill="#E6DCFF"/>
<circle cx="129.234" cy="680.352" r="24.6727" fill="#E6DCFF"/>
<circle opacity="0.32" cx="153.907" cy="324.162" r="40.3103" fill="#E6DCFF"/>
</g>
<defs>
<clipPath id="clip0_265_4195">
<rect width="375" height="812" fill="white"/>
</clipPath>
</defs>
</svg>
