<svg width="375" height="812" viewBox="0 0 375 812" fill="none" xmlns="http://www.w3.org/2000/svg">
<g clip-path="url(#clip0_265_4215)">
<rect width="375" height="812" fill="#FFEAC1"/>
<path opacity="0.48" fill-rule="evenodd" clip-rule="evenodd" d="M382.218 522.195C395.46 522.195 406.195 511.46 406.195 498.218C406.195 484.975 395.46 474.24 382.218 474.24C368.975 474.24 358.24 484.975 358.24 498.218C358.24 511.46 368.975 522.195 382.218 522.195ZM382.218 544.436C407.743 544.436 428.436 523.743 428.436 498.218C428.436 472.692 407.743 452 382.218 452C356.692 452 336 472.692 336 498.218C336 523.743 356.692 544.436 382.218 544.436Z" fill="#FFF4E0"/>
<path opacity="0.72" fill-rule="evenodd" clip-rule="evenodd" d="M284.283 409.362C290.954 409.362 296.362 403.954 296.362 397.283C296.362 390.612 290.954 385.204 284.283 385.204C277.612 385.204 272.204 390.612 272.204 397.283C272.204 403.954 277.612 409.362 284.283 409.362ZM284.283 420.565C297.141 420.565 307.565 410.141 307.565 397.283C307.565 384.424 297.141 374 284.283 374C271.424 374 261 384.424 261 397.283C261 410.141 271.424 420.565 284.283 420.565Z" fill="#FFF4E0"/>
<path opacity="0.72" fill-rule="evenodd" clip-rule="evenodd" d="M61.8177 335.894C68.4887 335.894 73.8966 330.486 73.8966 323.815C73.8966 317.144 68.4887 311.736 61.8177 311.736C55.1467 311.736 49.7387 317.144 49.7387 323.815C49.7387 330.486 55.1467 335.894 61.8177 335.894ZM61.8177 347.098C74.6763 347.098 85.1003 336.674 85.1003 323.815C85.1003 310.956 74.6763 300.532 61.8177 300.532C48.959 300.532 38.535 310.956 38.535 323.815C38.535 336.674 48.959 347.098 61.8177 347.098Z" fill="#FFF4E0"/>
<path opacity="0.48" fill-rule="evenodd" clip-rule="evenodd" d="M93.8256 556.502C120.709 556.502 142.502 534.709 142.502 507.826C142.502 480.942 120.709 459.149 93.8256 459.149C66.9423 459.149 45.1492 480.942 45.1492 507.826C45.1492 534.709 66.9423 556.502 93.8256 556.502ZM93.8256 601.651C145.644 601.651 187.651 559.644 187.651 507.826C187.651 456.007 145.644 414 93.8256 414C42.0071 414 0 456.007 0 507.826C0 559.644 42.0071 601.651 93.8256 601.651Z" fill="#FFF4E0"/>
<path opacity="0.48" fill-rule="evenodd" clip-rule="evenodd" d="M330 70.6541C355.215 70.6541 375.655 50.2141 375.655 25C375.655 -0.214088 355.215 -20.6541 330 -20.6541C304.786 -20.6541 284.346 -0.214088 284.346 25C284.346 50.2141 304.786 70.6541 330 70.6541ZM330 113C378.602 113 418 73.6011 418 25C418 -23.6011 378.602 -63 330 -63C281.399 -63 242 -23.6011 242 25C242 73.6011 281.399 113 330 113Z" fill="#FFF4E0"/>
<path fill-rule="evenodd" clip-rule="evenodd" d="M282.482 734.188C308.568 734.188 329.716 713.041 329.716 686.954C329.716 660.868 308.568 639.72 282.482 639.72C256.395 639.72 235.247 660.868 235.247 686.954C235.247 713.041 256.395 734.188 282.482 734.188ZM282.482 778C332.765 778 373.527 737.237 373.527 686.954C373.527 636.671 332.765 595.909 282.482 595.909C232.199 595.909 191.436 636.671 191.436 686.954C191.436 737.237 232.199 778 282.482 778Z" fill="#FFF4E0"/>
<circle opacity="0.64" cx="2.5" cy="86.5" r="28.5" fill="#FFF4E0"/>
<circle opacity="0.64" cx="259.894" cy="536.486" r="24.6727" fill="#FFF4E0"/>
<circle cx="129.233" cy="680.352" r="24.6727" fill="#FFF4E0"/>
<circle opacity="0.32" cx="153.906" cy="324.162" r="40.3103" fill="#FFF4E0"/>
</g>
<defs>
<clipPath id="clip0_265_4215">
<rect width="375" height="812" fill="white"/>
</clipPath>
</defs>
</svg>
