<svg width="375" height="430" viewBox="0 0 375 430" fill="none" xmlns="http://www.w3.org/2000/svg">
    <g clip-path="url(#clip0_12_7373)">
        <rect x="-293" y="-530" width="960" height="960" rx="480" fill="#4F3422" />
        <g opacity="0.32">
            <path
                d="M402.377 69.3289C398.77 62.7445 393.713 57.202 387.743 52.7846C381.566 48.2422 374.146 45.6584 366.933 43.3664C363.492 42.2412 360.01 41.1993 356.61 39.9491C355.781 39.6574 354.911 39.3241 354.081 38.9907C352.838 38.4906 353.543 38.7406 353.791 38.8656C353.377 38.6989 352.962 38.4906 352.589 38.3239C350.765 37.4487 348.982 36.4902 347.283 35.4067C346.744 35.0733 346.205 34.6983 345.707 34.3232C345.749 34.3232 345.044 33.7815 344.754 33.5314C343.635 32.5313 342.557 31.4477 341.562 30.3226C341.313 30.0308 340.401 28.8223 340.691 29.2807C340.36 28.8223 340.028 28.3223 339.696 27.8638C338.826 26.5303 338.038 25.1134 337.334 23.6965C337.085 23.2381 336.463 21.5295 336.919 22.8213C336.629 21.9879 336.297 21.1544 336.007 20.2793C335.51 18.7374 335.095 17.1954 334.805 15.6118C334.722 15.1118 334.432 12.528 334.556 14.195C334.473 13.4032 334.39 12.5697 334.349 11.7779C334.266 10.1526 334.266 8.56903 334.349 6.94377C334.39 6.27699 334.473 5.61021 334.515 4.98511C334.473 5.69356 334.763 3.56823 334.846 3.15149C335.178 1.5679 335.592 0.0259705 336.131 -1.47427C336.256 -1.80766 336.38 -2.14104 336.504 -2.47442C336.504 -2.5161 336.546 -2.55779 336.546 -2.59946C336.919 -3.30791 337.209 -4.05801 337.624 -4.76646C338.038 -5.55826 338.494 -6.30838 338.992 -7.0585C339.199 -7.35022 339.365 -7.64195 339.572 -7.93366C339.779 -8.22537 340.774 -9.47556 339.821 -8.30871C341.977 -11.0175 342.681 -15.1015 339.821 -17.7269C337.416 -19.9356 332.732 -20.6441 330.452 -17.7269C322.037 -7.05852 319.342 6.44368 322.119 19.6958C324.938 33.073 333.81 44.2415 346.164 49.9924C353.169 53.243 360.631 55.2016 367.886 57.7437C368.757 58.0354 369.586 58.3688 370.456 58.6605C370.871 58.8272 371.285 58.9939 371.7 59.1606C371.783 59.2023 372.156 59.3273 372.28 59.4107C373.814 60.0774 375.348 60.8276 376.84 61.661C378.291 62.4528 379.659 63.3696 380.986 64.3281C381.027 64.3698 381.11 64.4115 381.152 64.4531C381.442 64.7032 381.732 64.9115 381.981 65.1616C382.686 65.745 383.349 66.3701 384.012 66.9952C385.09 68.0787 386.126 69.1622 387.121 70.3707C387.287 70.5791 387.453 70.7875 387.66 71.0376C387.743 71.1626 387.909 71.3709 387.95 71.4543C388.531 72.2878 389.111 73.1212 389.65 73.9964C390.438 75.2882 391.184 76.6218 391.847 77.997C392.013 78.3721 392.179 78.7471 392.386 79.1222C392.428 79.2055 392.552 79.5389 392.676 79.789C392.759 79.9974 392.884 80.289 392.884 80.3724C393.049 80.8308 393.215 81.3309 393.381 81.8309C393.92 83.3729 394.334 84.9565 394.708 86.5401C394.873 87.3319 395.039 88.1237 395.164 88.9571C395.164 89.0822 395.205 89.2905 395.246 89.4572C395.288 89.7072 395.288 89.9573 395.329 90.2073C395.454 91.8326 395.537 93.4578 395.495 95.0831C395.454 95.9166 395.412 96.7084 395.371 97.5419C395.329 97.7919 395.329 98.0419 395.288 98.3337C395.288 98.4587 395.205 98.792 395.164 99.0838C394.832 100.959 394.376 102.834 393.796 104.626C393.547 105.376 393.257 106.127 393.008 106.877C392.966 106.96 392.966 107.043 392.925 107.085C392.718 107.585 392.469 108.085 392.22 108.585C391.433 110.211 390.562 111.794 389.567 113.294C389.07 114.045 388.572 114.795 388.033 115.545C387.992 115.586 387.992 115.628 387.95 115.67C387.66 116.045 387.329 116.42 386.997 116.795C385.836 118.17 384.592 119.462 383.224 120.712C382.561 121.337 381.898 121.921 381.193 122.463C381.4 122.296 380.198 123.213 379.908 123.421C378.333 124.505 376.716 125.505 375.016 126.38C374.768 126.505 373.275 127.172 373.275 127.213C372.446 127.547 371.617 127.838 370.788 128.13C367.513 129.214 365.026 132.798 366.145 136.34C367.223 139.632 370.788 142.174 374.312 141.007C388.531 136.256 399.599 125.38 405.32 111.544C410.958 97.7919 409.383 82.1227 402.377 69.3289Z"
                fill="#251404" />
            <path
                d="M8.48516 257.651C-13.882 239.433 -17.0937 206.753 1.14415 184.549C1.25885 184.435 1.25885 184.435 1.37355 184.321L82.2394 250.136C82.1247 250.25 82.1247 250.25 82.01 250.364C63.7722 272.568 30.8523 275.756 8.48516 257.651Z"
                fill="#251404" />
            <path
                d="M364.27 398.623C367.102 393.667 365.332 387.117 360.375 384.284C355.419 381.452 348.869 383.222 346.036 388.179C343.204 393.136 344.974 399.686 349.931 402.518C354.888 405.35 361.437 403.58 364.27 398.623Z"
                fill="#926247" />
            <path
                d="M281.605 65.8157C284.437 60.859 282.667 54.3092 277.71 51.4768C272.753 48.6444 266.203 50.4146 263.371 55.3713C260.539 60.328 262.309 66.8779 267.266 69.7103C272.222 72.5427 278.772 70.7724 281.605 65.8157Z"
                fill="#926247" />
            <path
                d="M54.059 367.182C60.9029 370.268 66.8205 374.881 71.6869 380.491C76.694 386.297 79.8446 393.495 82.6884 400.51C84.0767 403.853 85.385 407.244 86.8947 410.536C87.2498 411.34 87.6496 412.182 88.0462 412.983C88.6411 414.184 88.3372 413.501 88.1933 413.263C88.3916 413.663 88.6315 414.06 88.8265 414.419C89.8403 416.17 90.934 417.873 92.1459 419.484C92.52 419.995 92.9356 420.504 93.3481 420.971C93.3449 420.929 93.9396 421.59 94.2114 421.86C95.2952 422.898 96.4589 423.889 97.6578 424.794C97.9679 425.019 99.2434 425.835 98.7639 425.581C99.2466 425.876 99.7709 426.168 100.254 426.463C101.651 427.228 103.124 427.903 104.591 428.496C105.068 428.709 106.819 429.197 105.496 428.842C106.349 429.067 107.206 429.333 108.101 429.554C109.677 429.931 111.246 430.225 112.848 430.391C113.353 430.435 115.951 430.525 114.28 430.53C115.075 430.551 115.913 430.569 116.705 430.549C118.332 430.506 119.911 430.383 121.525 430.175C122.187 430.082 122.845 429.948 123.465 429.858C122.762 429.954 124.858 429.5 125.267 429.385C126.82 428.932 128.326 428.399 129.78 427.746C130.102 427.596 130.425 427.446 130.748 427.296C130.789 427.293 130.828 427.248 130.869 427.245C131.547 426.818 132.272 426.471 132.946 426.003C133.704 425.528 134.416 425.015 135.126 424.461C135.4 424.232 135.678 424.044 135.953 423.815C136.228 423.586 137.397 422.497 136.308 423.538C138.842 421.179 142.859 420.16 145.698 422.809C148.086 425.035 149.155 429.65 146.423 432.149C136.439 441.366 123.186 445.098 109.758 443.355C96.203 441.58 84.381 433.601 77.6906 421.729C73.9073 414.996 71.3767 407.708 68.2804 400.672C67.9221 399.827 67.5256 399.026 67.1673 398.181C66.969 397.78 66.7707 397.38 66.5724 396.98C66.5244 396.9 66.3709 396.538 66.2782 396.42C65.4946 394.943 64.6279 393.472 63.6814 392.048C62.7796 390.663 61.7597 389.37 60.7013 388.122C60.6566 388.084 60.6086 388.004 60.5638 387.966C60.292 387.696 60.0618 387.423 59.7933 387.194C59.157 386.537 58.4824 385.924 57.8079 385.311C56.6441 384.32 55.4836 383.371 54.2017 382.473C53.9811 382.324 53.7605 382.174 53.4951 381.987C53.3641 381.914 53.1435 381.765 53.0572 381.73C52.1813 381.216 51.3054 380.702 50.3911 380.232C49.0421 379.547 47.6548 378.906 46.2323 378.352C45.8456 378.215 45.4588 378.079 45.0688 377.901C44.9825 377.867 44.6404 377.768 44.3815 377.664C44.1674 377.597 43.8669 377.496 43.7838 377.502C43.314 377.372 42.8025 377.246 42.2911 377.119C40.7121 376.701 39.1011 376.411 37.4934 376.161C36.6912 376.057 35.8889 375.953 35.0483 375.894C34.9236 375.904 34.7127 375.878 34.5433 375.85C34.2908 375.828 34.0415 375.847 33.789 375.825C32.159 375.827 30.5322 375.87 28.915 376.038C28.0873 376.144 27.301 376.246 26.4733 376.352C26.2272 376.413 25.9779 376.432 25.6903 376.496C25.5656 376.506 25.2397 376.614 24.9521 376.678C23.1081 377.154 21.2737 377.754 19.5321 378.471C18.8035 378.777 18.0781 379.125 17.3495 379.431C17.2696 379.479 17.1865 379.485 17.1481 379.53C16.6656 379.775 16.1863 380.062 15.707 380.348C14.1476 381.26 12.6362 382.25 11.2175 383.358C10.5082 383.912 9.79881 384.466 9.09268 385.062C9.05434 385.106 9.01278 385.11 8.97445 385.154C8.62298 385.472 8.27475 385.832 7.92649 386.192C6.64529 387.456 5.45359 388.796 4.31309 390.256C3.74123 390.966 3.21094 391.673 2.72538 392.417C2.87553 392.198 2.05455 393.467 1.86927 393.773C0.911022 395.427 0.0390772 397.116 -0.701822 398.879C-0.8072 399.136 -1.3564 400.676 -1.39795 400.679C-1.66613 401.532 -1.89279 402.381 -2.11941 403.23C-2.94605 406.579 -6.32657 409.336 -9.94485 408.495C-13.3106 407.675 -16.1212 404.318 -15.2307 400.714C-11.5953 386.17 -1.60842 374.292 11.7426 367.517C25.0169 360.831 40.7611 361.188 54.059 367.182Z"
                fill="#251404" />
            <path
                d="M218.156 235.136C246.566 223.147 279.031 236.492 290.856 264.839C290.906 265.004 290.906 265.004 290.956 265.17L188.29 308.538C188.24 308.373 188.24 308.373 188.19 308.208C176.365 279.861 189.852 247.181 218.156 235.136Z"
                fill="#251404" />
            <path
                d="M165.825 49.6887C161.683 55.8083 155.778 58.0147 151.617 59.4343C147.457 60.8539 145.961 61.5283 144.887 64.1385C143.022 68.3206 138.171 70.2036 134.005 68.2841C129.84 66.3647 127.927 61.4555 129.792 57.2734C133.861 47.9972 141.253 45.4251 146.036 43.7245C150.197 42.3048 151.693 41.6305 152.891 38.9641C154.089 36.2977 153.531 34.7267 151.835 30.631C149.798 25.778 146.804 18.4704 150.873 9.19412C154.942 -0.0821253 162.333 -2.65423 167.117 -4.35484C171.277 -5.77447 172.773 -6.44884 173.971 -9.11525C175.17 -11.7817 174.612 -13.3526 172.915 -17.4483C170.878 -22.3013 167.884 -29.6089 171.953 -38.8852C176.022 -48.1614 183.413 -50.7335 188.197 -52.4341C192.358 -53.8538 193.854 -54.5281 195.052 -57.1945C196.917 -61.3766 201.769 -63.2596 205.934 -61.3402C210.099 -59.4207 212.012 -54.5115 210.147 -50.3294C206.078 -41.0532 198.687 -38.4811 193.903 -36.7805C189.743 -35.3608 188.247 -34.6865 187.048 -32.0201C185.85 -29.3536 186.408 -27.7827 188.104 -23.687C190.142 -18.834 193.136 -11.5264 189.066 -2.25015C184.997 7.0261 177.606 9.59821 172.823 11.2988C168.662 12.7184 167.166 13.3928 165.968 16.0592C164.77 18.7256 165.328 20.2966 167.024 24.3922C169.061 29.2453 172.055 36.5529 167.986 45.8292C167.262 47.2186 166.538 48.608 165.825 49.6887Z"
                fill="#926247" />
            <path
                d="M0.430942 28.2664C1.32895 27.7467 2.36765 27.4701 3.38373 27.5311C5.36901 27.5719 7.20484 28.6727 8.23645 30.4553L52.2548 111.413C53.1579 113.161 53.1161 115.349 52.1155 117.009C51.0333 118.717 49.1557 119.804 47.1235 119.682L-45.5194 117.593C-47.5047 117.552 -49.3405 116.451 -50.3721 114.669C-51.2752 112.92 -51.2333 110.733 -50.2328 109.072L-1.6552 30.1227C-1.10802 29.3734 -0.385434 28.7389 0.430942 28.2664ZM37.6859 108.271L3.0127 44.4028L-35.396 106.651L37.6859 108.271Z"
                fill="#926247" />
            <path
                d="M349.393 265.573C348.427 265.016 347.612 264.198 347.122 263.221C346.093 261.355 346.129 259.063 347.23 257.155L398.78 173.139C399.92 171.369 401.974 170.243 404.055 170.288C406.224 170.383 408.243 171.549 409.222 173.502L457.086 260.685C458.116 262.552 458.08 264.843 456.979 266.751C455.839 268.522 453.785 269.648 451.704 269.603L352.239 266.523C351.249 266.413 350.271 266.08 349.393 265.573ZM403.694 188.348L362.997 254.58L441.478 257.108L403.694 188.348Z"
                fill="#926247" />
        </g>
    </g>
    <defs>
        <clipPath id="clip0_12_7373">
            <rect x="-293" y="-530" width="960" height="960" rx="480" fill="white" />
        </clipPath>
    </defs>
</svg>
