<svg width="64" height="64" viewBox="0 0 64 64" fill="none" xmlns="http://www.w3.org/2000/svg">
<g clip-path="url(#clip0_12_7502)">
<rect width="64" height="64" rx="32" fill="#E5EAD7"/>
<path d="M38.6667 14.667C32.0393 8.03957 21.2942 8.03958 14.6667 14.667C8.03933 21.2944 8.03932 32.0396 14.6667 38.667L42.6667 66.667L70.6668 38.667C77.2942 32.0396 77.2942 21.2944 70.6667 14.667C64.0393 8.03958 53.2942 8.03957 46.6668 14.667L42.6667 18.667L38.6667 14.667Z" fill="#9BB168"/>
<path fill-rule="evenodd" clip-rule="evenodd" d="M29.3333 24.6295L26.6666 29.9628C24.408 34.48 19.7912 37.3333 14.7409 37.3333H-2.66675V32H14.7409C17.7711 32 20.5412 30.288 21.8963 27.5777L26.4926 18.3851C27.2235 16.9234 28.7175 16 30.3518 16C32.7348 16 34.6666 17.9318 34.6666 20.3148V44.7038L37.3333 39.3705C39.5918 34.8534 44.2087 32 49.2589 32H71.9999V37.3333H49.2589C46.2288 37.3333 43.4587 39.0454 42.1035 41.7556L37.5072 50.9482C36.7764 52.41 35.2823 53.3333 33.648 53.3333C31.265 53.3333 29.3333 51.4015 29.3333 49.0186V24.6295Z" fill="#4F3422"/>
</g>
<defs>
<clipPath id="clip0_12_7502">
<rect width="64" height="64" rx="32" fill="white"/>
</clipPath>
</defs>
</svg>
