<svg width="343" height="166" viewBox="0 0 343 166" fill="none" xmlns="http://www.w3.org/2000/svg">
    <g clip-path="url(#clip0_12_7431)">
        <rect width="343" height="166" rx="24" fill="#E5EAD7" />
        <path
            d="M-64.466 211.935C-15.9628 241.181 50.0956 248.497 109.448 231.159C124.905 226.64 140.38 220.259 151.602 209.598C162.809 198.94 161.817 190.314 156.032 177.763C148.353 161.07 106.287 132.786 93.9957 119.639C87.3279 112.518 62.3762 92.1342 68.8243 83.9749C73.1438 78.5299 79.7283 79.5435 87.0398 79.0941C105.707 77.957 119.309 82.7822 135.852 74.1524C146.551 68.5831 153.051 57.8737 154.643 47.362C156.251 36.8461 153.571 26.4678 149.679 16.8065C139.789 -7.76387 122.187 -29.0149 102.547 -48.1496C78.2279 -71.8431 49.297 -93.3649 13.4429 -101.769C3.89058 -104.01 -7.7565 -104.845 -15.4989 -98.6489C-24.0119 -91.8386 -23.1932 -80.4935 -21.6404 -71.0208C-19.1241 -55.6465 -16.5923 -40.2764 -14.0723 -24.8881C-12.553 -15.6027 -11.6062 -4.71457 -19.4531 2.40032C-26.0273 8.34383 -36.339 9.18948 -45.3085 8.43749C-59.5377 7.25299 -71.9642 1.328 -85.2373 -2.27163C-96.6058 -5.37006 -117.812 -8.53486 -127.26 1.89256C-129.233 4.06675 -130.234 6.75056 -130.71 9.39936C-133.003 22.0314 -125.564 35.2108 -119.257 45.6592C-111.082 59.2152 -101.17 71.8983 -89.7644 83.4261C-76.9625 96.3614 -61.9678 108.256 -54.7032 124.336C-52.3161 129.629 -50.9605 136.06 -54.6864 141.165C-61.5999 150.641 -78.223 147.441 -89.2162 153.286C-102.489 160.345 -102.088 177.735 -94.2161 188.353C-86.3323 198.952 -78.2587 202.843 -64.466 211.935Z"
            fill="#F2F5EB" />
        <path fill-rule="evenodd" clip-rule="evenodd"
            d="M134.605 138.969C124.802 150.653 99.2305 145.341 77.4959 127.105C55.7614 108.857 56.2304 93.1136 66.0453 81.4179C75.8481 69.7341 91.2679 66.5301 113.015 84.7664C134.737 103.015 144.408 127.285 134.605 138.969Z"
            fill="#7D944D" />
        <path
            d="M127.171 115.626C123.503 115.626 119.979 114.072 117.489 111.29L102.009 93.9811C99.8679 91.5841 98.6892 88.5006 98.6892 85.2845V76.9132C98.6892 76.0098 99.4229 75.2871 100.313 75.2871C101.215 75.2871 101.937 76.0219 101.937 76.9132V85.2845C101.937 87.6935 102.815 90.0062 104.427 91.8009L119.907 109.11C122.072 111.519 125.271 112.711 128.47 112.278L134.484 111.471C135.375 111.362 136.192 111.976 136.313 112.868C136.433 113.759 135.808 114.578 134.917 114.699L128.903 115.506C128.338 115.578 127.749 115.626 127.171 115.626Z"
            fill="white" />
        <path fill-rule="evenodd" clip-rule="evenodd"
            d="M18.9262 185.651C91.467 185.651 107.332 140.06 97.8177 92.1809C88.3036 44.3018 55.4311 0 18.9262 0C-17.5787 0 -50.8842 41.2785 -59.9533 92.1809C-69.0224 143.095 -53.6145 185.651 18.9262 185.651Z"
            fill="#9BB168" />
        <path fill-rule="evenodd" clip-rule="evenodd"
            d="M17.4952 26.1025H35.7176C54.7097 26.1025 70.1055 41.5202 70.1055 60.5394C70.1055 79.5586 54.7097 94.9763 35.7176 94.9763H17.4952C-1.49701 94.9763 -16.8928 79.5586 -16.8928 60.5394C-16.8928 41.5082 -1.49701 26.1025 17.4952 26.1025Z"
            fill="#7D944D" />
        <path fill-rule="evenodd" clip-rule="evenodd"
            d="M21.7649 23.1025H39.9873C58.9795 23.1025 74.3753 38.5202 74.3753 57.5394C74.3753 76.5586 58.9795 91.9763 39.9873 91.9763H21.7649C2.77277 91.9763 -12.623 76.5586 -12.623 57.5394C-12.623 38.5202 2.77277 23.1025 21.7649 23.1025Z"
            fill="#E5EAD7" />
        <path
            d="M6.4414 186C5.53931 186 4.81763 185.265 4.81763 184.374V166.27C4.81763 159.091 10.6512 153.237 17.8319 153.237H42.9824C48.3589 153.237 52.7371 148.853 52.7371 143.469V138.53C52.7371 137.627 53.4708 136.904 54.3609 136.904C55.263 136.904 55.9846 137.639 55.9846 138.53V143.469C55.9846 150.648 50.1511 156.502 42.9704 156.502H17.8319C12.4554 156.502 8.07721 160.886 8.07721 166.27V184.362C8.07721 185.265 7.3435 186 6.4414 186Z"
            fill="#7D944D" />
        <path
            d="M54.3606 104.081C53.4585 104.081 52.7368 103.347 52.7368 102.455V101.323C52.7368 96.8303 56.3813 93.1807 60.8677 93.1807H96.9998C97.9019 93.1807 98.6236 93.9154 98.6236 94.8067C98.6236 95.7101 97.8898 96.4328 96.9998 96.4328H60.8677C58.1735 96.4328 55.9844 98.625 55.9844 101.323V102.455C55.9844 103.359 55.2627 104.081 54.3606 104.081Z"
            fill="#7D944D" />
        <path fill-rule="evenodd" clip-rule="evenodd"
            d="M38.4286 103.527L59.8854 103.153C69.4438 102.985 77.328 110.602 77.503 120.169C77.503 120.169 77.503 120.169 77.5009 120.18C77.664 129.745 70.0574 137.642 60.499 137.81L39.0422 138.185C29.4839 138.353 21.5996 130.736 21.4246 121.169C21.4246 121.169 21.4246 121.169 21.4267 121.157C21.2657 111.58 28.8723 103.683 38.4286 103.527Z"
            fill="#7D944D" />
        <path fill-rule="evenodd" clip-rule="evenodd"
            d="M43.5417 103.135L64.5811 102.772C74.2503 102.599 82.2385 110.32 82.4066 119.996L82.4045 120.008C82.5704 129.695 74.8621 137.684 65.1832 137.843L44.1437 138.206C34.4746 138.379 26.4961 130.672 26.3162 120.994L26.3183 120.982C26.1524 111.295 33.8607 103.305 43.5417 103.135Z"
            fill="#E5EAD7" />
        <path
            d="M44.0517 129.293C39.6783 129.29 36.0705 125.766 35.9895 121.363C35.9049 116.909 39.4609 113.222 43.9102 113.141L44.0447 113.14C44.0942 113.137 44.1416 113.145 44.1911 113.142C48.5644 113.145 52.1722 116.668 52.2533 121.072C52.3378 125.525 48.7818 129.213 44.3325 129.294L44.198 129.294C44.1506 129.286 44.1012 129.29 44.0517 129.293ZM43.9739 116.392C41.3151 116.436 39.1926 118.64 39.24 121.289C39.2853 123.951 41.4797 126.063 44.1385 126.019L44.273 126.019C46.92 125.973 49.0424 123.769 48.9951 121.119C48.9498 118.458 46.7359 116.318 44.0966 116.389L43.9739 116.392Z"
            fill="#7D944D" />
        <path
            d="M57.4778 118.503C56.6117 118.497 55.8881 117.819 55.8584 116.946C55.821 116.047 56.516 115.29 57.4142 115.253L69.7594 114.722C70.6575 114.686 71.4146 115.382 71.452 116.281C71.4894 117.179 70.7943 117.937 69.8962 117.973L57.551 118.504C57.5273 118.5 57.5036 118.496 57.4778 118.503Z"
            fill="#7D944D" />
        <path
            d="M57.9478 125.13C57.0816 125.123 56.358 124.445 56.3282 123.572C56.2909 122.673 56.9859 121.916 57.8841 121.879L65.0105 121.575C65.9086 121.538 66.6658 122.234 66.7031 123.133C66.7405 124.032 66.0455 124.789 65.1473 124.826L58.0209 125.13C57.9952 125.138 57.9715 125.134 57.9478 125.13Z"
            fill="#7D944D" />
        <path fill-rule="evenodd" clip-rule="evenodd"
            d="M29.5879 44.0566C31.7048 44.0566 33.4248 45.7791 33.4248 47.899V49.1999C33.4248 51.3198 31.7048 53.0423 29.5879 53.0423C27.471 53.0423 25.751 51.3198 25.751 49.1999V47.899C25.751 45.7791 27.471 44.0566 29.5879 44.0566Z"
            fill="#7D944D" />
        <path fill-rule="evenodd" clip-rule="evenodd"
            d="M56.7952 44.0566C58.9121 44.0566 60.6321 45.7791 60.6321 47.899V49.1999C60.6321 51.3198 58.9121 53.0423 56.7952 53.0423C54.6783 53.0423 52.9583 51.3198 52.9583 49.1999V47.899C52.9583 45.7791 54.6783 44.0566 56.7952 44.0566Z"
            fill="#7D944D" />
        <path
            d="M40.0644 70.1106C35.6863 70.1106 32.126 66.5453 32.126 62.1609C32.126 61.2575 32.8597 60.5348 33.7498 60.5348C34.6519 60.5348 35.3735 61.2695 35.3735 62.1609C35.3735 64.7506 37.4784 66.8584 40.0644 66.8584L47.3414 66.7982C49.9394 66.7741 52.0323 64.7144 52.1045 62.1127C52.1285 61.2093 52.8863 60.5107 53.7763 60.5348C54.6784 60.5589 55.3761 61.3057 55.352 62.2091C55.2317 66.5694 51.7196 70.0143 47.3654 70.0624L40.0644 70.1106Z"
            fill="#7D944D" />
        <g filter="url(#filter0_d_12_7431)">
            <path fill-rule="evenodd" clip-rule="evenodd"
                d="M76.8111 17H110.189C115.618 17 120 21.4058 120 26.8334V46.9116C120 52.3525 115.604 56.745 110.189 56.745H97.5638L84.9063 64.7206C83.622 65.5301 81.9273 65.1452 81.1196 63.858C80.8416 63.4201 80.696 62.9158 80.696 62.3982V56.7583H76.8111C71.3827 56.7583 67.0003 52.3525 67.0003 46.9249V26.8467C66.987 21.4058 71.3827 17 76.8111 17Z"
                fill="white" />
            <rect width="32" height="8" transform="matrix(-1 0 0 1 110 33)" fill="white" />
            <circle cx="4" cy="4" r="4" transform="matrix(-1 0 0 1 110 33)" fill="#926247" />
            <circle cx="4" cy="4" r="4" transform="matrix(-1 0 0 1 98.0002 33)" fill="#926247" />
            <circle cx="4" cy="4" r="4" transform="matrix(-1 0 0 1 86.0002 33)" fill="#926247" />
        </g>
    </g>
    <rect x="0.5" y="0.5" width="342" height="165" rx="23.5" stroke="#CFD9B5" />
    <defs>
        <filter id="filter0_d_12_7431" x="51.0002" y="9" width="84.9998" height="80.1445"
            filterUnits="userSpaceOnUse" color-interpolation-filters="sRGB">
            <feFlood flood-opacity="0" result="BackgroundImageFix" />
            <feColorMatrix in="SourceAlpha" type="matrix"
                values="0 0 0 0 0 0 0 0 0 0 0 0 0 0 0 0 0 0 127 0" result="hardAlpha" />
            <feOffset dy="8" />
            <feGaussianBlur stdDeviation="8" />
            <feComposite in2="hardAlpha" operator="out" />
            <feColorMatrix type="matrix"
                values="0 0 0 0 0.294118 0 0 0 0 0.203922 0 0 0 0 0.145098 0 0 0 0.1 0" />
            <feBlend mode="normal" in2="BackgroundImageFix" result="effect1_dropShadow_12_7431" />
            <feBlend mode="normal" in="SourceGraphic" in2="effect1_dropShadow_12_7431"
                result="shape" />
        </filter>
        <clipPath id="clip0_12_7431">
            <rect width="343" height="166" rx="24" fill="white" />
        </clipPath>
    </defs>
</svg>
