<svg width="64" height="64" viewBox="0 0 64 64" fill="none" xmlns="http://www.w3.org/2000/svg">
<g clip-path="url(#clip0_440_5628)">
<rect width="64" height="64" rx="32" fill="#E5EAD7"/>
<rect x="16" width="32" height="32" rx="16" fill="#4F3422"/>
<path d="M48 16C48 13.8988 47.5861 11.8183 46.7821 9.87706C45.978 7.93585 44.7994 6.17203 43.3137 4.68629C41.828 3.20055 40.0641 2.022 38.1229 1.21793C36.1817 0.413852 34.1011 -9.18442e-08 32 0C29.8988 9.18442e-08 27.8183 0.413852 25.8771 1.21793C23.9359 2.022 22.172 3.20055 20.6863 4.68629C19.2006 6.17203 18.022 7.93586 17.2179 9.87707C16.4139 11.8183 16 13.8989 16 16L32 16H48Z" fill="#9BB168"/>
<rect y="32" width="64" height="64" rx="32" fill="#9BB168"/>
<path fill-rule="evenodd" clip-rule="evenodd" d="M43.1213 33.9854L32.0002 50.667L20.8792 33.9854C24.3431 32.7014 28.0897 32 32.0003 32C35.9108 32 39.6574 32.7014 43.1213 33.9854Z" fill="#E5EAD7"/>
</g>
<defs>
<clipPath id="clip0_440_5628">
<rect width="64" height="64" rx="32" fill="white"/>
</clipPath>
</defs>
</svg>
