<svg width="64" height="64" viewBox="0 0 64 64" fill="none" xmlns="http://www.w3.org/2000/svg">
<g clip-path="url(#clip0_440_5663)">
<rect width="64" height="64" rx="32" fill="#E5EAD7"/>
<circle cx="53.3333" cy="53.3333" r="37.3333" fill="#4F3422"/>
<circle cx="53.3334" cy="53.3337" r="10.6667" fill="#E5EAD7"/>
<circle cx="48.0001" cy="32.0003" r="5.33333" fill="#E5EAD7"/>
<circle cx="32.0001" cy="48.0003" r="5.33333" fill="#E5EAD7"/>
<path d="M64.0001 5.33366C64.0001 6.73443 63.7242 8.12148 63.1881 9.41562C62.6521 10.7098 61.8664 11.8856 60.8759 12.8761C59.8854 13.8666 58.7095 14.6523 57.4154 15.1884C56.1212 15.7244 54.7342 16.0003 53.3334 16.0003C51.9326 16.0003 50.5456 15.7244 49.2515 15.1884C47.9573 14.6523 46.7814 13.8666 45.7909 12.8761C44.8005 11.8856 44.0147 10.7098 43.4787 9.41562C42.9426 8.12148 42.6667 6.73442 42.6667 5.33366L53.3334 5.33366H64.0001Z" fill="#9BB168"/>
<path d="M86.5708 17.0976C85.8704 18.3107 84.938 19.374 83.8267 20.2267C82.7154 21.0795 81.447 21.705 80.094 22.0675C78.7409 22.4301 77.3297 22.5225 75.9409 22.3397C74.5522 22.1569 73.213 21.7023 71.9999 21.0019C70.7868 20.3015 69.7235 19.3691 68.8708 18.2578C68.0181 17.1464 67.3926 15.8781 67.03 14.525C66.6675 13.172 66.575 11.7608 66.7578 10.372C66.9407 8.98323 67.3952 7.64406 68.0956 6.43096L77.3332 11.7643L86.5708 17.0976Z" fill="#9BB168"/>
<path d="M17.0974 86.5706C18.3105 85.8702 19.3738 84.9377 20.2265 83.8264C21.0792 82.7151 21.7047 81.4468 22.0673 80.0937C22.4298 78.7407 22.5223 77.3295 22.3395 75.9407C22.1566 74.5519 21.702 73.2127 21.0017 71.9996C20.3013 70.7865 19.3688 69.7233 18.2575 68.8705C17.1462 68.0178 15.8778 67.3923 14.5248 67.0298C13.1718 66.6672 11.7606 66.5747 10.3718 66.7576C8.98299 66.9404 7.64382 67.395 6.43072 68.0954L11.7641 77.333L17.0974 86.5706Z" fill="#9BB168"/>
<path d="M5.33341 64.0003C6.73418 64.0003 8.12123 63.7244 9.41537 63.1884C10.7095 62.6523 11.8854 61.8666 12.8759 60.8761C13.8664 59.8856 14.6521 58.7098 15.1881 57.4156C15.7242 56.1215 16.0001 54.7344 16.0001 53.3337C16.0001 51.9329 15.7242 50.5458 15.1881 49.2517C14.6521 47.9576 13.8664 46.7817 12.8759 45.7912C11.8854 44.8007 10.7095 44.015 9.41537 43.4789C8.12123 42.9429 6.73418 42.667 5.33341 42.667L5.33341 53.3337L5.33341 64.0003Z" fill="#9BB168"/>
<path d="M6.43056 38.5712C7.64365 39.2716 8.98283 39.7262 10.3716 39.909C11.7604 40.0919 13.1716 39.9994 14.5246 39.6368C15.8777 39.2743 17.146 38.6488 18.2573 37.7961C19.3686 36.9433 20.3011 35.8801 21.0015 34.667C21.7019 33.4539 22.1565 32.1147 22.3393 30.7259C22.5221 29.3371 22.4296 27.9259 22.0671 26.5729C21.7046 25.2199 21.0791 23.9515 20.2263 22.8402C19.3736 21.7289 18.3103 20.7964 17.0972 20.096L11.7639 29.3336L6.43056 38.5712Z" fill="#9BB168"/>
<path d="M6.43056 38.5712C7.64365 39.2716 8.98283 39.7262 10.3716 39.909C11.7604 40.0919 13.1716 39.9994 14.5246 39.6368C15.8777 39.2743 17.146 38.6488 18.2573 37.7961C19.3686 36.9433 20.3011 35.8801 21.0015 34.667C21.7019 33.4539 22.1565 32.1147 22.3393 30.7259C22.5221 29.3371 22.4296 27.9259 22.0671 26.5729C21.7046 25.2199 21.0791 23.9515 20.2263 22.8402C19.3736 21.7289 18.3103 20.7964 17.0972 20.096L11.7639 29.3336L6.43056 38.5712Z" fill="#9BB168"/>
<path d="M20.0957 17.0976C20.7961 18.3107 21.7285 19.374 22.8398 20.2267C23.9511 21.0795 25.2195 21.705 26.5725 22.0675C27.9256 22.4301 29.3368 22.5225 30.7256 22.3397C32.1143 22.1569 33.4535 21.7023 34.6666 21.0019C35.8797 20.3015 36.943 19.3691 37.7957 18.2578C38.6484 17.1465 39.2739 15.8781 39.6365 14.525C39.999 13.172 40.0915 11.7608 39.9087 10.372C39.7259 8.98323 39.2713 7.64406 38.5709 6.43096L29.3333 11.7643L20.0957 17.0976Z" fill="#9BB168"/>
</g>
<defs>
<clipPath id="clip0_440_5663">
<rect width="64" height="64" rx="32" fill="white"/>
</clipPath>
</defs>
</svg>
