<svg width="64" height="64" viewBox="0 0 64 64" fill="none" xmlns="http://www.w3.org/2000/svg">
<g clip-path="url(#clip0_440_5635)">
<rect width="64" height="64" rx="32" fill="#E5EAD7"/>
<path d="M58.6667 93.3337V26.667C58.6667 22.2487 55.085 18.667 50.6667 18.667C46.2485 18.667 42.6667 22.2487 42.6667 26.667V93.3337C42.6667 97.7519 46.2485 101.334 50.6667 101.334C55.085 101.334 58.6667 97.7519 58.6667 93.3337Z" fill="#4F3422"/>
<path d="M21.3333 72V40C21.3333 35.5817 17.7515 32 13.3333 32C8.91497 32 5.33325 35.5817 5.33325 40V72C5.33325 76.4183 8.91497 80 13.3333 80C17.7515 80 21.3333 76.4183 21.3333 72Z" fill="#4F3422"/>
<path d="M40 82.6667V8C40 3.58172 36.4183 0 32 0C27.5817 0 24 3.58171 24 7.99999V82.6667C24 87.0849 27.5817 90.6667 32 90.6667C36.4183 90.6667 40 87.085 40 82.6667Z" fill="#9BB168"/>
</g>
<defs>
<clipPath id="clip0_440_5635">
<rect width="64" height="64" rx="32" fill="white"/>
</clipPath>
</defs>
</svg>
