<svg width="24" height="24" viewBox="0 0 24 24" fill="none" xmlns="http://www.w3.org/2000/svg">
<path d="M18.8041 10.8687C20.4237 11.2396 22.0373 10.2273 22.4082 8.60769C22.7791 6.98808 21.7668 5.37446 20.1472 5.00357C18.5276 4.63269 16.9139 5.64499 16.5431 7.26461C16.1722 8.88423 17.1845 10.4978 18.8041 10.8687Z" stroke="white" stroke-width="1.3" stroke-linecap="round" stroke-linejoin="round"/>
<path d="M2.89329 2.74072H1V8.96152C1 12.0387 3.49452 14.5332 6.57167 14.5332C9.64881 14.5332 12.1433 12.0387 12.1433 8.96152V2.74072H10.2501" stroke="white" stroke-width="1.3" stroke-linecap="round" stroke-linejoin="round"/>
<path d="M6.67969 14.5873V16.678C6.67969 20.2138 9.546 23.08 13.0818 23.08C16.6176 23.08 19.4838 20.2138 19.4838 16.678V11.2876" stroke="white" stroke-width="1.3" stroke-linecap="round" stroke-linejoin="round"/>
</svg>
