
<svg width="20" height="20" viewBox="0 0 20 20" fill="none" xmlns="http://www.w3.org/2000/svg">
<path d="M17.7975 4.4582C17.715 4.54153 17.6075 4.58322 17.5 4.58322C17.395 4.58322 17.2891 4.5441 17.2083 4.4641L15.5416 2.8307C15.3775 2.66986 15.3743 2.40567 15.5351 2.2415C15.6976 2.07817 15.9618 2.07404 16.1243 2.23571L17.791 3.86901C17.956 4.02984 17.9592 4.29403 17.7975 4.4582ZM4.46172 2.20488C4.29922 2.04238 4.03503 2.04238 3.87253 2.20488L2.20586 3.87155C2.04336 4.03405 2.04336 4.29824 2.20586 4.46074C2.28753 4.54241 2.3942 4.58241 2.50086 4.58241C2.60753 4.58241 2.7142 4.54158 2.79587 4.46074L4.46253 2.79408C4.6242 2.63158 4.62422 2.36822 4.46172 2.20488ZM13.9635 15.8674L15.2959 17.2057C15.4575 17.369 15.4576 17.6324 15.2942 17.7949C15.2126 17.8757 15.1067 17.9166 15 17.9166C14.8934 17.9166 14.7859 17.8757 14.705 17.7941L13.2201 16.3016C12.2526 16.7974 11.16 17.0832 10.0009 17.0832C8.8417 17.0832 7.74833 16.7974 6.78166 16.3016L5.29668 17.7941C5.21501 17.8757 5.10751 17.9166 5.00168 17.9166C4.89584 17.9166 4.78915 17.8766 4.70749 17.7949C4.54415 17.6324 4.54419 17.369 4.70586 17.2057L6.03846 15.8674C4.15763 14.5924 2.91834 12.4382 2.91834 9.99989C2.91834 6.09405 6.09584 2.91655 10.0017 2.91655C13.9075 2.91655 17.085 6.09405 17.085 9.99989C17.0833 12.4382 15.8443 14.5924 13.9635 15.8674ZM16.25 9.99989C16.25 6.55322 13.4467 3.74989 10 3.74989C6.55338 3.74989 3.75005 6.55322 3.75005 9.99989C3.75005 13.4466 6.55338 16.2499 10 16.2499C13.4467 16.2499 16.25 13.4466 16.25 9.99989ZM10.4167 9.86073V6.69992C10.4167 6.46992 10.23 6.28325 10 6.28325C9.77005 6.28325 9.58338 6.46992 9.58338 6.69992V10.0333C9.58338 10.1441 9.62755 10.2499 9.70505 10.3283L11.3717 11.9949C11.4534 12.0766 11.56 12.1166 11.6667 12.1166C11.7734 12.1166 11.8801 12.0758 11.9617 11.9949C12.1242 11.8324 12.1242 11.5682 11.9617 11.4057L10.4167 9.86073Z" fill="#4F3422" stroke="#4F3422"/>
</svg>
