<svg width="25" height="24" viewBox="0 0 25 24" fill="none" xmlns="http://www.w3.org/2000/svg">
    <path
        d="M17.1127 16.0846C14.4796 17.5677 12.9773 20.6409 12.5 21.5V8C12.9145 7.25396 14.102 5.11646 16.1317 3.66368C16.9868 3.05167 17.4143 2.74566 17.9572 3.02468C18.5 3.30371 18.5 3.91963 18.5 5.15146V13.9914C18.5 14.6568 18.5 14.9895 18.3634 15.2233C18.2267 15.4571 17.8554 15.6663 17.1127 16.0846L17.1127 16.0846Z"
        stroke="#C9C7C5" stroke-width="1.2" stroke-linecap="round" stroke-linejoin="round" />
    <path
        d="M12.5 7.80556C11.8131 7.08403 9.82175 5.3704 6.48056 4.76958C4.7879 4.4652 3.94157 4.31301 3.22078 4.89633C2.5 5.47965 2.5 6.42688 2.5 8.32133V15.1297C2.5 16.8619 2.5 17.728 2.9626 18.2687C3.4252 18.8095 4.44365 18.9926 6.48056 19.3589C8.29633 19.6854 9.71344 20.2057 10.7392 20.7285C11.7484 21.2428 12.253 21.5 12.5 21.5C12.747 21.5 13.2516 21.2428 14.2608 20.7285C15.2866 20.2057 16.7037 19.6854 18.5194 19.3589C20.5564 18.9926 21.5748 18.8095 22.0374 18.2687C22.5 17.728 22.5 16.8619 22.5 15.1297V8.32133C22.5 6.42688 22.5 5.47965 21.7792 4.89633C21.0584 4.31301 19.5 4.76958 18.5 5.5"
        stroke="#C9C7C5" stroke-width="1.2" stroke-linecap="round" stroke-linejoin="round" />
</svg>
