<svg width="24" height="24" viewBox="0 0 24 24" fill="none" xmlns="http://www.w3.org/2000/svg">
<path d="M12 20.0003V13.5386C12 13.1306 12.1621 12.7393 12.4506 12.4507C12.7391 12.1622 13.1305 12.0001 13.5385 12.0001C13.9465 12.0001 14.3379 12.1622 14.6264 12.4507C14.9149 12.7393 15.077 13.1306 15.077 13.5386V16.9233H17.5386C18.1914 16.9233 18.8175 17.1827 19.2792 17.6443C19.7409 18.106 20.0002 18.7321 20.0002 19.3849V20.0003" stroke="white" stroke-width="1.2" stroke-linecap="round" stroke-linejoin="round"/>
<path d="M11.0857 7.19373C9.55152 5.50546 7.4928 4.38391 5.24234 4.0104C5.08921 3.98872 4.93322 3.99986 4.78474 4.04309C4.63624 4.08632 4.49865 4.16065 4.3811 4.26115C4.26143 4.3635 4.16536 4.49056 4.09949 4.63359C4.03362 4.77661 3.99952 4.93222 3.99953 5.08968V13.8657C3.9979 14.1352 4.09615 14.3957 4.27533 14.5971C4.45451 14.7984 4.70192 14.9262 4.96979 14.9558C6.72751 15.1942 8.38041 15.8898 9.76987 16.9591" stroke="white" stroke-width="1.2" stroke-linecap="round" stroke-linejoin="round"/>
<path d="M11.0864 10.5947V7.19373" stroke="white" stroke-width="1.2" stroke-linecap="round" stroke-linejoin="round"/>
<path d="M17.2016 14.956C17.4695 14.9263 17.7169 14.7985 17.8961 14.5972C18.0753 14.3959 18.1735 14.1353 18.1719 13.8658V5.0898C18.1719 4.93235 18.1378 4.77674 18.0719 4.63372C18.0061 4.49068 17.91 4.36362 17.7903 4.26127C17.6728 4.16078 17.5352 4.08645 17.3866 4.04322C17.2382 3.99998 17.0823 3.98884 16.929 4.01053C14.6786 4.38403 12.6199 5.50558 11.0857 7.19386" stroke="white" stroke-width="1.2" stroke-linecap="round" stroke-linejoin="round"/>
</svg>
