<svg width="20" height="20" viewBox="0 0 20 20" fill="none" xmlns="http://www.w3.org/2000/svg">
<path d="M6.97974 2.5C6.80148 2.56661 6.62617 2.63927 6.45406 2.71772M17.2647 13.5843C17.3499 13.3999 17.4284 13.2119 17.5 13.0204M15.4156 16.1372C15.5587 16.0037 15.697 15.8651 15.8302 15.7217M12.724 17.8102C12.8858 17.7493 13.0451 17.6833 13.2017 17.6126M10.13 18.3282C9.93752 18.3349 9.74377 18.3349 9.55131 18.3282M6.48939 17.617C6.64005 17.6848 6.79315 17.7482 6.9485 17.8069M3.89375 15.7673C4.00766 15.888 4.1252 16.0053 4.24621 16.119M2.19388 13.0538C2.25628 13.2185 2.32385 13.3807 2.3964 13.5402M1.67077 10.4211C1.66536 10.2477 1.66537 10.0732 1.67077 9.89951M2.18783 7.28095C2.24914 7.11804 2.31549 6.9576 2.38671 6.79983M3.87998 4.56603C4.00052 4.43762 4.12517 4.3131 4.25371 4.1927" stroke="#4F3422" stroke-width="1.2" stroke-linecap="round" stroke-linejoin="round"/>
<path d="M11.25 10C11.25 10.6904 10.6904 11.25 10 11.25C9.30964 11.25 8.75 10.6904 8.75 10C8.75 9.30964 9.30964 8.75 10 8.75M11.25 10C11.25 9.30964 10.6904 8.75 10 8.75M11.25 10H13.3333M10 8.75V5" stroke="#4F3422" stroke-width="1.2" stroke-linecap="round"/>
<path d="M18.3333 10.0001C18.3333 5.39771 14.6024 1.66675 10 1.66675" stroke="#4F3422" stroke-width="1.2" stroke-linecap="round"/>
</svg>
