<svg width="20" height="20" viewBox="0 0 20 20" fill="none" xmlns="http://www.w3.org/2000/svg">
    <path
        d="M1.66663 12.5002C1.7856 12.8563 1.92515 13.2027 2.08381 13.5378M3.43785 15.6221C3.70127 15.9283 3.98413 16.2165 4.28443 16.4847M7.49996 18.3335C7.12683 18.2133 6.76414 18.0688 6.41363 17.902"
        stroke="#ACA9A5" stroke-width="1.2" stroke-linecap="round" stroke-linejoin="round" />
    <path
        d="M10 11.25C10.6904 11.25 11.25 10.6904 11.25 10C11.25 9.30964 10.6904 8.75 10 8.75C9.30964 8.75 8.75 9.30964 8.75 10M10 11.25C9.30964 11.25 8.75 10.6904 8.75 10M10 11.25V13.3333M8.75 10H5"
        stroke="#ACA9A5" stroke-width="1.2" stroke-linecap="round" />
    <path
        d="M9.99996 18.3335C14.6023 18.3335 18.3333 14.6025 18.3333 10.0002C18.3333 5.39779 14.6023 1.66683 9.99996 1.66683C5.39759 1.66683 1.66663 5.39779 1.66663 10.0002"
        stroke="#ACA9A5" stroke-width="1.2" stroke-linecap="round" />
</svg>
