<svg width="20" height="20" viewBox="0 0 20 20" fill="none" xmlns="http://www.w3.org/2000/svg">
<path d="M7.30777 2.0835C7.08104 2.16456 6.85878 2.25469 6.64145 2.35341M4.5208 3.72155C4.33205 3.88707 4.15084 4.06062 3.97775 4.24165M2.52644 6.30413C2.37162 6.6152 2.2359 6.93701 2.12078 7.26809M1.68002 9.493C1.66151 9.81746 1.66222 10.1483 1.68191 10.4729M2.14034 12.7216C2.25118 13.0332 2.3803 13.3364 2.52644 13.63M3.90901 15.6197C4.11253 15.8377 4.32765 16.0451 4.55342 16.2411M6.48025 17.5055C6.8089 17.663 7.14935 17.8007 7.49996 17.9168" stroke="#ACA9A5" stroke-width="1.2" stroke-linecap="round" stroke-linejoin="round"/>
<path d="M10 18.3334C14.6024 18.3334 18.3333 14.6025 18.3333 10.0001C18.3333 5.39771 14.6024 1.66675 10 1.66675" stroke="#ACA9A5" stroke-width="1.2" stroke-linecap="round"/>
<path d="M10 11.25C10.6904 11.25 11.25 10.6904 11.25 10C11.25 9.30964 10.6904 8.75 10 8.75M10 11.25C9.30964 11.25 8.75 10.6904 8.75 10C8.75 9.30964 9.30964 8.75 10 8.75M10 11.25V13.3333M10 8.75V5" stroke="#ACA9A5" stroke-width="1.2" stroke-linecap="round"/>
</svg>
