<svg width="375" height="812" viewBox="0 0 375 812" fill="none" xmlns="http://www.w3.org/2000/svg">
<g clip-path="url(#clip0_1346_6157)">
<rect width="375" height="812" fill="white"/>
<path opacity="0.48" fill-rule="evenodd" clip-rule="evenodd" d="M-26.5 315.88C-16.9015 315.88 -9.1203 308.099 -9.1203 298.5C-9.1203 288.901 -16.9015 281.12 -26.5 281.12C-36.0985 281.12 -43.8797 288.901 -43.8797 298.5C-43.8797 308.099 -36.0985 315.88 -26.5 315.88ZM-26.5 332C-7.99846 332 7 317.002 7 298.5C7 279.998 -7.99846 265 -26.5 265C-45.0015 265 -60 279.998 -60 298.5C-60 317.002 -45.0015 332 -26.5 332Z" fill="#B4C48D" fill-opacity="0.25"/>
<path opacity="0.24" fill-rule="evenodd" clip-rule="evenodd" d="M-49 611.038C-10.3193 611.038 21.0376 579.681 21.0376 541C21.0376 502.319 -10.3193 470.962 -49 470.962C-87.6807 470.962 -119.038 502.319 -119.038 541C-119.038 579.681 -87.6807 611.038 -49 611.038ZM-49 676C25.5584 676 86 615.558 86 541C86 466.442 25.5584 406 -49 406C-123.558 406 -184 466.442 -184 541C-184 615.558 -123.558 676 -49 676Z" fill="#B4C48D" fill-opacity="0.25"/>
<path opacity="0.48" fill-rule="evenodd" clip-rule="evenodd" d="M363.5 93.9248C419.515 93.9248 464.925 48.5154 464.925 -7.5C464.925 -63.5154 419.515 -108.925 363.5 -108.925C307.485 -108.925 262.075 -63.5154 262.075 -7.5C262.075 48.5154 307.485 93.9248 363.5 93.9248ZM363.5 188C471.472 188 559 100.472 559 -7.5C559 -115.472 471.472 -203 363.5 -203C255.528 -203 168 -115.472 168 -7.5C168 100.472 255.528 188 363.5 188Z" fill="#B4C48D" fill-opacity="0.25"/>
<path opacity="0.48" fill-rule="evenodd" clip-rule="evenodd" d="M299 889.962C336.535 889.962 366.962 859.535 366.962 822C366.962 784.465 336.535 754.038 299 754.038C261.465 754.038 231.038 784.465 231.038 822C231.038 859.535 261.465 889.962 299 889.962ZM299 953C371.349 953 430 894.349 430 822C430 749.651 371.349 691 299 691C226.651 691 168 749.651 168 822C168 894.349 226.651 953 299 953Z" fill="#B4C48D" fill-opacity="0.25"/>
<circle opacity="0.32" cx="-39.5" cy="98.5" r="98.5" fill="#B4C48D" fill-opacity="0.25"/>
<circle opacity="0.24" cx="386.5" cy="534.5" r="103.5" fill="#B4C48D" fill-opacity="0.25"/>
<circle opacity="0.32" cx="371.5" cy="276.5" r="35.5" fill="#B4C48D" fill-opacity="0.25"/>
<ellipse opacity="0.48" cx="29.5" cy="787.5" rx="35.5" ry="34.5" fill="#B4C48D" fill-opacity="0.25"/>
<circle opacity="0.32" cx="106" cy="299" r="58" fill="#B4C48D" fill-opacity="0.25"/>
</g>
<defs>
<clipPath id="clip0_1346_6157">
<rect width="375" height="812" fill="white"/>
</clipPath>
</defs>
</svg>
