<svg width="24" height="24" viewBox="0 0 24 24" fill="none" xmlns="http://www.w3.org/2000/svg">
<path d="M22.5 11.625H21.3656C21.2685 9.27165 20.2901 7.04083 18.6247 5.37535C16.9592 3.70986 14.7284 2.73147 12.375 2.63438V1.5C12.375 1.40054 12.3355 1.30516 12.2652 1.23483C12.1948 1.16451 12.0995 1.125 12 1.125C11.9005 1.125 11.8052 1.16451 11.7348 1.23483C11.6645 1.30516 11.625 1.40054 11.625 1.5V2.63438C9.27165 2.73147 7.04083 3.70986 5.37535 5.37535C3.70986 7.04083 2.73147 9.27165 2.63438 11.625H1.5C1.40054 11.625 1.30516 11.6645 1.23483 11.7348C1.16451 11.8052 1.125 11.9005 1.125 12C1.125 12.0995 1.16451 12.1948 1.23483 12.2652C1.30516 12.3355 1.40054 12.375 1.5 12.375H2.63438C2.73147 14.7284 3.70986 16.9592 5.37535 18.6247C7.04083 20.2901 9.27165 21.2685 11.625 21.3656V22.5C11.625 22.5995 11.6645 22.6948 11.7348 22.7652C11.8052 22.8355 11.9005 22.875 12 22.875C12.0995 22.875 12.1948 22.8355 12.2652 22.7652C12.3355 22.6948 12.375 22.5995 12.375 22.5V21.3656C14.7284 21.2685 16.9592 20.2901 18.6247 18.6247C20.2901 16.9592 21.2685 14.7284 21.3656 12.375H22.5C22.5995 12.375 22.6948 12.3355 22.7652 12.2652C22.8355 12.1948 22.875 12.0995 22.875 12C22.875 11.9005 22.8355 11.8052 22.7652 11.7348C22.6948 11.6645 22.5995 11.625 22.5 11.625ZM20.6156 11.625H17.6059C17.5137 10.268 16.933 8.99044 15.9713 8.02872C15.0096 7.067 13.732 6.48629 12.375 6.39412V3.38437C14.5296 3.48075 16.5701 4.37989 18.0951 5.90492C19.6201 7.42994 20.5192 9.47044 20.6156 11.625ZM15.375 12.375H16.8559C16.7655 13.5333 16.2643 14.6213 15.4428 15.4428C14.6213 16.2643 13.5333 16.7655 12.375 16.8559V15.375C12.375 15.2755 12.3355 15.1802 12.2652 15.1098C12.1948 15.0395 12.0995 15 12 15C11.9005 15 11.8052 15.0395 11.7348 15.1098C11.6645 15.1802 11.625 15.2755 11.625 15.375V16.8559C10.4667 16.7655 9.37874 16.2643 8.5572 15.4428C7.73565 14.6213 7.23453 13.5333 7.14412 12.375H8.625C8.72446 12.375 8.81984 12.3355 8.89017 12.2652C8.96049 12.1948 9 12.0995 9 12C9 11.9005 8.96049 11.8052 8.89017 11.7348C8.81984 11.6645 8.72446 11.625 8.625 11.625H7.14412C7.23453 10.4667 7.73565 9.37874 8.5572 8.5572C9.37874 7.73565 10.4667 7.23453 11.625 7.14412V8.625C11.625 8.72446 11.6645 8.81984 11.7348 8.89017C11.8052 8.96049 11.9005 9 12 9C12.0995 9 12.1948 8.96049 12.2652 8.89017C12.3355 8.81984 12.375 8.72446 12.375 8.625V7.14412C13.5333 7.23453 14.6213 7.73565 15.4428 8.5572C16.2643 9.37874 16.7655 10.4667 16.8559 11.625H15.375C15.2755 11.625 15.1802 11.6645 15.1098 11.7348C15.0395 11.8052 15 11.9005 15 12C15 12.0995 15.0395 12.1948 15.1098 12.2652C15.1802 12.3355 15.2755 12.375 15.375 12.375ZM11.625 3.38437V6.39412C10.268 6.48629 8.99044 7.067 8.02872 8.02872C7.067 8.99044 6.48629 10.268 6.39412 11.625H3.38437C3.48075 9.47044 4.37989 7.42994 5.90492 5.90492C7.42994 4.37989 9.47044 3.48075 11.625 3.38437ZM3.38437 12.375H6.39412C6.48629 13.732 7.067 15.0096 8.02872 15.9713C8.99044 16.933 10.268 17.5137 11.625 17.6059V20.6156C9.47044 20.5192 7.42994 19.6201 5.90492 18.0951C4.37989 16.5701 3.48075 14.5296 3.38437 12.375ZM12.375 20.6156V17.6059C13.732 17.5137 15.0096 16.933 15.9713 15.9713C16.933 15.0096 17.5137 13.732 17.6059 12.375H20.6156C20.5192 14.5296 19.6201 16.5701 18.0951 18.0951C16.5701 19.6201 14.5296 20.5192 12.375 20.6156Z" fill="white"/>
</svg>
