<svg width="24" height="24" viewBox="0 0 24 24" fill="none" xmlns="http://www.w3.org/2000/svg">
<path d="M5.32656 15.9287C3.38449 14.3459 2.1385 11.9417 2.11745 9.24581C2.08005 4.44839 5.97231 0.498797 10.7698 0.469406C15.3881 0.441047 19.1797 4.00875 19.5085 8.53664C19.5416 8.99166 19.6921 9.43036 19.9357 9.81605L21.795 12.7601C22.0384 13.1454 21.7615 13.6478 21.3057 13.6478H19.5317V17.8838C19.5317 18.6636 18.8995 19.2957 18.1197 19.2957H15.2958V23.5317H6.35317V18.1149C6.35317 17.2698 5.98169 16.4626 5.32656 15.9287Z" stroke="#4F3422" stroke-width="0.9375" stroke-miterlimit="10" stroke-linecap="round" stroke-linejoin="round"/>
<path d="M15.317 13.6685C17.7983 11.1871 17.7983 7.16395 15.3169 4.68262C12.8354 2.20129 8.81234 2.20136 6.33101 4.68278C3.84968 7.1642 3.84975 11.1873 6.33117 13.6686C8.81258 16.15 12.8357 16.1499 15.317 13.6685Z" stroke="#4F3422" stroke-width="0.9375" stroke-miterlimit="10" stroke-linecap="round" stroke-linejoin="round"/>
<path d="M8.70708 12.9422L9.88374 9.64317H8.0011L9.41307 5.41162H12.2371L10.825 7.79376H13.649L8.70708 12.9422Z" stroke="#4F3422" stroke-width="0.9375" stroke-miterlimit="10" stroke-linecap="round" stroke-linejoin="round"/>
</svg>
