<svg width="375" height="812" viewBox="0 0 375 812" fill="none" xmlns="http://www.w3.org/2000/svg">
<g clip-path="url(#clip0_12_10727)">
<rect width="375" height="812" fill="#9BB168"/>
<path d="M315.5 256C294.826 256 278 239.174 278 218.5C278 197.826 294.826 181 315.5 181C336.174 181 353 197.826 353 218.5C353.057 239.116 336.174 256 315.5 256ZM315.5 196.448C303.383 196.448 293.505 206.325 293.505 218.443C293.505 230.56 303.383 240.437 315.5 240.437C327.617 240.437 337.495 230.56 337.495 218.443C337.495 206.325 327.617 196.448 315.5 196.448Z" fill="#7D944D"/>
<path opacity="0.64" d="M47.6174 272C45.928 272 44.282 271.31 43.1124 269.931C41.0332 267.475 41.3364 263.769 43.8488 261.743L135.465 185.249C139.97 181.499 142.699 176.242 143.219 170.424C143.738 164.606 141.919 158.96 138.15 154.478C134.382 149.996 129.097 147.281 123.249 146.764C117.401 146.247 111.727 148.057 107.222 151.806L15.606 228.301C13.1369 230.37 9.45493 230.068 7.3757 227.568C5.29647 225.112 5.59969 221.406 8.11209 219.38L99.728 142.843C106.615 137.111 115.322 134.353 124.289 135.128C133.256 135.904 141.356 140.128 147.117 146.937C152.878 153.789 155.651 162.451 154.871 171.372C154.091 180.293 149.846 188.351 142.959 194.083L51.3427 270.621C50.2598 271.569 48.9169 272 47.6174 272Z" fill="#7D944D"/>
<ellipse cx="6" cy="74.5" rx="18" ry="17.5" fill="#7D944D"/>
<ellipse cx="242" cy="146.5" rx="12" ry="11.5" fill="#B4C48D"/>
<path d="M144.421 53.8605C130.587 40.0259 130.927 17.1545 145.201 2.8801C159.476 -11.3943 182.347 -11.7343 196.182 2.10028C198.503 4.42152 198.467 8.17141 196.171 10.4677C193.843 12.7951 190.094 12.769 187.803 10.4787C178.58 1.25569 163.208 1.58582 153.589 11.2055C143.938 20.8563 143.639 36.1969 152.862 45.42C155.183 47.7412 155.147 51.4911 152.851 53.7874C150.555 56.0837 146.743 56.1817 144.421 53.8605Z" fill="#B4C48D"/>
<path opacity="0.64" d="M388.009 49.8031C381.293 56.5187 370.739 58.4533 361.859 53.873C361.239 53.548 360.561 53.2819 359.912 53.1042C357.168 52.3051 354.279 52.6557 351.774 54.0389C349.269 55.422 347.473 57.6905 346.68 60.4319L346.416 61.3457C346.21 62.0237 346.004 62.7017 345.74 63.3796C343.388 69.5693 338.763 74.4296 332.722 77.1652C326.68 79.8419 319.927 80.0409 313.762 77.6456L310.665 76.4332C310.104 76.2262 309.544 76.0782 308.983 75.9301C306.063 75.3077 303.086 75.8647 300.611 77.5132C298.106 79.1323 296.428 81.6368 295.812 84.5553C295.548 85.764 295.195 86.9431 294.784 88.0631C292.637 93.6338 288.455 97.9933 283.003 100.376C277.55 102.758 271.506 102.899 265.93 100.74L255.93 96.8665C253.039 95.7428 251.59 92.4682 252.708 89.5797C253.825 86.6912 257.096 85.25 259.987 86.3736L269.988 90.2474C272.731 91.3414 275.739 91.2858 278.421 90.0798C281.132 88.9033 283.194 86.7235 284.282 83.9824C284.488 83.4224 284.664 82.8328 284.781 82.2432C285.984 76.3767 289.428 71.3382 294.438 68.1001C299.447 64.8031 305.431 63.7186 311.301 64.9341C312.421 65.1712 313.601 65.5263 314.722 65.9404L317.849 67.1233C321.212 68.4244 324.868 68.3105 328.169 66.8398C331.47 65.369 333.974 62.6885 335.267 59.3284C335.385 58.9746 335.532 58.5915 335.65 58.2378L335.914 57.324C337.529 51.6937 341.21 47.0094 346.367 44.1548C351.495 41.3297 357.45 40.6286 363.084 42.2565C364.471 42.6414 365.828 43.1736 367.096 43.8532C372.584 46.69 379.334 44.5449 382.159 39.0634C382.424 38.5034 382.688 37.9435 382.894 37.3245L385.891 27.892C386.832 24.9443 390.015 23.2965 392.964 24.2433C395.914 25.1902 397.598 28.3471 396.628 31.3242L393.631 40.7568C393.249 41.9653 392.779 43.1443 392.19 44.2641C390.983 46.3564 389.6 48.2125 388.009 49.8031Z" fill="#7D944D"/>
</g>
<defs>
<clipPath id="clip0_12_10727">
<rect width="375" height="812" fill="white"/>
</clipPath>
</defs>
</svg>
