<svg width="73" height="73" viewBox="0 0 73 73" fill="none" xmlns="http://www.w3.org/2000/svg">
<path d="M72.1212 44.7048C76.4792 25.2046 64.2041 5.86376 44.7039 1.50575C25.2038 -2.85226 5.86291 9.42287 1.5049 28.923C-2.85312 48.4232 9.42202 67.764 28.9222 72.1221C48.4223 76.4801 67.7632 64.2049 72.1212 44.7048Z" fill="#9BB168"/>
<path d="M20.3675 37.3231C18.8951 37.3231 17.7382 36.1136 17.7382 34.6938V28.3833C17.7382 26.9108 18.9477 25.7539 20.3675 25.7539C21.84 25.7539 22.9969 26.9634 22.9969 28.3833V34.6938C22.9969 36.1662 21.7874 37.3231 20.3675 37.3231Z" fill="#4F3422"/>
<path d="M53.2872 37.3231C51.8148 37.3231 50.6578 36.1136 50.6578 34.6938V28.3833C50.6578 26.9108 51.8673 25.7539 53.2872 25.7539C54.7597 25.7539 55.9166 26.9634 55.9166 28.3833V34.6938C55.9166 36.1662 54.7597 37.3231 53.2872 37.3231Z" fill="#4F3422"/>
<path d="M18.2639 45.8942C17.4751 45.8942 16.9493 46.683 17.2122 47.4193C18.7372 51.2056 23.9434 60.6713 36.7221 60.6713C49.5008 60.6713 54.8122 51.1004 56.3898 47.3141C56.7053 46.5779 56.1268 45.7891 55.338 45.7891L18.2639 45.8942Z" fill="#4F3422"/>
<mask id="mask0_12_10757" style="mask-type:luminance" maskUnits="userSpaceOnUse" x="17" y="45" width="40" height="16">
<path d="M18.2639 45.8942C17.4751 45.8942 16.9493 46.683 17.2122 47.4193C18.7372 51.2056 23.9434 60.6713 36.7221 60.6713C49.5008 60.6713 54.8122 51.1004 56.3898 47.3141C56.7053 46.5779 56.1268 45.7891 55.338 45.7891L18.2639 45.8942Z" fill="white"/>
</mask>
<g mask="url(#mask0_12_10757)">
<path d="M36.5644 67.0338C44.2609 67.0338 50.5001 63.6435 50.5001 59.4613C50.5001 55.279 44.2609 51.8887 36.5644 51.8887C28.868 51.8887 22.6288 55.279 22.6288 59.4613C22.6288 63.6435 28.868 67.0338 36.5644 67.0338Z" fill="#ED7E1C"/>
</g>
</svg>
