<svg width="25" height="24" viewBox="0 0 25 24" fill="none" xmlns="http://www.w3.org/2000/svg">
<path d="M2.5 22H13.5C18.4706 22 22.5 17.9706 22.5 13C22.5 8.02944 18.4706 4 13.5 4C8.86745 4 4.99744 7.50005 4.5 12" stroke="#C9C7C5" stroke-width="1.2" stroke-linecap="round"/>
<path d="M19 5.5L20 4.5M6 4.5L7 5.5" stroke="#C9C7C5" stroke-width="1.2" stroke-linecap="round" stroke-linejoin="round"/>
<path d="M17.0002 9L14.0609 11.9393M14.0609 11.9393C13.7895 11.6679 13.4145 11.5 13.0002 11.5C12.1718 11.5 11.5002 12.1716 11.5002 13C11.5002 13.8284 12.1718 14.5 13.0002 14.5C13.8287 14.5 14.5002 13.8284 14.5002 13C14.5002 12.5858 14.3324 12.2108 14.0609 11.9393Z" stroke="#C9C7C5" stroke-width="1.2" stroke-linecap="round"/>
<path d="M13 3.5V2" stroke="#C9C7C5" stroke-width="1.2" stroke-linecap="round" stroke-linejoin="round"/>
<path d="M11 2H15" stroke="#C9C7C5" stroke-width="1.2" stroke-linecap="round" stroke-linejoin="round"/>
<path d="M2.5 15H5.5" stroke="#C9C7C5" stroke-width="1.2" stroke-linecap="round" stroke-linejoin="round"/>
<path d="M2.5 19H7.5" stroke="#C9C7C5" stroke-width="1.2" stroke-linecap="round" stroke-linejoin="round"/>
</svg>
