<svg width="24" height="24" viewBox="0 0 24 24" fill="none" xmlns="http://www.w3.org/2000/svg">
<path d="M11.0001 15.9999C11.0001 15.4476 11.4478 14.9999 12.0001 14.9999C12.5524 14.9999 13.0001 15.4476 13.0001 15.9999C13.0001 16.5522 12.5524 16.9999 12.0001 16.9999C11.4478 16.9999 11.0001 16.5522 11.0001 15.9999Z" fill="#C9C7C5"/>
<path fill-rule="evenodd" clip-rule="evenodd" d="M3.70718 8.707C4.11675 8.29744 4.54907 7.9245 5.00008 7.58818V13.9999C5.00008 17.8659 8.13408 20.9999 12.0001 20.9999C15.8661 20.9999 19.0001 17.8659 19.0001 13.9999V7.58818C19.4511 7.9245 19.8834 8.29744 20.293 8.707L21.7072 7.29279C16.3461 1.9317 7.65406 1.9317 2.29297 7.29279L3.70718 8.707ZM12.0001 12.9999C10.3433 12.9999 9.00012 14.343 9.00012 15.9999C9.00012 17.6567 10.3433 18.9999 12.0001 18.9999C13.657 18.9999 15.0001 17.6567 15.0001 15.9999C15.0001 14.343 13.657 12.9999 12.0001 12.9999Z" fill="#C9C7C5"/>
</svg>
