<svg width="24" height="24" viewBox="0 0 24 24" fill="none" xmlns="http://www.w3.org/2000/svg">
<path d="M7.88673 8.5381C9.41617 8.5381 10.656 7.29825 10.656 5.76881C10.656 4.23937 9.41617 2.99951 7.88673 2.99951C6.35729 2.99951 5.11743 4.23937 5.11743 5.76881C5.11743 7.29825 6.35729 8.5381 7.88673 8.5381Z" stroke="#4F3422" stroke-width="1.2" stroke-linecap="round" stroke-linejoin="round"/>
<path d="M10.2218 16.8797L9.70685 20.9997H6.08296L5.39064 15.4611H3.04053V13.3841C3.04053 12.0988 3.55111 10.8661 4.45996 9.95729C5.36882 9.04843 6.60149 8.53784 7.8868 8.53784C9.1721 8.53784 10.4048 9.04843 11.3136 9.95729C12.0127 10.6563 12.4761 11.5469 12.6528 12.5057" stroke="#4F3422" stroke-width="1.2" stroke-linecap="round" stroke-linejoin="round"/>
<path d="M12.4087 16.1129C12.4087 15.4381 12.9557 14.8911 13.6304 14.8911H19.7393C20.414 14.8911 20.9609 15.4381 20.9609 16.1129V19.7782C20.9609 20.4529 20.414 20.9999 19.7393 20.9999H13.6304C12.9557 20.9999 12.4087 20.4529 12.4087 19.7782V16.1129Z" stroke="#4F3422" stroke-width="1.2" stroke-linecap="round" stroke-linejoin="round"/>
<path d="M15.0129 14.8912V13.9899C15.0129 13.2251 15.6329 12.6052 16.3976 12.6052H16.9689C17.7335 12.6052 18.3536 13.2251 18.3536 13.9899V14.8912" stroke="#4F3422" stroke-width="1.2" stroke-linecap="round" stroke-linejoin="round"/>
</svg>
