<svg width="24" height="24" viewBox="0 0 24 24" fill="none" xmlns="http://www.w3.org/2000/svg">
<path d="M1.57465 12.5108C1.34094 12.7457 1.34191 13.1256 1.57682 13.3593C1.81174 13.593 2.19164 13.5921 2.42535 13.3572L1.57465 12.5108ZM11.4299 2.08436L11.5911 1.50642L11.5911 1.50642L11.4299 2.08436ZM13.8166 2.75014L13.9778 2.1722V2.1722L13.8166 2.75014ZM14.8468 3.43407L14.3807 3.8119V3.8119L14.8468 3.43407ZM20.5981 12.3209L20.052 12.5695V12.5695L20.5981 12.3209ZM8.64297 3.54775L8.20169 3.14121V3.14121L8.64297 3.54775ZM10.8808 6.73838L10.783 6.14639H10.783L10.8808 6.73838ZM13.7348 8.05688L14.2108 7.69151L14.2108 7.69151L13.7348 8.05688ZM14.7126 11.6339L14.1163 11.6999V11.6999L14.7126 11.6339ZM15.4636 13.5688L15.1268 14.0653C15.3789 14.2363 15.7193 14.1912 15.9182 13.9604C16.1171 13.7296 16.1114 13.3863 15.9049 13.1622L15.4636 13.5688ZM7.7431 14.3211C7.53773 14.5811 7.58208 14.9584 7.84214 15.1638C8.1022 15.3692 8.4795 15.3248 8.68487 15.0648L7.7431 14.3211ZM7.60716 5.36638L7.01608 5.46945L7.60716 5.36638ZM21.7782 17.6039L22.3354 17.8262L21.7782 17.6039ZM17.5363 20.2457L17.724 20.8156L17.5363 20.2457ZM12.461 6.62413L12.6894 6.06932L12.6894 6.06932L12.461 6.62413ZM10.2045 20.3993L10.6352 20.8169L10.6352 20.8169L10.2045 20.3993ZM2.44129 19.9072C2.21677 19.6635 1.83719 19.6479 1.59347 19.8724C1.34975 20.097 1.33419 20.4765 1.55871 20.7203L2.44129 19.9072ZM10.3796 20.1545L10.5981 19.5957C10.3242 19.4886 10.0131 19.5958 9.86328 19.8488L10.3796 20.1545ZM10.3452 20.2125L9.82895 19.9068L9.82895 19.9068L10.3452 20.2125ZM10.7805 12.8284L10.9638 13.3997L10.7805 12.8284ZM11.2687 2.66229L13.6554 3.32807L13.9778 2.1722L11.5911 1.50642L11.2687 2.66229ZM14.3807 3.8119C16.9713 7.00771 18.6366 9.45957 20.052 12.5695L21.1442 12.0724C19.6713 8.8363 17.9392 6.29615 15.3129 3.05625L14.3807 3.8119ZM14.1163 11.6999C14.2007 12.4619 14.4457 13.3494 15.0223 13.9753L15.9049 13.1622C15.5801 12.8097 15.3814 12.222 15.309 11.5678L14.1163 11.6999ZM13.2589 8.42226C13.4546 8.6772 13.5927 8.85719 13.6901 8.99237C13.796 9.13951 13.8172 9.1853 13.8163 9.18292L14.9315 8.73982C14.8712 8.58799 14.7661 8.4332 14.664 8.2913C14.5532 8.13745 14.4015 7.93991 14.2108 7.69151L13.2589 8.42226ZM15.309 11.5678C15.2161 10.7286 15.1457 10.0934 15.0912 9.64971C15.064 9.42829 15.0399 9.24827 15.0183 9.11155C15.0008 9.00108 14.9755 8.85069 14.9315 8.73982L13.8163 9.18292C13.8019 9.14676 13.8106 9.15755 13.8331 9.29938C13.8514 9.41495 13.8734 9.57833 13.9002 9.79611C13.9536 10.2308 14.023 10.8571 14.1163 11.6999L15.309 11.5678ZM8.20169 3.14121C7.83767 3.53633 7.50841 3.89038 7.29586 4.2254C7.06162 4.59458 6.9331 4.99357 7.01608 5.46945L8.19825 5.26331C8.17942 5.15538 8.1896 5.05666 8.30912 4.86828C8.45032 4.64574 8.68986 4.38238 9.08424 3.95429L8.20169 3.14121ZM20.052 12.5695C20.6443 13.8707 21.0565 14.7811 21.2612 15.5429C21.4569 16.2713 21.4477 16.8132 21.2209 17.3815L22.3354 17.8262C22.6807 16.9611 22.6654 16.1446 22.4201 15.2315C22.1837 14.3518 21.72 13.3375 21.1442 12.0724L20.052 12.5695ZM17.724 20.8156C18.9257 20.4199 19.9075 20.0993 20.6522 19.6844C21.4358 19.2479 21.9905 18.6908 22.3354 17.8262L21.2209 17.3815C20.9939 17.9504 20.6509 18.3115 20.0682 18.6361C19.4467 18.9824 18.5936 19.2659 17.3487 19.6758L17.724 20.8156ZM10.9785 7.33036C11.4298 7.25586 11.736 7.20567 11.9624 7.18472C12.2032 7.16242 12.25 7.18614 12.2326 7.17894L12.6894 6.06932C12.4177 5.95745 12.1165 5.96532 11.8517 5.98983C11.5725 6.01568 11.2157 6.07495 10.783 6.14639L10.9785 7.33036ZM9.77371 19.9816C8.86029 20.9237 7.48956 21.4128 6.08836 21.3997C4.68729 21.3867 3.33061 20.8726 2.44129 19.9072L1.55871 20.7203C2.71412 21.9745 4.41138 22.5842 6.07722 22.5997C7.74294 22.6152 9.45208 22.0372 10.6352 20.8169L9.77371 19.9816ZM17.3487 19.6758C14.9894 20.4526 12.9767 20.5257 10.5981 19.5957L10.1611 20.7133C12.8402 21.7608 15.1442 21.665 17.724 20.8156L17.3487 19.6758ZM10.8615 20.5182L10.8959 20.4602L9.86328 19.8488L9.82895 19.9068L10.8615 20.5182ZM10.6352 20.8169C10.7275 20.7217 10.8017 20.6192 10.8616 20.5182L9.82895 19.9068C9.80906 19.9404 9.79018 19.9646 9.7737 19.9816L10.6352 20.8169ZM15.8005 13.0722C14.7679 12.3717 12.7102 11.5789 10.5971 12.2571L10.9638 13.3997C12.6088 12.8717 14.2812 13.4916 15.1268 14.0653L15.8005 13.0722ZM10.5971 12.2571C9.59305 12.5794 8.60794 13.2259 7.7431 14.3211L8.68487 15.0648C9.41056 14.1458 10.1998 13.645 10.9638 13.3997L10.5971 12.2571ZM11.1921 12.3919C9.92727 11.1989 8.1164 10.6404 6.35796 10.6593C4.59963 10.6781 2.80374 11.2754 1.57465 12.5108L2.42535 13.3572C3.3829 12.3947 4.84947 11.8755 6.37083 11.8592C7.89208 11.8429 9.37811 12.3305 10.3688 13.2649L11.1921 12.3919ZM12.2326 7.17894C12.3495 7.2271 12.498 7.35728 12.6914 7.61332C12.7829 7.73442 12.8708 7.86451 12.9655 8.00501C13.0561 8.13941 13.1567 8.28911 13.2589 8.42226L14.2108 7.69151C14.1355 7.59345 14.0565 7.47664 13.9606 7.33428C13.8687 7.19802 13.7631 7.04111 13.6489 6.89C13.4311 6.60165 13.1201 6.24666 12.6894 6.06932L12.2326 7.17894ZM13.6554 3.32807C13.9928 3.42218 14.0407 3.44355 14.0741 3.46575C14.1105 3.48995 14.1531 3.53123 14.3807 3.8119L15.3129 3.05625C15.1302 2.8309 14.9622 2.61515 14.7383 2.46636C14.5115 2.31556 14.2494 2.24797 13.9778 2.1722L13.6554 3.32807ZM11.5911 1.50642C10.7295 1.26609 10.0535 1.4548 9.49334 1.85112C8.99863 2.20115 8.56269 2.74936 8.20169 3.14121L9.08424 3.95429C9.54473 3.45446 9.82946 3.0833 10.1864 2.83071C10.478 2.62442 10.7847 2.52728 11.2687 2.66229L11.5911 1.50642ZM7.01608 5.46945C7.18493 6.43771 8.05559 6.92541 8.78044 7.15086C9.5366 7.38604 10.3954 7.42664 10.9785 7.33036L10.783 6.14639C10.389 6.21144 9.71911 6.18611 9.13683 6.005C8.52321 5.81415 8.24566 5.53519 8.19825 5.26331L7.01608 5.46945Z" fill="#4F3422"/>
</svg>
