<svg width="24" height="24" viewBox="0 0 24 24" fill="none" xmlns="http://www.w3.org/2000/svg">
<g clip-path="url(#clip0_517_4923)">
<path d="M5.37271 5.10231V5.1023C5.37229 3.26967 6.86343 1.77893 8.6961 1.77893C10.5287 1.77893 12.0195 3.27009 12.0195 5.10231C12.0195 6.93496 10.5283 8.4257 8.6961 8.4257C6.86388 8.4257 5.37271 6.93453 5.37271 5.10231ZM8.6961 9.27963C10.9996 9.27963 12.8734 7.40581 12.8734 5.10231C12.8734 2.79882 10.9996 0.925 8.6961 0.925C6.3926 0.925 4.51878 2.79882 4.51878 5.10231C4.51878 7.40581 6.3926 9.27963 8.6961 9.27963ZM23.3247 17.9919C23.3247 15.5904 21.6516 13.5738 19.41 13.0447V12.2443H19.4168C20.0611 12.2443 20.5846 11.7203 20.5846 11.0765C20.5846 10.4319 20.0607 9.90738 19.4168 9.90738H17.0664C16.422 9.90738 15.8986 10.4319 15.8986 11.0765C15.8986 11.7208 16.4226 12.2443 17.0664 12.2443H17.074V13.0446C16.7456 13.1219 16.4296 13.2313 16.1293 13.3693C15.6989 12.492 15.0529 11.7392 14.2412 11.1744C13.2769 10.5035 12.1476 10.1491 10.9753 10.1491H6.41645C3.25129 10.1491 0.67616 12.7237 0.67616 15.8885V20.3924C0.67616 21.0745 1.23089 21.6288 1.91252 21.6288H14.6946C15.6108 22.523 16.8631 23.0748 18.2418 23.0748C21.0445 23.0748 23.3247 20.7946 23.3247 17.9919ZM16.7521 11.0761C16.7521 10.9019 16.8932 10.7604 17.0664 10.7604H19.4168C19.5896 10.7604 19.7311 10.902 19.7311 11.0761C19.7311 11.2491 19.5902 11.3904 19.4168 11.3904H17.0664C16.8929 11.3904 16.7521 11.2495 16.7521 11.0761ZM17.9279 12.2439H18.5566V12.918C18.4526 12.9116 18.3476 12.9085 18.2422 12.9085C18.1366 12.9085 18.0319 12.9119 17.9279 12.9182V12.2439ZM1.52965 20.3915V15.8876C1.52965 13.1937 3.72166 11.0021 6.41645 11.0021H10.9753C12.8471 11.0021 14.5766 12.1097 15.3839 13.7904C14.0421 14.7061 13.1589 16.2475 13.1589 17.9915C13.1589 19.018 13.465 19.9743 13.9907 20.7744H12.2626V16.2527C12.2626 16.0172 12.0718 15.8258 11.8357 15.8258C11.5996 15.8258 11.4087 16.0167 11.4087 16.2527V20.7744H5.98173V16.2527C5.98173 16.0172 5.79091 15.8258 5.55477 15.8258C5.31869 15.8258 5.1278 16.0167 5.1278 16.2527V20.7744H1.91252C1.70167 20.7744 1.52965 20.6027 1.52965 20.3915ZM18.2418 22.2205C15.91 22.2205 14.0128 20.3233 14.0128 17.9915C14.0128 15.6596 15.91 13.7625 18.2418 13.7625C20.5736 13.7625 22.4712 15.6597 22.4712 17.9915C22.4712 20.3233 20.5736 22.2205 18.2418 22.2205ZM20.9086 18.4184C21.1447 18.4184 21.3355 18.227 21.3355 17.9915C21.3355 17.7559 21.1447 17.5645 20.9086 17.5645H18.6688V15.3247C18.6688 15.0886 18.4779 14.8977 18.2418 14.8977C18.0057 14.8977 17.8148 15.0891 17.8148 15.3247V17.9915C17.8148 18.2276 18.0062 18.4184 18.2418 18.4184H20.9086Z" fill="#4F3422" stroke="#4F3422" stroke-width="0.15"/>
</g>
<defs>
<clipPath id="clip0_517_4923">
<rect width="24" height="24" fill="white"/>
</clipPath>
</defs>
</svg>
