<svg width="24" height="24" viewBox="0 0 24 24" fill="none" xmlns="http://www.w3.org/2000/svg">
    <mask id="mask0_517_4893" style="mask-type:luminance" maskUnits="userSpaceOnUse" x="1" y="2"
        width="21" height="20">
        <path d="M1.99988 1.99993H21.9999V22H1.99988V1.99993Z" fill="white" />
    </mask>
    <g mask="url(#mask0_517_4893)">
        <path
            d="M21.0788 16.2075H19.6913C19.2152 16.2075 18.8293 15.8216 18.8293 15.3455C18.8293 14.8694 19.2152 14.4835 19.6913 14.4835H21.0788C21.4245 14.4835 21.7048 14.7637 21.7048 15.1094V15.5816C21.7048 15.9273 21.4245 16.2075 21.0788 16.2075Z"
            stroke="#4F3422" stroke-width="0.9" stroke-miterlimit="10" stroke-linecap="round"
            stroke-linejoin="round" />
        <path
            d="M20.7731 17.9326H19.6913C19.2152 17.9326 18.8293 17.5467 18.8293 17.0706V17.0706C18.8293 16.5945 19.2152 16.2086 19.6913 16.2086H20.7731C21.1188 16.2086 21.399 16.4888 21.399 16.8345V17.3067C21.399 17.6524 21.1188 17.9326 20.7731 17.9326Z"
            stroke="#4F3422" stroke-width="0.9" stroke-miterlimit="10" stroke-linecap="round"
            stroke-linejoin="round" />
        <path d="M15.9548 13.748C15.7261 13.616 15.5373 13.4247 15.4081 13.1944" stroke="#4F3422"
            stroke-width="0.9" stroke-miterlimit="10" stroke-linecap="round"
            stroke-linejoin="round" />
        <path d="M17.9471 12.3L17.9472 12.8329L17.9472 13.2451" stroke="#4F3422" stroke-width="0.9"
            stroke-miterlimit="10" stroke-linecap="round" stroke-linejoin="round" />
        <path
            d="M19.6004 12.7613H21.0812C21.4269 12.7613 21.7072 13.0416 21.7072 13.3873V13.8594C21.7072 14.2051 21.4269 14.4854 21.0812 14.4854H19.6937C19.6154 14.4854 19.5394 14.4749 19.4673 14.4553"
            stroke="#4F3422" stroke-width="0.9" stroke-miterlimit="10" stroke-linecap="round"
            stroke-linejoin="round" />
        <path d="M16.5311 2.86706V4.59277" stroke="#4F3422" stroke-width="0.9"
            stroke-miterlimit="10" stroke-linecap="round" stroke-linejoin="round" />
        <path d="M18.2596 2.88992V4.59277" stroke="#4F3422" stroke-width="0.9"
            stroke-miterlimit="10" stroke-linecap="round" stroke-linejoin="round" />
        <path d="M19.9816 3.4423V4.59277" stroke="#4F3422" stroke-width="0.9" stroke-miterlimit="10"
            stroke-linecap="round" stroke-linejoin="round" />
        <path d="M14.8026 3.4429V6.33447" stroke="#4F3422" stroke-width="0.9" stroke-miterlimit="10"
            stroke-linecap="round" stroke-linejoin="round" />
        <path d="M6.607 17.0112L5.52844 15.7747" stroke="#4F3422" stroke-width="0.9"
            stroke-miterlimit="10" stroke-linecap="round" stroke-linejoin="round" />
        <path d="M20.5578 18.9858V17.9328" stroke="#4F3422" stroke-width="0.9"
            stroke-miterlimit="10" stroke-linecap="round" stroke-linejoin="round" />
        <path
            d="M15.9549 13.7473V21.6634C15.9549 21.6875 15.9745 21.707 15.9985 21.707H20.5132C20.5373 21.707 20.5568 21.6875 20.5568 21.6634V20.3524"
            stroke="#4F3422" stroke-width="0.9" stroke-miterlimit="10" stroke-linecap="round"
            stroke-linejoin="round" />
        <path
            d="M15.6424 10.0331L15.7933 10.184C15.845 10.2356 15.886 10.297 15.9139 10.3645C15.9419 10.4319 15.9563 10.5043 15.9563 10.5773V11.043"
            stroke="#4F3422" stroke-width="0.9" stroke-miterlimit="10" stroke-linecap="round"
            stroke-linejoin="round" />
        <path
            d="M20.5586 11.0366V10.2812C20.5586 10.137 20.6135 9.99752 20.7148 9.8949C21.3295 9.27201 21.709 8.4163 21.709 7.47196V3.44347C21.709 3.11316 21.4413 2.84538 21.111 2.84538H20.5833C20.253 2.84538 19.9853 3.11316 19.9853 3.44347V2.89105C19.9853 2.56077 19.7175 2.293 19.3872 2.293H18.8576C18.5273 2.293 18.2595 2.56077 18.2595 2.89105C18.2595 2.56077 17.9917 2.293 17.6614 2.293H17.1327C16.8024 2.293 16.5347 2.56077 16.5347 2.89105V2.89093C16.5347 2.56069 16.267 2.293 15.9367 2.293H15.4059C15.0757 2.293 14.808 2.56069 14.808 2.89093L14.8062 3.44347L13.8238 4.09839C13.5952 4.25082 13.4077 4.45735 13.278 4.69963C13.1484 4.94192 13.0805 5.21247 13.0805 5.48727V6.59465C13.0805 7.1552 13.3032 7.69274 13.6996 8.08911L14.6518 9.0413"
            stroke="#4F3422" stroke-width="0.9" stroke-miterlimit="10" stroke-linecap="round"
            stroke-linejoin="round" />
        <path
            d="M7.88882 12.4165L4.91885 12.4171C3.46845 12.4173 2.29279 13.5932 2.29279 15.0436V21.6633C2.29279 21.6875 2.31236 21.707 2.33654 21.707H6.56327C6.58745 21.707 6.60702 21.6875 6.60702 21.6633V17.0115L14.2332 17.0122C14.445 17.0122 14.6507 17.0825 14.8183 17.2121C15.1574 17.4749 15.5428 17.672 15.9546 17.793"
            stroke="#4F3422" stroke-width="0.9" stroke-miterlimit="10" stroke-linecap="round"
            stroke-linejoin="round" />
        <path
            d="M15.9542 13.7487C16.1528 13.8635 16.3761 13.9291 16.6053 13.9399C17.1663 13.9662 17.6613 13.6742 17.9252 13.2289C17.931 13.2191 17.9458 13.2228 17.9458 13.2342V13.247C17.9459 13.931 18.5004 14.4854 19.1844 14.4854H19.3471C19.3803 14.4854 19.4131 14.4789 19.4438 14.4662C19.4745 14.4535 19.5023 14.4349 19.5258 14.4114C19.5492 14.3879 19.5679 14.3601 19.5805 14.3294C19.5932 14.2987 19.5998 14.2659 19.5997 14.2327V11.715C19.5998 11.3421 19.2973 11.0399 18.9244 11.0403L15.9014 11.0436C15.6558 11.0436 15.4146 11.1082 15.202 11.231C14.9894 11.3537 14.8128 11.5303 14.6901 11.743L14.6797 11.7609C14.5646 11.9603 14.399 12.1259 14.1997 12.241C14.0004 12.3562 13.7743 12.417 13.5441 12.4171L9.25568 12.4178"
            stroke="#4F3422" stroke-width="0.9" stroke-miterlimit="10" stroke-linecap="round"
            stroke-linejoin="round" />
        <path
            d="M18.8521 11.0362H21.0795C21.4252 11.0362 21.7054 11.3165 21.7054 11.6622V12.1343C21.7054 12.48 21.4252 12.7603 21.0795 12.7603"
            stroke="#4F3422" stroke-width="0.9" stroke-miterlimit="10" stroke-linecap="round"
            stroke-linejoin="round" />
    </g>
</svg>
