<svg width="24" height="24" viewBox="0 0 24 24" fill="none" xmlns="http://www.w3.org/2000/svg">
<path d="M4.60991 9.33338C3.97326 9.678 2.30401 10.3817 3.3207 11.2622C3.81734 11.6924 4.37047 12 5.06589 12H9.03411C9.72953 12 10.2827 11.6924 10.7793 11.2622C11.796 10.3817 10.1267 9.678 9.49009 9.33338C7.99717 8.52524 6.10283 8.52524 4.60991 9.33338Z" stroke="#C9C7C5" stroke-width="1.2"/>
<path d="M9.075 5.04545C9.075 6.17513 8.16838 7.09091 7.05 7.09091C5.93162 7.09091 5.025 6.17513 5.025 5.04545C5.025 3.91578 5.93162 3 7.05 3C8.16838 3 9.075 3.91578 9.075 5.04545Z" stroke="#C9C7C5" stroke-width="1.2"/>
<path d="M4.80005 14.7C4.80005 17.6854 7.21462 20.1 10.2 20.1L9.42862 18.5571" stroke="#C9C7C5" stroke-width="1.2" stroke-linecap="round" stroke-linejoin="round"/>
<path d="M19.2 9.30003C19.2 6.3146 16.7855 3.90002 13.8 3.90002L14.5715 5.44288" stroke="#C9C7C5" stroke-width="1.2" stroke-linecap="round" stroke-linejoin="round"/>
<path d="M14.5098 18.3334C13.8732 18.678 12.2039 19.3817 13.2206 20.2622C13.7172 20.6924 14.2704 21 14.9658 21H18.934C19.6294 21 20.1826 20.6924 20.6792 20.2622C21.6959 19.3817 20.0266 18.678 19.39 18.3334C17.8971 17.5252 16.0027 17.5252 14.5098 18.3334Z" stroke="#C9C7C5" stroke-width="1.2"/>
<path d="M18.9749 14.0455C18.9749 15.1751 18.0683 16.0909 16.9499 16.0909C15.8315 16.0909 14.9249 15.1751 14.9249 14.0455C14.9249 12.9158 15.8315 12 16.9499 12C18.0683 12 18.9749 12.9158 18.9749 14.0455Z" stroke="#C9C7C5" stroke-width="1.2"/>
</svg>
