<svg width="24" height="24" viewBox="0 0 24 24" fill="none" xmlns="http://www.w3.org/2000/svg">
<path d="M10.5212 3.98479C11.1033 2.67174 12.8967 2.67174 13.4788 3.98479L14.6047 6.52474C14.8419 7.05989 15.3293 7.42835 15.8918 7.49774L18.5612 7.82708C19.9412 7.99733 20.4955 9.77216 19.4752 10.7539L17.5016 12.653C17.0858 13.0532 16.8996 13.6494 17.01 14.2274L17.5339 16.9709C17.8047 18.3892 16.3537 19.4861 15.1411 18.7798L12.7954 17.4135C12.3012 17.1257 11.6988 17.1257 11.2046 17.4135L8.85887 18.7798C7.64626 19.4861 6.19531 18.3892 6.46614 16.9709L6.99003 14.2274C7.10041 13.6494 6.91424 13.0532 6.49842 12.653L4.52482 10.7539C3.50455 9.77216 4.05876 7.99733 5.43876 7.82708L8.10823 7.49774C8.67066 7.42835 9.15806 7.05989 9.39528 6.52474L10.5212 3.98479Z" stroke="#4F3422" stroke-width="2" stroke-linejoin="round"/>
</svg>
