<svg width="24" height="24" viewBox="0 0 24 24" fill="none" xmlns="http://www.w3.org/2000/svg">
<path d="M13.8 3.90002H10.2C6.80589 3.90002 5.10883 3.90002 4.05442 4.95444C3 6.00886 3 7.70591 3 11.1C3 14.4941 3 16.1912 4.05442 17.2456C5.10883 18.3 6.80589 18.3 10.2 18.3H13.8C17.1941 18.3 18.8912 18.3 19.9456 17.2456C21 16.1912 21 14.4941 21 11.1C21 7.70591 21 6.00886 19.9456 4.95444C18.8912 3.90002 17.1941 3.90002 13.8 3.90002Z" stroke="#C9C7C5" stroke-width="1.2" stroke-linecap="round"/>
<path d="M16.4099 15.1501C16.4099 14.3548 17.0546 13.7101 17.8499 13.7101M13.5299 15.1501C13.5299 12.7642 15.464 10.8301 17.8499 10.8301M10.6499 15.1501C10.6499 11.1736 13.8735 7.95007 17.8499 7.95007" stroke="#C9C7C5" stroke-width="1.2" stroke-linecap="round"/>
<path d="M17.3999 18.3002L18.2999 20.1002" stroke="#C9C7C5" stroke-width="1.2" stroke-linecap="round" stroke-linejoin="round"/>
<path d="M6.6001 18.3002L5.7001 20.1002" stroke="#C9C7C5" stroke-width="1.2" stroke-linecap="round" stroke-linejoin="round"/>
</svg>
