<svg width="24" height="24" viewBox="0 0 24 24" fill="none" xmlns="http://www.w3.org/2000/svg">
    <path fill-rule="evenodd" clip-rule="evenodd"
        d="M7.35318 6.2307C7.55552 6.04642 7.7711 5.87722 7.99818 5.72445C8.25286 5.56619 8.47375 5.35916 8.64815 5.11525C8.82256 4.87135 8.94703 4.59538 9.01443 4.3032C9.14193 3.6507 8.91693 2.90445 8.35068 2.0907C8.31087 2.0344 8.28736 1.9682 8.28272 1.89939C8.27809 1.83059 8.29252 1.76184 8.32443 1.7007C8.35693 1.64053 8.40513 1.59028 8.46389 1.55528C8.52265 1.52029 8.58979 1.50186 8.65818 1.50195H8.66568C8.70693 1.50195 12.8619 1.62945 13.9869 5.6532C14.1435 6.24211 14.2017 6.85282 14.1594 7.4607C14.1107 8.6082 14.3469 10.4345 16.2069 11.1732C15.6932 10.4082 15.3557 9.1707 16.1544 7.31445C16.1757 7.26746 16.2062 7.22528 16.2442 7.19047C16.2823 7.15566 16.327 7.12894 16.3757 7.11195C16.4242 7.09362 16.476 7.0858 16.5277 7.08904C16.5794 7.09227 16.6299 7.10647 16.6757 7.1307C16.6763 7.13103 16.6774 7.13165 16.679 7.13256C16.8493 7.22629 22.6323 10.4098 20.4969 16.7232C18.6932 22.0557 13.7582 22.4982 12.1794 22.4982C11.9507 22.4982 11.7932 22.4907 11.7257 22.4832C11.2494 22.517 6.34068 22.7307 3.99693 18.2682C3.22288 16.7493 2.90618 15.0384 3.08523 13.343C3.26428 11.6477 3.9314 10.0407 5.00568 8.71695C5.72235 7.82843 6.50723 6.99716 7.35318 6.2307Z"
        fill="white" />
</svg>
