<svg width="18" height="22" viewBox="0 0 18 22" fill="none" xmlns="http://www.w3.org/2000/svg">
<path fill-rule="evenodd" clip-rule="evenodd" d="M9.38681 4.85547C8.05478 4.85547 6.98056 3.78125 6.98056 2.44922C6.98056 1.07422 8.05478 0 9.38681 0C10.7188 0 11.7931 1.07422 11.7931 2.44922C11.7931 3.78125 10.7188 4.85547 9.38681 4.85547ZM10.7188 22C9.90243 22 9.21493 21.3125 9.21493 20.4531V19.9375C9.21493 19.1211 9.2579 16.8008 9.17196 16.3711L6.29306 13.75C5.51962 13.1914 5.77743 11.5586 5.8204 11.3867C5.94931 10.6992 6.12118 9.75391 6.25009 9.10938C6.16415 9.15234 6.12118 9.23828 6.12118 9.28125L5.21884 12.0742C5.04696 12.6758 4.48837 13.0625 3.88681 13.0625C3.71493 13.0625 3.58603 13.0195 3.45712 12.9766C2.72665 12.7617 2.29696 11.9453 2.55478 11.2148L3.67196 7.64844C3.80087 7.26172 4.96103 6.53125 5.56259 6.1875C6.25009 5.75781 7.58212 5.11328 8.65634 5.11328C9.60165 5.11328 10.2032 5.58594 10.3751 6.44531C10.461 6.83203 10.2032 8.89453 10.0743 9.75391C9.98837 10.4844 9.85946 11.2148 9.77353 11.7305C9.68759 12.2031 9.64462 12.4609 9.60165 12.6328L11.7071 14.5234C11.7501 14.5664 12.3087 15.082 12.2657 15.8125V20.4531C12.2657 21.3125 11.5782 22 10.7188 22Z" fill="white"/>
<path fill-rule="evenodd" clip-rule="evenodd" d="M4.40219 21.9569C4.23031 21.9569 4.10141 21.9569 3.92953 21.871C3.54281 21.7421 3.24203 21.4413 3.07016 21.0546C2.89828 20.7108 2.89828 20.2382 3.02719 19.8515L5.17563 13.8358C5.17563 13.7499 5.26156 13.664 5.39047 13.664C5.47641 13.621 5.56234 13.664 5.64828 13.7499L7.02328 15.1679L7.53891 15.7265C7.62484 15.8124 7.66781 15.8983 7.62484 16.0272L5.90609 20.8827C5.77719 21.2694 5.47641 21.6132 5.13266 21.7851C4.87484 21.914 4.66 21.9569 4.40219 21.9569ZM14.242 13.1054C14.0272 13.1054 13.8123 13.0624 13.6834 12.9335L10.5897 10.6991C10.4608 10.6132 10.4178 10.4843 10.4608 10.3983L10.8475 8.07803C10.8475 7.99209 10.9334 7.90615 11.0194 7.86319C11.1053 7.82022 11.2342 7.82022 11.3202 7.90615L15.1014 10.7851C15.5741 11.1718 15.66 11.9022 15.2733 12.5038C15.0155 12.8905 14.6287 13.1054 14.242 13.1054Z" fill="white"/>
<path fill-rule="evenodd" clip-rule="evenodd" d="M16.8203 22H1.17969C1.05078 22 0.878906 21.8711 0.878906 21.6992C0.878906 21.5273 1.05078 21.3984 1.17969 21.3984H16.8203C16.9492 21.3984 17.1211 21.5273 17.1211 21.6992C17.1211 21.8711 16.9492 22 16.8203 22Z" fill="white"/>
</svg>
