<svg width="375" height="812" viewBox="0 0 375 812" fill="none" xmlns="http://www.w3.org/2000/svg">
    <g clip-path="url(#clip0_160_5246)">
        <rect width="375" height="812" fill="#7DB9E8" />
        <rect opacity="0.64" x="-138" y="183.822" width="138.036" height="269.192" rx="69.018"
            transform="rotate(-43.962 -138 183.822)" fill="#9FD3FC" />
        <rect opacity="0.64" x="223.295" y="872.631" width="198.428" height="386.966" rx="99.2141"
            transform="rotate(-107.69 223.295 872.631)" fill="#9FD3FC" />
        <rect opacity="0.64" x="483.709" y="227.574" width="83.7452" height="281.006" rx="41.8726"
            transform="rotate(135.543 483.709 227.574)" fill="#9FD3FC" />
        <rect opacity="0.64" x="123.521" y="630" width="89.9345" height="214.785" rx="44.9673"
            transform="rotate(81.6736 123.521 630)" fill="#9FD3FC" />
        <rect opacity="0.64" x="408.775" y="360" width="83.7223" height="150.887" rx="41.8612"
            transform="rotate(83.0412 408.775 360)" fill="#9FD3FC" />
        <circle opacity="0.64" cx="124" cy="510" r="91" fill="#9FD3FC" />
        <circle opacity="0.64" cx="109.5" cy="26.5" r="53.5" fill="#9FD3FC" />
        <circle opacity="0.64" cx="227.5" cy="286.5" r="31.5" fill="#9FD3FC" />
        <path opacity="0.64" fill-rule="evenodd" clip-rule="evenodd"
            d="M292.5 577.692C299.233 577.692 304.692 572.233 304.692 565.5C304.692 558.767 299.233 553.308 292.5 553.308C285.767 553.308 280.308 558.767 280.308 565.5C280.308 572.233 285.767 577.692 292.5 577.692ZM292.5 589C305.479 589 316 578.479 316 565.5C316 552.521 305.479 542 292.5 542C279.521 542 269 552.521 269 565.5C269 578.479 279.521 589 292.5 589Z"
            fill="#9FD3FC" />
        <path opacity="0.64" fill-rule="evenodd" clip-rule="evenodd"
            d="M186.5 145.692C193.233 145.692 198.692 140.233 198.692 133.5C198.692 126.767 193.233 121.308 186.5 121.308C179.767 121.308 174.308 126.767 174.308 133.5C174.308 140.233 179.767 145.692 186.5 145.692ZM186.5 157C199.479 157 210 146.479 210 133.5C210 120.521 199.479 110 186.5 110C173.521 110 163 120.521 163 133.5C163 146.479 173.521 157 186.5 157Z"
            fill="#9FD3FC" />
        <path opacity="0.64" fill-rule="evenodd" clip-rule="evenodd"
            d="M113.5 793.692C120.233 793.692 125.692 788.233 125.692 781.5C125.692 774.767 120.233 769.308 113.5 769.308C106.767 769.308 101.308 774.767 101.308 781.5C101.308 788.233 106.767 793.692 113.5 793.692ZM113.5 805C126.479 805 137 794.479 137 781.5C137 768.521 126.479 758 113.5 758C100.521 758 90 768.521 90 781.5C90 794.479 100.521 805 113.5 805Z"
            fill="#9FD3FC" />
    </g>
    <defs>
        <clipPath id="clip0_160_5246">
            <rect width="375" height="812" fill="white" />
        </clipPath>
    </defs>
</svg>
