<svg width="112" height="83" viewBox="0 0 112 83" fill="none" xmlns="http://www.w3.org/2000/svg">
<rect y="53" width="6" height="30" rx="3" fill="#E4F3FF"/>
<rect x="6" y="70" width="6" height="13" rx="3" fill="#9FD3FC"/>
<rect x="40" y="49" width="6" height="34" rx="3" fill="#E4F3FF"/>
<rect x="46" y="58" width="6" height="25" rx="3" fill="#9FD3FC"/>
<rect x="60" y="35" width="6" height="48" rx="3" fill="#E4F3FF"/>
<rect x="66" y="66" width="6" height="17" rx="3" fill="#9FD3FC"/>
<rect x="100" y="37" width="6" height="46" rx="3" fill="#E4F3FF"/>
<rect x="106" y="49" width="6" height="34" rx="3" fill="#9FD3FC"/>
<rect x="86" y="63" width="6" height="20" rx="3" fill="#9FD3FC"/>
<rect x="80" y="20" width="6" height="63" rx="3" fill="#E4F3FF"/>
<rect x="20" width="6" height="83" rx="3" fill="#E4F3FF"/>
<rect x="26" y="20" width="6" height="63" rx="3" fill="#9FD3FC"/>
</svg>
