<svg width="24" height="24" viewBox="0 0 24 24" fill="none" xmlns="http://www.w3.org/2000/svg">
<g clip-path="url(#clip0_173_3918)">
<path d="M13.5934 17.0046C14.6722 17.374 15.6249 17.6093 16.9936 18.0299C16.4678 24.674 10.1851 22.0354 13.5934 17.0046ZM19.2028 10.9012C19.132 8.90624 18.7806 6.28935 15.9817 6.69939C14.6697 7.0418 13.7003 8.48274 13.2443 10.9688C12.9939 12.3357 13.1395 14.2543 13.4349 15.4045C13.7046 16.215 13.6129 16.1651 13.9028 16.3191C15.0247 16.5718 16.1354 16.8516 17.2665 17.1369C18.4155 16.3255 19.3592 12.0176 19.2028 10.9012ZM10.5653 10.7481C10.8605 9.59778 11.0061 7.67914 10.7558 6.31239C10.3002 3.82622 9.33065 2.38505 8.01838 2.04287C5.21951 1.63283 4.86813 4.24968 4.79729 6.24473C4.64088 7.36094 5.5847 11.6691 6.73385 12.4804C7.86485 12.1951 8.97539 11.9155 10.0977 11.6625C10.3872 11.5088 10.2955 11.5586 10.5653 10.7481ZM7.00643 13.3736C7.53206 20.0176 13.8147 17.3791 10.4065 12.3483C9.32766 12.7178 8.37511 12.9531 7.00643 13.3736Z" fill="#4F3422"/>
</g>
<defs>
<clipPath id="clip0_173_3918">
<rect width="20" height="20" fill="white" transform="translate(2 2)"/>
</clipPath>
</defs>
</svg>
