<svg width="24" height="22" viewBox="0 0 24 22" fill="none" xmlns="http://www.w3.org/2000/svg">
<path d="M11.0535 5.14941C7.82018 5.14941 5.1897 7.77989 5.1897 11.0132C5.1897 14.2466 7.82018 16.877 11.0535 16.877C14.2868 16.877 16.9173 14.2466 16.9173 11.0132C16.9173 7.77989 14.2868 5.14941 11.0535 5.14941ZM12.4884 12.4352C12.4234 12.5003 12.3463 12.5519 12.2614 12.5871C12.1764 12.6223 12.0854 12.6404 11.9935 12.6402C11.9015 12.6404 11.8105 12.6223 11.7255 12.5871C11.6406 12.552 11.5634 12.5003 11.4985 12.4352L10.5586 11.4952C10.4273 11.364 10.3536 11.1859 10.3535 11.0003V8.94709C10.3535 8.56053 10.6669 8.24714 11.0535 8.24714C11.4401 8.24714 11.7535 8.56053 11.7535 8.94709V10.7104L12.4884 11.4453C12.7617 11.7187 12.7617 12.1619 12.4884 12.4352Z" fill="white"/>
<path d="M23.7411 9.87198C23.4678 9.59867 23.0246 9.59867 22.7512 9.87198L22.0444 10.5788C21.9404 7.7989 20.8091 5.20053 18.8312 3.22259C16.7537 1.14508 13.9916 0.000976562 11.0536 0.000976562C8.11557 0.000976562 5.35345 1.14512 3.27594 3.22259C1.19842 5.30006 0.0543213 8.06227 0.0543213 11.0003C0.0543213 13.9383 1.19847 16.7004 3.27594 18.7779C5.35341 20.8555 8.11562 21.9996 11.0536 21.9996C11.4402 21.9996 11.7536 21.6862 11.7536 21.2996C11.7536 20.913 11.4402 20.5996 11.0536 20.5996C5.7605 20.5996 1.45423 16.2934 1.45423 11.0003C1.45423 5.70715 5.7605 1.40089 11.0536 1.40089C16.1991 1.40089 20.4115 5.47043 20.6425 10.5599L19.9546 9.87198C19.6813 9.59867 19.2381 9.59867 18.9647 9.87198C18.6914 10.1453 18.6914 10.5885 18.9647 10.8619L20.858 12.7551C20.9947 12.8918 21.1738 12.9601 21.3529 12.9601C21.532 12.9601 21.7112 12.8918 21.8478 12.7551L23.7411 10.8619C24.0145 10.5886 24.0145 10.1453 23.7411 9.87198Z" fill="white"/>
</svg>
