<svg width="375" height="812" viewBox="0 0 375 812" fill="none" xmlns="http://www.w3.org/2000/svg">
<g clip-path="url(#clip0_824_8862)">
<rect width="375" height="812" fill="#FFC89E"/>
<path d="M219.382 1C200.426 5.47601 181.354 9.55317 161.966 12.3451C107.434 20.4551 56.3656 43.4113 6.22001 79.8842C-66.0554 132.311 -133.31 196.837 -208.5 235.703V478.293C-129.502 417.579 -71.1623 315.03 -3.47443 225.776C118.86 63.6642 279.886 82.5875 429.486 25.8618C446.595 19.1256 462.983 10.6168 478.91 1L219.382 1Z" fill="#FFDABE"/>
<path d="M406.634 160.939C327.434 214.962 248.234 256.841 166.38 298.721C94.22 336.523 36.14 405.436 -26.3256 479.711C-82.2705 545.078 -138.244 616.562 -208.5 625.957V811.999H-170.703C-148.689 757.844 -111.498 721.726 -72.98 698.548C-37.78 678.295 -3.47442 659.372 29.9656 629.68C38.7656 622.943 45.8056 612.13 54.6056 602.646C98.6056 559.437 137.326 522.964 181.326 479.711C206.86 455.381 229.74 433.799 257.006 422.985C340.62 387.886 407.471 318.973 481.42 254.138C513.677 225.952 548.213 211.15 583.5 205.744V115.869C522.939 112.855 462.81 121.985 406.634 160.939Z" fill="#FFDABE"/>
<path d="M420.714 608.053C367.914 653.966 308.074 652.636 252.649 682.329C226.249 697.175 192.636 707.013 159.138 746.455C143.327 765.068 134.296 789.797 121.168 812H583.5V501.427C576.806 502.224 570.055 503.51 563.246 505.371C508.714 518.888 467.34 568.877 420.714 608.053Z" fill="#FFDABE"/>
</g>
<defs>
<clipPath id="clip0_824_8862">
<rect width="375" height="812" fill="white"/>
</clipPath>
</defs>
</svg>
