<svg width="375" height="812" viewBox="0 0 375 812" fill="none" xmlns="http://www.w3.org/2000/svg">
<g clip-path="url(#clip0_824_8914)">
<rect width="375" height="812" fill="#E5EAD7"/>
<g opacity="0.48" clip-path="url(#clip1_824_8914)">
<path d="M177.32 -6.05231C81.3958 17.7066 -9.13152 90.1814 -60.968 184.799C-74.4625 209.445 -85.6829 236.411 -86.3749 263.41C-87.0528 290.385 -75.1856 299.804 -52.5637 308.152C-22.4934 319.273 64.3017 302.268 95.6871 303.325C112.699 303.884 168.633 298.248 170.744 316.27C172.132 328.318 162.758 335.191 154.292 344.766C132.663 369.201 109.929 380.029 100.166 411.086C93.8365 431.158 99.0304 452.39 110.035 467.324C121.025 482.282 137.137 491.779 153.858 498.898C196.374 517.009 244.31 521.511 292.149 520.888C351.386 520.116 413.633 510.975 468.237 477.108C482.788 468.088 498.188 454.748 500.095 437.551C502.196 418.646 487.189 405.658 473.586 395.887C451.513 380.023 429.426 364.184 407.331 348.307C394.001 338.726 379.399 326.46 380.302 308.001C381.08 292.557 392.759 278.791 404.753 268.653C423.77 252.558 446.412 244.537 467.229 232.602C485.078 222.399 515.147 200.14 513.938 175.618C513.689 170.502 511.613 165.956 508.932 162.1C496.177 143.686 470.738 136.604 450.066 131.494C423.255 124.855 395.378 121.436 367.083 121.286C335.329 121.121 302.154 124.945 273.352 114.07C263.876 110.484 254.27 104.222 252.568 93.3272C249.406 73.1056 273.864 56.5447 280.216 35.7712C287.883 10.6861 265.932 -10.2748 243.12 -13.6625C220.316 -17.013 205.555 -11.8523 177.32 -6.05231Z" fill="#F2F5EB"/>
</g>
</g>
<defs>
<clipPath id="clip0_824_8914">
<rect width="375" height="812" fill="white"/>
</clipPath>
<clipPath id="clip1_824_8914">
<rect width="680.504" height="493.194" fill="white" transform="translate(74.8438 -114.695) rotate(30)"/>
</clipPath>
</defs>
</svg>
