<svg width="375" height="812" viewBox="0 0 375 812" fill="none" xmlns="http://www.w3.org/2000/svg">
<g clip-path="url(#clip0_824_8802)">
<rect width="375" height="812" fill="#E1E1E0"/>
<path d="M-49.9483 316.253C-57.6486 310.746 -62.2271 294.47 -60.1113 280.335C-57.9608 266.201 -49.3586 256.166 -41.138 258.185C-36.9063 259.225 -33.0909 262.958 -29.3795 266.629C-24.6622 271.28 -19.9449 275.991 -15.2276 280.641C-26.9861 273.36 -32.6746 247.783 -30.1079 226.245C-28.2348 210.764 -22.2341 195.956 -13.5626 191.918C-6.48668 188.614 1.04019 192.775 7.52648 198.71C27.6791 216.944 41.7963 250.537 53.7977 284.435C50.0516 275.318 54.2139 261.306 60.2839 257.634C66.354 254.024 73.0137 257.818 78.7369 262.835C91.5014 274.094 102.115 295.633 109.469 317.232L-49.9483 316.253Z" fill="#F5F5F5"/>
<path d="M477.443 362.994C487.318 356.012 493.19 335.376 490.477 317.456C487.719 299.535 476.687 286.812 466.145 289.372C460.718 290.691 455.825 295.423 451.065 300.078C445.015 305.974 438.966 311.947 432.916 317.843C447.996 308.612 455.291 276.184 451.999 248.876C449.597 229.249 441.901 210.475 430.781 205.355C421.706 201.166 412.053 206.441 403.735 213.966C377.891 237.084 359.786 279.675 344.395 322.653C349.199 311.094 343.861 293.329 336.077 288.674C328.292 284.097 319.751 288.907 312.412 295.268C296.042 309.543 282.43 336.85 273 364.235L477.443 362.994Z" fill="#F5F5F5"/>
<path d="M-84.1009 810.899C-93.3856 804.384 -98.9512 784.93 -96.3662 768.091C-93.7813 751.252 -83.3623 739.277 -73.4445 741.663C-68.3537 742.902 -63.7113 747.352 -59.2272 751.757C-53.5298 757.309 -47.8323 762.86 -42.1349 768.412C-56.3258 759.694 -63.2102 729.275 -60.0977 703.626C-57.8556 685.182 -50.5755 667.563 -40.1038 662.746C-31.5577 658.8 -22.4839 663.801 -14.5972 670.821C9.7489 692.569 26.8149 732.532 41.2959 772.908C36.7591 762.034 41.7971 745.333 49.1299 741.02C56.4364 736.707 64.5078 741.204 71.4186 747.214C86.8228 760.658 99.6685 786.26 108.531 812L-84.1009 810.899Z" fill="#F5F5F5"/>
<path d="M522.805 731.525C537.352 721.268 546.072 690.643 542.022 664.134C537.972 637.626 521.648 618.774 506.11 622.53C498.134 624.48 490.86 631.486 483.835 638.42C474.908 647.16 465.982 655.9 457.055 664.64C479.289 650.916 490.075 603.028 485.199 562.651C481.686 533.615 470.28 505.878 453.873 498.294C440.484 492.083 426.267 499.956 413.911 511.007C375.767 545.244 349.029 608.156 326.341 671.718C333.449 654.6 325.555 628.308 314.067 621.519C302.619 614.729 289.974 621.808 279.146 631.27C255.012 652.433 234.886 692.737 221 733.258L522.805 731.525Z" fill="#F5F5F5"/>
<path d="M139.224 103.907C130.877 98.5369 125.893 82.4998 128.219 68.6397C130.545 54.7796 139.889 44.8381 148.776 46.8699C153.344 47.8858 157.497 51.5867 161.525 55.215C166.633 59.7867 171.741 64.3583 176.85 69.0025C164.1 61.8185 157.912 36.7107 160.736 15.594C162.73 0.4277 169.291 -14.1581 178.677 -18.1492C186.36 -21.4147 194.499 -17.2784 201.559 -11.4731C223.404 6.45068 238.728 39.4682 251.726 72.7034C247.657 63.7052 252.183 49.9902 258.745 46.362C265.306 42.8062 272.533 46.5071 278.72 51.5141C292.55 62.6167 304.095 83.7334 312.027 104.923L139.224 103.907Z" fill="#F5F5F5"/>
</g>
<defs>
<clipPath id="clip0_824_8802">
<rect width="375" height="812" fill="white"/>
</clipPath>
</defs>
</svg>
