<svg width="375" height="812" viewBox="0 0 375 812" fill="none" xmlns="http://www.w3.org/2000/svg">
<g clip-path="url(#clip0_824_8782)">
<rect width="375" height="812" fill="#F2EFFA"/>
<path opacity="0.48" fill-rule="evenodd" clip-rule="evenodd" d="M382.219 522.195C395.461 522.195 406.196 511.46 406.196 498.218C406.196 484.975 395.461 474.24 382.219 474.24C368.976 474.24 358.241 484.975 358.241 498.218C358.241 511.46 368.976 522.195 382.219 522.195ZM382.219 544.436C407.744 544.436 428.437 523.743 428.437 498.218C428.437 472.692 407.744 452 382.219 452C356.693 452 336.001 472.692 336.001 498.218C336.001 523.743 356.693 544.436 382.219 544.436Z" fill="#9BB167" fill-opacity="0.31"/>
<path opacity="0.72" fill-rule="evenodd" clip-rule="evenodd" d="M284.284 441.362C290.955 441.362 296.363 435.954 296.363 429.283C296.363 422.612 290.955 417.204 284.284 417.204C277.613 417.204 272.205 422.612 272.205 429.283C272.205 435.954 277.613 441.362 284.284 441.362ZM284.284 452.565C297.142 452.565 307.566 442.141 307.566 429.283C307.566 416.424 297.142 406 284.284 406C271.425 406 261.001 416.424 261.001 429.283C261.001 442.141 271.425 452.565 284.284 452.565Z" fill="#9BB167" fill-opacity="0.31"/>
<path opacity="0.72" fill-rule="evenodd" clip-rule="evenodd" d="M61.8188 335.894C68.4898 335.894 73.8977 330.486 73.8977 323.815C73.8977 317.144 68.4898 311.736 61.8188 311.736C55.1477 311.736 49.7398 317.144 49.7398 323.815C49.7398 330.486 55.1477 335.894 61.8188 335.894ZM61.8188 347.098C74.6774 347.098 85.1014 336.674 85.1014 323.815C85.1014 310.956 74.6774 300.532 61.8188 300.532C48.9601 300.532 38.5361 310.956 38.5361 323.815C38.5361 336.674 48.9601 347.098 61.8188 347.098Z" fill="#9BB167" fill-opacity="0.31"/>
<path opacity="0.48" fill-rule="evenodd" clip-rule="evenodd" d="M93.8266 559.502C120.71 559.502 142.503 537.709 142.503 510.826C142.503 483.942 120.71 462.149 93.8266 462.149C66.9433 462.149 45.1501 483.942 45.1501 510.826C45.1501 537.709 66.9433 559.502 93.8266 559.502ZM93.8266 604.651C145.645 604.651 187.652 562.644 187.652 510.826C187.652 459.007 145.645 417 93.8266 417C42.0081 417 0.000976562 459.007 0.000976562 510.826C0.000976562 562.644 42.0081 604.651 93.8266 604.651Z" fill="#9BB167" fill-opacity="0.31"/>
<path opacity="0.48" fill-rule="evenodd" clip-rule="evenodd" d="M330 47.6541C355.214 47.6541 375.654 27.2141 375.654 2C375.654 -23.2141 355.214 -43.6541 330 -43.6541C304.786 -43.6541 284.346 -23.2141 284.346 2C284.346 27.2141 304.786 47.6541 330 47.6541ZM330 90C378.601 90 418 50.6011 418 2C418 -46.6011 378.601 -86 330 -86C281.399 -86 242 -46.6011 242 2C242 50.6011 281.399 90 330 90Z" fill="#9BB167" fill-opacity="0.31"/>
<path fill-rule="evenodd" clip-rule="evenodd" d="M282.482 734.189C308.569 734.189 329.716 713.041 329.716 686.955C329.716 660.868 308.569 639.721 282.482 639.721C256.395 639.721 235.248 660.868 235.248 686.955C235.248 713.041 256.395 734.189 282.482 734.189ZM282.482 778C332.765 778 373.528 737.238 373.528 686.955C373.528 636.672 332.765 595.909 282.482 595.909C232.199 595.909 191.437 636.672 191.437 686.955C191.437 737.238 232.199 778 282.482 778Z" fill="#9BB167" fill-opacity="0.31"/>
<circle opacity="0.64" cx="4.5" cy="61.5" r="28.5" fill="#9BB167" fill-opacity="0.31"/>
<circle opacity="0.64" cx="259.895" cy="536.486" r="24.6727" fill="#9BB167" fill-opacity="0.31"/>
<circle cx="129.234" cy="680.352" r="24.6727" fill="#9BB167" fill-opacity="0.31"/>
<circle opacity="0.32" cx="153.907" cy="324.162" r="40.3103" fill="#9BB167" fill-opacity="0.31"/>
</g>
<defs>
<clipPath id="clip0_824_8782">
<rect width="375" height="812" fill="white"/>
</clipPath>
</defs>
</svg>
