<svg width="64" height="64" viewBox="0 0 64 64" fill="none" xmlns="http://www.w3.org/2000/svg">
<rect width="64" height="64" rx="32" fill="#4F3422"/>
<path fill-rule="evenodd" clip-rule="evenodd" d="M33.8386 19.5823C33.4651 20.6041 32.4843 21.3333 31.3333 21.3333C30.2073 21.3333 29.2443 20.6355 28.8533 19.6486H25.6292C25.4875 20.2328 24.9611 20.6667 24.3333 20.6667C23.597 20.6667 23 20.0697 23 19.3333C23 18.597 23.597 18 24.3333 18C24.6812 18 24.9979 18.1332 25.2353 18.3514H28.6851C28.8411 17.0272 29.9672 16 31.3333 16C32.6747 16 33.7848 16.9905 33.9721 18.28L37.7883 19.2012C38.1278 18.1187 39.1388 17.3333 40.3333 17.3333C41.8061 17.3333 43 18.5272 43 20C43 21.4728 41.8061 22.6667 40.3333 22.6667C39.038 22.6667 37.9583 21.7431 37.717 20.5185L33.8386 19.5823ZM40.6667 31C40.8446 31 41.0185 30.9826 41.1867 30.9493L42.8816 33.4917C42.7462 33.6822 42.6666 33.9152 42.6666 34.1667C42.6666 34.811 43.189 35.3333 43.8333 35.3333C44.4776 35.3333 45 34.811 45 34.1667C45 34.1305 44.9983 34.0947 44.9951 34.0594L49.1877 31.5439C49.4863 31.8266 49.8896 32 50.3333 32C51.2538 32 52 31.2538 52 30.3333C52 29.4129 51.2538 28.6667 50.3333 28.6667C50.2689 28.6667 50.2053 28.6703 50.1428 28.6774L48.3483 26.1439C48.7487 25.7782 49 25.2518 49 24.6667C49 23.5621 48.1046 22.6667 47 22.6667C45.8954 22.6667 45 23.5621 45 24.6667C45 25.7712 45.8954 26.6667 47 26.6667C47.0423 26.6667 47.0843 26.6654 47.126 26.6628L49.0091 29.3212C48.7943 29.6018 48.6666 29.9527 48.6666 30.3333L48.6667 30.3436L44.1614 33.0468L44.1401 33.0408L42.3698 30.3853C42.9585 29.8962 43.3333 29.1585 43.3333 28.3333C43.3333 26.8606 42.1394 25.6667 40.6667 25.6667C39.7837 25.6667 39.001 26.0958 38.5157 26.7569L35.654 25.2068C35.6624 25.139 35.6667 25.07 35.6667 25C35.6667 24.0795 34.9205 23.3333 34 23.3333C33.0796 23.3333 32.3334 24.0795 32.3334 25C32.3334 25.9205 33.0796 26.6667 34 26.6667C34.3771 26.6667 34.725 26.5414 35.0043 26.3303L38.025 27.9665C38.0085 28.0864 38 28.2089 38 28.3333C38 29.8061 39.1939 31 40.6667 31ZM28.3333 25.3333C28.3333 25.8404 28.1918 26.3143 27.9462 26.7179L29.6531 28.5467C30.077 28.4082 30.5298 28.3333 31 28.3333C33.3932 28.3333 35.3333 30.2734 35.3333 32.6667C35.3333 34.5835 34.0887 36.2096 32.3636 36.7811L31.6928 39.8664C31.9236 40.0804 32.1038 40.3481 32.2135 40.6497L36.7034 38.3499C36.6793 38.2371 36.6666 38.12 36.6666 38C36.6666 37.0795 37.4128 36.3333 38.3333 36.3333C39.2538 36.3333 40 37.0795 40 38C40 38.9205 39.2538 39.6667 38.3333 39.6667C38.0131 39.6667 37.7141 39.5764 37.4602 39.4199L32.1682 42.1304C31.8603 42.8383 31.1546 43.3333 30.3334 43.3333C29.2288 43.3333 28.3334 42.4379 28.3334 41.3333C28.3334 40.2288 29.2288 39.3333 30.3334 39.3333C30.3827 39.3333 30.4316 39.3351 30.48 39.3386L30.9884 37C28.6005 36.9937 26.6666 35.056 26.6666 32.6667C26.6666 31.2257 27.3699 29.949 28.452 29.1612L27.0228 27.6299C26.6255 27.865 26.1618 28 25.6667 28C24.1939 28 23 26.8061 23 25.3333C23 25.3074 23.0004 25.2816 23.0011 25.2559L19.7265 24.2484C19.4286 24.7011 18.9158 25 18.3333 25C18.3198 25 18.3064 24.9998 18.293 24.9995L15.9225 27.8969C16.1809 28.2537 16.3333 28.6924 16.3333 29.1667C16.3333 29.2216 16.3313 29.276 16.3273 29.3299L18.4973 29.8724C18.8046 29.163 19.511 28.6667 20.3334 28.6667C21.4379 28.6667 22.3334 29.5621 22.3334 30.6667C22.3334 31.7712 21.4379 32.6667 20.3334 32.6667C19.4083 32.6667 18.6299 32.0386 18.4014 31.1856L15.8385 30.5449C15.4411 31.0264 14.8397 31.3333 14.1667 31.3333C12.97 31.3333 12 30.3633 12 29.1667C12 27.97 12.97 27 14.1667 27C14.4171 27 14.6576 27.0425 14.8814 27.1206L17.0806 24.4327C16.8229 24.1393 16.6666 23.7546 16.6666 23.3333C16.6666 22.4129 17.4128 21.6667 18.3333 21.6667C19.1263 21.6667 19.7899 22.2205 19.9585 22.9624L23.3528 24.0068C23.8129 23.206 24.6768 22.6667 25.6667 22.6667C27.1394 22.6667 28.3333 23.8606 28.3333 25.3333ZM23.3333 48C24.622 48 25.6667 46.9553 25.6667 45.6667C25.6667 44.8659 25.2633 44.1593 24.6486 43.7391V39.9869C25.4556 39.5284 26 38.6611 26 37.6667C26 36.1939 24.8061 35 23.3333 35C22.2111 35 21.2507 35.6932 20.8572 36.6748L17.6421 35.6856C17.4912 34.7304 16.6642 34 15.6666 34C14.5621 34 13.6666 34.8954 13.6666 36C13.6666 37.1046 14.5621 38 15.6666 38C16.4181 38 17.0727 37.5856 17.4145 36.9729L20.6847 37.9791C20.8394 39.3046 21.9662 40.3333 23.3333 40.3333L23.3514 40.3333V43.3334L23.3333 43.3333C22.0447 43.3333 21 44.378 21 45.6667C21 46.9553 22.0447 48 23.3333 48Z" fill="white"/>
</svg>
